<?xml version="1.0" encoding="utf-8"?>
<!-- Generator: Adobe Illustrator 16.0.3, SVG Export Plug-In . SVG Version: 6.00 Build 0)  -->
<!DOCTYPE svg PUBLIC "-//W3C//DTD SVG 1.1//EN" "http://www.w3.org/Graphics/SVG/1.1/DTD/svg11.dtd">
<svg version="1.1" id="PILLS" xmlns="http://www.w3.org/2000/svg" xmlns:xlink="http://www.w3.org/1999/xlink" x="0px" y="0px"
	 width="200px" height="136px" viewBox="0 0 200 136" enable-background="new 0 0 200 136" xml:space="preserve">
<path fill="#B0063A" d="M200,128c0,4.418-3.582,8-8,8H8c-4.418,0-8-3.582-8-8V8c0-4.418,3.582-8,8-8h184c4.418,0,8,3.582,8,8V128z"
	/>
<g>
	<path fill="none" d="M182.521,71.561c0,0,10.849,9.83,17.479,25.959V8c0-4.418-3.582-8-8-8h-66.5
		c3.456,1.568,6.93,3.323,10.434,5.307C171.17,25.253,179.566,48.427,182.521,71.561z"/>
	<path fill="none" d="M160.828,136H192c4.369,0,7.913-3.502,7.993-7.852C189.419,126.881,174.971,128,160.828,136z"/>
	<path fill="none" d="M5.173,51.397c0,0-2.012-1.646-5.173-4.737v81.738C0,132.818,3.582,136,8,136h71.962
		c-11.479-6-24.588-10.877-38.829-13.029C43.112,98.945,11.265,92.751,5.173,51.397z"/>
	<path fill="#FFFFFF" d="M199.993,128.348c0-0.05,0.007,0.103,0.007,0.053v-4.186C184.591,123.009,167.529,126,151.891,136h8.938
		C174.971,128,189.419,127.081,199.993,128.348z"/>
	<path fill="#FFFFFF" d="M13.946,48.68c0,0-6.446-4.796-13.946-13.548v11.529c3.161,3.09,5.173,4.737,5.173,4.737
		c6.091,41.354,37.938,47.547,35.96,71.573C55.374,125.123,68.483,130,79.962,136h11.512c-12.663-8-27.372-15.234-41.77-17.467
		C47.376,94.402,18.6,87.919,13.946,48.68z"/>
	<path fill="#FFFFFF" d="M178.797,74.636c0,0,16.787,15.185,21.203,37.835V97.52c-6.63-16.129-17.479-25.959-17.479-25.959
		c-2.955-23.133-11.352-46.307-46.588-66.253C132.428,3.323,128.956,1.568,125.5,0h-14.227c7.254,2.468,14.783,5.707,22.852,10.154
		C169.661,29.742,176.331,56.291,178.797,74.636z"/>
	<path d="M11.317,0H8C6.153,0,4.458,0.632,3.104,1.683l22.428,7.284C25.532,8.966,19.207,5.423,11.317,0z"/>
	<path d="M200,124.214v-11.743c-4.417-22.652-21.203-37.835-21.203-37.835c-2.466-18.345-9.136-44.894-44.672-64.482
		C126.057,5.707,118.527,2.468,111.273,0h-37.97c20.667,3.113,39.313,5.749,56.313,15.07c37.202,20.401,38.93,40.304,41.592,52.944
		c-36.433,6.759-34.679-40.287-98.149-44.123c46.146,57.093,52.816,97.359,28.623,109.257
		c-12.667-10.895-28.912-19.278-41.516-24.097c-1.48-15.565-29.344-32.94-31.683-53.106l18.019,1.297
		c0,0-29.299-14.464-42.218-35.931l31.181,10.079c0,0-22.132-11.753-35.435-24.004C0.016,7.591,0,7.793,0,8v27.131
		C7.5,43.884,13.946,48.68,13.946,48.68c4.653,39.239,33.43,45.724,35.758,69.854C64.102,120.766,78.811,128,91.474,136h60.417
		C167.529,126,184.591,123.009,200,124.214z M171.415,78.364c9.624,6.09,23.024,23.515,25.069,38.442
		c-8.889-8.844-27.555-17.871-50.264-20.595C155.895,93.525,166.902,87.602,171.415,78.364z M113.354,47.058
		c6.125,7.565,14.03,15.227,22.754,20.45l-9.944-0.601c4.917,16.36,18.704,20.012,26.853,6.886c1.271,0.167,2.541,0.255,3.812,0.27
		C145.573,99.436,111.559,83.215,113.354,47.058z M147.893,129.139c3.739-12.722-3.063-24.296-3.063-24.296
		c19.903-1.946,41.853,7.286,50.737,14.806C181.674,116.844,162.656,120.861,147.893,129.139z"/>
	<path fill="#B1063A" d="M4.284,21.313C17.203,42.78,46.502,57.244,46.502,57.244l-18.019-1.297
		c2.339,20.166,30.203,37.541,31.683,53.105c12.604,4.818,28.85,13.202,41.516,24.096c24.193-11.897,17.523-52.164-28.623-109.256
		c63.47,3.836,61.716,50.883,98.149,44.123c-2.663-12.64-4.392-32.542-41.592-52.944C112.616,5.749,93.969,3.113,73.303,0H11.317
		c7.889,5.423,14.215,8.966,14.215,8.966L3.104,1.683C1.37,3.028,0.207,5.068,0.031,7.388
		c13.302,12.251,35.435,24.004,35.435,24.004L4.284,21.313z"/>
	<path fill="#FFC20E" d="M196.484,116.809c-2.047-14.929-15.446-32.354-25.07-38.443c-4.512,9.236-15.521,15.162-25.195,17.848
		C168.93,98.936,187.596,107.964,196.484,116.809z"/>
	<path fill="#FFFFFF" d="M156.829,74.062c-1.272-0.015-2.543-0.103-3.812-0.271c-8.149,13.126-21.937,9.476-26.854-6.886
		l9.945,0.601c-8.725-5.223-16.631-12.884-22.754-20.45C111.559,83.215,145.573,99.436,156.829,74.062z"/>
	<path fill="#FFC20E" d="M144.829,104.843c0,0,6.803,11.574,3.063,24.296c14.765-8.275,33.782-12.293,47.674-9.49
		C186.682,112.129,164.73,102.896,144.829,104.843z"/>
</g>
</svg>
