<?xml version="1.0" encoding="utf-8"?>
<!-- Generator: Adobe Illustrator 16.0.3, SVG Export Plug-In . SVG Version: 6.00 Build 0)  -->
<!DOCTYPE svg PUBLIC "-//W3C//DTD SVG 1.1//EN" "http://www.w3.org/Graphics/SVG/1.1/DTD/svg11.dtd">
<svg version="1.1" id="PILLS" xmlns="http://www.w3.org/2000/svg" xmlns:xlink="http://www.w3.org/1999/xlink" x="0px" y="0px"
	 width="200px" height="136px" viewBox="0 0 200 136" enable-background="new 0 0 200 136" xml:space="preserve">
<path fill="#005596" d="M200,128c0,4.418-3.582,8-8,8H8c-4.418,0-8-3.582-8-8V8c0-4.418,3.582-8,8-8h184c4.418,0,8,3.582,8,8V128z"
	/>
<g>
	<path fill="none" d="M194.958,80.158c0,0-0.976,2.802-2.913,7.891c0,0-1.494,7.003-11.667,7.391c0,0-9.901,12.531-14.028,16.127
		l-0.35-3.045c0,0-6.908,6.398-12.9,10.176l2.026-17.733c0,0,0.493-3.166-1.517-3.396l-5.172-0.121c0,0,1.693,10.672-0.354,15.604
		c0,0-1.304,7.75-13.323,11.441c0,0-9.289,2.958-19.914,3.785l-2.285-0.361l-16.728,6.854l4.89-17.541c0,0-6.271,0.635-6.811-0.146
		l-18.628,7.981l7.32-20.98l5.018-2.777l-1.6-2.179l-10.3,0.095l-3.79,2.945c-8.748-2.275-17.255-1.665-17.255-1.665l-43.288,34.937
		L11.049,136H192c4.418,0,8-3.182,8-7.602V72.716C198.48,74.471,196.126,77.434,194.958,80.158z"/>
	<path fill="none" d="M61.616,31.02c0,0,2.685-4.681,17.379-13.136c0,0,13.477-7.937,28.823-13.016c0,0,10.404-3.578,13.474-3.759
		L120.988,0H8C3.582,0,0,3.582,0,8v50.104l19.268-1.624C19.268,56.48,35.889,41.65,61.616,31.02z"/>
	<path fill="none" d="M181.68,17.766c0,0,9.576-0.53,18.32,3.492V8c0-4.418-3.582-8-8-8h-27.585
		C169.292,3.428,176.021,9.183,181.68,17.766z"/>
	<path fill="none" d="M0,91.418v7.414c3.841-4.807,5.32-8.178,5.32-8.178L0,91.418z"/>
	<path fill="#FFFFFF" d="M177.924,63.764c-2.732,12.765,7.604,8.113,7.604,8.113c-6.688-4.717-0.635-8.074-0.635-8.074
		c-5.785-9.832,10.896-21.234,10.896-21.234L25.212,56.58c18.317-14.988,43.491-24.078,43.491-24.078l-2.237-1.229l4.187-1.973
		l0.603-1.803C104.205,5.437,127.43,4.359,127.43,4.359l-1.046-3.115c11.263-1.177,16.425-1.14,16.425-1.14L142.846,0h-21.857
		l0.304,1.109c-3.067,0.181-13.474,3.759-13.474,3.759c-15.346,5.08-28.823,13.016-28.823,13.016
		C64.301,26.339,61.616,31.02,61.616,31.02C35.889,41.65,19.268,56.48,19.268,56.48L0,58.104v3.949L179.348,46.63
		c-10.757,8.925-3.336,14.571-3.336,14.571L0,87.434v3.984l5.32-0.764c0,0-1.479,3.371-5.32,8.178v6.18
		C8.372,96.09,10.007,89.17,10.007,89.17L177.924,63.764z"/>
	<path fill="#FFFFFF" d="M54.679,100.504c0,0,8.508-0.609,17.255,1.665l3.79-2.946l10.3-0.094l1.6,2.18l-5.018,2.776l-7.32,20.981
		l18.628-7.982c0.54,0.78,6.811,0.146,6.811,0.146l-4.89,17.541l16.728-6.854l2.285,0.36c10.625-0.827,19.914-3.784,19.914-3.784
		c12.021-3.691,13.323-11.441,13.323-11.441c2.047-4.932,0.354-15.604,0.354-15.604l5.172,0.122
		c2.009,0.229,1.517,3.395,1.517,3.395l-2.026,17.733c5.994-3.776,12.9-10.175,12.9-10.175l0.35,3.045
		c4.127-3.599,14.028-16.129,14.028-16.129c10.172-0.387,11.667-7.39,11.667-7.39c1.938-5.089,2.913-7.891,2.913-7.891
		c1.168-2.726,3.522-5.688,5.042-7.442v-6.828c-1.711,3.656-3.332,5.173-3.332,5.173c-4.896,4.822-6.089,9.72-6.089,9.72
		c-2.53,6.979-3.433,7.88-3.433,7.88c-1.949,3.199-9.879,3.043-9.879,3.043c-1.854,4.477-9.076,12.295-9.076,12.295l-0.66-2.227
		l-9.533,8.49l1.494-11.815c0.542-4.032-3.801-4.959-3.801-4.959l-20.84,0.909c-3.047,14.186-13.998,16.351-13.998,16.351
		c-15.787,3.196-26.279,2.544-26.279,2.544l-0.673-0.507l-12.057,5.245l4.25-11.78l6.426-2.549c0.494-0.156,0.313-0.817,0.313-0.817
		l-0.613-1.89c6.619-0.601,12.661-5.243,12.661-5.243c0.77-0.626-0.386-0.891-0.386-0.891L73.824,95.54l-2.419,2.321
		c-26.494-4.387-44.64,3.357-44.64,3.357C14.849,105.658,5.639,114.096,0,120.407v7.991c0,0.726,0.105,1.424,0.285,2.091
		c4.782-4.548,4.817-9.423,4.817-9.423c17.512-20.629,43.082-20.322,43.082-20.322L8.275,133.076l-1.456,3.025
		C7.206,136.16,7.598,136,8,136h3.049l0.343-0.559L54.679,100.504z M105.249,115.811c0,0,14.45-1.115,18.817-2.427
		c0,0,11.205-2.198,12.881-16.36l7.207-0.082c0,0,1.441,9.507,0.585,13.752c0,0-1.421,6.306-7.859,8.771
		c0,0-9.481,4.017-23.705,4.929l-0.686-0.59l-10.781,4.545L105.249,115.811z"/>
	<path fill="#FFFFFF" d="M159.014,1.06c17.56,12.158,20.103,21.024,20.103,21.024c12.741-1.042,19.55,2.712,19.55,2.712
		c0.479,0.206,0.918,0.443,1.335,0.698v-4.237c-8.744-4.022-18.321-3.492-18.321-3.492C176.021,9.183,169.292,3.428,164.415,0
		H151.02c4.151,1.195,6.719,2.96,6.719,2.96L159.014,1.06z"/>
	<path fill="#DA2128" d="M179.348,46.63L0,62.053v25.381l176.012-26.232C176.012,61.201,168.591,55.556,179.348,46.63z"/>
	<path fill="#005496" d="M26.765,101.219c0,0,18.146-7.744,44.64-3.357l2.419-2.321l30.672-0.677c0,0,1.154,0.264,0.386,0.89
		c0,0-6.042,4.644-12.661,5.243l0.613,1.89c0,0,0.181,0.662-0.313,0.817l-6.426,2.549l-4.25,11.78l12.057-5.245l0.673,0.507
		c0,0,10.493,0.651,26.28-2.544c0,0,10.951-2.165,13.998-16.35l20.84-0.91c0,0,4.343,0.927,3.8,4.959L158,110.264l9.531-8.49
		l0.66,2.226c0,0,7.223-7.819,9.076-12.295c0,0,7.93,0.157,9.879-3.043c0,0,0.902-0.902,3.433-7.88c0,0,1.192-4.897,6.089-9.721
		c0,0,1.621-1.517,3.332-5.172V25.495c-0.417-0.255-0.855-0.492-1.335-0.698c0,0-6.81-3.754-19.55-2.712
		c0,0-2.542-8.867-20.104-21.024l-1.273,1.9c0,0-2.567-1.765-6.719-2.96h-8.174l-0.039,0.104c0,0-5.162-0.037-16.424,1.14
		l1.045,3.115c0,0-23.224,1.078-56.173,23.138L70.652,29.3l-4.187,1.973l2.237,1.229c0,0-25.174,9.089-43.491,24.078l170.575-14.011
		c0,0-16.681,11.402-10.896,21.234c0,0-6.052,3.357,0.635,8.074c0,0-10.336,4.652-7.604-8.113L10.007,89.171
		c0,0-1.635,6.92-10.007,15.843v15.395C5.639,114.096,14.849,105.658,26.765,101.219z"/>
	<path fill="#005496" d="M113.175,124.393c14.224-0.912,23.705-4.929,23.705-4.929c6.438-2.465,7.858-8.771,7.858-8.771
		c0.857-4.246-0.584-13.752-0.584-13.752l-7.207,0.082c-1.678,14.162-12.881,16.36-12.881,16.36
		c-4.367,1.312-18.817,2.427-18.817,2.427l-3.541,12.537l10.78-4.545L113.175,124.393z"/>
	<path fill="#005496" d="M48.184,100.744c0,0-25.57-0.309-43.082,20.322c0,0-0.035,4.875-4.817,9.423
		c0.82,3.032,3.373,5.345,6.534,5.812l1.456-3.227L48.184,100.744z"/>
</g>
</svg>
