<?xml version="1.0" encoding="utf-8"?>
<!-- Generator: Adobe Illustrator 16.0.3, SVG Export Plug-In . SVG Version: 6.00 Build 0)  -->
<!DOCTYPE svg PUBLIC "-//W3C//DTD SVG 1.1//EN" "http://www.w3.org/Graphics/SVG/1.1/DTD/svg11.dtd">
<svg version="1.1" id="PILLS" xmlns="http://www.w3.org/2000/svg" xmlns:xlink="http://www.w3.org/1999/xlink" x="0px" y="0px"
	 width="200px" height="136px" viewBox="0 0 200 136" enable-background="new 0 0 200 136" xml:space="preserve">
<path fill="#00123F" d="M200,128c0,4.418-3.582,8-8,8H8c-4.418,0-8-3.582-8-8V8c0-4.418,3.582-8,8-8h184c4.418,0,8,3.582,8,8V128z"
	/>
<g>
	<path fill="none" d="M197.139,101.691c-7.078,8.404-9.789,10.822-18.178,17.318c-11.704,8.325-23.99,13.99-37.882,16.99H192
		c4.418,0,8-3.182,8-7.602V97.824C199.059,99.268,198.09,100.566,197.139,101.691z"/>
	<path fill="none" d="M25.831,106.43c-4.15-4.597-5.699-7.203-7.194-9.727c0,0-2.304-3.645-2.365-3.744
		C11.65,84.766,9.815,82.936,7.18,80.286C5.94,78.708,3.14,76.691,0,75.119v53.279C0,132.818,3.582,136,8,136h67.815
		c-5.511-1-10.458-2.932-14.878-5.124C44.304,124.812,29.023,110.91,25.831,106.43z"/>
	<path fill="none" d="M17.846,43.142c5.02-11.105,16.159-26.481,40.662-36.62C63.571,4.025,69.904,1.745,77.243,0H8
		C3.582,0,0,3.582,0,8v58.355c2.898-1.822,5.851-4.048,7.876-6.158C11.452,55.779,14.62,50.361,17.846,43.142z"/>
	<path fill="none" d="M154.234,43.697c-11.808-11.086-43.062-21.331-75.582-9.415c-16.811,6.361-28.116,19.053-28.8,32.333
		c-0.668,13.027,8.841,25.148,26.725,34.109c19.133,8.467,44.602,8.363,64.826-0.234c7.748-3.791,21.246-12.148,24.584-25.551
		l0.229-0.91L200,74.066V43.979l-45.419,0.042L154.234,43.697z"/>
	<path fill="none" d="M200,38.466V8c0-4.418-3.582-8-8-8h-53.352c0.666,0.144,1.332,0.282,2.002,0.436
		C155.514,3.183,188.214,15.939,200,38.466z"/>
	<path fill="#00143F" d="M15.191,56.586c2.502-3.948,3.489-6.177,4.857-9.262l1.462-3.24c4.408-9.374,11.821-17.967,21.433-24.845
		C52.341,12.945,62.75,7.903,71.471,5.418c37.905-11.011,76.662-1.795,93.464,7.244C171.58,15.71,189.551,27,196.822,40
		c-3.338,0-39.854,0-40.49,0c-28.193-22-66.225-16.12-84.981-6.966c-7.579,4.208-11.981,7.723-17.497,13.601
		c-8.56,10.36-13.165,28.074,1.885,43.891c6.805,6.615,13.608,11.133,22.086,14.604c19.61,8.132,47.128,7.43,66.913-1.997
		C157.379,96.536,165.771,88,169.169,78c1.127,0,22.356,0,30.831,0v-3.934l-33.783-0.037l-0.229,0.91
		c-3.338,13.401-16.836,21.76-24.584,25.551c-20.225,8.599-45.693,8.701-64.826,0.234c-17.884-8.961-27.394-21.082-26.725-34.109
		c0.684-13.28,11.989-25.972,28.8-32.333c32.519-11.916,63.773-1.671,75.582,9.415l0.346,0.323L200,43.979v-5.513
		c-11.786-22.527-44.486-35.283-59.35-38.03c-0.67-0.154-1.336-0.292-2.002-0.436H77.243c-7.339,1.745-13.672,4.025-18.735,6.522
		C34.005,16.66,22.866,32.036,17.846,43.142c-3.227,7.219-6.394,12.637-9.97,17.055C5.851,62.307,2.898,64.533,0,66.355v4.32
		C3.766,68.71,10.488,64.375,15.191,56.586z"/>
	<path fill="#00143F" d="M197.139,101.691c0.951-1.125,1.92-2.424,2.861-3.867v-7.891c-2.339,5.25-6.299,11.028-13.369,17.871
		c-0.001,0-1.441,1.295-1.441,1.295c-6.272,5.66-14.864,13.418-31.657,19.549c-28.636,11.109-71.465,9.826-95.495-2.848
		c-0.013-0.009-1.509-0.762-1.509-0.762c-5.4-2.7-12.796-6.4-22.115-15.064c-6.501-5.976-11.035-11.873-16.731-21.771
		C11.705,77.27,4.278,73.018,0,71.141v3.979c3.141,1.572,5.94,3.589,7.18,5.167c2.635,2.647,4.47,4.479,9.091,12.673
		c0.062,0.1,2.365,3.744,2.365,3.744c1.496,2.523,3.044,5.13,7.194,9.727c3.192,4.48,18.474,18.383,35.106,24.446
		c4.42,2.192,9.367,4.124,14.878,5.124h65.264c13.893-3,26.178-8.665,37.882-16.99C187.35,112.514,190.061,110.096,197.139,101.691z
		"/>
	<path fill="#FFFFFF" d="M17.683,88.204c5.696,9.897,10.229,15.795,16.731,21.771c9.319,8.664,16.715,12.364,22.115,15.064
		c0,0,1.496,0.753,1.509,0.762c24.03,12.674,66.858,13.957,95.495,2.848c16.792-6.131,25.384-13.889,31.658-19.549
		c0,0,1.438-1.295,1.44-1.295c7.069-6.843,11.03-12.621,13.369-17.871V78c-8.476,0-29.704,0-30.831,0
		c-3.398,10-11.79,18.551-24.43,25.146c-19.785,9.427-47.303,10.237-66.913,2.105c-8.479-3.47-15.282-8.007-22.086-14.621
		c-15.05-15.818-10.445-33.495-1.885-43.855c5.516-5.878,9.917-9.522,17.497-13.731C90.107,23.892,128.139,18,156.332,40
		c0.636,0,37.152,0,40.49,0c-7.271-13-25.242-24.29-31.887-27.338C148.133,3.623,109.376-5.711,71.471,5.3
		c-8.722,2.484-19.13,7.586-28.527,13.88c-9.612,6.877-17.025,15.501-21.433,24.875l-1.462,3.255
		c-1.369,3.085-2.355,5.32-4.857,9.269C10.488,64.368,3.766,68.71,0,70.675v0.466C4.278,73.018,11.705,77.27,17.683,88.204z
		 M16.672,62.873c4.061-4.488,7.266-16.03,13.679-24.795c9.112-12.84,21.169-19.565,30.14-23.853
		C81.01,4.178,110.509,1.314,139.366,8.239c10.473,2.479,20.948,5.994,28.426,10.867C175.273,23.551,184.038,30,188.954,36h-30.823
		c-9.148-7-19.195-10.653-28.172-12.576c-10.048-2.565-25.863-3.83-44.674,0.658c-11.115,2.78-18.81,6.678-26.29,12.021
		C44.246,46.579,28,74.135,56.855,98.078c9.406,7.947,17.314,10.525,26.079,13.562c16.246,4.702,36.55,3.81,48.308,0.604
		c17.74-4.702,24.365-10.897,30.138-15.813c5.345-5.13,9.833-11.328,11.073-14.533l25.308-0.047
		c-1.754,9.451-8.593,17.147-15.219,23.559c-7.588,7.156-13.252,10.904-24.453,16.506c-26.206,12.566-64.68,12.139-88.406,3.546
		c-12.184-4.448-15.604-6.452-24.796-12.821c-7.48-6.033-12.398-10.007-19.451-20.908c-3.205-5.346-4.702-8.336-8.336-13.254
		c-2.565-2.776-4.275-5.344-8.764-7.479C12.449,68.11,14.694,65.974,16.672,62.873z"/>
	<path fill="#F26522" d="M17.099,78.479c3.634,4.916,5.131,7.908,8.336,13.252c7.053,10.901,11.971,14.875,19.451,20.908
		c9.192,6.37,12.612,8.375,24.796,12.822c23.726,8.594,62.201,9.021,88.406-3.546c11.201-5.603,16.865-9.351,24.453-16.505
		c6.626-6.411,13.465-14.105,15.219-23.557l-25.308,0.045c-1.24,3.205-5.728,9.406-11.073,14.535
		c-5.771,4.916-12.396,11.115-30.138,15.817c-11.757,3.205-32.062,4.104-48.308-0.599c-8.765-3.035-16.673-5.601-26.079-13.549
		C28,74.161,44.246,46.63,58.996,36.154c7.479-5.343,15.174-9.19,26.29-11.97c18.812-4.488,34.626-3.326,44.674-0.761
		C138.936,25.347,148.982,29,158.131,36h30.823c-4.916-6-13.681-12.449-21.162-16.895c-7.479-4.873-17.954-8.49-28.426-10.969
		c-28.857-6.925-58.356-4.009-78.875,6.038c-8.971,4.288-21.028,11.039-30.14,23.878c-6.413,8.764-9.619,20.319-13.679,24.807
		c-1.978,3.101-4.223,5.244-8.337,8.131C12.823,73.127,14.533,75.7,17.099,78.479z"/>
</g>
</svg>
