<?xml version="1.0" encoding="utf-8"?>
<!-- Generator: Adobe Illustrator 16.0.3, SVG Export Plug-In . SVG Version: 6.00 Build 0)  -->
<!DOCTYPE svg PUBLIC "-//W3C//DTD SVG 1.1//EN" "http://www.w3.org/Graphics/SVG/1.1/DTD/svg11.dtd">
<svg version="1.1" id="PILLS" xmlns="http://www.w3.org/2000/svg" xmlns:xlink="http://www.w3.org/1999/xlink" x="0px" y="0px"
	 width="200px" height="136px" viewBox="0 0 200 136" enable-background="new 0 0 200 136" xml:space="preserve">
<path fill="#F04E23" d="M200,128c0,4.418-3.582,8-8,8H8c-4.418,0-8-3.582-8-8V8c0-4.418,3.582-8,8-8h184c4.418,0,8,3.582,8,8V128z"
	/>
<g>
	<path fill="none" d="M169.232,136H192c4.418,0,8-3.182,8-7.602v-20.795C196.652,120.264,186.79,131,169.232,136z"/>
	<path fill="none" d="M195.732,34.984c0,13.384-6.148,22.046-15.266,28.803c-0.773,0.575-0.904,1.548,0.165,2.092
		c8.194,4.174,16.281,12.303,19.368,22.605V8c0-4.418-3.582-8-8-8h-26.623C188.95,6.654,195.732,22.73,195.732,34.984z"/>
	<path fill="none" d="M23,90.77V45.791C23,43.675,21.169,42,19.054,42H0.057L24.149,0H8C3.582,0,0,3.582,0,8v86h19.054
		C21.169,94,23,92.886,23,90.77z"/>
	<path fill="none" d="M0,128.398C0,132.818,3.582,136,8,136h15.021L0,96.854V128.398z"/>
	<path fill="#FFFFFF" d="M113.003,37H97.687C95.792,37,94,38.299,94,40.19V58h16.344h2.66c8.98,0,12.43-4.45,12.43-10.79
		c0-5.567-3.433-9.759-10.433-10.333v-0.005C114,36.831,113.621,37,113.003,37z"/>
	<path fill="#FFFFFF" d="M94,96.343c0,1.902,1.782,3.657,3.687,3.657h9.402h5.915c8.98,0,12.318-4.839,12.318-11.171
		c0-6.163-3.338-10.829-12.318-10.829h-5.15H94V96.343z"/>
	<path fill="#FFFFFF" d="M200,107.604V88.484c-3.087-10.303-11.174-18.432-19.368-22.605c-1.067-0.544-0.938-1.518-0.165-2.092
		c9.117-6.757,15.266-15.419,15.266-28.803c0-12.254-6.782-28.33-30.355-34.984H24.149L0.057,42h18.997
		C21.169,42,23,43.675,23,45.791V90.77c0,2.116-1.831,3.23-3.946,3.23H0v2.854L23.021,136H169.23
		C186.79,131,196.652,120.264,200,107.604z M145.52,132.878l-112.201,0.125L14.338,100h12.823C29.722,100,32,97.699,32,95.139v-12.5
		V41.427C32,38.866,29.722,37,27.161,37H14.193l18.84-33h18.806h33.255h40.166h15.154c16.118,0,28.702,4.139,36.527,11.547
		c0.014,0.013,0.027-0.098,0.041-0.085c0.865,0.821,1.672,1.618,2.418,2.511c0.023,0.029,0.048,0.027,0.072,0.056
		c0.486,0.588,0.948,1.176,1.383,1.793c0.023,0.033,0.047,0.059,0.07,0.093c0.194,0.278,0.383,0.556,0.566,0.84
		c0.023,0.037,0.049,0.072,0.072,0.108c0.396,0.622,0.768,1.256,1.113,1.905c0.031,0.059,0.062,0.117,0.094,0.175
		c0.152,0.293,0.302,0.587,0.444,0.885c0.015,0.03,0.03,0.061,0.044,0.091c0.157,0.331,0.309,0.666,0.452,1.004
		c0.021,0.048,0.04,0.096,0.06,0.145c0.121,0.286,0.235,0.574,0.347,0.864c0.028,0.073,0.056,0.146,0.083,0.221
		c0.25,0.673,0.475,1.358,0.673,2.054c0.022,0.081,0.045,0.162,0.067,0.243c0.078,0.281,0.15,0.565,0.22,0.85
		c0.019,0.078,0.039,0.155,0.057,0.233c0.083,0.352,0.159,0.707,0.229,1.064c0.009,0.046,0.016,0.092,0.025,0.138
		c0.059,0.311,0.111,0.625,0.161,0.939c0.017,0.099,0.031,0.198,0.046,0.296c0.043,0.303,0.084,0.607,0.118,0.914
		c0.009,0.063,0.017,0.126,0.023,0.19c0.038,0.364,0.071,0.731,0.098,1.1c0.007,0.09,0.011,0.181,0.017,0.271
		c0.019,0.291,0.033,0.582,0.043,0.875c0.004,0.105,0.008,0.211,0.012,0.317c0.01,0.376,0.015,0.753,0.012,1.134
		c0,14.703-7.227,23.047-19.613,27.732c-1.005,0.381-1.227,2.062,0.148,2.392c14.07,3.363,24.217,15.25,24.217,29.02
		C190.754,111.584,177.557,132.878,145.52,132.878z"/>
	<path fill="#F04E23" d="M179.473,17.999c0.487,0.588,0.949,1.191,1.385,1.809C180.422,19.189,179.96,18.586,179.473,17.999z"/>
	<path fill="#F04E23" d="M185.473,30.736c0.06,0.311,0.112,0.625,0.162,0.939C185.585,31.36,185.532,31.047,185.473,30.736z"/>
	<path fill="#F04E23" d="M179.4,17.912c-0.746-0.894-1.553-1.751-2.418-2.573C177.848,16.16,178.654,17.019,179.4,17.912z"/>
	<path fill="#F04E23" d="M180.927,19.908c0.194,0.278,0.384,0.56,0.566,0.844C181.311,20.467,181.121,20.186,180.927,19.908z"/>
	<path fill="#F04E23" d="M184.202,26.153c0.25,0.673,0.474,1.358,0.673,2.054C184.676,27.511,184.451,26.826,184.202,26.153z"/>
	<path fill="#F04E23" d="M182.771,22.943c0.153,0.293,0.303,0.588,0.445,0.886C183.074,23.531,182.925,23.236,182.771,22.943z"/>
	<path fill="#F04E23" d="M183.261,23.92c0.157,0.331,0.308,0.666,0.452,1.004C183.568,24.586,183.418,24.251,183.261,23.92z"/>
	<path fill="#F04E23" d="M181.564,20.862c0.397,0.621,0.769,1.257,1.115,1.905C182.333,22.119,181.962,21.483,181.564,20.862z"/>
	<path fill="#F04E23" d="M183.771,25.068c0.121,0.286,0.235,0.574,0.347,0.864C184.007,25.642,183.893,25.354,183.771,25.068z"/>
	<path fill="#F04E23" d="M184.941,28.45c0.078,0.281,0.151,0.565,0.221,0.85C185.093,29.015,185.02,28.731,184.941,28.45z"/>
	<path fill="#F04E23" d="M185.82,33.076c0.039,0.364,0.072,0.731,0.099,1.1C185.893,33.807,185.859,33.44,185.82,33.076z"/>
	<path fill="#F04E23" d="M185.938,34.447c0.018,0.291,0.033,0.582,0.043,0.875C185.969,35.029,185.955,34.737,185.938,34.447z"/>
	<path fill="#F04E23" d="M185.219,29.533c0.083,0.352,0.159,0.707,0.229,1.064C185.378,30.24,185.301,29.885,185.219,29.533z"/>
	<path fill="#F04E23" d="M185.68,31.972c0.043,0.303,0.082,0.607,0.118,0.914C185.764,32.579,185.725,32.274,185.68,31.972z"/>
	<path fill="#F04E23" d="M185.99,35.64c0.01,0.376,0.015,0.753,0.012,1.134C186.005,36.393,186,36.016,185.99,35.64z"/>
	<path fill="#F04E23" d="M166.538,66.898c-1.375-0.33-1.154-2.011-0.147-2.392c12.385-4.686,19.612-13.029,19.612-27.732
		c0,0.337-0.026,0.65-0.032,0.979c-27.592,22.077-45.309,52.56-52.099,85.563c-5.544-39.229,6.805-82.309,29.593-116.104
		c5.396,1.988,9.928,4.974,13.479,8.334C169.116,8.139,156.532,4,140.415,4H125.26c-3.572,9-7.324,20.407-10.48,33.086
		c7.646,0.574,10.541,4.68,10.541,10.248c0,6.34-3.338,10.667-12.317,10.667h-2.66c-1.065,7-1.924,14-2.491,20h5.151
		c8.979,0,12.317,4.666,12.317,10.829c0,6.332-3.338,11.171-12.317,11.171h-5.915c0.141,10,1.104,22,3.13,33H96.217
		C85.175,106,69.979,61,85.094,4H51.839c-7.417,39-2.081,82.311,17.832,119.736C55.556,113.589,42,98.32,32,82.639v12.5
		c0,2.561-2.278,4.861-4.839,4.861H14.338l18.981,33.004l112.201-0.068c32.037,0,45.235-21.322,45.235-36.99
		C190.754,82.176,180.607,70.261,166.538,66.898z"/>
	<path d="M69.671,123.736C49.759,86.311,44.423,43,51.839,4H33.033l-18.84,33H27.16c2.562,0,4.84,1.866,4.84,4.427v41.212
		C42,98.32,55.556,113.589,69.671,123.736z"/>
	<path d="M96.217,133h14.002c-2.027-11-2.99-23-3.13-33h-9.402C95.782,100,94,98.246,94,96.343V78h13.854c0.566-6,1.426-13,2.49-20
		H94V40.19c0-1.891,1.792-3.19,3.687-3.19h15.317c0.618,0,0.997-0.188,1.997-0.146v0.04C118,24.214,121.688,13,125.26,4H85.094
		C69.979,61,85.175,106,96.217,133z"/>
	<path d="M133.871,123.316c6.791-33.004,24.507-63.486,52.098-85.563c0.006-0.329,0.033-0.642,0.033-0.979
		c0.003-0.381-0.002-0.758-0.012-1.134c-0.004-0.106-0.008-0.212-0.012-0.317c-0.01-0.293-0.024-0.585-0.043-0.875
		c-0.006-0.09-0.01-0.181-0.017-0.271c-0.026-0.369-0.06-0.736-0.099-1.1c-0.006-0.064-0.016-0.127-0.022-0.19
		c-0.034-0.307-0.073-0.611-0.118-0.914c-0.015-0.099-0.029-0.198-0.046-0.296c-0.049-0.315-0.103-0.628-0.161-0.939
		c-0.01-0.046-0.017-0.092-0.025-0.138c-0.07-0.357-0.146-0.712-0.229-1.064c-0.018-0.078-0.038-0.155-0.057-0.233
		c-0.069-0.285-0.144-0.569-0.22-0.85c-0.022-0.081-0.045-0.162-0.067-0.243c-0.199-0.696-0.423-1.381-0.673-2.054
		c-0.027-0.074-0.057-0.147-0.083-0.221c-0.111-0.291-0.226-0.579-0.347-0.864c-0.02-0.048-0.039-0.097-0.06-0.145
		c-0.144-0.338-0.294-0.673-0.452-1.004c-0.014-0.03-0.029-0.061-0.044-0.091c-0.143-0.298-0.292-0.593-0.444-0.886
		c-0.031-0.059-0.062-0.117-0.094-0.176c-0.346-0.648-0.717-1.284-1.113-1.905c-0.023-0.037-0.049-0.074-0.072-0.111
		c-0.184-0.284-0.372-0.565-0.566-0.844c-0.023-0.034-0.046-0.067-0.07-0.101c-0.435-0.618-0.896-1.221-1.383-1.809
		c-0.024-0.029-0.049-0.058-0.072-0.087c-0.748-0.893-1.553-1.752-2.418-2.573c-0.014-0.013-0.026-0.026-0.041-0.039
		c-3.551-3.36-8.082-6.099-13.479-8.087C140.676,41.008,128.327,84.086,133.871,123.316z"/>
</g>
</svg>
