<?xml version="1.0" encoding="utf-8"?>
<!-- Generator: Adobe Illustrator 18.0.0, SVG Export Plug-In . SVG Version: 6.00 Build 0)  -->
<!DOCTYPE svg PUBLIC "-//W3C//DTD SVG 1.1//EN" "http://www.w3.org/Graphics/SVG/1.1/DTD/svg11.dtd">
<svg version="1.1" id="PILLS" xmlns="http://www.w3.org/2000/svg" xmlns:xlink="http://www.w3.org/1999/xlink" x="0px" y="0px"
	 width="200px" height="136px" viewBox="0 0 200 136" enable-background="new 0 0 200 136" xml:space="preserve">
<path fill="#FF3C00" d="M200,128c0,4.4-3.6,8-8,8H8c-4.4,0-8-3.6-8-8V8c0-4.4,3.6-8,8-8h184c4.4,0,8,3.6,8,8V128z"/>
<g>
	<path fill="#311D00" d="M84.3,136h4.4c8.6-4.1,13.4-11.4,13.8-18.9c-0.6-0.1-1.2-0.2-1.8-0.3C99.7,126.4,92.8,132.9,84.3,136z"/>
	<path fill="#311D00" d="M45.1,131c-3.2-1.9-10.9-5.9-13.9-6c3.5,0.8,10.9,4.9,13.5,6.6c2.5,1.4,5.7,3,9.4,4.4h3.6
		C53.1,134.7,48.7,132.9,45.1,131z"/>
	<path fill="#311D00" d="M100.6,110.3c0.4,0.1,0.8,0.1,1.3,0.2c-1-5.3-2.8-10.1-4.6-13.8C98.3,100.7,99.9,105.2,100.6,110.3z"/>
	<path fill="#311D00" d="M133.1,120.1c0,0-0.4,0.1-1.1,0.1l0.4,0.9c0.3,0.6,0.6,1.1,0.9,1.6c0.8-0.9,1.5-1.9,2.1-2.9
		C134.6,119.9,133.8,120,133.1,120.1z"/>
	<path fill="#311D00" d="M138.3,112.9c0.6-2.3,1-4.7,1.1-7.2c0-0.2,0-0.5,0-0.7l21.8,3.7c0,0-1.4-3.2-1.8-4.3l-20.1-3.4
		c0-0.2,0-0.4,0-0.6c-0.1-0.8-0.1-1.6-0.2-2.5c-0.9,0.1-1.9,0.2-2.8,0.3c0.6,5.1,0.5,10.3-1,15.1C136.4,113.1,137.4,113,138.3,112.9
		z"/>
	<path fill="#311D00" d="M104.5,110.9c1.2,0.2,2.3,0.4,3.3,0.5c0-0.2,0-0.4,0-0.6c3.7-2.7,6.5-7,8-11.1l-0.3-0.6c-0.2,0-0.4,0-0.5,0
		c-3.8-0.2-8.1-0.8-12.4-2.6c1.1,4.1,2.2,8.1,2.8,11.9c-0.8-3.2-2.5-7.6-4.1-12.5c-0.6-0.3-1.2-0.6-1.8-1c1.7,5.6,3.6,10.2,4.1,12.4
		C103.9,108.3,104.2,109.5,104.5,110.9z"/>
	<path fill="#311D00" d="M100.9,66.9l-0.7-1.6c-1.2,2.1-2.2,4.5-2.8,7.3c-0.9,4.1-0.7,8.5-0.1,12.8c0.5,0.4,0.9,0.9,1.3,1.2
		c0.1,0.1,0.2,0.2,0.3,0.3C97.6,80.1,97.6,73.1,100.9,66.9z"/>
	<path fill="#FFFFFF" d="M134.1,80.3c-1.3-6.2,0.1-17.6,4.6-20.9C132.3,60.2,130.5,76.3,134.1,80.3z"/>
	<path fill="#311D00" d="M100.7,88.1c3.5,2.5,6.8,3.9,11.9,4.5l-11-24.3C99,74.7,99.4,81.5,100.7,88.1z"/>
	<path fill="#FFFFFF" d="M199.7,130.3c-0.1,0.5-0.3,0.9-0.5,1.3"/>
	<path fill="#FFFFFF" d="M127.3,122.3c0,0-0.7-1.3-0.8-1.9c0,0,2.7,0.1,4.5-0.1c3.7,7.9,10,13,17.5,15.7h4
		c-7.9-2-14.8-6.2-19.1-13.3c-0.3-0.5-0.6-1.1-0.9-1.6l-0.4-0.9c0.7-0.1,1.1-0.1,1.1-0.1c0.8-0.1,1.5-0.2,2.3-0.2
		c9.1-1,19.9-2.4,29.2-4c4.1,7.4,9.8,12.3,15.5,14.9c0.1,1.6,0.2,2.6,0.2,2.6c0,1.3-0.8,1.8-0.9,1.9c-1,0.3-2.1,0.5-3.1,0.8h4.5
		c0.1,0,0.1-0.1,0.2-0.1c0.4-0.9,0.3-3.1,0.3-3.1c0-0.5-0.4-11.4-2.5-18.7c-0.2-0.8-0.4-1.2-0.6-1.4c0,0-0.6-0.2-0.9-0.2
		c-1,0-2.3,0.2-2.3,0.2c-11.3,2.7-28.7,4.9-42.5,6.3c0,0-1.1,0.2-2.9,0.2l-1.5,0c-2.6,0-6.3-0.1-11-0.9c0,0-51.4-8.4-51.1-8.4
		l2.7-3.8c0,0,49.4,8.1,49.4,8.1c7.5,1.1,11,0.6,11.1,0.6c13.3-0.7,38-4.4,43.9-6c0,0,3.2-0.8,3.6-1.2c0.3-0.3-0.4-2.7-0.4-2.7
		c0-0.1-2.4-8-3.6-11l0,0.1c0-0.1-0.6-1.8-1.1-2.1l-0.4,0c0,0-0.7,0.1-1.6,0.3c-11.6,2.1-32.8,5.1-45.3,5.8c1.1-0.1-5,0.2-9.8-0.1
		c-6.8-0.4-14.3-2.1-21.8-10.2c-0.1-0.1-8.4-8-11.7-11.6c-0.8-1.2-0.4-2.5,0.5-3.2c0.6-0.5,1.8-0.7,2.5,0.1c1.5,2,9.8,10.6,14,14.5
		c4.6,3.6,7.9,5.4,14.3,6.2c3.5,0.4,7.6,0.4,7.8,0.4c8.4,0.2,39.2-3.5,48.2-5.3c1.1-0.2,1.8-0.4,1.8-0.4l0-0.2l0.1-0.4
		c0-0.1,0.5-0.5,1-0.7c0.8-0.4,1.9-0.4,2.9,0.4c6.2,11.4,12.3,32.1,11.5,48.5h1.3c0-0.6,0-1,0-1c13.6-2.9,0.7-4.1,0.7-4.1
		c3,0.9,2.9,2,2.9,2c-1.3,0.1-3.6-0.6-3.6-0.6c0.1-0.8-0.2-4.3-0.2-4.3c3.5,1.5,4.1,1.1,7.7,1.9c3.7,0.8,1.9,2.4,1.9,2.4
		c-1.9,2.4-9,3.4-9,3.4c11.8-1.5,10.7-4.7,10.7-4.7c0.4,0.2,0.7,0.5,0.9,0.7c0.2-0.4,0.4-0.9,0.5-1.3c-0.6-0.4-1.3-0.7-2.2-0.9
		c0,0,0-0.9,0-2.1c-0.6-6.2-2.9-17.6-2.9-17.6c3.5-1.1,3.2-8.2-2.8-8.2c-1.4-6.4-3.5-11.6-3.5-11.6c3.2-1.8,1.7-4.7-0.1-5.3
		c0,0,3.2-0.7,4.7,4.9c2.9,8.2,5.5,18,7,26.4v-6.9c-1.5-6.7-3.5-13.4-6-20.4l-0.6-1.5c-1.3-3.3-3.6-3.9-7.2-3.5l-3.1,0.3
		c-6.4,0.6-16.7,1.7-25.2,0.2l-11.6-27.6c-0.1,0-0.2,0-0.3,0c-0.2,0-0.5,0-0.7,0.1c3.2,7.5,13.6,32.1,13.6,32.1
		c-2,0.4-4.2,0.5-4.2,0.5l-13.1-30.8c-0.3,0.3-0.5,0.6-0.7,0.8c-0.1,0.1-0.1,0.2-0.1,0.2s4.4,10.5,9.3,22.2
		c-0.6-0.3-1.1-0.6-1.4-0.9c-2.3-1.4-7.6-5.3-12.1-12c0,0,0,0.1-0.1,0.3c-0.1,0.2-0.1,0.6-0.2,1.1c6.2,9.5,14.5,13.1,14.5,13.1
		l2.1,5.1c-8.3-2.4-15.2-9.9-17.1-12.2c0,0.2,0,0.4,0,0.6c0,0.2,0,0.4,0,0.5c4.7,5.9,10.8,10.2,17.4,12.4
		c-4.9,0.6-10.2,1.2-15.2,1.8c-1,0.1-1.9,0.2-2.8,0.3c-0.6-2.5-1.4-4.8-2.3-6.9c-4.7-11.1-17.5-6-16.6,0.7
		c-3.9-8.6-7.9-17.3-10.8-23.9c1.1-1.2,3.4-3.6,7.2-6c-2.6,1.2-4.7,3-4.7,3c-1,0.8-1.9,1.6-2.8,2.4c-0.2-0.5-0.4-1-0.7-1.4
		c-0.8-1.7-1.4-3.2-2-4.4c1.9-1.2,3.9-2.5,6.3-3.4c7.1-2.9,15.3-4.9,23.1-6.5c0.4-0.1,0.9-0.2,1.3-0.3c0.2,3.9-1.7,5.4-5.2,6.1
		c-2.2,0.5-4,0.5-4.9,0.8l2.1,0.1c0.1,0,2.4,0,5.7-1.1c2.1-0.8,3.7-2.2,3-6.1c0.4-0.1,0.7-0.2,1.1-0.2c0.6,3.7,0,7.2-7,7.9
		c1.2,0.8,12.3-1.2,18.9,0.3c0.2,0.1,2.9,1-0.2,2.4c6.2-1.4,6.5-7.5,5.3-12.1l0.3,0c1.1,0.1,2.1,0.2,2.9,0.4c0,0,0,0,0,0
		c0.6,0.1,1.3,0.1,2.1,0.2c4.6,0.5,4.2-5,1.8-5.7c-1.8-0.5-2.3-0.6-2.8-0.6l-0.6-0.1L150,24.8l3.2-1.5l8.2,14.8c3.8,6-2.5,8.5-6,6.7
		c-0.5,0.2-0.8,0.5-1.1,0.7c1,0.7,2.2,1,3.6,1c2.3,0,4.3-1,5.3-2.7c0.7-1.2,1.1-3.3-0.8-6.3l-8.7-15.7l-7,3.1c0.1,0,0.2,0,0.3,0.1
		c0.4,0.1,0.7,0.3,0.9,0.7l0,0l1.2-0.5l5.4,12.2c-0.7-0.1-2.5-0.3-3-0.3c0,0-0.3,0-0.6,0c-0.4,0-0.7,0-0.7,0
		c-0.4-1.3-0.9-2.7-1.3-4.1c-0.4-1.2-0.8-2.3-1.2-3.4c-0.4-1.3-0.9-2.5-1.2-3.4c-0.2,0-0.4-0.1-0.6-0.1c-0.4,0-0.9-0.1-1.2-0.1
		c-0.1,0-0.1,0-0.1,0c0,0,0,0,0,0.1c0.4,0.7,1.1,2.7,1.9,4.9c0.8,2.2,1.5,4.5,2,5.8c0.1,0.2,0.2,0.4,0.2,0.6
		c0.4,1.1,0.7,2.1,0.9,2.8c0.2,1.1,0.2,1.8,0.2,1.8l0,0c0,0,0,0,0,0l-4.3-0.1l-1,0c-0.1-1.6-1.6-4.5-1.6-4.5l-1.3-2.7l-0.7-1.3
		l-0.5-1.1l-1.1-2.3l-1-2l0,0c-0.2-0.4-0.4-1-0.6-1.7c-0.1-0.2-0.1-0.5-0.1-0.7c-0.4-2.8,2.4-2.8,2.5-2.8c0.7,0,1.4,0.2,2,0.5
		c0.6,0.3,1.2,0.9,1.8,1.7c0.3,0,0.5,0,0.7,0c-1.1-2.3-1.9-3.5-2.7-4.6c-0.3-0.5-0.7-1-1-1.6c-5.3-7.5-11.5-13.7-18.3-18.7h-6.9
		c2.7,1.8,5.3,3.8,7.6,6c5.7,5.1,10.5,11,14.4,17.4c0,0,0,0,0,0c0,0,0,0,0,0c-1.2,0.6-3.3,1.6-4.2,2.1c0,0,0,0,0,0c0,0,0,0,0,0
		c-0.3,0-1.4,0-2.1,0c-0.2,0-0.3,0-0.4,0c-0.2,0-0.4,0-0.6,0.1c0,0-0.1,0-0.1,0c0,0-0.1,0-0.1,0c-0.1,0-0.1,0-0.2,0.1
		c-0.3,0.1-0.4,0.4-0.4,1c0,0.3,0.1,0.6,0.2,1.1c0.3,0.9,0.4,1.4,0.6,1.9c0.1,0.3,0.2,0.7,0.4,1.1c0,0.1,0.1,0.3,0.2,0.5
		c0.6,1.5,1.8,4.7,2.7,7.4c0,0,0,0,0,0c0,0,0,0,0,0c-0.2,0-0.3,0.1-0.5,0.1c-0.2,0-0.4,0.1-0.6,0.1c0,0,0,0,0,0c0,0,0,0,0,0
		c-0.2-0.5-0.4-1.1-0.6-1.7c-0.4-1-0.8-2.1-1.2-3.1c-0.4-1.2-0.9-2.3-1.2-3.3c-0.3-0.8-0.5-1.5-0.7-2c-0.2-0.5-0.4-1.5-0.3-2.4
		c0-0.3,0.1-0.5,0.2-0.8c0,0-1.4,1.2-0.2,4.2l1.3,3.7l2,5.4c0,0,0,0,0,0l0,0c-0.1,0-0.3,0.1-0.4,0.1c-0.3,0.1-0.6,0.1-0.9,0.2
		c0,0,0,0,0,0c-6.7,1.3-13.2,3-18.5,4.6c-0.4,0.1-0.7,0.2-1.1,0.3c-1.2,0.4-2.4,0.8-3.4,1.2c-0.8,0.3-1.6,0.6-2.3,0.9
		c0,0-4.1,1.5-7,3.9c-0.1,0.1-0.2,0.2-0.2,0.2c-0.8,0.2-1.6,0.8-2.2,1.5c-0.4,0.3-1.4,1.1-1.8,1.6c-1.2,1.3-2.2,2.5-3.5,4.3
		c-1.1,1.7-5.2,8.1-8.8,13.9c-0.3,0.1-0.6,0.3-0.9,0.5c-1,0.7-1.6,2-1.3,3.4c-2.9,4.7-4.7,7.5-5.4,8.6c-1.6,0.1-2.4,1.4-2.5,1.6
		c-0.7,1.4-3.8,6.5-4.3,7c-0.3,0.3-1.1,1.7-0.7,3.2l-0.3,0.5c0,0-6.8,10.1-6.8,10.1c-0.6,0.8-0.7,1.7-0.3,2.6
		c0.6,1.2,1.9,2.1,3.4,2.2c0.8,0.1,1.5-0.1,2-0.5c2.7,0.5,21.7,3.6,35.9,6c0.6,0.1,1.2,0.2,1.8,0.3c1,0.2,1.9,0.3,2.8,0.5
		c0.8,0.1,1.5,0.3,2.3,0.4c0,0,0,0,0,0c0,0,0,0,0,0c-0.3,3.3-1,6.2-2,8.8c-0.3,0.7-0.6,1.4-0.9,2.1l0.6,0.1c9.9,0.8,17-1,21.9-4.3
		c0.4,0.8,0.9,1.6,1.3,2.3c2.2,3.6,5,6.6,8.4,9h2C134.4,133,130.2,128.7,127.3,122.3z M176.8,113.4c0.4-0.1,0.6,0,0.6,0
		c0.3,0.2,0.4,0.8,0.4,0.9l0,0.1l0,0.1c0.6,2.2,1.1,5.1,1.4,7.9c-3-2.2-5.7-4.9-7.8-7.9C173.4,114.2,175.2,113.8,176.8,113.4z
		 M170.2,114.9c3.7,5.5,9.6,9.5,9.6,9.5c0.2,1.4,0.3,4.9,0.3,4.9c-9.3-4.5-14.2-13.5-14.2-13.5C166.7,115.7,170.2,114.9,170.2,114.9
		z M174,107.4l-5.8,1.1l-1.5-3.5c5.1,0.1,8.8,0,8.8,0C176.1,107.3,174,107.4,174,107.4z M169.5,93.5L169.5,93.5L169.5,93.5
		c0.6-0.2,1.1-0.2,1.4,0c0.6,0.3,0.8,1,0.8,1l0,0l0,0c0.9,2.2,2.4,6.9,3.3,9.3c-3.3,0.1-6.4,0.1-8.7,0.1l-3.9-9.2
		C164.9,94.3,167.4,93.9,169.5,93.5z M161.2,95c2.6,7.2,5.9,13.8,5.9,13.8c-0.7,0.3-4.1,0.8-4.1,0.8c-0.8-1.5-5.9-14-5.9-14
		C157.8,95.6,161.2,95,161.2,95z M136.4,98.1c0.9-0.1,1.8-0.2,2.8-0.3c5.6-0.6,11.4-1.4,16.8-2.1c1.2,2.8,2.3,5.4,3.2,7.7l-19.8-3.5
		c0,0.1,0,0.2,0,0.4c0,0.2,0,0.4,0,0.6l20.1,3.4c0.4,1.1,1.8,4.3,1.8,4.3l-21.8-3.7c0,0.2,0,0.4,0,0.7c0,0.1,0,0.2,0,0.3l21.6,3.7
		c-7.2,1.2-14.7,2.4-22.7,3.2c-1,0.1-1.9,0.2-2.9,0.3C136.9,108.4,137,103.2,136.4,98.1z M196.4,128c0,0.5,0,0.8-0.1,1.2
		c-0.9-0.2-1.6-0.2-1.7-0.2c-2.8-0.4-5.6-1.3-8.3-2.4c-0.5-4.7-1.3-9.6-2.3-14.3c2.7-0.5,7.6-1.7,9.4-2.2l0.1,0.8
		C194.5,115.8,195.9,123.3,196.4,128z M195.4,104.8c0,0,0.9,2.8-1.5,3.8c0,0-1.8,0.9-9.9,2.3c0,0-0.7-2.5-1-3.8c0,0,6.9-1.4,9.5-2.4
		c0,0-0.1-0.9-1.4-0.9c0,0-7,1.8-8.6,1.9l-0.4-1.1c0,0,6-1.1,8-1.6C190.3,103,194.5,101.6,195.4,104.8z M189.8,98.4l0.9,3.6
		c-2.8,0.7-5.9,1.1-8.9,1.4c-1.2-4-2.6-7.8-4-11.2c6.9-1,9.1-2,9.1-2c0,0,0,0,0,0l0.2,0C188,92.3,189.4,96.8,189.8,98.4z
		 M184.8,85.8c0.8-0.2,2.2-0.4,2.2-0.4c1.1,0.2,1.6,0.8,1.7,1.7c0.1,0.3-0.1,1.6-1.5,1.9l-0.5,0.1c-1.3,0.4-3.8,1-6.3,1.5
		c-1.6,0.3-3,0.6-2.9,0.5c-0.3-0.7-0.6-1.5-1.5-3.3C178.7,87.2,182.3,86.5,184.8,85.8z M173.4,85.8c2,0.1,8.1-0.5,8.1-0.5
		c-1.2,0.5-6.5,1.1-6.5,1.1C174.3,85.9,173.6,85.8,173.4,85.8C173.4,85.8,173.4,85.8,173.4,85.8C173.4,85.8,173.4,85.8,173.4,85.8z
		 M158.6,85.8c6.7,0.9,11.7,0.4,11.7,0.4c-1.1,0.2-1.2,1.2-1.2,1.2c-2.8,0.7-9.1,1.4-9.1,1.4L158.6,85.8z M158.4,39.3L158.4,39.3
		l0.1,0c0.8,0.1,1.3,1.2,1.2,2c0,0.5-0.3,1.5-1.9,1.5c-1.4-0.3-5.2-0.7-7.1-0.9c0-1.6-1-3.9-1-3.9C151.9,38.3,157.3,38.9,158.4,39.3
		z M98.6,86.5c-0.4-0.4-0.8-0.8-1.3-1.2c-3-2.9-7-6.9-9.7-9.8c3.8-6.1,7.4-11.9,7.4-11.9c1-1.5,2-3.1,2.6-4l2.5,5.6l0.7,1.6
		c-3.3,6.3-3.3,13.3-2,19.9C98.8,86.7,98.7,86.6,98.6,86.5z M100.7,88.1c-1.3-6.6-1.7-13.4,0.9-19.8l11,24.3
		C107.5,92,104.2,90.5,100.7,88.1z M144.1,43.7c0,0,3.2,0,4.9,0c0,0-1.2,2.3-6.3,1.9C142.6,45.6,144,44.7,144.1,43.7z M135.2,25.4
		l1.4-0.7c0,0,0.1-0.1,0.1-0.1c-0.1,0.2-0.1,0.5-0.1,0.5c0,0.5,0,0.7,0.5,2.1c0.8,2.2,5,11,5.5,12.3c2.5,6.4-3.9,7.5-4.5,4.7
		c6.7-0.5,4-7.6,0.2-6.6c-1.5-3.6-2.6-7.2-2.6-7.2S134.2,26.6,135.2,25.4z M133.1,30.2c-0.8-2.5-0.2-3.7-0.2-3.7l1.3-0.6
		c-0.6,1.8,0.5,4.7,0.5,4.7l2.6,7.3l-1.4,0.3C135.9,38.2,134.2,33.5,133.1,30.2z M105.5,47.5c6.8-2.8,20.9-6.5,33-8.4
		c1.3-0.2,2.4,0.7,2.5,1.6c0.1,0.8-0.3,1.8-1.9,2.1l-0.7,0.1c-9.7,1.9-20.8,4.2-30,7.9c-2.9,1-4.5,1.9-6.1,3.2c0,0-0.9-1.9-1.2-2.5
		c-0.5-0.9-0.6-1-1-1.2C101.5,49.3,103.2,48.4,105.5,47.5z M96.7,52.8c0.5-0.9,1.5-1.4,2.2-1.4c0.5,0,0.9,0.2,1,0.2l18.7,41.3
		c0,0-2.6,0.1-4.6-0.3c-8-17.4-17.3-37.8-17.3-37.8C96.3,54.1,96.3,53.4,96.7,52.8z M91.7,58.4c1.2-2,4.1-5.4,3.7-4.9
		c0,0-0.1,1,0.5,2.1c0.4,0.9,1.3,3,1.3,3c0.1-0.1-2,2.5-3.1,4.3l-7.1,11.7L85,72.5c0,0-0.8-1-1.6-1C87.1,65.5,90.5,60.1,91.7,58.4z
		 M121.2,99.3l6.8,14.5c0,0-1.7,0.3-4.6,0.1c-1.4-2.6-2.9-6.1-6.8-14.7C119.2,99.6,121.2,99.3,121.2,99.3z M92.1,88.8
		c2.5,2.7,5,4.7,7.5,6.1c0.6,0.3,1.2,0.7,1.8,1c1.6,4.9,3.4,9.3,4.1,12.5c-0.6-3.7-1.7-7.7-2.8-11.9c4.3,1.9,8.5,2.4,12.4,2.6
		c0.2,0,0.4,0,0.5,0l0.3,0.6c-1.5,4.1-4.4,8.4-8,11.1c0,0.2,0,0.4,0,0.6c-1.1-0.2-2.2-0.3-3.3-0.5c-0.8-0.1-1.7-0.3-2.6-0.4
		c-0.4-0.1-0.8-0.1-1.3-0.2c-13-2.1-28.9-4.6-31.8-5.1l3.1-4.5c4,2.4,9.6,5.9,9.6,5.9c3.9,2.5,6.9-1.1,7.8-2.3c0.7-1,3-4,2.9-6.6
		c-0.1-2.5-2-3.9-3.8-5l-8.1-5.3c0.7-1.2,2-3.2,3.8-6.1C87.8,84.7,92,88.7,92.1,88.8z M88,94.8c-1.8-1.2-8.7-5.8-8.7-5.8l0.7-0.7
		c3.1,2,7.2,4.7,9,6c3.2,2.4,1.5,5.3,1.5,5.3C90.8,97.9,90,96.2,88,94.8z M74.9,85.5L74.9,85.5L74.9,85.5c0.1-0.2,1.2-2,5.2-8.6
		c1.2,1.7,3.2,3.5,3.2,3.5l-4.9,7.8c-0.7,0.5-2.1,0-2.9-0.9C75.2,87.2,74.3,86.2,74.9,85.5z M73.3,85.9c-0.1,2.3,3.4,4.2,5.1,3.7
		l9,6c1.4,1,2.7,2.6,1.9,4.9c-0.1-2.1-2.7-3.8-2.7-3.8s-9.7-5.7-12.7-7.6C72.2,88.1,72.4,86.6,73.3,85.9z M68.8,93.1
		c1.8-2.5,2.7-3.9,3-4.6c0.4,0.8,1.6,1.5,1.6,1.5c3,1.9,9.3,5.7,11.1,6.7c2,1.1,2.3,1.6,2.3,1.6c2.3,2.2,1.8,4.3,0.7,5.8
		c-1.3,1.7-3.7,2.8-5.7,1.4l-2.7-1.7l0,0l-1-0.6L69.8,98l0,0l0,0c0,0-1.4-0.7-1.8-2C67.7,95.2,68,94.2,68.8,93.1z M64.6,109.3
		c-0.4,0.7-1.2,0.8-1.7,0.8c-1-0.1-2-0.7-2.4-1.5c-0.2-0.5-0.2-0.9,0.2-1.4l6.4-9.8c0.4,0.8,3.6,2.7,3.6,2.7
		C69.4,102.1,64.6,109.3,64.6,109.3z"/>
	<path fill="#FFFFFF" d="M79.3,101.8c0,0,0.1,0.4,0.4,0.9l0,0c0.3,0.5,0.7,0.9,1.2,1.2c3.6,2.1,5.5-0.6,5.5-0.6c0,0,1.6-2.1-0.7-4.5
		c-0.1-0.1-1.5-1.3-3.5-1.1c-0.2-0.8-1.2-3.1-4.2-3h0l0,0c-2.4,0.2-2.9,1.4-3.2,2.2c0,0-0.6,1.6,0.3,3
		C75.2,100,76.3,102.3,79.3,101.8z M82.4,98.4c2.7-0.1,4.7,2.6,3.4,4.5l-0.5,0.1c-2.3,0.3-3.6-0.6-4-2.7
		C81.7,100.1,82.3,99.4,82.4,98.4z M79.3,95.6c1.3,0.4,2.3,1.6,2.2,2.8l0.2,0c-0.1,0.9-1,2-2.9,1.8c-0.1-0.4-0.1-0.8-0.1-1.2
		c0.3,0.1,0.6,0.2,1,0.1c0-0.2,0-0.5,0-0.5c-0.4,0-0.7-0.2-1.1-0.3C78.7,97.3,78.9,96.4,79.3,95.6z M76.3,96.2
		c0.6-0.5,1.1-0.7,2-0.7c-0.4,0.6-0.5,1.5-0.6,2.4c-0.2-0.2-0.3-0.2-0.5-0.4l0,0.6c0.1,0.2,0.3,0.3,0.5,0.4c0,0.6,0,1,0.1,1.4
		c-0.1,0-0.2-0.1-0.3-0.2C75.7,98.7,76.3,96.2,76.3,96.2z M75.6,97c-0.3,3.8,3.2,4.4,5.1,3.7c0.4,3.1,3.1,3.2,4.4,3
		c-1.6,1-4.8,0.3-5.4-2.6C77.3,101.8,74.5,99.8,75.6,97z"/>
	<path fill="#311D00" d="M138.3,37.7c3.8-1,6.6,6.1-0.2,6.6c0.7,2.8,7,1.6,4.5-4.7c-0.5-1.3-4.7-10.1-5.5-12.3
		c-0.5-1.4-0.5-1.6-0.5-2.1c0,0,0-0.4,0.1-0.5c0,0-0.1,0.1-0.1,0.1l-1.4,0.7c-1,1.2,0.5,5.1,0.5,5.1S136.9,34.1,138.3,37.7z"/>
	<path fill="#311D00" d="M137.3,37.9l-2.6-7.3c0,0-1.1-2.8-0.5-4.7l-1.3,0.6c0,0-0.6,1.2,0.2,3.7c1.1,3.3,2.8,8,2.8,8L137.3,37.9z"
		/>
	<path fill="#311D00" d="M148.9,43.7c-1.6,0-4.9,0-4.9,0c-0.1,1-1.5,1.9-1.5,1.9C147.7,46,148.9,43.7,148.9,43.7z"/>
	<path fill="#311D00" d="M85,72.5l1.9,2.1L94,62.9c1.2-1.8,3.3-4.5,3.1-4.3c0,0-0.9-2.2-1.3-3c-0.5-1.1-0.5-2.1-0.5-2.1
		c0.4-0.5-2.5,2.9-3.7,4.9c-1.2,1.7-4.5,7.1-8.3,13.1C84.2,71.5,85,72.5,85,72.5z"/>
	<path fill="#311D00" d="M181.6,85.4c0,0-6.1,0.6-8.1,0.5c0.2,0,0.9,0.1,1.6,0.7C175.1,86.5,180.4,85.8,181.6,85.4z"/>
	<path fill="#311D00" d="M166.6,105l1.5,3.5l5.8-1.1c0,0,2.1-0.1,1.5-2.4C175.5,105,171.8,105.1,166.6,105z"/>
	<path fill="#311D00" d="M167.2,108.8c0,0-3.3-6.6-5.9-13.8c0,0-3.4,0.6-4,0.6c0,0,5.1,12.5,5.9,14
		C163.1,109.6,166.5,109.1,167.2,108.8z"/>
	<path fill="#311D00" d="M180.1,129.3c0,0-0.1-3.5-0.3-4.9c0,0-5.9-4-9.6-9.5c0,0-3.5,0.8-4.3,0.9
		C165.9,115.8,170.8,124.8,180.1,129.3z"/>
	<path fill="#311D00" d="M199.1,131.6c-1.3,2.6-4,4.4-7.1,4.4h-5"/>
	<path fill="#311D00" d="M187.5,135.6c0,0,7-1,9-3.4c0,0,1.8-1.5-1.9-2.4c-3.6-0.8-4.2-0.4-7.7-1.9c0,0,0.2,3.4,0.2,4.3
		c0,0,2.3,0.7,3.6,0.6c0,0,0.1-1.1-2.9-2c0,0,12.9,1.2-0.7,4.1c0,0,0,0.4,0,1h5c3.1,0,5.8-1.8,7.1-4.4c-0.3-0.2-0.6-0.5-0.9-0.7
		C198.2,130.9,199.3,134.1,187.5,135.6z"/>
	<path fill="#311D00" d="M128,113.8l-6.8-14.5c0,0-2,0.3-4.6,0c3.9,8.5,5.4,12.1,6.8,14.7C126.3,114.1,128,113.8,128,113.8z"/>
	<path fill="#311D00" d="M114,92.6c2,0.4,4.6,0.3,4.6,0.3L99.9,51.6c0,0-0.5-0.2-1-0.2c-0.7,0-1.7,0.5-2.2,1.4c-0.4,0.7-0.4,1.4,0,2
		C96.7,54.8,106,75.2,114,92.6z"/>
	<path fill="#311D00" d="M131,120.3c-1.8,0.1-4.5,0.1-4.5,0.1c0.2,0.6,0.8,1.9,0.8,1.9c2.9,6.4,7.1,10.8,11.6,13.7h9.6
		C141,133.3,134.7,128.2,131,120.3z"/>
	<path fill="#311D00" d="M174.1,87.5c-0.9-0.8-2-0.7-2.9-0.4c-0.4,0.2-1,0.6-1,0.7l-0.1,0.4l0,0.2c0,0-0.7,0.3-1.8,0.4
		c-9,1.8-39.8,5.5-48.2,5.3c-0.2,0-4.3,0.1-7.8-0.4c-6.4-0.7-9.7-2.6-14.3-6.2c-4.1-3.9-12.5-12.5-14-14.5c-0.7-0.8-1.9-0.6-2.5-0.1
		c-0.9,0.7-1.3,2-0.5,3.2c3.3,3.6,11.6,11.5,11.7,11.6c7.5,8.1,15,9.8,21.8,10.2c4.8,0.3,10.9,0,9.8,0.1c12.5-0.8,33.7-3.7,45.3-5.8
		c0.9-0.2,1.6-0.3,1.6-0.3l0.4,0c0.6,0.3,1.1,1.9,1.1,2.1l0-0.1c1.2,3,3.6,10.9,3.6,11c0,0,0.7,2.4,0.4,2.7
		c-0.4,0.4-3.6,1.2-3.6,1.2c-6,1.6-30.6,5.2-43.9,6c-0.1,0-3.6,0.6-11.1-0.6c0,0-49.4-8.1-49.4-8.1L66,110c-0.2,0,51.1,8.4,51.1,8.4
		c4.7,0.7,8.4,0.9,11,0.9l1.5,0c1.9-0.1,2.9-0.2,2.9-0.2c13.8-1.4,31.2-3.6,42.5-6.3c0,0,1.3-0.3,2.3-0.2c0.4,0,0.9,0.2,0.9,0.2
		c0.2,0.2,0.4,0.7,0.6,1.4c2,7.3,2.4,18.2,2.5,18.7c0,0,0,2.3-0.3,3.1c0,0-0.1,0.1-0.2,0.1h4.8C186.4,119.6,180.3,98.9,174.1,87.5z"
		/>
	<path fill="#311D00" d="M69.7,98L69.7,98L69.7,98l8.5,5.2l1,0.6l0,0l2.7,1.7c2,1.3,4.4,0.3,5.7-1.4c1.1-1.5,1.5-3.6-0.7-5.8
		c0,0-0.4-0.5-2.3-1.6c-1.8-1-8.1-4.8-11.1-6.7c0,0-1.2-0.7-1.6-1.5c-0.4,0.7-1.3,2.1-3,4.6c-0.8,1.1-1.1,2.1-0.8,3
		C68.3,97.4,69.7,98,69.7,98z M74.9,97c0.3-0.7,0.8-2,3.2-2.2l0,0h0c2.9-0.1,4,2.2,4.2,3c2-0.2,3.4,1,3.5,1.1
		c2.4,2.3,0.7,4.4,0.7,4.5c0,0-2,2.7-5.5,0.6c-0.5-0.3-0.9-0.7-1.2-1.2l0,0c-0.3-0.5-0.4-0.9-0.4-0.9c-3,0.5-4.2-1.8-4.2-1.8
		C74.3,98.6,74.9,97,74.9,97z"/>
	<path fill="#311D00" d="M89,94.4c-1.8-1.3-5.8-4-9-6l-0.7,0.7c0,0,6.9,4.6,8.7,5.8c2,1.4,2.8,3.1,2.5,4.8
		C90.5,99.7,92.2,96.8,89,94.4z"/>
	<path fill="#311D00" d="M73.9,89.2c3,1.9,12.7,7.6,12.7,7.6s2.6,1.7,2.7,3.8c0.8-2.3-0.5-3.9-1.9-4.9l-9-6
		c-1.7,0.5-5.2-1.4-5.1-3.7C72.4,86.6,72.2,88.1,73.9,89.2z"/>
	<path fill="#311D00" d="M81.3,100.4c0.4,2.1,1.7,3,4,2.7l0.5-0.1c1.3-1.9-0.7-4.6-3.4-4.5C82.3,99.4,81.7,100.1,81.3,100.4z"/>
	<path fill="#311D00" d="M79.8,101c0.6,2.9,3.7,3.6,5.4,2.6c-1.3,0.2-4,0.1-4.4-3c-2,0.7-5.5,0.2-5.1-3.7
		C74.5,99.8,77.3,101.8,79.8,101z"/>
	<path fill="#311D00" d="M177.5,91c-0.1,0.1,1.3-0.2,2.9-0.5c2.5-0.5,5-1.1,6.3-1.5l0.5-0.1c1.4-0.3,1.6-1.5,1.5-1.9
		c-0.1-0.9-0.6-1.5-1.7-1.7c0,0-1.4,0.2-2.2,0.4c-2.5,0.7-6,1.4-8.8,1.9C176.9,89.5,177.2,90.3,177.5,91z"/>
	<path fill="#311D00" d="M182.3,104.7l0.4,1.1c1.6-0.2,8.6-1.9,8.6-1.9c1.3,0,1.4,0.9,1.4,0.9c-2.7,1-9.5,2.4-9.5,2.4
		c0.3,1.3,1,3.8,1,3.8c8.1-1.5,9.9-2.3,9.9-2.3c2.4-1,1.5-3.8,1.5-3.8c-0.9-3.2-5.1-1.8-5.1-1.8
		C188.3,103.5,182.3,104.7,182.3,104.7z"/>
	<path fill="#311D00" d="M188.3,84.7c1.8,0.5,3.3,3.5,0.1,5.3c0,0,2.1,5.1,3.5,11.6c5.9,0,6.2,7.1,2.8,8.2c0,0,2.2,11.3,2.9,17.6
		c0.1,1.2,0,2.1,0,2.1c0.9,0.2,1.6,0.5,2.2,0.9c0.2-0.7,0.3-1.5,0.3-2.3v-12c-1.5-8.4-4.1-18.2-7-26.4
		C191.5,84,188.3,84.7,188.3,84.7z"/>
	<path fill="#311D00" d="M169.1,87.4c0,0,0.1-1.1,1.2-1.2c0,0-5,0.5-11.7-0.4l1.3,3C160,88.7,166.3,88,169.1,87.4z"/>
	<path fill="#311D00" d="M67.2,97.4l-6.4,9.8c-0.3,0.5-0.4,0.9-0.2,1.4c0.4,0.8,1.4,1.4,2.4,1.5c0.5,0,1.2-0.1,1.7-0.8
		c0,0,4.8-7.2,6.2-9.2C70.8,100.1,67.6,98.2,67.2,97.4z"/>
	<path fill="#311D00" d="M101.1,51.4c0.3,0.6,1.2,2.5,1.2,2.5c1.6-1.2,3.2-2.1,6.1-3.2c9.2-3.7,20.3-6,30-7.9l0.7-0.1
		c1.6-0.3,2-1.2,1.9-2.1c-0.1-0.9-1.2-1.8-2.5-1.6c-12.2,2-26.2,5.6-33,8.4c-2.3,1-4.1,1.8-5.4,2.7
		C100.6,50.4,100.6,50.5,101.1,51.4z"/>
	<path fill="#311D00" d="M78.4,88.2l4.9-7.8c0,0-2-1.8-3.2-3.5c-4.1,6.6-5.1,8.4-5.2,8.5l0,0l0,0c-0.6,0.7,0.4,1.7,0.6,1.9
		C76.3,88.2,77.7,88.7,78.4,88.2z"/>
	<path fill="#311D00" d="M157.8,42.8c1.6,0,1.9-1,1.9-1.5c0.1-0.9-0.4-1.9-1.2-2l-0.1,0l-0.1,0c-1.1-0.4-6.6-1-8.7-1.2
		c0,0,1,2.3,1,3.9C152.6,42.1,156.4,42.5,157.8,42.8z"/>
	<path fill="#311D00" d="M146.3,56.7c0.2,0,0.4,0,0.4,0c3.1-0.6,4.8-2,6-4.1c1-1.9,1.2-4.3,1-6.3c0.2-0.2,0.3-0.4,0.5-0.6
		c0.3-0.2,0.6-0.5,1.1-0.7c3.5,1.8,9.8-0.7,6-6.7l-8.2-14.8l-3.2,1.5l5.7,12.8l0.6,0.1c0.5,0.1,0.9,0.1,2.8,0.6
		c2.4,0.7,2.8,6.1-1.8,5.7c-0.7-0.1-1.5-0.2-2.1-0.2c0,0,0,0,0,0c-0.8-0.1-1.8-0.3-2.9-0.4l-0.3,0c1.2,4.6,0.8,10.7-5.3,12.1
		c3.2-1.4,0.4-2.3,0.2-2.4c-6.6-1.5-17.7,0.5-18.9-0.3c7.1-0.7,7.6-4.2,7-7.9c-0.4,0.1-0.7,0.2-1.1,0.2c0.7,3.8-0.9,5.3-3,6.1
		c-3.2,1.1-5.6,1.1-5.7,1.1l-2.1-0.1c0.9-0.3,2.7-0.4,4.9-0.8c3.4-0.7,5.4-2.2,5.2-6.1c-0.4,0.1-0.9,0.2-1.3,0.3
		c0.1,1.1-0.1,2.1-0.5,2.8c-0.7,1.2-3.1,1.7-4.3,1.9c0,0-1.9,0.3-1.8,0.3c-7.4,0.9-10.2,2.3-14.9,4.8c0,0-0.6,0.4-0.8,0.6
		c-1.4,0.8-3.2,2.1-5.1,3.9c0.2,0.5,0.4,0.9,0.7,1.4c0.8-0.8,1.8-1.6,2.8-2.4c0,0,2.1-1.8,4.7-3c-3.7,2.4-6,4.7-7.2,6
		c3,6.5,6.9,15.3,10.8,23.9c-0.9-6.7,11.9-11.7,16.6-0.7c0.9,2.1,1.7,4.5,2.3,6.9c0.9-0.1,1.9-0.2,2.8-0.3c-0.3-1.2-0.7-2.5-1-3.7
		c-0.7-2.8-1.2-6.8-1.2-11c0-0.2,0-0.4,0-0.6c1.9,2.2,8.9,9.8,17.1,12.2l-2.1-5.1c0,0-8.3-3.6-14.5-13.1c0.1-0.5,0.2-0.8,0.2-1.1
		c0.7-3.5,1.9-6.8,4-9.3c0.1-0.2,0.3-0.3,0.4-0.5c0.1-0.2,0.3-0.5,0.7-0.8l13.1,30.8c0,0,2.2-0.1,4.2-0.5c0,0-10.4-24.6-13.6-32.1
		c0.2,0,0.4-0.1,0.7-0.1C146.1,56.7,146.2,56.7,146.3,56.7L146.3,56.7z M134.1,80.3c-3.6-4-1.8-20.1,4.6-20.9
		C134.2,62.7,132.8,74.2,134.1,80.3z"/>
	<path fill="#311D00" d="M79.7,99.1c-0.4,0-0.7,0-1-0.1c0,0.4,0,0.8,0.1,1.2c1.9,0.3,2.8-0.9,2.9-1.8l-0.2,0
		c0.1-1.2-0.9-2.3-2.2-2.8c-0.4,0.8-0.6,1.7-0.6,2.7c0.4,0.2,0.7,0.3,1.1,0.3C79.7,98.6,79.7,98.9,79.7,99.1z"/>
	<path fill="#311D00" d="M77.5,99.7c0.1,0.1,0.2,0.2,0.3,0.2c-0.1-0.4-0.1-0.8-0.1-1.4c-0.2-0.2-0.4-0.2-0.5-0.4l0-0.6
		c0.2,0.2,0.3,0.2,0.5,0.4c0.1-0.9,0.2-1.8,0.6-2.4c-0.9,0-1.4,0.2-2,0.7C76.3,96.2,75.7,98.7,77.5,99.7z"/>
	<path fill="#311D00" d="M81.9,123.5c0.8,0,1.5-0.3,2-0.9c1.5-0.6,2.6-2.1,2.6-3.9c0-2.3-1.9-4.2-4.2-4.3c-2.3,0-4.2,1.9-4.2,4.2
		c0,1.3,0.5,2.4,1.4,3.1C79.8,122.9,80.8,123.5,81.9,123.5z M81.9,123.1c-1.3,0-2.3-1-2.3-2.3c0-1.3,1-2.3,2.3-2.3
		c1.3,0,2.3,1,2.3,2.3C84.2,122,83.1,123.1,81.9,123.1z M83.7,118.4c-0.6-0.7-2.1-1-3-0.4c-0.4,0.2-0.8-0.1-0.3-0.6
		c1-0.8,2.8-0.8,3.6,0.4C84.5,118.5,84,118.9,83.7,118.4z M82.3,115.3c2.8,0,4.7,3.5,2.4,5.9c1-2.1,0.2-4.9-2.5-5
		c-2.7-0.1-3.6,2.6-3.2,4.1C78.2,119.4,78.5,115.3,82.3,115.3z"/>
	<path fill="#FFFFFF" d="M80.5,117.4c-0.5,0.5-0.1,0.8,0.3,0.6c0.9-0.6,2.4-0.3,3,0.4c0.3,0.5,0.8,0.1,0.3-0.5
		C83.2,116.6,81.4,116.6,80.5,117.4z"/>
	<path fill="#FFFFFF" d="M82.3,116.2c2.6,0.1,3.4,2.8,2.5,5c2.3-2.4,0.4-5.9-2.4-5.9c-3.8,0-4.2,4.1-3.2,5
		C78.6,118.9,79.5,116.1,82.3,116.2z"/>
	<path fill="#FFFFFF" d="M81.9,118.4c-1.3,0-2.3,1-2.3,2.3c0,1.3,1,2.3,2.3,2.3c1.3,0,2.3-1,2.3-2.3
		C84.2,119.4,83.1,118.4,81.9,118.4z M81.9,122.5c-1,0-1.8-0.8-1.8-1.8c0-1,0.8-1.8,1.8-1.8c1,0,1.8,0.8,1.8,1.8
		C83.7,121.7,82.9,122.5,81.9,122.5z"/>
	<path fill="#311D00" d="M81.9,118.9c-1,0-1.8,0.8-1.8,1.8c0,1,0.8,1.8,1.8,1.8c1,0,1.8-0.8,1.8-1.8
		C83.7,119.7,82.9,118.9,81.9,118.9z M83.2,121.2c-0.9,1.7-2.9,0.6-2.7-0.4c0.1-0.2,0.2-0.1,0.2,0.1c0.5,0.8,1.9,0.9,2.3,0.2
		C83.2,120.8,83.2,121.2,83.2,121.2z"/>
	<path fill="#FFFFFF" d="M83,121.1c-0.4,0.6-1.8,0.6-2.3-0.2c-0.1-0.2-0.2-0.3-0.2-0.1c-0.1,1.1,1.9,2.1,2.7,0.4
		C83.2,121.2,83.2,120.8,83,121.1z"/>
	<path fill="#311D00" d="M139.8,25.5c-0.2,1.4,1,3.1,1.8,3.6C142.2,28.2,141.7,25.5,139.8,25.5z"/>
	<path fill="#311D00" d="M142,30.7c0.1,1.5,0.6,2.5,1.5,3.4C144.4,32.8,143.5,31,142,30.7z"/>
	<path fill="#FFFFFF" d="M12.4,136h5.1c0-0.1-0.1-0.2-0.1-0.3c0,0,0,0,0,0c0,0,0,0,0-0.1c0-0.4,0.4-0.8,1-1.2
		c0.2-0.1,0.4-0.3,0.7-0.4c0.1-0.1,0.2-0.1,0.3-0.2c0.4-0.2,0.7-0.5,1-0.9c0.5-0.6,0.9-1.4,1.1-2.5c0,0-0.1,0-0.1,0
		c-0.1,0-0.2,0.1-0.3,0.1c-0.1,0-0.2,0-0.5,0.1c0,0,0,0,0,0c0,0,0,0,0,0c-0.7,4.7-9.8,4.2-8.8-2.2c0,0-0.8-1.7-1.5-3.2
		c-0.2-0.4-0.4-0.8-0.5-1.1c0,0,0-0.3-0.1-0.5c0-0.2-0.1-0.5,0-0.5c0,0,0,0,0,0c0,0,0,0,0,0c0,0,2.2,3.6,3.2,4.8c0,0,0,0.1,0,0.1
		c-0.1,0.2-0.1,0.5-0.1,0.7c-0.2,2.1,1.5,3.4,3.3,3.7c1.5,0.2,3-0.2,3.7-1.6c-5.6,1-5.8-1.8-5.7-2.8c0-0.1-0.1-0.3-0.1-0.5
		c-0.2-0.2-0.4-0.5-0.7-0.8c-1.4-1.7-4.1-5.6-7.1-11c-0.4,3.2,2.5,9.8,3.7,12.5c0.3,0.6,0.5,1,0.5,1.2c0.4,0.9,0.4,0.9,0.4,0.9
		c-0.6,1.6-0.2,3.4,1,4.9C11.8,135.5,12.1,135.8,12.4,136z"/>
	<path fill="#FFFFFF" d="M28.5,136c3.8-1.2,7.1-2.7,9-4c0.3-0.2,0.5-0.4,0.7-0.5c-2.9-1.9-6.4-3.2-11.5-2.4c-1.2,0.2-2.5,0.5-3.9,1
		c0,0-0.1,0-0.1,0c-0.1,0-0.1,0-0.2,0.1c0.5-0.1,1-0.2,1.5-0.3c1.5-0.3,3.1-0.4,4.2-0.4c1.2,0.1,2.6,0.2,4.2,0.7
		c1.1,0.3,2.2,0.8,3.2,1.4l-0.3,0.2l-1,0.6c-1.6,0.8-3.1,1.4-4.6,1.9c-2.4,0.9-4.5,1.4-6.4,1.7H28.5z"/>
	<path fill="#311D00" d="M43.7,120.7c-1.1,0.7-1.5,2.2-1.3,3.7c-0.5,0.9-0.2,2.3,0.8,3.3c1.1,1.1,2.5,1.4,3.5,0.8
		c0.9,0.1,1.7-0.1,2.3-0.6c1.5-1.3,1.6-3.7,0.2-5.7C47.7,120.2,45.3,119.5,43.7,120.7z M46.6,127.9c-0.8,0.7-2.2,0.5-3.2-0.5
		c-1-1-1.2-2.5-0.4-3.2c0.8-0.7,2.2-0.5,3.2,0.6C47.2,125.7,47.4,127.2,46.6,127.9z M47.2,124.9c-0.3-0.6-1.2-1.4-1.7-1.5
		c-0.5-0.1-0.3-0.9,0.3-0.7c0.6,0.2,1.5,0.9,1.7,1.3C48.1,124.9,47.5,125.4,47.2,124.9z M47.9,127.7c2.8-3.7-2.7-8-4.8-4.6
		C44.9,117.6,52.2,124.6,47.9,127.7z"/>
	<path fill="#FFFFFF" d="M45.8,122.7c-0.6-0.2-0.8,0.6-0.3,0.7c0.5,0.1,1.4,0.9,1.7,1.5c0.2,0.5,0.8,0.1,0.3-0.9
		C47.3,123.6,46.4,122.9,45.8,122.7z"/>
	<path fill="#FFFFFF" d="M43.1,123.2c2.2-3.4,7.7,0.9,4.8,4.6C52.2,124.6,44.9,117.6,43.1,123.2z"/>
	<path fill="#FFFFFF" d="M43.1,124.2c-0.8,0.7-0.6,2.2,0.4,3.2c1,1,2.4,1.3,3.2,0.5c0.8-0.7,0.6-2.2-0.4-3.2
		C45.3,123.7,43.8,123.4,43.1,124.2z M46.2,127.7c-0.6,0.5-1.7,0.1-2.5-0.6c-0.9-0.8-0.9-2-0.3-2.6c0.7-0.6,1.8-0.2,2.6,0.6
		C46.5,125.7,47,127.1,46.2,127.7z"/>
	<path fill="#311D00" d="M43.3,124.5c-0.6,0.6-0.5,1.8,0.3,2.6c0.8,0.7,1.9,1.1,2.5,0.6c0.7-0.6,0.2-2-0.3-2.7
		C45.2,124.2,44,123.8,43.3,124.5z M45.7,127.4c-1.3,0.1-2.5-1.5-2-2.2c0,0,0.4-0.5,0.4,0c0.1,0.8,0.9,1.6,1.7,1.8
		C46,127,46.1,127.3,45.7,127.4z"/>
	<path fill="#FFFFFF" d="M44.1,125.2c-0.1-0.5-0.4,0-0.4,0c-0.5,0.7,0.7,2.3,2,2.2c0.4-0.1,0.3-0.4,0.1-0.4
		C45,126.8,44.2,125.9,44.1,125.2z"/>
	<path fill="#311D00" d="M52.6,88.9c-2.3,0-4.4,0.9-6,2.4c-3.5,3.5-3.2,9.6,0.5,13.5c1.9,2,4.5,3.2,7.1,3.2c0.9,0,1.9-0.1,2.7-0.4
		l5.7-8.4c0-2.5-1-5.1-3-7.2C57.7,90,55.2,88.9,52.6,88.9z"/>
	<path fill="#311D00" d="M40.6,113.8c8,10.2,22.1,10.3,29.1,2.8C66.8,118,54.2,126.3,40.6,113.8z"/>
	<path fill="#FF3C00" d="M88.7,136h8.4c1.7-1.4,3.2-3.1,4.5-5c0,0,0.1-0.2,0.1-0.2c1.1-1.5,1.8-2.9,2.3-4.5c1-2.9,1.3-5.9,1.2-8.7
		c-0.9-0.2-1.8-0.3-2.8-0.5C102.1,124.6,97.4,131.9,88.7,136z"/>
	<path fill="#FF3C00" d="M127.6,30.9c0,0-0.1-0.2-0.2-0.4c-0.2-0.4-0.4-1.1-0.6-1.8c-0.1-0.7-0.2-1.4-0.1-2.1c0.1-0.3,0.2-0.7,0.4-1
		c0-0.1,0.1-0.1,0.2-0.2c0.1-0.2,0.3-0.3,0.4-0.4c0.1-0.1,0.2-0.1,0.3-0.2c-4.6-7.7-11.5-15.5-20.4-21.9c-1.4-1-2.8-1.9-4.3-2.8
		H27.1C19.5,5.1,12.8,11.5,7.4,19c-0.1,0.1-0.2,0.2-0.3,0.3c0,0.1-0.1,0.1-0.1,0.2C4.4,23.3,2,27.5,0,31.9v67.2
		c4.4,12.4,9.4,20.3,14.7,27.8c0,0-0.3,4.7,7.7,2.2c1.8-0.6,3.5-1,5-1.2c4.7-0.7,8.6,0.3,14.3,4.5c0.3,0.3,0.7,0.5,1,0.8
		c1.4,1,3,2,4.6,2.8H54c-3.6-1.4-6.9-3-9.4-4.4c-2.6-1.7-9.9-5.9-13.5-6.6c3.1,0.2,10.7,4.2,13.9,6c3.6,1.9,8,3.7,12.5,5h26.8
		c8.5-3.1,15.3-9.6,16.4-19.2c-14.3-2.4-33.2-5.5-35.9-6c-0.6,0.4-1.3,0.6-2,0.5c-1.4-0.1-2.8-1-3.4-2.2c-0.4-0.9-0.3-1.8,0.3-2.6
		c0,0,6.8-10.1,6.8-10.1l0.3-0.5c-0.3-1.5,0.4-2.9,0.7-3.2c0.6-0.6,3.6-5.6,4.3-7c0.1-0.2,0.9-1.4,2.5-1.6c0.7-1.1,2.4-3.9,5.4-8.6
		c-0.2-1.3,0.4-2.6,1.3-3.4c0.3-0.2,0.6-0.4,0.9-0.5c3.6-5.9,7.7-12.3,8.8-13.9c1.3-1.8,2.3-3,3.5-4.3c0.4-0.5,1.4-1.2,1.8-1.6
		c0.5-0.7,1.3-1.3,2.2-1.5c0-0.1,0.1-0.1,0.2-0.2c2.9-2.4,7-3.9,7-3.9c0.7-0.3,1.4-0.6,2.3-0.9c1-0.4,2.2-0.8,3.4-1.2
		c0.4-0.1,0.7-0.2,1.1-0.3c5.3-1.6,11.8-3.2,18.5-4.6C129.8,37.3,127.6,30.9,127.6,30.9z M48.9,127.9c-0.6,0.5-1.4,0.7-2.3,0.6
		c-1,0.6-2.4,0.3-3.5-0.8c-1-1-1.3-2.4-0.8-3.3c-0.2-1.5,0.3-3,1.3-3.7c1.6-1.1,4-0.4,5.4,1.5C50.5,124.2,50.5,126.7,48.9,127.9z
		 M82.2,114.6c2.3,0,4.2,1.9,4.2,4.3c0,1.7-1.1,3.2-2.6,3.9c-0.5,0.5-1.2,0.9-2,0.9c-1.1,0-2-0.7-2.5-1.6c-0.9-0.8-1.4-1.9-1.4-3.1
		C78,116.4,79.9,114.6,82.2,114.6z M69.8,116.6c-7.1,7.5-21.2,7.5-29.1-2.8C54.2,126.3,66.8,118,69.8,116.6z M57,107.6
		c-0.9,0.3-1.8,0.4-2.7,0.4c-2.6,0-5.2-1.2-7.1-3.2c-3.8-3.9-4-10-0.5-13.5c1.6-1.6,3.7-2.5,6-2.4c2.6,0,5.2,1.2,7.1,3.2
		c1.9,2,2.9,4.6,3,7.2L57,107.6z"/>
	<path fill="#311D00" d="M7.1,19.5c0-0.1,0.1-0.1,0.1-0.2c0.1-0.1,0.2-0.2,0.3-0.3c5.4-7.5,12.1-13.8,19.6-19h-2.4
		C14.4,7.3,5.8,16.8,0,28.5v3.4C2,27.5,4.4,23.3,7.1,19.5z"/>
	<path fill="#311D00" d="M140.8,18.6c0.4,0.6,0.7,1.1,1,1.6c0.7,1.1,1.5,2.3,2.7,4.6c0,0,0,0,0,0c0,0,0,0,0,0c-0.2,0-0.5,0-0.7,0
		c-0.6-0.8-1.2-1.4-1.8-1.7c-0.6-0.3-1.3-0.5-2-0.5c-0.1,0-2.8,0-2.5,2.8c0,0.2,0.1,0.5,0.1,0.7c0.2,0.7,0.4,1.3,0.6,1.7l0,0l0,0
		l0,0l1,2l1.1,2.3l0.5,1.1l0.7,1.3l1.3,2.7c0,0,1.5,2.9,1.6,4.5l1,0l4.3,0.1c0,0,0-0.6-0.2-1.8c-0.2-0.7-0.4-1.7-0.9-2.8
		c-0.1-0.2-0.1-0.4-0.2-0.6c-0.5-1.3-1.3-3.6-2-5.8c-0.8-2.2-1.5-4.2-1.9-4.9c0,0,0,0,0-0.1c0,0,0.1,0,0.1,0c0.3,0,0.7,0,1.2,0.1
		c0.2,0,0.4,0,0.6,0.1c0.4,0.9,0.8,2.1,1.2,3.4c0.4,1.1,0.8,2.2,1.2,3.4c0.5,1.4,0.9,2.8,1.3,4.1c0,0,0.4,0,0.7,0c0.3,0,0.6,0,0.6,0
		c0.5,0,2.3,0.2,3,0.3L149,25.2l-1.2,0.5l0,0c-0.2-0.4-0.5-0.6-0.9-0.7c-0.1,0-0.2-0.1-0.3-0.1c-0.2,0-0.3-0.1-0.5-0.1
		C140.4,14.6,133,6.3,124.7,0h-2.2C129.3,4.9,135.5,11.1,140.8,18.6z M145.3,32.8c0.5,2.1-1.1,3.3-2.6,1.5c-0.6-0.7-0.9-1.4-1.2-2.3
		l0-0.1c-0.3-1.1-0.1-2-0.1-2c-0.5-0.4-0.8-0.8-1-1.1c-0.1-0.1-0.2-0.2-0.2-0.3c-0.4-0.6-0.6-1.1-0.7-1.5c0-0.1-0.1-0.2-0.1-0.3
		c0,0,0-0.1,0-0.1c-0.1-0.4-0.1-0.7-0.1-1c0-0.6,0.1-0.9,0.2-1.1c0,0,0,0,0,0c0-0.1,0.1-0.1,0.1-0.2c0,0,0,0,0,0c0,0,0.1,0,0.1-0.1
		c0.4-0.3,0.9-0.1,0.9-0.1c1.3,0.2,2.9,2.1,2.9,4.8c0,0.1,0,0.2,0,0.3C144.3,30.2,144.9,30.9,145.3,32.8z"/>
	<path fill="#311D00" d="M103.4,0c1.5,0.9,2.9,1.9,4.3,2.8c8.9,6.4,15.8,14.2,20.4,21.9c-0.1,0.1-0.2,0.1-0.3,0.2
		c-0.2,0.1-0.3,0.3-0.4,0.4c-0.1,0.1-0.1,0.1-0.2,0.2c-0.2,0.3-0.3,0.6-0.4,1c-0.1,0.7-0.1,1.5,0.1,2.1c0.2,0.8,0.4,1.4,0.6,1.8
		c0.1,0.2,0.1,0.3,0.2,0.4c0,0,2.2,6.4,2.9,8.4c0,0,0,0,0,0c0.3-0.1,0.6-0.1,0.9-0.2c0.1,0,0.3-0.1,0.4-0.1l-2-5.4l-1.3-3.7
		c-1.3-3.1,0.2-4.2,0.2-4.2c0,0,0,0,0,0c0,0,0,0,0,0c-0.1,0.3-0.1,0.5-0.2,0.8c-0.1,0.9,0.1,1.8,0.3,2.4c0.1,0.4,0.4,1.1,0.7,2
		c0.3,0.9,0.8,2.1,1.2,3.3c0.4,1.1,0.8,2.1,1.2,3.1c0.2,0.6,0.4,1.2,0.6,1.7c0.2,0,0.4-0.1,0.6-0.1c0.2,0,0.3-0.1,0.5-0.1
		c-0.9-2.8-2.1-5.9-2.7-7.4c-0.1-0.2-0.1-0.3-0.2-0.5c-0.2-0.4-0.3-0.7-0.4-1.1c-0.2-0.5-0.3-1-0.6-1.9c-0.1-0.5-0.2-0.8-0.2-1.1
		c0-0.6,0.1-0.9,0.4-1c0.1,0,0.1-0.1,0.2-0.1c0,0,0.1,0,0.1,0c0,0,0.1,0,0.1,0c0.2,0,0.4-0.1,0.6-0.1c0.1,0,0.3,0,0.5,0
		c0.7,0,1.7,0,2.1,0c1-0.5,3-1.5,4.2-2.1c-3.8-6.5-8.6-12.3-14.4-17.4c-2.4-2.1-4.9-4.1-7.6-6H103.4z"/>
	<path fill="#311D00" d="M42.8,133.2c-0.4-0.2-0.7-0.5-1.1-0.8c-5.7-4.2-9.6-5.2-14.3-4.5c-1.6,0.2-3.2,0.7-5,1.2
		c-8,2.4-7.7-2.2-7.7-2.2C9.4,119.4,4.4,111.4,0,99.1v4c1.6,4.1,3.3,7.7,5,10.9c-0.2,1-0.6,2.7,0,5.1c0.9,3.4,1.7,5.5,4.4,11.5
		c-0.5,1.7,0,3.8,1.3,5.4h1.7c-0.3-0.2-0.5-0.5-0.7-0.7c-1.2-1.4-1.6-3.3-1-4.9c0,0,0,0-0.4-0.9c-0.1-0.2-0.3-0.6-0.5-1.2
		c-1.2-2.7-4.1-9.3-3.7-12.5c0,0,0,0,0,0c0,0,0,0,0,0c3,5.5,5.7,9.3,7.1,11c0.3,0.4,0.5,0.7,0.7,0.8c0,0.2,0.1,0.3,0.1,0.5
		c-0.1,1,0.1,3.8,5.7,2.8c0,0,0,0,0,0c0,0,0,0,0,0c-0.7,1.4-2.3,1.9-3.7,1.6c-1.8-0.3-3.4-1.6-3.3-3.7c0-0.2,0.1-0.5,0.1-0.7
		c0,0,0-0.1,0-0.1c-0.9-1.1-3.1-4.7-3.2-4.8c0,0,0,0.2,0,0.5c0,0.3,0.1,0.6,0.1,0.5c0.2,0.3,0.3,0.7,0.5,1.1
		c0.7,1.5,1.5,3.2,1.5,3.2c-1,6.4,8.2,6.9,8.8,2.2c0,0,0,0,0,0c0,0,0,0,0,0c0.2,0,0.4,0,0.5-0.1c0.1,0,0.2,0,0.3-0.1c0,0,0,0,0.1,0
		c-0.2,1.1-0.6,1.9-1.1,2.5c-0.3,0.4-0.6,0.7-1,0.9c-0.1,0.1-0.2,0.1-0.3,0.2c-0.2,0.1-0.5,0.3-0.7,0.4c-0.6,0.4-0.9,0.9-1,1.2
		c0,0,0,0,0,0.1c0,0,0,0,0,0c0,0.1,0,0.2,0.1,0.3h5.8c1.8-0.3,4-0.9,6.4-1.7c1.4-0.5,3-1.2,4.6-1.9l1-0.6l0.3-0.2
		c-1.1-0.7-2.2-1.1-3.2-1.4c-1.6-0.5-3.1-0.6-4.2-0.7c-1.1-0.1-2.7,0.1-4.2,0.4c-0.5,0.1-1.1,0.2-1.5,0.3c0,0,0,0,0,0c0,0,0,0,0,0
		c0.1,0,0.2,0,0.2-0.1c0,0,0.1,0,0.1,0c1.4-0.5,2.7-0.8,3.9-1c5.1-0.8,8.6,0.5,11.5,2.4c0,0,0,0,0,0c0,0,0,0,0,0
		c-0.2,0.2-0.5,0.3-0.7,0.5c-1.9,1.3-5.2,2.9-9,4H32c4.1-1.6,6.4-3.2,7.2-3.9c0.4,0.3,0.7,0.5,1.1,0.8c1.4,1.1,2.9,2.1,4.4,3.1h2.7
		C45.8,135.1,44.2,134.2,42.8,133.2z"/>
	<path fill="#311D00" d="M103.2,131.4c4.7,1,10.5,0.2,10.5,0.2c6.1-0.4,11-2,14.8-4.6c-0.5-0.7-0.9-1.5-1.3-2.3
		c-4.9,3.3-12,5.1-21.9,4.3l-0.6-0.1c0.3-0.7,0.6-1.4,0.9-2.1c1.1-2.6,1.8-5.6,2-8.8c-0.7-0.1-1.5-0.3-2.3-0.4
		c0.1,2.8-0.2,5.7-1.2,8.7c-0.6,1.6-1.2,3-2.3,4.5c0,0-0.1,0.2-0.1,0.2c-1.3,1.9-2.8,3.6-4.5,5h2.1
		C100.8,134.6,102.1,133.1,103.2,131.4z"/>
	<path fill="#FFFFFF" d="M143.5,29c0-2.7-1.5-4.6-2.9-4.8c0,0-0.5-0.1-0.9,0.1c0,0-0.1,0-0.1,0.1c0,0,0,0,0,0c0,0-0.1,0.1-0.1,0.2
		c0,0,0,0,0,0c-0.1,0.2-0.2,0.6-0.2,1.1c0,0.3,0,0.6,0.1,1c0,0,0,0,0,0.1c0,0.1,0,0.2,0.1,0.3c0.1,0.4,0.3,0.9,0.7,1.5
		c0.1,0.1,0.1,0.2,0.2,0.3c0.3,0.4,0.6,0.7,1,1.1c0,0-0.1,0.9,0.1,2l0,0.1c0.3,0.9,0.6,1.5,1.2,2.3c1.5,1.8,3.1,0.6,2.6-1.5
		c-0.4-1.9-1-2.7-1.8-3.5C143.5,29.2,143.5,29.1,143.5,29z M141.6,29.1c-0.8-0.5-2-2.2-1.8-3.6C141.7,25.5,142.2,28.2,141.6,29.1z
		 M143.5,34.1c-0.9-0.9-1.4-1.9-1.5-3.4C143.5,31,144.4,32.8,143.5,34.1z"/>
</g>
</svg>
