<?xml version="1.0" encoding="utf-8"?>
<!-- Generator: Adobe Illustrator 16.0.3, SVG Export Plug-In . SVG Version: 6.00 Build 0)  -->
<!DOCTYPE svg PUBLIC "-//W3C//DTD SVG 1.1//EN" "http://www.w3.org/Graphics/SVG/1.1/DTD/svg11.dtd">
<svg version="1.1" id="PILLS" xmlns="http://www.w3.org/2000/svg" xmlns:xlink="http://www.w3.org/1999/xlink" x="0px" y="0px"
	 width="200px" height="136px" viewBox="0 0 200 136" enable-background="new 0 0 200 136" xml:space="preserve">
<path fill="#B0B7BC" d="M200,128c0,4.418-3.582,8-8,8H8c-4.418,0-8-3.582-8-8V8c0-4.418,3.582-8,8-8h184c4.418,0,8,3.582,8,8V128z"
	/>
<g>
	<path fill="none" d="M143.375,89.895L158.676,136H192c4.418,0,8-3.182,8-7.602v-78.85L143.375,89.895z"/>
	<polygon fill="none" points="80.417,136 119.619,136 99.998,122.011 	"/>
	<path fill="none" d="M200,39V8c0-4.418-3.582-8-8-8h-77.4l13.077,39H200z"/>
	<path fill="none" d="M85.396,0H8C3.582,0,0,3.582,0,8v31h72.318L85.396,0z"/>
	<path fill="none" d="M0,49.549V128.4c0,4.418,3.582,7.6,8,7.6h33.341L56.62,89.891L0,49.549z"/>
	<polygon fill="#FFFFFF" points="200,49.549 200,45.753 139.732,88.703 155.41,136 158.676,136 143.375,89.895 	"/>
	<polygon fill="#FFFFFF" points="200,42 200,39 127.677,39 114.6,0 111.324,0 125.458,42 	"/>
	<polygon fill="#FFFFFF" points="75.115,136 80.417,136 99.998,122.011 119.619,136 124.902,136 100.014,118.214 	"/>
	<polygon fill="#FFFFFF" points="88.673,0 85.396,0 72.318,39 0,39 0,42 74.542,42 	"/>
	<polygon fill="#FFFFFF" points="0,45.755 0,49.549 56.62,89.891 41.341,136 44.591,136 60.262,88.703 	"/>
	<polygon fill="#002A5C" points="200,45.753 200,42 125.458,42 111.324,0 104.275,0 120.469,49 184.865,49 132.033,86.482 
		148.482,136 155.41,136 139.732,88.703 	"/>
	<polygon fill="#002A5C" points="64.047,136 75.115,136 100.014,118.214 124.902,136 136.047,136 100.157,110.207 	"/>
	<polygon fill="#002A5C" points="15.135,49 79.527,49 95.721,0 88.673,0 74.542,42 0,42 0,45.755 60.262,88.703 44.591,136 
		51.511,136 67.962,86.482 	"/>
	<path fill="#FFFFFF" d="M184.865,49h-64.396L104.275,0H95.72L79.527,49H15.135l52.827,37.482L51.511,136h12.536l36.11-25.793
		L136.047,136h12.436l-16.449-49.518L184.865,49z M141.273,132.423l-41.062-29.635l-41.491,29.635l16.053-48.598L33.042,54h50.867
		L99.998,5.352L116.088,54h50.865l-41.732,29.831L141.273,132.423z"/>
	<polygon fill="#002A5C" points="166.953,54 116.088,54 99.998,5.352 83.909,54 33.042,54 74.774,83.825 58.721,132.45 
		100.212,102.802 141.273,132.43 125.221,83.834 	"/>
</g>
</svg>
