<?xml version="1.0" encoding="utf-8"?>
<!-- Generator: Adobe Illustrator 16.0.3, SVG Export Plug-In . SVG Version: 6.00 Build 0)  -->
<!DOCTYPE svg PUBLIC "-//W3C//DTD SVG 1.1//EN" "http://www.w3.org/Graphics/SVG/1.1/DTD/svg11.dtd">
<svg version="1.1" id="PILLS" xmlns="http://www.w3.org/2000/svg" xmlns:xlink="http://www.w3.org/1999/xlink" x="0px" y="0px"
	 width="200px" height="136px" viewBox="0 0 200 136" enable-background="new 0 0 200 136" xml:space="preserve">
<path fill="#00295B" d="M200,128c0,4.418-3.582,8-8,8H8c-4.418,0-8-3.582-8-8V8c0-4.418,3.582-8,8-8h184c4.418,0,8,3.582,8,8V128z"
	/>
<g>
	<path fill="none" d="M112.205,26.171c0,0,26.1-1.148,40.378,17.106l0.022,0.028l33.033,14.582l-3.746,2.392l-0.164,0.112
		l0.168,0.105c5.016,3.187,11.793,7.528,18.103,11.688V8c0-4.418-3.582-8-8-8H87.672c0.055,0.039,0.109,0.076,0.164,0.114
		C100.801,9.386,109.197,21.426,112.205,26.171z"/>
	<path fill="none" d="M55.898,116.098c-10.377-10.01-25.673-16.832-46.762-21.056C5.9,94.395,2.862,93.861,0,93.242v35.156
		C0,132.818,3.582,136,8,136h61.475C66.583,130,62.454,122.426,55.898,116.098z"/>
	<path fill="none" d="M199.55,128.214l-21.832-1.373l-0.089-0.007l0.004-0.086l0.367-4.289v-0.011v-0.015
		c0-0.812-1.583-8.134-19.439-15.482l-0.049-0.018l-0.052,0.021c-3.037,1.407-9.265,3.823-16.899,4.233
		c-9.201,0.494-17.742-1.985-25.386-7.379l-0.051-0.035l-0.063,0.021c-3.066,1.04-9.111,3.203-15.152,7.354
		C91.239,117.792,85.363,126,83.378,136H192c4.418,0,8-3.182,8-7.602v-0.588L199.55,128.214z"/>
	<path fill="none" d="M189.062,110.251c1.321,2.442,6.203,4.19,10.938,5.312v-8.414c-2.249-0.738-4.176-1.004-5.659-1.034
		C188.764,105.998,188.37,108.971,189.062,110.251z"/>
	<path fill="none" d="M10.311,1.627C10.886,1.294,11.941,0.72,13.312,0H8C5.328,0,2.969,1.314,1.516,3.327
		C4.347,3.749,7.328,3.354,10.311,1.627z"/>
	<path fill="#002A5C" d="M95.909,90.693c-24.372,0.201-37.079,13.56-40.265,17.451c-4.128-3.213-8.834-6.088-14.064-8.59
		c-4.29-2.054-9.018-3.896-14.145-5.521c6.34-5.994,38.071-33.208,81.109-22.399c1.194,12.508,9.626,23.725,22.336,27.855
		c10.272,3.339,21.005,1.287,29.136-4.592l19.117,7.416L159.208,89.6c-6.211,5.287-14.884,7.43-23.289,4.947
		c-11.731-3.467-19.001-14.779-17.778-26.52c-15.856-8.811-43.639-16.032-43.639-16.032L81.78,62.99
		C36.932,61.745,7.212,82.878,0.98,87.745C0.649,87.671,0.325,87.6,0,87.525v5.717c2.862,0.619,5.9,1.252,9.136,1.898
		c21.089,4.225,36.386,10.946,46.763,20.955C62.454,122.426,66.583,130,69.475,136h6.384c-2.516-6-5.875-13.299-11.505-19.818
		C71.98,96.688,95.909,90.693,95.909,90.693z"/>
	<path fill="#002A5C" d="M100.907,111.148c6.041-4.15,12.086-6.414,15.151-7.455l0.064,0.031l0.051,0.06
		c7.643,5.393,16.184,7.884,25.387,7.39c7.633-0.408,13.861-2.82,16.898-4.227l0.053-0.018l0.047,0.02
		C176.417,114.298,178,121.621,178,122.434v0.015v0.011l-0.367,4.289l-0.005,0.086l0.089,0.007l21.832,1.373l0.451-0.403v-6.06
		l-2.047,1.751l-14.461-0.954c0.017-0.562-0.064-3.264-2.795-7.022c-1.76-2.418-4.264-4.77-7.441-6.983
		c-3.968-2.761-9.008-5.319-14.979-7.601l-0.049-0.018l-0.045,0.024c-0.213,0.127-21.559,12.434-40.949-3.193l-0.039-0.032
		l-0.053,0.01c-0.094,0.024-9.492,2.416-19.053,8.908c-5.618,3.812-10.196,8.074-13.602,13.062c-3.41,4.99-5.64,10.296-6.672,16.296
		h5.562C85.363,126,91.239,117.792,100.907,111.148z"/>
	<path fill="#002A5C" d="M184.251,110.589c0.767,3.298,4.351,7.111,15.749,8.966v-3.994c-4.734-1.121-9.616-2.869-10.938-5.311
		c-0.692-1.279-0.299-4.253,5.278-4.137c1.483,0.029,3.41,0.295,5.659,1.033v-4.414c-1.566-0.529-3.119-0.916-4.618-1.11
		C191.456,101.109,182.841,102.152,184.251,110.589z"/>
	<path fill="#002A5C" d="M12.501,6.229C15.192,4.832,20.262,2.308,25.331,0H13.312c-1.371,0.72-2.427,1.294-3.002,1.627
		c-2.983,1.727-5.964,2.122-8.794,1.7C0.566,4.643,0,6.253,0,8v0.55C3.543,9.152,7.721,8.706,12.501,6.229z"/>
	<path fill="#002A5C" d="M124.932,39.768l0.08,0.022l0.043-0.069c0.016-0.028,0.414-0.687,0.014-1.741
		c-0.598-1.575-2.978-3.942-10.754-6.344c3.924-0.03,24.338,0.589,34.699,16.082l0.021,0.026l0.028,0.013l25.521,10.81l-2.783,1.854
		l-0.138,0.093l0.14,0.09c0.246,0.153,16.096,10.121,28.198,18.158v-6.578c-6.31-4.16-13.087-8.5-18.103-11.688l-0.168-0.105
		l0.164-0.112l3.746-2.392l-33.033-14.582l-0.022-0.028c-14.278-18.254-40.378-17.106-40.378-17.106
		C109.2,21.425,100.803,9.386,87.838,0.114C87.781,0.076,87.727,0.039,87.672,0H77.089c2.963,1.583,5.878,3.44,8.729,5.574
		c8.333,6.23,16.153,14.822,22.631,24.849c-12.642-2.333-25.604-3.257-38.536-2.735c-3.82-7.649-10.291-13.255-17.327-15.005
		c-7.81-1.939-17.818-0.441-29.75,4.448C13.542,20.941,5.878,21.81,0,19.732v8.304c3.172-0.592,6.583-1.447,10.247-2.572
		c24.315-7.464,40.768-6.3,46.386,3.257C37.605,30.896,18.581,36.052,0,44.052v7.333C29.968,38.086,74.859,26.119,124.932,39.768z"
		/>
	<path fill="#F26522" d="M10.247,25.464C6.583,26.589,3.172,27.444,0,28.037v16.016c18.581-8,37.605-13.156,56.633-15.331
		C51.015,19.164,34.562,18,10.247,25.464z"/>
	<path fill="#F26522" d="M22.837,17.131c11.931-4.89,21.94-6.388,29.75-4.448c7.036,1.75,13.507,7.356,17.327,15.005
		c12.932-0.522,25.895,0.402,38.536,2.735c-6.479-10.027-14.298-18.619-22.631-24.849C82.968,3.44,80.052,1.583,77.089,0H25.331
		c-5.069,2.308-10.139,4.832-12.83,6.229C7.721,8.706,3.543,9.152,0,8.55v11.183C5.878,21.81,13.542,20.941,22.837,17.131z"/>
	<path fill="#FFFFFF" d="M98.089,106.641c9.562-6.492,18.959-8.883,19.052-8.906l0.053-0.012l0.039,0.033
		c19.392,15.627,40.738,3.32,40.949,3.193l0.045-0.024l0.049,0.019c5.971,2.279,11.012,4.838,14.979,7.6
		c3.179,2.214,5.683,4.564,7.44,6.984c2.731,3.758,2.812,6.461,2.796,7.021l14.461,0.954l2.047-1.751v-2.197
		c-11.399-1.854-14.983-5.666-15.749-8.965c-1.41-8.438,7.205-9.479,11.131-8.967c1.5,0.195,3.053,0.582,4.618,1.111V78.764
		c-12.103-8.039-27.952-18.005-28.198-18.159l-0.14-0.09l0.138-0.093l2.783-1.854l-25.521-10.81l-0.028-0.013l-0.021-0.026
		c-10.361-15.493-30.775-16.112-34.699-16.082c7.777,2.402,10.155,4.77,10.754,6.344c0.399,1.054,0,1.712-0.015,1.741l-0.043,0.069
		l-0.079-0.022C74.859,26.119,29.968,38.086,0,51.385v36.141c0.325,0.074,0.649,0.146,0.98,0.22c6.232-4.867,35.952-26,80.8-24.755
		l-7.277-10.994c0,0,27.782,7.221,43.64,16.032c-1.224,11.742,6.047,23.053,17.777,26.52c8.404,2.483,17.078,0.341,23.289-4.946
		l19.925,12.715l-19.116-7.418c-8.131,5.881-18.863,7.932-29.137,4.593c-12.71-4.132-21.142-15.347-22.336-27.855
		C65.507,60.827,33.776,88.041,27.436,94.035c5.126,1.623,9.855,3.466,14.145,5.52c5.229,2.502,9.936,5.377,14.064,8.59
		c3.186-3.891,15.893-17.248,40.265-17.449c0,0-23.929,5.992-31.556,25.486C69.984,122.702,73.343,130,75.859,136h1.957
		c1.032-6,3.262-11.307,6.672-16.296C87.893,114.716,92.471,110.454,98.089,106.641z M128.766,41.275
		c12.633,0.258,0.099-5.104,0.099-5.104s9.09,1.398,14.379,9.833C138.253,44.08,132.794,42.268,128.766,41.275z M166.588,67.175
		l-3.166,2.162c0,0-4.998-6.484-16.706-14.255c0,0,5.058,0.721,14.726,5.467c0.574,0.28,1.166,0.575,1.771,0.886
		c0.754,0.388,1.531,0.796,2.335,1.23c0.451,0.243,0.909,0.494,1.375,0.751c7.692,4.266,17.493,10.677,29.272,20.284L166.588,67.175
		z"/>
	<path fill="#002A5C" d="M166.922,63.417c-0.249,1.687-1.763,2.919-3.49,2.787c-1.805-0.139-3.156-1.713-3.02-3.519
		c0.068-0.849,0.453-1.597,1.029-2.135c-9.668-4.746-14.727-5.467-14.727-5.467c11.708,7.771,16.706,14.255,16.706,14.255
		l3.166-2.162l29.606,16.526C184.416,74.094,174.615,67.683,166.922,63.417z"/>
	<path fill="#F26522" d="M163.434,66.203c1.727,0.132,3.24-1.1,3.489-2.787c-0.465-0.258-0.923-0.508-1.375-0.751l-3.233,2.375
		l0.898-3.604c-0.605-0.311-1.197-0.606-1.771-0.886c-0.575,0.539-0.961,1.286-1.028,2.135
		C160.275,64.49,161.628,66.064,163.434,66.203z"/>
	<path fill="#002A5C" d="M165.548,62.665c-0.804-0.434-1.581-0.842-2.335-1.23l-0.898,3.604L165.548,62.665z"/>
	<path fill="#002A5C" d="M128.863,36.171c0,0,12.535,5.362-0.098,5.104c4.028,0.993,9.487,2.805,14.479,4.729
		C137.955,37.569,128.863,36.171,128.863,36.171z"/>
</g>
</svg>
