<?xml version="1.0" encoding="utf-8"?>
<!-- Generator: Adobe Illustrator 20.0.0, SVG Export Plug-In . SVG Version: 6.00 Build 0)  -->
<svg version="1.1" id="PILLS" xmlns="http://www.w3.org/2000/svg" xmlns:xlink="http://www.w3.org/1999/xlink" x="0px" y="0px"
	 viewBox="0 0 200 136" style="enable-background:new 0 0 200 136;" xml:space="preserve">
<style type="text/css">
	.st0{fill:#B0B7BC;}
	.st1{fill:#FFFFFF;}
	.st2{fill:#0076B6;}
</style>
<g id="DET">
	<path class="st0" d="M192,0H8C3.582,0,0,3.582,0,8v120c0,4.418,3.582,8,8,8h184c4.418,0,8-3.582,8-8V8C200,3.582,196.418,0,192,0z"
		/>
	<g>
		<path class="st0" d="M198.19,91.922c-2.693-0.635-5.497-0.198-5.497-0.198s-0.703-1.288-2.525-2.615
			c-1.839-1.314-4.995-1.891-9.006-3.149c-4.02-1.258-7.695-4.454-7.695-4.454c0.749-0.941,3.441-4.887,3.441-4.887
			c0.973,0.458,4.141,1.432,6.411,1.436c2.253,0,5.24-0.582,5.24-0.582s5.274,2.009,9.292,0.23c0.819-0.363,1.53-0.813,2.15-1.296
			V48.707c-0.325-0.117-0.644-0.222-0.947-0.306c-2.925-0.803-5.619-0.434-5.619-0.434c-1.273-1.354-3.611-2.489-6.999-2.542
			c-3.379-0.061-6.611,2.712-6.611,2.712c2.627-2.737,4.22-8.294,4.22-8.294c3.464-5.007,7.543-6.803,7.543-6.803
			s-6.475-6.769-11.744-9.978c-5.278-3.209-10.371-5.24-10.371-5.24s-1.563-4.564-4.254-6.455c-2.695-1.895-6.217-3.248-6.217-3.248
			c-0.532-1.823-2.849-4.783-6.106-6.38c-1.337-0.658-2.906-1.183-4.709-1.739h-39.304c0.614,0.443,0.985,0.761,0.985,0.761
			c-4.156-0.328-9.943,0.568-15.167,3.032c-5.221,2.469-9.346,7.514-11.064,9.575c-1.723,2.074-3.381,2.758-6.767,3.732
			c-3.383,0.975-7.854,1.377-7.854,1.377c0.23,2.751,2.916,7.055,2.916,7.055c-3.525,5.511-3.288,11.327-3.288,11.327
			s-3.125,2.768-6.219,7.191c-3.101,4.416-3.005,9.203-3.005,9.203c-1.401-0.203-2.966-0.913-2.966-0.913
			c-0.176,6.464,3.003,12.37,3.003,12.37s-2.423,2.502-3.972,5.024c-1.547,2.523-3.989,6.86-3.989,6.86
			c-1.067,1.066-7.615,6.405-7.615,6.405s-4.168,1.356-5.054,1.618c-0.891,0.262-3.981,1.171-6.454,2.77
			c-2.456,1.614-8.938,8.095-8.938,8.095c-10.938-2.4-12.669-9.004-14.044-14.457c-1.382-5.446-3.387-9.862-7.63-14.845
			C1.201,65.523,0.608,64.909,0,64.334v43.059c5.558,5.439,14.952,8.032,14.952,8.032s-0.119,3.843-0.41,6.136
			c-0.288,2.291-0.348,8.493-1.206,11.529c-0.31,1.105-0.736,2.068-1.22,2.91h89.187c-0.37-0.847-0.828-1.69-1.379-2.514
			c-2.357-3.496-6.839-5.086-6.839-5.086c3.08-1.02,6.715-3.622,8.604-7.124c1.896-3.5,2.937-9.983,2.937-9.983
			c3.972-0.24,8.538-2.227,11.006-3.379c2.458-1.139,10.234-5.453,10.234-5.453c2.623,2.048,3.964,6.132,3.964,6.132
			c9.047-0.468,12.032-1.91,12.032-1.91c5.076,2.951,16.477,5.244,21.583,5.476c5.108,0.234,7.872,1.563,7.872,1.563
			s2.904,4.348,7.145,5.661c4.254,1.32,7.38,0.966,7.38,0.966s2.832,2.187,6.786,1.554c3.958-0.628,5.482-2.674,5.482-2.674
			s0.826-0.04,1.891-0.391v-26.29C199.386,92.279,198.777,92.059,198.19,91.922z"/>
		<path class="st1" d="M195.674,95.117c-1.933-0.151-4.895,0.585-4.895,0.585c-0.975-2.915-3.643-4.416-4.848-4.761
			c-1.22-0.332-3.545-0.632-8.154-2.521c-4.606-1.886-9.262-6.409-9.262-6.409c1.109-1.175,5.868-7.845,6.505-8.77
			c0.624-0.917,1.288-1.313,1.288-1.313s3.023,2.333,5.785,2.532c2.768,0.191,6.592-0.737,6.592-0.737s4.077,1.999,7.326,0.927
			c1.999-0.655,3.291-2.475,3.99-3.777V52.552c-1.826-0.823-3.661-1.098-4.812-1.027c-1.648,0.093-3.428-0.015-3.428-0.015
			c-0.385-0.634-1.859-2.122-3.947-2.461c-2.078-0.336-4.41,0.869-5.182,1.555c-0.781,0.676-2.316,1.65-2.316,1.65
			s-1.318-0.684-3.407-1.268c-2.08-0.58-4.454-0.532-4.454-0.532v-1.012c0,0,3.045-1.173,5.089-4.179c2.035-3,3.294-7.22,3.294-7.22
			c1.035-1.548,5.242-4.904,5.242-4.904s-4.229-4.019-7.324-6.355c-3.111-2.327-9.847-5.332-10.529-5.582
			c-0.681-0.237-1.399-0.718-1.818-1.396c-0.417-0.672-0.756-1.75-1.086-2.617c-0.336-0.873-1.987-2.958-3.588-3.835
			c-1.607-0.875-5.685-2.591-5.685-2.591c-0.886-4.478-5.08-6.089-7.55-6.862C146.476,3.267,141.24,1.537,137.299,0h-22.16
			c1.005,0.913,1.729,1.725,1.729,1.725c-1.415,0.492-4.849,2.726-4.849,2.726s-6.923-0.75-13.722,1.676
			C91.509,8.552,85.941,16.24,85.941,16.24s-2.329,2.06-5.236,3.038c-2.91,0.965-7.091,1.356-7.091,1.356
			c0.349,2.147,2.562,4.885,2.562,4.885s-2.069,2.675-3.09,6.028c-1.014,3.337-0.822,6.872-0.822,6.872
			c-4.853,4.174-8.48,9.608-9.16,12.954c-0.681,3.348,0.721,5.722,0.721,5.722c-1.067,0.104-2.752-0.231-2.752-0.231
			c-0.037,4.227,2.824,7.492,2.824,7.492s-3.122,3.989-4.292,5.683c-1.163,1.702-5.301,8.872-5.301,8.872
			c-1.371,1.06-8.507,7.205-8.507,7.205s-4.033,1.337-5.201,1.671c-1.157,0.336-3.876,0.971-6.293,2.57
			c-2.426,1.603-9.506,9-9.506,9c-2.508-0.17-7.321-1.375-11.427-4.243c-4.104-2.866-6.662-9.362-7.49-12.611
			C5.078,79.363,3.879,74.74,0,69.753v32.256c0.439,0.57,0.902,1.146,1.418,1.736c5.428,6.206,17.465,8.876,17.465,8.876
			c-0.628,2.521-0.975,11.832-1.073,14.687c-0.094,2.658-0.812,6.054-1.686,8.693h33.854c1.34-2.585,2.998-5.905,2.998-5.905
			s2.025,0.999,2.656,1.435c0.633,0.438,0.577,1.16,0.332,1.597c-0.173,0.327-1.249,1.6-2.265,2.874h43.454
			c-0.744-1.055-1.73-2.091-2.971-3.016c-3.057-2.282-6.882-1.554-8.243-1.016c-1.363,0.526-3.209,1.552-4.24,1.593
			c-1.036,0.045-4.469-0.824-4.469-0.824c1.189-1.071,3.906-3.341,6.13-4.459c2.241-1.109,4.907-1.79,7.038-2.568
			c2.129-0.777,5.766-2.811,7.082-4.458c1.307-1.648,2.849-6.6,3.351-9.119c0.478-2.525,0.075-4.082,0.075-4.082
			c0.949-0.102,7.435-0.718,11.117-2.414c3.686-1.697,13.976-7.399,13.976-7.399c4.802,2.885,6.173,7.041,6.173,7.041
			c4.439-0.066,9.949-2.576,9.949-2.576c3.63,2.649,14.71,5.742,20.431,5.789c5.725,0.047,11.229,2.297,11.229,2.297
			s1.527,3.138,4.769,4.737c3.245,1.603,8.235,1.165,8.235,1.165c1.22,0.967,3.837,2.236,6.268,1.507
			c2.421-0.737,3.347-2.504,3.347-2.504s1.933,0.203,3.596-0.898V96.612C198.266,95.424,196.98,95.213,195.674,95.117z"/>
		<path class="st2" d="M117.831-0.152c0.126,0.047,0.248,0.1,0.371,0.152h1.97C118.819-0.113,117.831-0.152,117.831-0.152z"/>
		<path class="st2" d="M200.647,64.762c0.089-0.867-0.35-2.076-0.647-2.778v3.718C200.348,65.451,200.61,65.141,200.647,64.762z"/>
		<path class="st2" d="M195.376,55.102c-1.414,0.262-5.8-0.125-5.8-0.125s-0.645-1.805-1.804-2.192
			c-1.154-0.39-2.446,0.131-3.228,0.902c-0.769,0.775-3.079,2.318-4.239,2.318c-1.165,0-2.065-1.162-5.668-1.802
			c-3.613-0.644-5.8,1.031-5.8,1.031s0.334-2.665,0.147-4.522c-0.021-0.162-0.762,0.035-0.79-0.128c-0.098-1.76,0-4.37,0-4.37
			c-0.394,1.029-3.803,5.677-6.764,4.135c-2.962-1.551-2.127-7.09-2.127-7.09c4.641-2.839,11.221-2.451,11.221-2.451
			c1.271,2.831-0.4,5.664-0.4,5.664c5.538-1.803,6.83-8.627,7.48-10.041c0.636-1.42,3.596-3.09,3.596-3.09s-2.96-2.704-6.055-4.637
			c-3.083-1.931-8.753-4.379-9.786-4.764c-1.024-0.388-2.316-2.584-2.576-3.347c-0.256-0.779-1.026-3.097-2.957-4.134
			c-1.935-1.018-7.469-3.344-7.469-3.344s0.771-1.159-0.517-3.221c-1.288-2.057-5.93-2.958-13.529-5.534
			c-3.616-1.229-6.668-2.921-8.884-4.359h-3.267c0.391,0.772,0.821,1.268,0.821,1.268c-1.512-0.715-4.634-1.087-6.809-1.268h-1.97
			c2.9,1.217,4.916,3.585,4.916,3.585c-2.576,0-6.702,2.454-6.702,2.454c3.35,0,4.766,1.798,4.766,1.798
			c-3.09,1.416-9.816-0.644-17.383,0.516c-7.56,1.16-12.493,7.088-12.493,7.088c3.216-1.168,5.277-0.131,5.277-0.131
			c-2.568,0.131-9.269,4.377-11.847,5.787c-2.579,1.421-6.311,1.289-6.311,1.289c0.893,1.939,3.346,2.458,3.346,2.458
			c-3.346,2.312-5.158,7.724-5.158,7.724c1.935-2.196,4.77-2.068,5.417-0.774c0.647,1.289-0.248,3.672-2.832,5.536
			c-2.089,1.507-7.206,5.797-9.921,9.66c-2.706,3.862-3.123,6.912-3.123,6.912c3.234-1.329,4.335-0.18,4.09,1.418
			c-0.427,2.704-5.198,4.803-5.198,4.803c1.154,1.932,5.527,2.068,5.527,2.068s-5.158,5.66-7.217,8.749
			c-2.059,3.096-5.535,9.285-6.182,10.18c-0.64,0.898-8.239,6.964-9.144,7.859c-0.903,0.894-8.637,2.836-10.569,3.739
			c-1.925,0.898-8.497,7.075-10.685,9.911c-0.135,0.172-0.257,0.341-0.383,0.511c-3.127-0.221-10.401-1.173-15.329-5.244
			c-6.418-5.316-7.919-11.638-9.024-15.954C1.518,79.904,0.835,78.103,0,76.425v18.994c1.276,2.696,3.151,5.142,5.952,7.585
			c4.189,3.664,13.147,6.13,17.332,6.917c-0.115,0.39-0.242,0.788-0.374,1.209c-1.034,3.345-1.034,9.404-1.42,15.975
			c-0.219,3.783-0.784,6.622-1.519,8.895h25.88c1.758-3.146,3.796-7.245,4.754-9.197c0.089-0.189,5.053-12.409,16.934-17.819
			l0.09-0.062c-8.691,7.722-9.435,10.624-9.435,10.624s5.787-5.495,15.842-9.752c6.69-2.823,11.815-4.069,15.159-4.392
			c-8.293,2.64-15.372,6.647-22.503,10.939c-7.283,4.39-11.918,10.111-12.195,10.452c6.432,2.559,5.938,5.304,5.381,6.873
			c-0.212,0.593-0.786,1.424-1.482,2.333h16.772c-2.009-0.417-3.703-0.785-3.703-0.785c2.062-5.666,8.634-9.79,11.595-10.812
			c2.961-1.039,8.628-2.842,10.822-4.639c2.187-1.801,3.474-8.25,3.598-9.534c0.132-1.288-1.03-5.408-1.03-5.408
			c2.328-0.385,8.374-0.26,13.012-2.065c2.732-1.067,7.883-3.83,11.653-5.917c-8.272-4.769-24.783-3.562-24.783-3.562
			c17.355-3.613,29.359,0.982,29.359,0.982c5.668,1.676,8.502,7.086,8.502,7.086c3.605-0.517,8.244-2.708,8.244-2.708
			c9.958-5.367,20.991-16.484,20.991-16.484c3.996-3.605,7.991-10.944,9.909-12.623c1.94-1.678,4.384-1.289,4.384-1.289
			s1.81,2.451,5.029,2.579c3.213,0.12,6.049-0.905,6.049-0.905s4.776,1.93,6.443,1.025c1.674-0.896,2.574-4.376,2.574-4.376
			s1.347-0.257,2.184-0.862v-3.718c-0.143-0.337-0.255-0.567-0.255-0.567s0.104-0.067,0.255-0.172v-4.497
			C198.914,56.026,196.606,54.876,195.376,55.102z M155.9,23.445c1.147,0,3.536,1.553,5.204,1.656c0,0-1.454,1.987-1.667,2.505
			c-0.196,0.52,0.63,1.561,0.63,1.561s-3.324-2.5-4.363-3.227c-1.047-0.729-5.003-1.564-5.003-1.564S154.765,23.445,155.9,23.445z
			 M117.158,35.623c11.455,2.092,16.548,10.688,16.548,10.688s-8.617-6.939-17.795-7.904c-9.19-0.965-17.814,2.486-17.814,2.486
			S105.699,33.535,117.158,35.623z M89.421,59.036c-8.061,1.904-14.392-0.998-14.392-0.998c11.088-0.391,16.342-3.524,27.33-9.353
			c10.99-5.837,22.605-0.959,22.605-0.959c-8.16-1.207-14.367,0.887-19.031,3.168C101.868,52.878,97.06,57.228,89.421,59.036z
			 M137.736,69.902c0,0,3.281-4.487-1.29-9.41c-3.679-3.951-16.1-6.397-27.929-1.952c11.828-6.399,22.781-4.548,28.401-1.663
			c5.378,2.758,4.897,7.18,4.801,7.776c0,0.019,0,0.056-0.011,0.07c0,0,3.937-0.783,6.69-2.467c0.236-3.69,2.338-7.432,5.755-7.238
			c3.835,0.216,9.144,3.049,9.144,3.049C155.957,63.995,142.492,68.91,137.736,69.902z"/>
		<path class="st2" d="M86.67,135.605c-0.262,0.118-0.546,0.255-0.84,0.395h6.386c-0.131-0.091-0.256-0.184-0.397-0.27
			C89.884,134.568,88.084,134.955,86.67,135.605z"/>
		<path class="st2" d="M197.432,99.284c-2.057-1.16-4.375-0.132-6.181,0c-1.803,0.124-3.351-1.29-3.743-2.191
			c-0.379-0.898-1.546-2.581-3.087-2.834c-1.539-0.251-5.023-1.158-9.783-3.345c-2.842-1.314-6.277-4.167-8.593-6.27
			c-2.063,2.138-5.248,5.255-8.776,8.165c-3.671,3.026-8.353,5.964-11.527,7.844c7.661,3.654,16.714,4.112,20.906,4.561
			c4.89,0.513,9.917,2.83,9.917,2.83s0.649,2.83,3.741,4.246c3.081,1.422,7.595,0.643,7.595,0.643s2.321,2.316,4.25,1.674
			c1.931-0.641,2.061-3.221,2.061-3.221s2.444,1.29,3.73,0.392c1.297-0.903,0.907-4.507,0.907-4.507
			c0.381,0,0.777-0.064,1.152-0.183v-5.634C199.253,100.594,198.359,99.806,197.432,99.284z"/>
	</g>
</g>
</svg>
