<?xml version="1.0" encoding="utf-8"?>
<!-- Generator: Adobe Illustrator 16.0.3, SVG Export Plug-In . SVG Version: 6.00 Build 0)  -->
<!DOCTYPE svg PUBLIC "-//W3C//DTD SVG 1.1//EN" "http://www.w3.org/Graphics/SVG/1.1/DTD/svg11.dtd">
<svg version="1.1" id="PILLS" xmlns="http://www.w3.org/2000/svg" xmlns:xlink="http://www.w3.org/1999/xlink" x="0px" y="0px"
	 width="200px" height="136px" viewBox="0 0 200 136" enable-background="new 0 0 200 136" xml:space="preserve">
<path fill="#FFC20E" d="M200,128c0,4.418-3.582,8-8,8H8c-4.418,0-8-3.582-8-8V8c0-4.418,3.582-8,8-8h184c4.418,0,8,3.582,8,8V128z"
	/>
<g>
	<path fill="none" d="M65.472,0H8C3.582,0,0,3.582,0,8v31.445C12.591,21.081,36.528,6.531,65.472,0z"/>
	<path fill="none" d="M0,98.959v29.439C0,132.818,3.582,136,8,136h55.205C34.625,130,12.04,116.73,0,98.959z"/>
	<path fill="none" d="M200,38.882V8c0-4.418-3.582-8-8-8h-57.177c16.003,3.51,30.602,9.42,42.754,17.456
		C187.091,23.746,194.63,30.999,200,38.882z"/>
	<path fill="none" d="M191.404,105.852C176.864,120.404,156.253,131,133.118,136H192c4.418,0,8-3.182,8-7.602V95.861
		C197.566,99.346,194.693,102.561,191.404,105.852z"/>
	<path fill="#FFC20E" d="M0,92.259v6.7C12.04,116.73,34.625,130,63.205,136h24.749c-25.062-1-47.745-8.336-64.769-19.695
		C12.787,109.366,4.957,101.311,0,92.259z"/>
	<path fill="#FFC20E" d="M88.987,0H65.472C36.528,6.531,12.591,21.081,0,39.445v6.721C13.774,21.771,48.856,2.842,88.987,0z"/>
	<path fill="#FFC20E" d="M200,95.861v-6.258c-2.787,4.808-6.473,9.346-10.984,13.86C170.368,122.129,141.354,134,109.923,136h23.194
		c23.136-5,43.747-15.596,58.287-30.148C194.693,102.561,197.566,99.346,200,95.861z"/>
	<path fill="#FFC20E" d="M200,45.426v-6.544c-5.37-7.883-12.909-15.136-22.423-21.426C165.425,9.42,150.826,3.51,134.823,0h-24.319
		C151.936,2.771,186.414,20.916,200,45.426z"/>
	<path fill="#2A433A" d="M200,89.604V45.426C186.414,20.916,151.936,2.771,110.504,0H88.987C48.856,2.842,13.774,21.771,0,46.166
		v46.093c4.957,9.052,12.787,17.107,23.186,24.046C40.209,127.664,62.892,135,87.954,136h21.969
		c31.431-2,60.445-13.871,79.093-32.535C193.527,98.949,197.213,94.411,200,89.604z M99.418,126.006
		c-51.81,0-93.807-25.714-93.807-57.433c0-31.721,44.492-58.404,93.807-58.597c41.044-0.156,75.936,16.802,88.662,39.628
		l-41.373,0.03c-8.486-12.637-27.068-21.404-48.948-21.404c-30.03,0-54.377,16.516-54.377,36.889s17.184,38.262,54.377,38.242
		c22.334-0.012,40.293-9.657,48.685-22.325l-63.441,0.108l-0.195-16.479l110.123-0.041c0.147,1.32,0.301,2.609,0.301,3.947
		C193.229,100.292,151.229,126.006,99.418,126.006z"/>
	<path fill="#FFFFFF" d="M192.928,64.626L82.806,64.667l0.195,16.478l63.44-0.107c-8.391,12.668-26.35,22.312-48.684,22.324
		c-37.193,0.021-54.377-17.868-54.377-38.241s24.348-36.89,54.378-36.89c21.88,0,40.462,8.766,48.948,21.405l41.373-0.03
		C175.354,26.778,140.462,9.82,99.418,9.977C50.103,10.169,5.611,36.853,5.611,68.573c0,31.719,41.998,57.433,93.807,57.433
		c51.811,0,93.812-25.714,93.812-57.433C193.229,67.235,193.075,65.946,192.928,64.626z"/>
</g>
</svg>
