<?xml version="1.0" encoding="utf-8"?>
<!-- Generator: Adobe Illustrator 16.0.3, SVG Export Plug-In . SVG Version: 6.00 Build 0)  -->
<!DOCTYPE svg PUBLIC "-//W3C//DTD SVG 1.1//EN" "http://www.w3.org/Graphics/SVG/1.1/DTD/svg11.dtd">
<svg version="1.1" id="PILLS" xmlns="http://www.w3.org/2000/svg" xmlns:xlink="http://www.w3.org/1999/xlink" x="0px" y="0px"
	 width="200px" height="136px" viewBox="0 0 200 136" enable-background="new 0 0 200 136" xml:space="preserve">
<path fill="#DFDFDF" d="M200,128c0,4.418-3.582,8-8,8H8c-4.418,0-8-3.582-8-8V8c0-4.418,3.582-8,8-8h184c4.418,0,8,3.582,8,8V128z"
	/>
<g>
	<path fill="none" d="M76.507,22.804c-1.083,2.094-3.249,5.992-5.127,8.519c-1.731,2.525-2.452,3.825-3.968,6.64
		c-1.516,2.959-6.57,14.003-8.302,21.221c-3.292,13.468-1.442,21.22,4.909,31.757c4.692,7.002,10.177,12.058,14.436,14.363
		c6.985,4.395,16.556,5.625,21.546,5.631c4.991-0.006,14.56-1.236,21.546-5.631c4.258-2.306,9.742-7.361,14.436-14.363
		c6.352-10.537,8.203-18.289,4.908-31.757c-1.731-7.218-6.785-18.262-8.301-21.221c-1.514-2.815-2.236-4.114-3.969-6.64
		c-1.876-2.527-4.044-6.425-5.126-8.519c-3.177-6.134-3.97-14.146-1.661-19.272c0.686-1.387,1.482-2.551,2.387-3.532H75.78
		c0.904,0.981,1.701,2.145,2.386,3.532C80.475,8.657,79.682,16.669,76.507,22.804z"/>
	<path fill="none" d="M192,0h-37.042c0.71,2.528,1.592,9.549,1.521,10.39c0.362,3.898-2.525,6.135-4.547,6.568
		c-0.358,0.108-1.01,0.216-1.334,0.216c-0.435,0.036-0.723,0-1.287-0.137c-0.229-0.008-0.771-0.296-0.352,0.317
		c1.529,1.949,5.283,7.471,7.341,10.466c2.417,3.825,6.495,12.162,7.759,15.626c1.623,4.873,3.897,9.852,5.125,19.85
		c1.082,6.927,0.504,14.649,0.021,17.864c-0.831,6.171-2.836,17.502-13.217,31.578c-7.217,9.814-15.605,16.689-25.78,22.031
		c-0.856,0.451-1.868,1.229-3.021,1.229H192c4.418,0,8-3.182,8-7.602V8C200,3.582,196.418,0,192,0z"/>
	<path fill="none" d="M44.011,112.739C33.632,98.664,31.625,87.333,30.794,81.161c-0.483-3.213-1.06-10.937,0.023-17.864
		c1.227-9.998,3.5-14.978,5.125-19.85c1.263-3.464,5.341-11.802,7.759-15.626c2.056-2.996,5.811-8.517,7.34-10.466
		c0.419-0.613-0.124-0.325-0.354-0.317c-0.563,0.137-0.853,0.172-1.286,0.137c-0.324,0-0.973-0.108-1.333-0.216
		c-2.022-0.433-4.91-2.67-4.548-6.568C43.45,9.549,44.332,2.528,45.042,0H8C3.582,0,0,3.582,0,8v120.398C0,132.818,3.582,136,8,136
		h64.812c-1.151,0-2.163-0.777-3.019-1.229C59.616,129.43,51.228,122.555,44.011,112.739z"/>
	<path fill="#FFFFFF" d="M42.654,104.453c-3.609-6.582-11.983-20.585-7.853-44.981c4.764-22.304,14.348-33.563,19.833-41.287
		c2.599-3.753-0.071-5.918-2.165-5.124c-1.753,0.665-2.958,0.707-2.958,0.707c-3.105-0.418-2.672-2.439-2.094-7.708l0.722-4.331
		c0.118-0.7,0.274-1.267,0.475-1.729h-3.572c-0.71,2.528-1.592,9.549-1.521,10.39c-0.362,3.898,2.525,6.135,4.548,6.568
		c0.36,0.108,1.009,0.216,1.333,0.216c0.433,0.036,0.723,0,1.286-0.137c0.229-0.008,0.772-0.296,0.354,0.317
		c-1.53,1.949-5.285,7.471-7.34,10.466c-2.418,3.825-6.497,12.162-7.759,15.626c-1.625,4.873-3.898,9.852-5.125,19.85
		c-1.083,6.927-0.506,14.649-0.023,17.864c0.831,6.171,2.838,17.502,13.217,31.578c7.216,9.814,15.604,16.689,25.783,22.031
		c0.856,0.451,1.868,1.229,3.019,1.229h11.307c-5.271-1-10.979-2.961-15.77-5.992C59.109,124.52,50.737,117.793,42.654,104.453z"/>
	<path fill="#FFFFFF" d="M74.125,19.628c-3.321,7.651-6.786,10.25-10.539,18.189C59.544,46.623,49.728,66.4,56.368,83.29
		c9.095,22.664,26.706,30.749,43.452,31.039c0.051-0.001,0.103,0.028,0.154,0.028L99.965,111c0.012,0,0.024,0,0.036,0
		c-4.991,0-14.561-1.27-21.546-5.663c-4.259-2.308-9.743-7.378-14.436-14.38c-6.352-10.537-8.202-18.298-4.909-31.766
		c1.732-7.218,6.786-18.266,8.302-21.225c1.516-2.815,2.237-4.116,3.968-6.642c1.878-2.527,4.044-6.426,5.127-8.52
		c3.175-6.134,3.968-14.146,1.659-19.272C77.481,2.146,76.684,0.981,75.78,0h-5.484C74.69,2.251,78.526,7.849,74.125,19.628z"/>
	<path fill="#FFFFFF" d="M123.494,22.804c1.082,2.094,3.25,5.992,5.126,8.519c1.731,2.525,2.455,3.825,3.969,6.64
		c1.515,2.959,6.568,14.003,8.302,21.221c3.293,13.468,1.442,21.22-4.91,31.757c-4.692,7.002-10.176,12.091-14.435,14.396
		C114.561,109.73,104.991,111,100,111c-0.012,0-0.024,0-0.036,0l0.009,3.357c16.71-0.274,35.958-10.181,43.673-31.051
		c6.642-16.89-3.178-36.676-7.219-45.48c-3.754-7.939-7.219-10.542-10.537-18.192C121.488,7.853,125.324,2.251,129.718,0h-5.497
		c-0.904,0.981-1.701,2.145-2.387,3.532C119.525,8.657,120.316,16.669,123.494,22.804z"/>
	<path fill="#FFFFFF" d="M155.988,112.739c10.382-14.076,12.387-25.407,13.218-31.578c0.481-3.213,1.06-10.937-0.021-17.864
		c-1.229-9.998-3.502-14.978-5.127-19.85c-1.263-3.464-5.341-11.802-7.758-15.626c-2.058-2.996-5.812-8.517-7.341-10.466
		c-0.42-0.613,0.123-0.325,0.353-0.317c0.563,0.137,0.852,0.172,1.287,0.137c0.323,0,0.975-0.108,1.334-0.216
		c2.021-0.433,4.908-2.67,4.547-6.568c0.069-0.84-0.812-7.861-1.521-10.39h-3.557c0.201,0.462,0.355,1.029,0.475,1.728l0.721,4.331
		c0.576,5.269,1.012,7.29-2.092,7.708c0,0-1.206-0.042-2.96-0.707c-2.094-0.794-4.764,1.371-2.166,5.124
		c5.486,7.724,15.071,18.983,19.835,41.287c4.128,24.396-4.244,38.399-7.854,44.981c-8.084,13.341-16.457,20.066-25.695,25.555
		c-4.378,3.049-10.078,4.992-15.471,5.992h10.994c1.152,0,2.164-0.777,3.021-1.229C140.384,129.43,148.771,122.555,155.988,112.739z
		"/>
	<path fill="#003A70" d="M157.361,104.453c3.607-6.582,11.98-20.585,7.853-44.981c-4.764-22.304-14.351-33.563-19.835-41.287
		c-2.6-3.753,0.072-5.918,2.166-5.124c1.755,0.665,2.96,0.707,2.96,0.707c3.103-0.418,2.668-2.439,2.093-7.708l-0.722-4.331
		c-0.119-0.698-0.272-1.266-0.476-1.728h-21.684c-4.394,2.251-8.229,7.849-3.826,19.628c3.318,7.651,6.783,10.25,10.537,18.189
		c4.041,8.806,13.859,28.583,7.219,45.473c-7.715,20.871-26.963,30.759-43.673,31.034c-0.051,0-0.103,0.003-0.154,0.005
		c-16.746-0.29-34.357-8.375-43.452-31.039c-6.64-16.889,3.175-36.667,7.218-45.473c3.753-7.939,7.218-10.538,10.539-18.189
		C78.526,7.849,74.69,2.251,70.296,0H48.614c-0.201,0.462-0.356,1.029-0.475,1.728l-0.722,4.331
		c-0.578,5.269-1.011,7.29,2.094,7.708c0,0,1.205-0.042,2.958-0.707c2.094-0.794,4.764,1.371,2.165,5.124
		c-5.485,7.724-15.069,18.983-19.833,41.287c-4.13,24.396,4.244,38.399,7.853,44.981c8.083,13.341,16.455,20.067,25.695,25.555
		c4.79,3.031,10.499,4.992,15.77,5.992h32.074c5.394-1,11.093-2.944,15.472-5.992C140.902,124.52,149.277,117.793,157.361,104.453z
		 M135.488,20.813c-0.938,0-1.698-0.762-1.698-1.7s0.76-1.7,1.698-1.7c0.939,0,1.699,0.762,1.699,1.7S136.43,20.813,135.488,20.813z
		 M155.41,63.609c0.939,0,1.701,0.76,1.701,1.698c0,0.94-0.762,1.7-1.701,1.7c-0.938,0-1.698-0.76-1.698-1.7
		C153.711,64.369,154.473,63.609,155.41,63.609z M145.305,102.875c0.939,0,1.701,0.759,1.701,1.699c0,0.939-0.762,1.701-1.701,1.701
		c-0.937,0-1.697-0.762-1.697-1.701S144.368,102.875,145.305,102.875z M64.526,17.413c0.938,0,1.699,0.762,1.699,1.7
		s-0.761,1.7-1.699,1.7c-0.939,0-1.7-0.762-1.7-1.7S63.587,17.413,64.526,17.413z M44.604,67.007c-0.937,0-1.699-0.76-1.699-1.7
		c0-0.938,0.762-1.698,1.699-1.698c0.939,0,1.7,0.76,1.7,1.698C46.303,66.247,45.542,67.007,44.604,67.007z M54.708,106.273
		c-0.937,0-1.698-0.762-1.698-1.7c0-0.939,0.762-1.699,1.698-1.699c0.939,0,1.701,0.759,1.701,1.699S55.647,106.273,54.708,106.273z
		 M99.923,127.783c-0.939,0-1.7-0.762-1.7-1.701s0.761-1.699,1.7-1.699c0.937,0,1.699,0.76,1.699,1.699
		S100.859,127.783,99.923,127.783z"/>
	<circle fill="#FFFFFF" cx="135.488" cy="19.113" r="1.7"/>
	<circle fill="#FFFFFF" cx="155.41" cy="65.308" r="1.699"/>
	<path fill="#FFFFFF" d="M145.305,106.273c0.939,0,1.701-0.762,1.701-1.7c0-0.939-0.762-1.699-1.701-1.699
		c-0.937,0-1.697,0.759-1.697,1.699S144.368,106.273,145.305,106.273z"/>
	<circle fill="#FFFFFF" cx="64.526" cy="19.113" r="1.7"/>
	<circle fill="#FFFFFF" cx="44.604" cy="65.308" r="1.699"/>
	<circle fill="#FFFFFF" cx="54.708" cy="104.574" r="1.7"/>
	<circle fill="#FFFFFF" cx="99.923" cy="126.083" r="1.7"/>
</g>
</svg>
