<?xml version="1.0" encoding="utf-8"?>
<!-- Generator: Adobe Illustrator 16.0.3, SVG Export Plug-In . SVG Version: 6.00 Build 0)  -->
<!DOCTYPE svg PUBLIC "-//W3C//DTD SVG 1.1//EN" "http://www.w3.org/Graphics/SVG/1.1/DTD/svg11.dtd">
<svg version="1.1" id="PILLS" xmlns="http://www.w3.org/2000/svg" xmlns:xlink="http://www.w3.org/1999/xlink" x="0px" y="0px"
	 width="200px" height="136px" viewBox="0 0 200 136" enable-background="new 0 0 200 136" xml:space="preserve">
<path d="M200,128c0,4.418-3.582,8-8,8H8c-4.418,0-8-3.582-8-8V8c0-4.418,3.582-8,8-8h184c4.418,0,8,3.582,8,8V128z"/>
<g>
	<path fill="none" d="M196.98,69.226c-0.896,0.391-2.838,0.745-2.888,2.021c-0.048,1.213,2.736,0.515,3.312,0.323
		c0.723-0.24,1.423-0.557,2.064-0.968c0.538-0.346,0.531-0.355,0.531-0.926c0-0.742,0-1.485,0-2.227
		C199.062,68.173,198.065,68.75,196.98,69.226C196.119,69.602,197.975,68.79,196.98,69.226z"/>
	<path fill="none" d="M145.994,57.102c-0.133-0.071-0.267-0.143-0.399-0.214C145.72,56.974,145.853,57.045,145.994,57.102
		C145.861,57.03,145.894,57.063,145.994,57.102z"/>
	<path fill="#D7A22A" d="M77.082,5.673C77.082,5.673,77.082,5.673,77.082,5.673C77.085,5.683,77.085,5.682,77.082,5.673z"/>
	<path fill="#D7A22A" d="M118.098,25.73c-0.049-0.014-0.098-0.028-0.146-0.042C118.092,25.751,118.141,25.766,118.098,25.73
		C118.049,25.716,118.099,25.731,118.098,25.73z"/>
	<path fill="#D7A22A" d="M35.517,26.765c5.708,0.871,11.474,0.16,17.041-1.221c-0.718,0.783-1.473,1.556-2.379,2.122
		c2.916-0.799,5.864-1.489,8.805-2.186c3.091-0.732,6.156-1.588,9.286-2.145c1.442-0.257,2.912-0.472,4.375-0.553
		c1.324-0.072,2.844,0.064,4.093-0.441c1.159-0.471,2.541-0.214,3.689,0.151c1.469,0.39,3.071,0.298,4.581,0.402
		c-0.515-0.871-1.248-1.661-2.189-2.068c0.015,0.002,0.016,0,0.004-0.004c7.125,0,14.311,0.505,21.346,1.651
		c1.717,0.28,3.427,0.608,5.127,0.979c0.776,0.169,1.59,0.458,2.381,0.528c0.414,0.037,0.338-0.484,0.567-0.722
		c0.608-0.633,1.988,0.53,2.507,0.848c0.487,0.236,0.551,0.812,1.054,0.954c0.719,0.204,1.435,0.405,2.147,0.628
		c-0.44-0.2-0.744-0.637-1.161-0.846c2.082-1.504,5.121-1.975,7.602-1.402c1.111,0.256,2.042-0.386,3.203,0.102
		c1.336,0.561,1.056,1.648,0.543,2.785c0.011-0.03,0.023-0.058,0.04-0.084c-0.039,0.086-0.078,0.172-0.119,0.257
		c0.019-0.042,0.037-0.083,0.057-0.124c-0.294,0.615-1.031,0.894-1.578,1.224c-0.781,0.472-0.809-0.376-1.362-0.762
		c0.163,0.443,0.433,1.072,0.014,1.418c3.076,1.285,5.983,3.026,8.703,4.943c2.966,2.09,5.666,4.722,9.071,6.105
		c2.513,1.021,7.126,1.747,8.762-1.062c1.573-2.704,0.475-6.402-0.925-8.957c0.013,0.015,0.013,0.011,0-0.01
		c1.655,1.407,3.046,3.007,4.553,4.557c-0.135-0.138-0.269-0.278-0.403-0.417c1.584,1.908,2.767,4.06,3.823,6.295
		c0.507,1.072,0.966,2.173,1.294,3.314c0.14,0.484,0.78,2.095,0.289,2.537c-0.628,0.564-2.033,0.303-2.788,0.246
		c-1.106-0.084-2.151-0.058-3.26,0.05c-2.466,0.238-5.401,0.475-7.669,1.545c1.281,0,2.636-0.532,3.938-0.609
		c1.372-0.081,2.776,0.024,4.141,0.167c2.683,0.28,5.85,0.68,8.165,2.174c0.875,0.565,1.789,1.709,1.347,2.8
		c-0.402,0.995-1.62,1.419-2.601,1.512c-0.765,0.337,0.838,2.658,1.093,2.96c0.409,0.484,0.869,0.923,1.335,1.352
		c0.601,0.3,1.638,0.271,2.308,0.39c3.176,0.567,6.321,1.308,9.42,2.205c1.339,0.387,2.67,0.801,3.99,1.247
		c1.273,0.43,3.02,1.57,4.268,0.738c1.092-0.728,2.146-1.289,3.41-1.685c1.153-0.36,2.402-0.56,3.33-1.398
		c2.004-1.812,0.622-4.653-0.705-6.403c-0.676-0.888-1.474-1.708-2.345-2.407c-0.889,1.07-2.093,2.474-3.562,2.646
		c-2.157,0.253-1.189-2.158-0.84-3.296c0.562-1.831,0.138-3.227-0.962-4.749c-1.088-1.504-2.354-2.903-3.646-4.233
		c-5.11-5.258-11.201-9.948-17.533-13.642c2.43,1.008,4.83,2.102,7.195,3.252c1.186,0.577,2.367,1.164,3.534,1.776
		c1.104,0.578,2.78,0.614,3.997,0.583c1.033-0.027,2.097-0.064,3.093-0.365c0.581-0.176,2.273-0.887,1.718-1.739
		c-0.559-0.856-1.397-1.237-2.354-1.516c-1.236-0.36-2.049-1.108-2.763-2.162c-0.069,0.382,0.021,0.795,0.197,1.137
		c-1.393-1.044-3.271-1.156-4.585-2.305c0,0.202,0.07,0.519,0.147,0.706c-0.695-0.174-1.188-0.77-0.978-1.521
		c0.066-0.235,0.203-0.433,0.39-0.589c0.235-0.19,0.059-0.441,0.138-0.679c0.333,0.362,0.679,0.839,1.13,1.065
		c0.087-0.42,0.027-0.849-0.085-1.258c-0.114-0.42-0.86-0.616-1.222-0.814c-1.1-0.598-2.186-1.221-3.278-1.832
		c-2.226-1.243-4.454-2.481-6.688-3.708c-2.111-1.159-4.228-2.309-6.359-3.43c-0.904-0.475-1.806-1.067-2.814-1.284
		c-0.841-0.181-2.102-0.284-2.436-1.246c0,0.874,0.823,1.302,1.022,2.099c-1.217-0.608-2.393-1.243-3.649-1.777
		c-0.906-0.385-1.96-0.913-1.96-2.035c0.475,0.359,0.851,0.769,1.439,0.917c-0.312-0.498-0.632-1.063-1.1-1.432
		c-0.635-0.501-1.577-0.796-2.31-1.136c-1.419-0.66-2.856-1.279-4.308-1.864c-3.157-1.274-6.438-2.287-9.754-3.056
		c-6.776-1.572-14.246-2.413-21.093-0.808c1.092,0.109,2.158,0.328,3.217,0.616c1.106,0.301,2.252,0.891,3.382,1.056
		c1.016,0.148,1.617-0.857,2.575-0.968c0.708-0.082,1.317,1.012,1.686,1.473c-0.084-0.673-0.378-1.444-0.378-2.111
		c0.706-0.059,1.379-0.126,2.056,0.122c0.399,0.146,1.194,0.512,1.462-0.023c0.205,0.125,0.429,0.365,0.429,0.624
		c0.196,0.227,0.475,0.378,0.661,0.612c0.603,0.746-0.008,1.695,0.305,2.516c-0.3,0-0.487-0.256-0.629-0.482
		c-0.585,0.475-1.345,0.415-2.014,0.682c1.353,0.338,2.787,1.199,4.047,1.796c1.326,0.628,2.63,1.324,3.814,2.195
		c0.082-0.328,0.113-0.799,0.369-1.051c0.045,0.052,0.342,0.31,0.342,0.399c0.115-1.081,0.488-1.389,1.6-1.565
		c0.731-0.116,0.979-0.394,0.688-1.122c0.571,0.348,0.907,0.734,1.201,1.322c0.061-0.343-0.132-0.943,0.308-0.989
		c0.369-0.038,0.742,0.008,1.109,0.042c0.946,0.084,1.802,0.501,2.204,1.394c0.44,0.979-0.539,1.151-1.152,1.724
		c-0.508,0.475-0.731,0.833-0.361,1.574c-0.275-0.046-0.504-0.288-0.604-0.535c0.131,0.587-0.43,1.198-0.954,1.353
		c-0.283-0.029-0.7-0.671-0.756-0.923c0,0.166,0.158,1.469-0.222,1.234c-0.312-0.194-0.563-0.474-0.841-0.71
		c-0.562-0.475-0.845-0.633-1.582-0.65c-0.515-0.012-1.229-0.167-1.514-0.648c0.045,0.291,0.22,0.517,0.454,0.683
		c-0.177-0.029-0.352-0.058-0.521-0.122c-0.262-0.101-0.538,0.316-0.783,0.381c0.227,0.227,0.422,0.482,0.652,0.706
		c-0.869-0.145-1.539-0.698-2.438-0.8c-0.63-0.073-1.215,0.046-1.84,0.042c-0.684-0.005-1.302-0.397-1.882-0.716
		c0.105,0.211,0.495,0.593,0.169,0.768c-0.439,0.24-1.087-0.092-1.438-0.326c-0.394-0.258-0.921-0.54-1.146-0.97
		c-0.126-0.24-0.071-0.65,0.15-0.826c0.238-0.19,0.629,0.228,0.843,0.308c-0.254-0.322-0.854-0.858-0.854-1.304
		c0.544,0.113,0.573-0.024,1.036-0.331c0.559-0.368,1.256-0.453,1.906-0.534c-3.626-1.127-7.339-1.878-10.979-2.925
		c-0.589-0.169-1.212-0.388-1.832-0.375c-0.624,0.013-0.682,0.446-0.909,0.928c-0.324,0.687-0.533,0.768-1.275,0.539
		c-0.855-0.265-1.716-0.534-2.521-0.934c0.674,0.54,1.352,1.08,2.116,1.487c-0.422,0.422-0.812,0.701-1.404,0.853
		c-0.753,0.193-1.565-0.027-2.297,0.225c-1.005,0.347-1.966,0.356-2.972,0.008c-0.94-0.325-2.027-1.016-1.535-2.162
		c0.618-1.51,1.92-0.084,2.85,0.38c-0.787-1.001-1.631-1.945-0.168-2.677c-5.568-0.75-11.208-1.011-16.819-0.693
		c0.286,0.571,0.586,1.161,0.653,1.808c0.042,0.415-0.081,0.69-0.489,0.42c-0.518-0.344-1.113-0.544-1.681-0.786
		c0.409,0.409,0.769,0.852,1.089,1.334c-1.313,0.657-2.884,0.395-4.245,1.012c-0.409,0.188-0.746,0.445-1.184,0.181
		c-0.653-0.395-1.064-1.084-1.711-1.486c0.187,0.48,0.393,0.947,0.654,1.393c0.416,0.712,1.097,1.376,1.367,2.158
		C78.438,8.172,77.52,8.2,76.943,7.753c-0.7-0.551-1.831,0.042-2.679-0.095c-1.408-0.227-3.688-1.177-3.716-2.889
		c-4.058,0.957-8.116,1.91-12.184,2.823c-1.902,0.427-3.815,0.967-5.74,1.279c-0.415,0.067-1.523,0.076-1.57,0.684
		c-0.059,0.722-0.333,1.437,0.253,2.027c-0.864,0-1.634-0.221-2.44-0.518c0.432,0.576,1.064,0.972,1.675,1.331
		c0.391,0.231-1.145,1.099-1.385,1.114c-0.94,0.058-1.739-0.003-2.682,0.192c-0.966,0.2-1.857-0.041-2.74-0.434
		c0.641,0.059,1.287-0.187,1.776-0.594c-0.765-0.085-1.323-0.397-1.846-0.952c-0.852-0.902-1.669-0.468-2.751-0.227
		c-2.442,0.545-4.883,1.092-7.324,1.639c-2.218,0.497-4.475,0.656-6.726,0.931c-0.846,0.104-0.741,0.771-0.01,0.937
		c0.735,0.167,1.514,0.106,2.259,0.064c-0.023,0.008-0.023,0.01,0,0.007c-1.33,0.62-3.077,1.091-4.163,2.109
		c0.708-0.312,1.216,0.162,1.912,0.162c0.659,0,1.347-0.086,1.988-0.238c-0.301,0.05-0.559,0.247-0.871,0.247
		c0.599,0,1.186,0.497,0.857,1.121c-0.453,0.862-1.528,0.577-2.256,0.978c0.257,0,1.212-0.028,0.966,0.432
		c-0.352,0.668-1.442,0.558-1.907,1.129c0.166,0.046,0.309,0.129,0.429,0.251c-0.401,0-0.686,0.203-0.879,0.54
		c-0.326,0.556-0.736,0.862-1.361,1.023c0.518,0.172,0.986,0.273,1.531,0.343c-0.474,0.237-1.135,0.257-1.653,0.281
		c1.298,1.298,3.385,1.607,5.077,1.989C31.014,25.945,33.254,26.42,35.517,26.765C41.316,27.65,32.751,26.344,35.517,26.765z
		 M167.355,27.016c-0.45,0.681-1.766-0.552-2.373-0.842c0.308,0.479,0.671,0.934,0.876,1.471c-0.897-0.144-1.85-0.669-2.728-0.958
		c-0.739-0.243-1.918-0.694-1.918-1.642c0.003,0.003,0.005,0.003,0.004,0c0.425,0.203,0.85,0.406,1.278,0.6
		c-0.419-0.504-0.819-1.025-1.278-1.495c-0.429-0.438,0.2-0.659,0.651-0.782c-0.042,0.011-0.085,0.022-0.127,0.033
		c0.09-0.023,0.18-0.046,0.27-0.069c-0.041,0.011-0.082,0.021-0.123,0.032c0.293-0.073,0.601-0.131,0.904-0.104
		c0-0.201-0.077-0.404-0.214-0.552c0.003,0.003,0.004,0.003,0.002,0c0.714,0.436,1.435,0.888,2.021,1.492
		c-0.059-0.2-0.116-0.4-0.173-0.6c0.84,0.223,1.617,0.631,2.117,1.364C166.9,25.483,167.605,26.344,167.355,27.016
		C167.393,26.959,167.366,26.987,167.355,27.016z M152.223,16.048c0.347-0.473,1.551,0.402,2.044,0.199
		c-0.171-0.23-0.319-0.483-0.4-0.76c0.404,0.337,0.903,0.879,1.47,0.867c0.533-0.011,1.013-0.191,1.537-0.005
		c1.066,0.377,1.71,1.389,2.61,2.014c-0.25-0.318-0.482-0.673-0.585-1.069c0.586,0.363,1.982,0.981,1.53,1.894
		c-0.233,0.471-0.244,0.595,0.062,1.053c0.263,0.393,0.43,0.804,0.082,1.21c-0.553-0.486-1.106-0.973-1.66-1.458
		c0.241,0.572,0.513,1.133,0.694,1.728c-0.933,0.013-2.708-0.482-3.122-1.479c-0.016-0.042,0.503,0.012,0.552,0.02
		c-0.849-0.934-2.013-0.694-3.109-1.019c-1.024-0.303-2.069-1.146-2.217-2.262c0.399,0.277,0.796,0.573,1.251,0.754
		C152.626,17.241,152.223,16.673,152.223,16.048C152.486,15.688,152.223,16.642,152.223,16.048z M150.533,21.418
		c1.312-0.037,2.102,0.998,2.926,1.84c0.433,0.442,1.141,0.968,1.082,1.661c-0.023,0.267-0.212,0.469-0.425,0.61
		c-0.138,0.22,0.246,0.826,0.349,1.032c-0.361-0.144-0.729-0.298-1.119-0.343c-0.513-0.059-0.79,0.277-1.26,0.354
		c-0.781,0.127-1.584-0.394-2.178-0.839c0.449,0.02,0.898,0.035,1.349,0.035c-0.734-0.661-1.85-0.518-2.622-1.118
		c-0.06,0.243,0.012,0.507,0.214,0.664c-1.05,0.244-1.177-0.721-1.509-1.452c-0.459-1.013-0.035-2.081,1.227-2.081
		c-0.441-0.269-0.885-0.537-1.334-0.793c1.14,0.315,2.26,0.74,3.274,1.353c-0.069-0.318-0.203-0.646-0.453-0.865
		C150.211,21.44,150.371,21.42,150.533,21.418C150.637,21.415,150.375,21.421,150.533,21.418z M137.247,16.73
		c-0.288-0.323-1.359-1.234-0.721-1.481c0.631-0.244,1.145-0.702,1.762-0.97c1.598-0.694,3.253,0.433,4.494,1.356
		c-0.401-0.556-0.814-1.112-1.318-1.58c1.381-0.004,3.453-0.792,4.251,0.823c-0.344-0.14-0.688-0.282-1.049-0.372
		c0.261,1.143,2.078,1.303,1.999,2.595c0.003-0.047,0.007-0.095,0.011-0.143c-0.006,0.097-0.013,0.194-0.021,0.291
		c0.003-0.045,0.006-0.091,0.01-0.137c-0.125,1.441-1.821,0.631-2.488,1.343c-0.535,0.573-0.714,0.456-1.352,0.062
		c-0.817-0.506-1.64-1.008-2.493-1.453c0.354,0.456,0.74,0.903,0.982,1.434c-2.036,0.143-4.424-0.771-5.688-2.408
		C136.155,16.331,136.685,16.578,137.247,16.73C136.933,16.378,136.688,16.579,137.247,16.73z M137.434,25.09
		c-0.543-0.555-1.123-1.083-1.722-1.577c0.004,0,0.004,0,0-0.003c0.743-0.038,1.108,0.277,1.81-0.148
		c0.691-0.419,1.363-0.625,2.156-0.351c0.674,0.234,1.193,0.769,1.622,1.317c0.445,0.571,1.151,0.938,1.525,1.554
		c-0.288,0-0.689-0.403-0.946-0.53c-0.475-0.234-0.979-0.442-1.506-0.517c0.473,0.236,1.443,1.157,1.03,1.584
		c-0.591,0.61-0.994,1.38-1.646,1.938c-1.321,1.131-4.209,0.343-5.331-0.778c0.003,0,0.003,0,0-0.001
		c0.676,0.092,1.35,0.223,2.034,0.223c-0.488-0.36-0.983-0.733-1.421-1.154c-0.52-0.5,0.021-0.366,0.049-0.871
		c0.015-0.267-0.154-1.092,0.201-1.212C135.753,24.409,136.918,25.016,137.434,25.09C137.412,25.068,136.771,24.995,137.434,25.09z
		 M122.934,19.325c-0.104-0.492-0.596-1.073-0.246-1.568c0.434-0.612,1.328-0.622,1.907-1.03c-0.451-0.366-0.929-0.702-1.438-0.983
		c1.164,0.126,2.196,0.556,3.369,0.205c0.491-0.147,0.974-0.312,1.495-0.238c0.545,0.081,1.057,0.314,1.618,0.265
		c-0.211-0.242-0.491-0.412-0.788-0.528c0.932,0.127,1.93,0.384,2.742,0.869c0.344,0.205,0.728,0.506,0.783,0.932
		c0.028,0.21-0.036,0.418-0.142,0.599c-0.188,0.323-0.894-0.031-1.199-0.136c0.163,0.245,0.893,0.975,0.434,1.249
		c-0.599,0.353-1.384,0.384-1.89,0.896c-1.228,1.25-2.804,0.629-4.266,0.264c0.382,0.354,0.745,0.744,1.004,1.2
		c-1.147,0.535-3.89,1.213-4.841-0.049c-0.364-0.483-0.051-1.013,0.504-0.863c0.442,0.12,0.878,0.346,1.33,0.421
		c-0.711-0.66-1.402-1.348-2.188-1.92C121.733,19.012,122.346,19.127,122.934,19.325C122.793,18.659,122.349,19.128,122.934,19.325z
		 M107.329,13.842c0.78,0.019,1.331,0.014,1.935-0.519c0.635-0.56,1.357-0.849,2.195-0.939c-0.271-0.149-0.573-0.288-0.778-0.53
		c1.456,0.383,2.977,0.485,4.469,0.379c0.501-0.036,1.462-0.051,1.489,0.656c0.018,0.453-0.287,0.95-0.623,1.233
		c0.057-0.047,0.114-0.095,0.171-0.142c-0.119,0.097-0.235,0.196-0.354,0.293c0.054-0.046,0.108-0.091,0.163-0.136
		c-0.707,0.575-1.954,0.82-0.938,1.851c-0.347-0.04-0.695-0.197-1.028-0.294c-0.5-0.146-0.604,0.319-0.836,0.717
		c-0.642,1.098-1.585,1.842-2.762,2.305c0.448,0.635,0.926,1.281,1.568,1.735c-1.265-0.537-2.584-1.137-3.557-2.135
		c-0.041,0.365-0.062,0.796,0.153,1.118c-1.776,0.724-3.713,0.008-5.167-1.083c0.683,0.113,1.367,0.24,2.062,0.24
		c-1.356-0.684-3.359-2.53-1.371-3.84c1.738-1.146,3.668,0.522,5.349,0.923C108.698,15.165,107.822,14.655,107.329,13.842
		C107.86,13.854,107.798,14.614,107.329,13.842z M84.13,12.819c0.405,0.511,0.829,1.063,1.417,1.375
		c-0.279-0.66-0.769-1.618-0.372-2.311c0.276-0.482,0.734-0.952,1.235-1.201c0.432-0.215,1.111-0.489,1.587-0.263
		c0.573,0.272,0.868,1.628,1.301,2.136c-0.086-1.294-0.26-2.631,0.035-3.912c0.198,0.434,0.558,1.737,1.173,1.735
		c0.668-0.003,1.321-0.194,1.999-0.174c1.363,0.042,2.531,0.689,2.306,2.221c0.007-0.053,0.016-0.106,0.024-0.16
		c-0.005,0.104-0.022,0.218-0.045,0.318c0.006-0.053,0.013-0.106,0.021-0.159c-0.122,0.888-0.474,1.835-1.294,2.3
		c-0.258,0.146-0.569,0.176-0.819,0.331c-0.209,0.129-0.058,1.407-0.058,1.667c-0.878-0.789-1.317-1.57-2.667-1.404
		c-1.114,0.137-1.803,1.17-3.028,1.065C85.298,16.244,83.066,14.669,84.13,12.819C84.523,13.315,82.884,14.986,84.13,12.819z
		 M72.725,13.919c-0.011,0.091-0.021,0.182-0.032,0.273C72.704,14.102,72.714,14.011,72.725,13.919
		c-0.152,1.296-1.525,1.814-2.365,2.604c-0.485,0.455-0.627,1.122-1.083,1.589c-0.51,0.524-1.324,0.54-1.838,1.082
		c0.519,0.125,1.073,0.01,1.57-0.148c-0.992,0.85-1.954,1.389-3.282,1.461c-1.245,0.068-2.617,0.007-3.841-0.245
		c-0.521-0.107-1.063-0.307-1.346-0.786c-0.165-0.28-0.359-0.855-0.764-0.85c-0.926,0.012-1.805,0.416-2.767,0.416
		c1.324-0.55,2.471-1.476,3.446-2.512c-0.77,0.331-2.311,1.27-2.331-0.155c-0.011-0.776,0.57-1.17,0.891-1.806
		c0.334-0.661,1.097-1.09,1.771-1.334c0.748-0.271,1.54-0.241,2.288-0.555c0.765-0.321,1.474-0.762,2.245-1.069
		c0.81-0.323,1.662-0.435,2.515-0.211c0.727,0.19,1.236,0.002,1.958-0.121c-0.75,0.593-1.531,1.162-2.393,1.583
		c0.631-0.073,1.253-0.213,1.86-0.4c0.523-0.161,1.097-0.531,1.663-0.453C71.934,12.148,72.856,12.792,72.725,13.919
		c0.012-0.097,0.023-0.194,0.034-0.291C72.748,13.726,72.736,13.823,72.725,13.919C72.706,14.083,72.738,13.804,72.725,13.919z
		 M37.806,20.419c-0.217-0.671,0.696-1.142,1.084-1.519c0.652-0.634,1.183-1.397,2.167-1.469c0.809-0.06,1.584,0.249,2.371,0.374
		c1.021,0.163,2.061-0.048,3.077-0.149c-0.408,0.521-1.06,0.785-1.681,0.95c0.696,0.451,0.744,1.199,0.701,1.954
		c-0.038,0.665,0.325,1.573,0.128,2.178c-0.334,1.031-2.096,1.126-2.975,1.056c0.321,0.155,0.646,0.339,1.005,0.387
		c-0.482,0.37-1.109,0.607-1.72,0.542c-0.718-0.077-1.042,0.177-1.704,0.437c-1.119,0.438-2.832,0.753-3.677-0.359
		c0.891-0.161,1.784-0.313,2.681-0.435c-0.719-0.168-3.216-0.372-2.441-1.607c0.2-0.319,0.599-0.661,0.658-1.047
		c0.032-0.212-1.972-0.631-2.25-0.734C35.474,20.938,37.833,20.501,37.806,20.419C37.622,19.85,37.84,20.526,37.806,20.419z"/>
	<path fill="#D7A22A" d="M161.877,23.365C161.845,23.373,161.914,23.355,161.877,23.365
		C161.875,23.365,161.881,23.364,161.877,23.365z"/>
	<path fill="#9F792C" d="M164.057,57.758c-0.771-0.709-1.547-1.458-2.059-2.383c-0.2-0.364-0.352-0.749-0.436-1.156
		c-0.131-0.663-0.201-0.713,0.407-0.819c0.806-0.14,1.689-0.491,2.137-1.222c0.559-0.913,0.044-2.163-0.86-2.65
		c0.6,0.534,0.65,1.42-0.091,1.853c-1.034,0.604-2.535,0.135-3.61-0.101c-2.457-0.545-4.884-1.255-7.383-1.59
		c-4.955-0.665-10.083,0.271-14.852,1.604c0.307,0.21,1.094,0.13,1.484,0.222c0.499,0.116,0.982,0.29,1.447,0.507
		c0.921,0.43,1.758,1.019,2.516,1.694c0.733,0.656,1.387,1.395,1.997,2.166c0.339,0.428,0.603,0.866,1.174,0.979
		c0.596,0.117,1.209-0.037,1.807-0.056c2.658-0.102,5.348-0.004,8.003,0.143c1.41,0.078,2.818,0.187,4.224,0.328
		c0.771,0.078,1.539,0.166,2.307,0.264C162.615,57.583,163.915,57.617,164.057,57.758C163.148,56.923,164.065,57.767,164.057,57.758
		z"/>
	<path fill="#9F792C" d="M88.818,27.091C88.74,27.133,88.945,27.023,88.818,27.091C88.812,27.094,88.832,27.083,88.818,27.091z"/>
	<path fill="#9F792C" d="M115.916,58.359c0.195,0.199,0.302,0.21,0.565,0.261C116.28,58.561,116.092,58.474,115.916,58.359
		C115.971,58.415,116.101,58.475,115.916,58.359z"/>
	<path fill="#9F792C" d="M49.5,47.045c0.003-0.002,0.005-0.006,0.009-0.009C49.29,47.18,49.39,47.117,49.5,47.045z"/>
	<path fill="#9F792C" d="M47.054,35.074c-4.979,2.167-10.3,4.083-15.805,4.118c2.313,1.062,5.042,0.781,7.479,1.24
		c-4.055,4.055-10.072,5.529-15.589,6.189c-1.037,0.124-0.975,1.466-1.128,2.307c-0.193,1.072-0.282,2.154-0.331,3.241
		c-0.061,1.367,0.004,2.75,0.089,4.115c0.088,1.428,0.535,2.824,0.535,4.258c0.842-0.842,1.892-1.408,3.074-1.581
		c-0.442-0.442-1.101-0.562-1.695-0.637c1.305-0.237,3.789-0.621,4.675,0.688c0.734,1.085-0.23,2.445-0.646,3.445
		c-0.215,0.519-0.135,1.238-0.537,1.64c-0.443,0.458-1.046,0.721-1.493,1.167c0.592,0,1.35-0.448,1.924-0.183
		c0.402,0.186,0.733,1.161,1.011,1.529c0.458,0.61,1.048,1.1,1.477,1.735c0.279,0.413,0.531,1.752,1.161,1.607
		c0.39,0,0.805-0.4,1.145-0.555c-1.002,1.002-1.635,2.15-2.904,2.905c0.665,0.117,1.319-0.072,1.983-0.072
		c0.006,0.885-0.257,1.774-0.628,2.568c-0.227,0.484-0.5,0.946-0.808,1.383c-0.184,0.261-0.704,0.637-0.738,0.97
		c-0.07,0.666,1.331,1.899,1.736,2.363c0.225,0.257,1.429,2.049,1.79,1.916c0.362-0.134,0.712-0.574,1.01-0.814
		c0.445-0.358,0.91-0.691,1.385-1.007c0.5-0.332,2.027-0.88,2.178-1.495c0.131-0.536,0.353-0.992,0.86-1.274
		c1.003-0.558,0.914-1.411,1.614-2.198c-1.494-0.557-3.057-0.949-4.622-1.245c4.783-3.171,10.136-5.111,15.616-6.688
		c-0.625-0.691-1.194-1.374-1.062-2.371c0.112-0.729,1.421-2.297,0.504-2.822c0.405-0.303,0.728-0.705,0.993-1.132
		c-0.868,0.006-2.141,0.803-2.836-0.045c-0.864-1.053-0.397-2.496-0.073-3.65c-0.55,0.044-1.104-0.057-1.63-0.21
		c1.405-0.183,2.854-0.537,4.039-1.345c-0.66,0-1.33,0.138-1.98,0.21c0.289-2.233,3.293-0.919,4.535-0.506
		c1.354,0,1.891,2.499,2.456,3.395c1.133,1.797,3.683,1.145,4.942,2.648c0.261,0.281,0.364,0.655,0.791,0.714
		c0.551-0.058,1.104-0.125,1.656-0.164c1.223-0.087,2.443-0.208,3.667-0.285c-1.951-2.288-4.852-3.5-7.649-4.391
		c7.41-0.99,14.899-1.097,22.363-1.177c-0.592-0.494-1.335-0.742-2.041-1.022c1.613-0.185,3.238-0.029,4.85,0.087
		c-2.335-1.17-4.923-1.698-7.432-2.354c0.01,0.001,0.012,0.001,0.007,0c1.376,0,3.167,0.286,4.667,0.438
		c2.068,0.209,4.134,0.456,6.197,0.716c4.274,0.54,8.528,1.204,12.773,1.935c8.64,1.487,17.221,3.455,25.658,5.835
		c-2.224-0.646-4.465-1.239-6.707-1.813c-1.153-0.295-2.308-0.586-3.466-0.863c-0.649-0.612-1.32-1.176-1.948-1.82
		c-1.666-1.562-3.349-3.109-5.11-4.564c-0.914-0.541-2.026-0.71-3.044-0.971c-1.12-0.287-2.241-0.569-3.367-0.834
		c-8.487-1.999-17.061-3.743-25.706-4.911c0.014,0.001,0.015,0.001,0.003,0c9.753,0.841,19.494,2.391,29.078,4.362
		c-2.803-1.995-5.841-3.676-8.801-5.424c-1.217-0.719-2.674-1.618-3.355-2.909c-0.592-1.114,0.162-2.217,0.918-3.031
		c0.412-0.444,0.903-0.768,1.272-1.25c0.484-0.632,0.832-1.348,1.339-1.963c0.913-1.107,2.017-2.078,3.175-2.919
		c2.703-1.963,5.892-3.273,9.163-3.913c-0.604-0.837-1.347-1.602-2.205-2.181c0.003,0,0.003,0,0-0.001
		c1.13-0.404,2.455-0.289,3.604-0.035c-0.095-0.409-0.295-1.117-0.057-1.502c0.254-0.41,1.637-0.042,1.983,0.096
		c-4.416-2.038-9.682-2.516-14.488-3.042c-5.222-0.572-10.478-0.897-15.732-0.897c0.948,0.411,1.67,1.203,2.194,2.075
		c-1.352-0.099-2.709-0.173-4.063-0.234c0.394,0.145,0.785,0.306,1.165,0.48c-0.626-0.09-1.256-0.173-1.89-0.188
		c0.816,0.454,0.456,1.049,0.458,1.804c0.003,0.772,0.569,1.39,0.709,2.128c-0.683-0.055-1.376-0.12-2.063-0.12
		c0.925,0.448,1.865,0.87,2.745,1.403c-0.004,0-0.003,0,0.003,0.003c-0.587-0.036-1.297,0.149-1.584,0.729
		c-0.258,0.521-0.077,1.145-0.375,1.66c-0.392,0.675-3.088,1.002-2.086,1.972c-0.662-0.148-1.321-0.327-1.999-0.39
		c0.376,0.376,0.762,0.762,1.191,1.076c-0.001,0-0.001,0,0.002,0.002c-1.404-0.284-2.842,0.262-4.213-0.302
		c-0.397-0.163-0.835-0.438-1.035-0.836c-0.504-0.504,0.33-1.067,0.382-1.522c0.078-0.673-0.801-1.191-1.039-1.805
		c-0.232-0.6,0.344-0.441,0.778-0.44c0.833,0.002,1.684,0.018,2.493,0.241c-0.933-0.521-1.852-1.112-2.887-1.413
		c-0.757-0.221,0.185-0.811,0.562-1.082c0.254-0.182,0.514-0.364,0.718-0.604c0.144-0.169,0.274-0.71,0.538-0.712
		c0.792-0.006,1.708,0.338,2.498,0.457c-1.126-0.431-2.119-1.161-3.288-1.487c0.01,0.001,0.009,0-0.002-0.003
		c0.551-0.028,1.133-0.009,1.678-0.1c0.71-0.129,1.243-0.632,1.826-1.013c-4.442,0.083-8.844,0.865-13.154,1.901
		c-4.307,1.032-8.629,2.01-12.906,3.162c0.911-0.547,1.669-1.343,2.381-2.122c-4.412,1.093-8.975,1.997-13.542,1.633
		c-4.493-0.357-8.905-1.391-13.278-2.439c5.142,3.518,11.296,6.183,17.59,6.451c6.373,0.272,12.782-1.865,18.266-4.999
		c-0.757,0.936-2.012,1.639-2.961,2.368c-1.147,0.88-2.335,1.658-3.585,2.382c-1.23,0.713-2.507,1.319-3.795,1.92
		C49.815,33.535,48.486,34.405,47.054,35.074C46.793,35.188,48.604,34.35,47.054,35.074z M88.121,27.74
		c0.156-0.273,0.408-0.488,0.68-0.638c-0.037,0.021-0.074,0.041-0.111,0.059c0.085-0.047,0.171-0.093,0.258-0.139
		c-0.029,0.018-0.059,0.034-0.09,0.049c0.675-0.354,1.312-0.553,1.412-1.416c0.756,0.145,1.513,0.287,2.264,0.458
		c-0.167-0.246-1.071-1.028-0.99-1.219c0.204-0.483,1.005-0.611,1.438-0.776c0.704-0.272,1.323-0.842,2.11-0.86
		c0.944-0.021,1.771,0.639,2.645,0.902c-0.244-0.206-0.492-0.437-0.63-0.731c0.002,0,0.002-0.001-0.001-0.003
		c0.777,0.053,2.095,0.115,2.095,1.155c-0.046,0.411-0.814,0.623-0.608,1.075c0.056,0.123,0.88,0.88,0.943,0.817
		c-0.342,0.009-0.633-0.184-0.959-0.257c1.068,1.248-0.073,2.887-1.312,3.459c0.505,0.224,1,0.474,1.477,0.752
		c-0.014-0.003-0.015-0.002-0.002,0.003c-0.597-0.06-1.317-0.292-1.913-0.207c-0.535,0.077-0.905,0.571-1.241,0.941
		c-0.384,0.423-0.798,0.835-1.364,0.997c-0.774,0.221-1.415-0.193-2.152-0.355c0.287,0.248,0.579,0.493,0.833,0.775
		c-1.311,0.474-2.609-0.38-3.822-0.75c0.014,0.002,0.014,0.001,0.001-0.002c0.459,0.033,0.919,0.057,1.375,0.119
		c-0.827-0.665-1.739-1.252-2.429-2.07c0.004,0.001,0.004,0,0-0.002c0.439,0.072,0.882,0.146,1.315,0.254
		C88.593,29.684,87.569,28.701,88.121,27.74z M81.158,40.379c-0.514-0.323-1.067-0.576-1.627-0.807
		c-0.298-0.124-0.878-0.096-0.541-0.482c0.525-0.6,1.503,0.145,2.012-0.557c0.51-0.704,0.899-1.029,1.817-0.896
		c0.87,0.126,1.667,0.509,2.482,0.812c-0.009,0-0.009,0,0,0.003c-0.573,0.04-1.147,0.056-1.722,0.058
		c1.131,0.273,2.381,0.684,3.254,1.485c0.4,0.368,0.551,0.951,0.992,1.266c0.229,0.164,0.938,0.297,0.71,0.714
		c-0.863-0.18-1.757-0.264-2.634-0.342c0.728,0.28,1.454,0.563,2.181,0.845c-0.431,0.366-0.845-0.069-1.307,0.004
		c-0.488,0.076-0.68,0.651-1.021,0.937c-0.425,0.364-0.715,0.226-1.089,0.716c-0.307,0.402-0.799,0.442-1.265,0.383
		c-1.035-0.13-1.505-0.734-1.708-1.72c-0.154-0.746-1.454-1.16-2.035-1.478c0.005,0.001,0.005,0,0-0.001
		c0.392,0.017,0.78,0.072,1.165,0.141c-0.556-0.926-1.903-1.188-2.787-1.676C79.095,39.866,80.125,40.144,81.158,40.379
		C80.445,39.931,80.135,40.146,81.158,40.379z M41.381,62.603c-1.284,1.021-2.441,2.186-3.575,3.368
		c-0.888,0.927-2.36,1.439-3.565,0.828c-0.898-0.456-1.621-1.614-1.811-2.584c-0.239-1.218,1.938-1.906,2.78-2.309
		c-0.918,0-1.832,0.117-2.735,0.271c0.075-1.481,0.297-2.989,0.022-4.462c-0.104-0.557-0.446-1.026-0.545-1.566
		c-0.108-0.596,1.211-1.119,1.626-1.337c-1.169,0.176-2.379,0.295-3.55,0.07c0.353,0,1.473-0.19,1.542-0.606
		c0.071-0.427,0.103-0.86,0.182-1.286c0.182-0.973,1.44-2.224,2.26-2.723c0.876-0.533,2.249-0.214,3.158,0.063
		c0.519,0.159,1.095,0.386,1.337,0.915c0.16,0.351,1.026,0.18,1.314,0.154c-0.82,0.598-1.815,0.897-2.77,1.205
		c0.549,0.088,1.104,0.139,1.66,0.146c0.153,0.002,0.27,0.824,0.298,0.936c0.291,1.157,0.476,2.44,1.258,3.391
		c-0.732,0.438-1.487,0.85-2.293,1.135c0.893-0.04,1.686-0.364,2.549-0.479c0.596-0.079,1.349,0.858,1.551,1.355
		c0.409,1.009,0.307,2.739-0.622,3.456C41.873,62.218,41.441,62.557,41.381,62.603C40.083,63.636,41.551,62.471,41.381,62.603z
		 M49.51,47.036c0.044-0.028,0.088-0.056,0.131-0.083c-0.886,0.539-0.904,1.354-2.069,1.561c-1.583,0.282-2.927-0.288-4.481-0.309
		c0.675,0.199,1.348,0.406,2.021,0.613c-1.546,0.236-2.822,0.201-3.836-1.12c-0.476-0.62-0.886-1.281-0.649-2.089
		c0.161-0.551,0.205-0.706-0.424-0.895c1.061-0.095,2.128-0.022,3.188,0.051c-0.67-0.213-1.356-0.376-2.045-0.515
		c0.132-0.553,0.268-1.248,0.887-1.447c0.756-0.243,1.554,0.141,2.281-0.286c0.816-0.48,3.209-0.5,3.486,0.734
		c-0.458-0.043-0.918,0.021-1.369,0.102c1.096,0.305,2.129,0.421,2.956,1.285C50.308,45.392,50.497,46.41,49.51,47.036
		C49.751,46.882,51.085,46.037,49.51,47.036z M68.939,44.699c0.408,0.754,0.855,1.541,1.5,2.119c0.904,0.81,2.156,0.488,3.225,0.236
		c-0.571,0.552-1.339,1.343-2.209,1.276c0.296,1.028,0.742,1.808,1.522,2.523c0.507,0.464,1.333,1.206,0.853,1.959
		c0.044-0.068,0.089-0.135,0.133-0.203c-0.094,0.141-0.188,0.283-0.278,0.425c0.044-0.068,0.089-0.137,0.134-0.206
		c-0.79,1.181-2.763,0.761-3.936,1.077c-1.004,0.271-1.899,0.572-2.959,0.458c-1.04-0.111-2.029-0.482-3.002-0.843
		c0.397-0.197,0.818-0.358,1.258-0.427c-0.69-1.267-1.909-2.071-2.83-3.145c-0.27-0.315-0.655-0.689-0.786-1.093
		c-0.085-0.264,1.817-0.753,2.08-0.814c-0.55,0.011-1.111-0.011-1.655-0.089c-0.894-0.128-0.708-0.739-0.585-1.539
		c0.084-0.547,0.298-1.018,0.497-1.528c0.123-0.315,0.067-1.005,0.393-1.163c0.84-0.407,2.014-0.438,2.922-0.597
		c-0.334-0.518-1.045-0.641-1.606-0.724C65.924,41.611,67.814,42.618,68.939,44.699C69.375,45.505,67.766,42.528,68.939,44.699z
		 M52.712,34.84c0.434,0.191,0.882,0.367,1.342,0.482c-0.537-0.461-1.076-0.971-1.389-1.617c0.665-0.034,1.219-0.413,1.688-0.857
		c0.578-0.545,1.01-0.782,1.769-0.967c0.706-0.172,1.07-0.809,1.884-0.817c0.743-0.007,1.457,0.289,2.178,0.423
		c-0.621-0.419-1.308-0.796-1.787-1.388c1.112,0.36,4.49-0.184,4.378,1.886c-0.034,0.634-0.982,1.508-0.453,2.109
		c0.535,0.604,1.713,0.781,2.456,0.963c-0.004,0-0.004,0,0.001,0.001c-0.687-0.052-1.567-0.222-2.224,0.044
		c-0.384,0.156-1.438,0.396-1.612,0.773c-0.191,0.69,0.445,1.386,0.229,2.141c-0.232,0.81-1.05,1.035-1.8,1.075
		c-0.382,0.021-0.679-0.117-1.018,0.093c-0.36,0.223-0.688,0.421-1.091,0.562c-0.858,0.301-1.725,0.314-2.61,0.137
		c-1.642-0.328-3.476-0.871-4.959-1.656c0.004,0,0.003,0-0.002-0.002c1.279,0.118,2.567,0.184,3.852,0.107
		c-0.814-0.258-1.782-0.514-2.346-1.205c1.011-0.676-0.03-1.888,0.477-2.771C52.019,34.521,52.363,34.686,52.712,34.84
		C52.989,34.961,52.361,34.685,52.712,34.84z"/>
	<path fill="#9F792C" d="M41.381,62.603c0.025-0.021,0.049-0.042,0.074-0.062C41.192,62.749,41.26,62.697,41.381,62.603z"/>
	<path fill="#FFFFFF" d="M98.135,35.786c2.893-1.923,6.746-2.802,10.163-3.051c3.698-0.27,7.508,0.119,11.112,0.964
		c7.415,1.739,13.999,5.896,21.464,7.44c-0.076-0.017-0.217-0.025-0.294-0.057c0.155,0.063,0.4,0.084,0.554,0.115
		c-3.254-0.777-6.786-2.369-8.589-5.342c-0.049,0.517-0.043,1.049,0.099,1.552c-3.474-1.736-8.62-3.625-8.62-8.319
		c-0.767,0.736-1.299,1.785-1.295,2.862c-0.342-0.137-0.68-0.344-0.975-0.57c0.119,0.426,0.356,0.874,0.707,1.154
		c0.31,0.267,0.915,0.761,0.695,1.285c-0.202,0.481-2.967-0.884-3.311-1.01c0.25-0.037,0.502-0.049,0.755-0.036
		c-0.373-0.868-0.958-1.265-1.494-1.986c-0.202-0.271-0.322-0.597-0.245-0.937c0.435,0.035,0.908,0.079,1.319,0.235
		c-0.67-0.57-1.391-1.219-2.274-1.417c0.264-0.015,0.526-0.029,0.79-0.043c0.581-0.032,0.319-0.005,0.44-0.412
		c0.096-0.319,0.326-0.575,0.58-0.778c0.622-0.498,1.395-0.736,2.062-1.157c0.59-0.371,0.985-0.96,1.306-1.563
		c0.509-0.959,1.119-0.24,1.779,0.271c-0.225-0.58-0.793-1.494-1.415-1.716c-0.6-0.192-1.5-0.036-2.115,0.021
		c-1.745,0.159-3.017,0.794-4.541,1.556c0.486,0.301,0.972,0.621,1.428,0.966c-0.022-0.005-0.024-0.005-0.008,0.001
		c-0.677-0.182-1.916-0.585-2.493-0.008c-0.545,0.569-0.921,1.448-0.764,2.241c0.186,0.938,1.112,1.49,1.695,2.171
		c0.609,0.745,0.06,1.18,0.256,2.02c-0.005-0.005-0.007-0.004-0.005,0.002c-0.401-0.256-0.813-0.52-1.275-0.652
		c0.202,0.206,0.847,0.763,0.617,1.107c-0.166,0.167-1.178-0.658-1.397-0.797c-1.378-0.877-3.18-1.207-3.703-2.991
		c0.011,0.014,0.013,0.013,0.006-0.001c0.377,0.514,1.048,0.667,1.559,1.001c-0.369-0.908-1.36-1.231-1.951-1.946
		c0.003,0,0.004-0.001,0.002-0.002c0.514,0,0.457-0.557,0.468-0.916c0.019-0.573-0.12-0.88-0.699-0.975
		c-1.054-0.167-1.989-0.108-3.02,0.141c0.858,0.579,1.604,1.343,2.207,2.182c-2.975,0.581-5.912,1.789-8.451,3.442
		c-1.082,0.704-2.091,1.506-2.996,2.424c-0.442,0.448-0.877,0.927-1.257,1.429c-0.447,0.591-0.653,1.364-1.199,1.883
		C96.583,36.97,97.321,36.327,98.135,35.786C98.971,35.23,97.323,36.325,98.135,35.786z"/>
	<path fill="#D7A22A" d="M144.981,56.173c-1.07-1.396-2.292-2.715-3.801-3.644c-0.618-0.381-1.332-0.768-2.046-0.925
		c-0.494-0.116-1.012-0.04-1.504-0.165c-0.228-0.058-0.317-0.247-0.494-0.1c-0.357-1.663-1.472-3.163-2.861-4.114
		c-1.533-1.048-3.299-1.193-5.071-1.538c1.854,1.2,3.132,3.244,4.355,5.05c0.74,1.063,1.41,2.18,1.979,3.344
		c0.271,0.555,0.514,1.121,0.743,1.694c0.112,0.283,0.163,1.005,0.387,1.208c-0.01-0.011-0.011-0.01-0.003,0.002
		c-2.569-2.45-5.255-4.791-8.153-6.847c-2.742-1.945-6.771-2.767-10.102-2.767c0.493-0.191,0.984-0.389,1.456-0.629
		c-6.376,0.204-14.111-1.448-18.164-6.886c0.006,0.003,0.008,0.003,0.006,0c0.723,0.19,1.476,0.331,2.226,0.277
		c-0.89-0.977-1.802-2-2.328-3.228c-0.439-1.025-2.964-0.061-3.832,0.141c-1.717,0.398-4.138,1.354-4.16,3.551
		c-0.008,1.103,1.049,1.902,1.829,2.508c1.25,0.971,2.601,1.807,3.963,2.61c1.279,0.753,2.575,1.478,3.838,2.257
		c1.151,0.71,2.285,1.729,3.639,2.009c11.688,2.478,23.332,5.611,34.429,10.079c1.669,0.672,3.334,1.359,4.998,2.044
		c1.37,0.564,4.415,1.732,3.489,3.738c0.068-0.097,0.138-0.193,0.206-0.29c-0.845,1.212-1.832,1.164-3.12,0.48
		c-1.649-0.875-3.348-1.67-5.043-2.454c-3.573-1.651-7.206-3.171-10.885-4.574c-7.267-2.771-14.705-5.137-22.227-7.116
		c1.6,1.296,3.107,2.7,4.629,4.084c1.303,1.185,2.166,2.419,3.935,2.853c4.241,1.04,8.464,2.19,12.644,3.453
		c4.09,1.235,8.121,2.651,12.095,4.22c1.656,0.654,3.284,1.373,4.915,2.087c1.265,0.553,3.368,0.986,3.189,2.816
		c0.015-0.147,0.035-0.3,0.045-0.449c-0.019,0.27-0.044,0.549-0.11,0.811c0.531,0,1.113-0.156,1.672-0.153
		c0.839,0.005,1.677-0.14,2.497-0.307c1.861-0.379,3.646-1.058,5.367-1.848c-0.411,0-0.937-1-1.132-1.289
		c-0.385-0.569-0.775-1.085-1.247-1.588c-1.165-1.243-2.489-2.352-3.879-3.335c0.004-0.001,0.002-0.003-0.006-0.006
		c0.47-0.132,0.943-0.289,1.438-0.281c-1.228-1.35-2.908-2.368-4.449-3.312c-1.59-0.974-3.198-1.916-4.833-2.81
		C145.541,56.85,145.082,56.305,144.981,56.173C144.832,55.979,145.099,56.327,144.981,56.173z"/>
	<path fill="#006576" d="M139.149,119.43c0.521,0.338,1.039,0.678,1.561,1.014c0.629-2.545-1.521-4.149-3.106-5.736
		c0.105,1.166,0.211,2.331,0.316,3.497C137.99,118.977,138.558,119.054,139.149,119.43
		C139.67,119.768,138.936,119.294,139.149,119.43z"/>
	<path fill="#006576" d="M122.824,123.368c2.195-1.663,4.15-3.649,5.739-5.899c0.711-1.007,1.359-2.063,1.897-3.173
		c0.312-0.642,0.585-1.303,0.805-1.981c0.23-0.712,0.006-0.599-0.61-0.987c-3.923-2.477-4.942-7.13-5.229-11.458
		c-0.314-4.732,0.409-9.965-1.594-14.403c-1.021-2.265-2.662-4.271-4.677-5.726c-1.123-0.811-2.334-1.489-3.617-2.01
		c-1.011-0.409-2.426-1.027-3.534-1.027c2.496,1.152,3.988,3.932,4.968,6.358c1.35,3.342,2.117,6.918,2.54,10.487
		c0.417,3.51,0.521,7.046,0.67,10.574c0.144,3.275,0.496,6.92,2.397,9.706c-0.58-0.58-1.318-0.908-1.856-1.587
		c-0.637-0.803-1.106-1.728-1.48-2.678c-0.854-2.169-1.299-4.492-1.579-6.797c-0.645-5.304-0.766-10.562-2.684-15.625
		c-1.609-4.25-4.409-8.219-8.51-10.364c-3.515-1.839-8.94-3.236-12.665-1.3c5.034,1.313,8.566,5.764,9.945,10.608
		c1.635,5.748,1.234,11.802,1.544,17.704c0.142,2.716,0.377,5.496,1.187,8.107c0.812,2.618,2.236,5.026,3.925,7.172
		c1.666,2.119,3.681,3.993,5.993,5.389c0.385,0.232,2.269,1.526,2.707,1.285C120.394,125.047,121.651,124.247,122.824,123.368
		C122.917,123.298,122.648,123.5,122.824,123.368z"/>
	<path fill="#006576" d="M177.01,73.125c1.736-1.631,3.559-3.383,4.561-5.584c0.216-0.475,0.387-0.97,0.483-1.482
		c0.122-0.646-0.378-0.646-0.939-0.916c-1.37-0.662-2.762-1.277-4.173-1.847c-4.222-1.705-10.133-4.466-14.575-2.089
		c3.229,0.023,7.038,0.155,9.644,2.329c0.676,0.564,1.272,1.277,1.605,2.099c0.246,0.608,0.086,1.178,0.239,1.767
		c0.222,0.818,0.983,1.648,1.417,2.37C175.921,70.85,176.542,71.954,177.01,73.125C178.772,71.47,176.822,72.655,177.01,73.125z"/>
	<path fill="#FFFFFF" d="M26.19,16.395c0.987-0.411,1.954-0.869,2.922-1.32c-0.44,0-3.656,0.217-2.711-0.93
		c-3.932,0.288-7.878,0.379-11.819,0.449c-3.861,0.068-7.717,0.364-11.58,0.364c3.202,0.714,6.313,1.782,9.371,2.961
		c1.487,0.574,2.962,1.18,4.413,1.842c0.734,0.335,1.461,0.686,2.183,1.046c-0.093-0.046,0.391-0.264,0.345-0.246
		c0.39-0.154,0.831-0.188,1.247-0.195c0.006,0.009-0.171-0.351-0.166-0.34c0.681,0.388,1.168-0.041,1.806-0.257
		c0.348-0.118,0.713-0.022,1.053-0.132c0.372-0.121,0.692-0.461,1.068-0.613c-0.115-0.105-0.232-0.207-0.353-0.306
		c0.343-0.054,1.846,0.401,1.966-0.111c0.126-0.54-1.694-1-2.028-1.133C24.8,17.474,25.415,16.714,26.19,16.395
		C27.176,15.984,25.806,16.553,26.19,16.395z"/>
	<path fill="#FFFFFF" d="M0.557,22.401c0,2.761,1.636,5.312,3.323,7.412c0.9,1.12,1.899,2.158,2.948,3.138
		c1.035,0.966,2.254,1.779,3.25,2.775c-1.13-0.024-2.263-0.076-3.393-0.076c1.323,0.855,2.766,1.511,4.232,2.079
		c1.439,0.556,3.104,0.858,4.477,1.545c-1.131,0.378-2.574,0.845-3.775,0.845c0.531,0.598,1.506,0.761,2.233,0.986
		c1.113,0.345,2.214,0.691,3.353,0.947c2.422,0.543,4.907,0.855,7.387,0.945c4.782,0.174,9.736-0.519,14.105-2.553
		c-1.143-0.381-2.486-0.289-3.676-0.425c-1.266-0.146-2.602-0.289-3.774-0.827c3.324-0.186,6.53-0.808,9.714-1.783
		c1.668-0.511,3.315-1.094,4.914-1.794c1.575-0.866,3.171-1.696,4.776-2.505c-5.976,2.375-12.901,2.613-19.252,2.406
		c-6.139-0.2-12.887-0.991-18.228-4.257c2.034,0.508,4.239,0.726,6.323,0.923c2.367,0.224,4.771,0.264,7.123-0.13
		c-0.731-0.731-1.869-1.271-2.705-1.899c-0.979-0.736-1.941-1.492-2.924-2.22c-2.053-1.52-4.227-2.871-6.477-4.076
		C10.005,21.443,5.149,19.559,0,19.246c0,0.502,0,1.003,0,1.505c0,0.228,0,0.456,0,0.684C0,21.784,0.625,21.949,0.557,22.401z"/>
	<path fill="#FFFFFF" d="M197.246,66.293c-0.684,0.303-1.771,0.034-1.618-0.904c0.146-0.896,1.506-1.568,2.1-2.182
		c0.55-0.567,1.519-1.568,1.149-2.427c-0.322-0.749-1.02-1.331-1.615-1.859c-1.874,4.472-5.585,7.619-9.793,9.816
		c-4.377,2.286-8.967,4.677-11.842,8.863c2.378,0.261,4.747,0.825,6.905,1.876c1.026,0.5,2.013,1.102,2.881,1.846
		c0.466,0.4,0.787,0.994,1.286,1.348c0.397,0.281,2.333-0.51,2.791-0.654c1.015-0.319,2.008-0.711,2.965-1.175
		c1.985-0.964,3.84-2.247,5.327-3.887c-0.9,0.032-5.095,0.16-4.43-1.763c0.451-1.303,3.527-0.311,4.452-0.3
		c0.833,0.01,1.569-0.247,2.047-0.96c0.216-0.322,0.148-0.638,0.148-1.021c0-0.895,0-1.788,0-2.683
		c-1.31,1.016-3.788,2.223-5.491,1.556c-0.914-0.357-0.088-1.358,0.413-1.681c0.806-0.519,1.79-0.736,2.651-1.147
		c0.368-0.176,2.427-1.077,2.427-1.517c0-0.432,0-0.863,0-1.295c0-1.013,0-2.027,0-3.041
		C199.427,64.369,198.563,65.709,197.246,66.293C195.922,66.88,198.528,65.725,197.246,66.293z"/>
	<path fill="#FFFFFF" d="M154.035,110.868c-1.407,2.24-2.911,4.411-4.396,6.601c-0.669,0.985-1.344,1.969-2.094,2.894
		c-0.659,0.814-1.522,1.973-2.481,2.452c-0.295-0.688-0.64-1.36-1.091-1.96c-0.49-0.657-0.827-0.15-1.354,0.224
		c-1.103,0.783-2.482,1.614-3.108,2.867c0.32-0.581-1.416-2.386-1.76-2.809c-0.631-0.776-3.46,2.538-3.787,3.195
		c1.061-2.13,1.651-4.479,1.769-6.853c0.062-1.24-0.004-2.486-0.189-3.714c-0.085-0.561-0.195-1.118-0.33-1.669
		c-0.117-0.484-0.478-1.154-0.478-1.642c-2.101,5.102-4.975,10.021-9.046,13.8c-0.9,0.836-1.851,1.616-2.817,2.373
		c-0.416,0.324-0.956,0.62-1.1,1.171c-0.17,0.656,0.42,1.15,0.938,1.413c2.401,1.218,5.892-0.221,7.983-1.485
		c0.96-0.581,1.722-1.606,2.768-2.019c1.262-0.498,2.946-0.465,4.284-0.555c1.301-0.087,2.6-0.093,3.902-0.1
		c0.691-0.004,1.393-0.04,2.076,0.085c0.688,0.125,1.11,0.505,1.678,0.86c0.809,0.508,2.212,1.039,3.141,0.55
		c1.192-0.629,2.024-2.229,2.624-3.373c1.284-2.445,2.155-5.154,2.592-7.879C153.996,113.818,154.035,112.36,154.035,110.868
		C152.906,112.665,154.035,110.869,154.035,110.868z"/>
	<path fill="#FFFFFF" d="M148.006,126.71C145.944,126.857,150.068,126.568,148.006,126.71L148.006,126.71z"/>
	<path fill="#FFFFFF" d="M182.259,82.855c-1.76-0.703-3.577,0.046-5.073,1.007c-1.067-2.249-4.354-0.78-5.772,0.272
		c0.356-2.486-5.956,0.277-6.815,0.639c-1.867,0.786-3.799,1.358-5.754,1.894c-0.604,0.165-1.209,0.356-1.829,0.444
		c-0.599,0.084-0.34,0.712-0.277,1.145c0.229,1.596,0.361,3.221,0.256,4.833c3.406-1.762,5.899-4.878,7.97-8.024
		c0.312,1.493,1.064,2.857,1.855,4.145c1.646-1.022,3.146-2.269,4.516-3.636c0.681,1.233,0.656,2.752,0.61,4.118
		c1.542-0.502,2.925-1.408,4.157-2.447c-0.752,3.983-2.41,7.776-4.521,11.22c2.661-1.002,4.802-3.058,6.775-5.035
		c1.062-1.063,2.108-2.143,3.076-3.294c0.865-1.03,2.054-2.245,2.371-3.592c-0.046,0.206-0.098,0.412-0.137,0.619
		c0.08-0.425,0.16-0.871,0.285-1.285c-0.058,0.189-0.088,0.392-0.131,0.585C184.129,84.989,183.775,83.457,182.259,82.855
		C180.471,82.142,183.834,83.48,182.259,82.855z"/>
	<path fill="#FFFFFF" d="M144.559,91.553c-0.512,3.98-2.716,7.683-5.46,10.541c0.692,0,1.603-0.507,2.252-0.757
		c0.884-0.34,1.735-0.742,2.585-1.161c1.644-0.812,3.192-1.869,4.62-3.016c3.133-2.52,6.562-5.97,7.854-9.87
		c-3.862,0.924-7.819,1.576-11.801,1.529C144.698,89.729,144.676,90.647,144.559,91.553
		C144.052,95.491,144.676,90.644,144.559,91.553z"/>
	<path fill="#FFFFFF" d="M174.277,74.813C174.315,75.06,174.186,74.084,174.277,74.813L174.277,74.813z"/>
	<path fill="#FFFFFF" d="M37.453,78.034c-0.009,0.051-0.018,0.102-0.026,0.152C37.442,78.137,37.451,78.086,37.453,78.034z"/>
	<path fill="#FFFFFF" d="M37.582,77.622c0.041-0.082,0.083-0.165,0.124-0.247C37.666,77.434,37.519,77.775,37.582,77.622z"/>
	<path fill="#FFFFFF" d="M151.694,132.496c0.366-0.6,0.833-1.17,1.092-1.828c0.303-0.769-2.115-1.208-2.636-1.339
		c-2.961-0.743-5.951-0.89-8.977-0.5c-6.24,0.804-11.866,3.606-17.922,5.082c-2.694,0.657-5.527,0.896-8.271,0.407
		c-2.664-0.485-4.993-1.726-7.111-3.381c-4.228-3.305-7.372-7.802-10.15-12.334c-2.807-4.58-5.234-9.375-7.204-14.374
		c-2.023-5.138-3.73-10.499-4.237-16.022c-0.843-9.192,2.43-22.438,13.379-23.807c-10.27-2.34-20.683-4.118-31.159-5.221
		c12.52,0.774,25.008,2.3,37.295,4.845c6.146,1.272,12.239,2.801,18.245,4.624c3.023,0.917,6.023,1.911,9.001,2.971
		c2.631,0.936,5.604,1.796,8.009,3.238c1.011,0.571,1.648,2.38,0.308,2.97c-0.703,0.319-1.465,0.035-2.12-0.274
		c-0.917-0.433-1.836-0.859-2.763-1.271c-3.622-1.616-7.313-3.073-11.043-4.421c0.914,2.284,2.679,4.51,4.331,6.302
		c1.844,1.998,4.029,3.687,6.51,4.815c5.434,2.474,11.72,2.249,17.251,0.241s10.808-4.788,16.72-5.547
		c1.239-0.159,2.477-0.085,3.713-0.184c0.815-0.064,0.315-2.845,0.204-3.364c-0.57-2.671-2.354-4.806-4.486-6.421
		c-3.438-2.606-7.623-4.293-11.556-5.999c-4.136-1.794-8.354-3.408-12.618-4.867c3.169,1.733,6.811,3.402,9.282,6.122
		c-0.494-0.008-0.968,0.148-1.438,0.281c1.115,1.116,2.526,1.938,3.642,3.086c0.499,0.514,0.952,1.04,1.35,1.633
		c0.216,0.323,0.815,1.498,1.272,1.498c-2.529,1.16-5.311,2.168-8.127,2.153c-0.443-0.003-0.995-0.05-1.405,0.154
		c0.049,0-0.535,0.771-0.76,0.834c-1.062,0.301-2.364-0.354-3.282-0.816c-5.146-2.594-10.429-4.833-15.85-6.803
		c-11.919-4.332-24.219-7.551-36.66-9.976c-2.944-0.574-5.899-1.089-8.859-1.574c-1.497-0.245-2.993-0.49-4.494-0.709
		c-1.016-0.148-2.178-0.431-3.196-0.431c0.417,0,0.957,0.246,1.364,0.349c0.693,0.175,1.386,0.351,2.074,0.543
		c1.366,0.382,2.724,0.827,3.994,1.465c-1.612-0.119-3.237-0.272-4.851-0.088c0.707,0.279,1.449,0.529,2.041,1.022
		c-7.464,0.082-14.953,0.187-22.363,1.177c2.798,0.892,5.699,2.104,7.65,4.391c-1.875,0.116-3.75,0.274-5.617,0.476
		c0.354,0.637,0.704,1.344,0.158,1.958c-0.396,0.495-0.976,0.877-1.515,1.199c0.517,0.115,0.979,0,1.491,0
		c-0.317,1.071,0.226,2.202-0.092,3.271c-0.277,0.932-1.294,1.273-2.147,1.467c-1.105,0.252-2.286,0.48-3.422,0.372
		c-0.442-0.043-1.063-0.117-1.423-0.41c-0.257-0.21,0.1-0.655,0.193-0.862c-0.995,0.18-2.038,0.212-3.045,0.212
		c0.428,0,1.209-0.594,1.588-0.815c0.619-0.363,1.217-0.76,1.806-1.169c-1.114,0.435-2.629,1.189-3.622,0.243
		c-0.608-0.58-1.511-0.044-2.223,0.167c-1.029,0.305-2.054,0.622-3.068,0.973c-3.741,1.293-7.373,2.986-10.68,5.172
		c1.564,0.307,3.125,0.688,4.621,1.245c-0.314,0.352-0.382,0.812-0.553,1.233c0.524-1.186,1.091-1.86,2.3-2.434
		c-0.001,0.003,0,0.002,0.005-0.002c-0.117,0.151-0.75,1.642-0.635,1.65c0.71-1.126,2.007-1.864,3.348-1.817
		c-0.342,0.089-0.671,0.258-0.976,0.436c2.294,0.798,4.495,0.915,6.892,1.101c1.073,0.083,2.291,0.568,3.32,0.173
		c1.026-0.395,2.128-0.619,3.192-0.89c-0.928,0.576-1.899,1.077-2.874,1.569c1.667,0.921,2.066,2.743,1.492,4.47
		c-0.182,0.546-0.441,1.064-0.756,1.545c-0.337,0.515-1.082,0.69-1.591,1.037c-1.014,0.691-1.95,1.617-2.297,2.827
		c0.511-0.471,1.094-0.878,1.684-1.243c-0.416,0.686-0.462,1.555-0.885,2.25c-0.601,0.986-1.779,1.055-2.815,1.15
		c-0.95,0.091-1.762-0.362-2.525-0.883c-0.759-0.519-1.499,0.512-2.029,1.008c0.001-0.003,0-0.003-0.002,0.001
		c0.393-1.314,1.323-2.414,2.28-3.362c-0.596,0.255-1.132,0.626-1.667,0.988c-0.566,0.382-0.911,0.013-1.473-0.235
		c-1.388-0.611-2.848-1.062-4.184-1.789c-2.215-1.206-1.599-3.759-0.489-5.533c-0.477,0.258-0.877,0.635-1.244,1.028
		c0-0.003,0-0.003-0.002,0c-0.019-0.245-0.011-0.492,0.025-0.735c-0.081,0.265-0.538,0.407-0.754,0.527
		c-0.5,0.279-0.982,0.591-1.453,0.916c-0.853,0.589-1.644,1.25-2.452,1.896c8.017,8.774,18.808,14.27,29.421,19.234
		c5.263,2.462,10.595,4.714,15.241,8.27c4.602,3.522,7.963,7.854,10.831,12.85c1.521,2.649,3.131,5.229,4.964,7.675
		c0.885,1.18,1.811,2.329,2.782,3.439c0.496,0.566,1.004,1.121,1.526,1.664c0.21,0.219,1.056,1.342,1.337,1.342
		c0.864,0,1.729,0,2.593,0c5.097,0,10.192,0,15.288,0c10.602,0,21.204,0,31.806,0c0.211,0,0.421,0,0.632,0
		c0.193,0,0.4-0.444,0.495-0.569C150.4,134.49,151.078,133.506,151.694,132.496C151.77,132.373,151.578,132.687,151.694,132.496z
		 M62.286,73.389c1.316-0.236,2.66-0.16,3.989-0.168c-0.368,0.291-0.645,0.697-0.834,1.123c0.722-1.038,2.411-1.282,3.503-1.723
		c1.399-0.563,2.934-1.268,4.456-0.748c1.021,0.349,1.946,1.225,2.487,2.152c0.145,0.216,0.522,1.199,0.852,1.197
		c0.769-0.004,1.642-0.419,2.42-0.527c-0.014,0.007-0.014,0.008,0,0.004c-0.541,0.253-1.025,0.609-1.488,0.981
		c-0.459,0.368-0.625,0.35-0.388,0.878c0.406,0.905,0.969,2.296,0.343,3.226c-0.494,0.802-1.677,1.195-2.565,1.294
		c-0.899,0.099-1.679-0.492-2.529-0.421c0.452-0.605,1.134-0.991,1.747-1.409c-0.887,0.08-1.627,0.44-2.386,0.869
		c-0.713,0.403-2.167,0.412-2.977,0.412c-0.86,0.021-1.65-0.184-2.427-0.549c-1.015-0.479-1.536-0.527-2.573,0.002
		c0.002-0.003,0.002-0.003-0.002,0c0.627-1.05,1.737-1.722,2.704-2.421c-0.557,0.122-1.079,0.365-1.577,0.638
		c-0.177,0.097-0.587,0.456-0.821,0.329c-0.74-0.397-1.508-0.92-2.199-1.401C60.611,76.145,60.077,73.785,62.286,73.389
		C63.257,73.214,60.954,73.628,62.286,73.389z M68.544,95.599c-1.188-0.562-2.558-0.484-3.832-0.646
		c-1.463-0.185-2.923-0.409-4.359-0.75c-0.718-0.17-1.429-0.369-2.128-0.605c-0.37-0.126-1.483-0.354-1.685-0.707
		c-0.254-0.445,0.387-1.455,0.61-1.834c-0.653,0.32-1.239,0.801-1.652,1.402c-1.22-0.891-1.738-2.705-0.898-4.025
		c0.542-0.852,1.565-1.269,2.519-1.456c0.967-0.189,1.682-0.796,2.717-0.796c-0.28,0.168-0.55,0.351-0.817,0.537
		c0.918-0.177,1.861,0.02,2.78,0.088c1.089,0.083,2.177,0.186,3.266,0.278c2.038,0.173,4.066,0.223,6.073-0.235
		c-1.067,0.687-2.133,1.377-3.199,2.065c1.338-0.827,2.93-1.126,4.446-1.45c1.352-0.287,2.42,0.778,2.775,1.996
		c0.948-0.936,2.306,0.113,3.015,0.829c0.397,0.402,0.747,0.848,1.004,1.354c0.362,0.709,0.202,1.38,1.021,1.604
		c-0.368,0.628-0.95,1.199-1.688,1.341c0.085-0.153,0.167-0.308,0.247-0.464c-0.615,0.167-1.265-0.021-1.816-0.299
		c0.512,0.713,0.666,1.477,0.242,2.273c0.378-0.025,0.755-0.055,1.133-0.083c-0.46,0.575-0.547,0.68-0.648,1.406
		c-0.097,0.698-0.543,1.236-1.175,1.527c-1.067,0.489-2.4,0.279-3.437-0.191c-0.717-0.325-1.488-0.678-2.088-1.195
		c-0.834-0.721,0.688-2.321,1.135-2.963c-0.636,0.19-1.214,0.534-1.767,0.894C69.507,96.033,69.394,96.002,68.544,95.599
		C67.405,95.06,69.085,95.855,68.544,95.599z"/>
	<path fill="#FFFFFF" d="M37.477,77.946c0.032-0.085,0.056-0.172,0.073-0.261C37.525,77.772,37.501,77.859,37.477,77.946
		C37.488,77.899,37.498,77.858,37.477,77.946z"/>
	<path fill="#FFFFFF" d="M37.705,77.375C37.81,77.228,37.751,77.298,37.705,77.375C37.723,77.35,37.714,77.359,37.705,77.375z"/>
	<path fill="#FFFFFF" d="M77.368,52.312c0.654,0.058,1.307,0.126,1.96,0.189C78.668,52.402,78.013,52.334,77.368,52.312z"/>
	<path fill="#9F792C" d="M152.377,30.753c0.671,0.708,1.356,1.403,2.034,2.104C153.769,32.123,153.098,31.412,152.377,30.753
		C152.395,30.771,153.105,31.419,152.377,30.753z"/>
	<path fill="#9F792C" d="M158.116,38.48c-1.399-2.963-3.419-5.325-5.674-7.656c2.184,2.281,3.807,5.319,3.625,8.553
		c-0.072,1.297-0.489,3.687-1.593,4.564c-0.355,0.283-1.449-0.157-1.865-0.227c-0.863-0.145-1.728-0.289-2.594-0.416
		c-3.575-0.526-7.27-0.931-10.886-0.672c-3.525,0.253-6.852,1.542-10.018,3.045c1.723,0.361,3.504,0.449,5.021,1.439
		c1.466,0.957,2.632,2.503,3.003,4.229c1.979-1.649,4.546-2.513,6.978-3.239c2.882-0.86,5.73-1.69,8.721-2.078
		c1.271-0.164,2.61-0.377,3.895-0.283c1.036,0.076,2.487,0.408,3.462-0.072c0.803-0.395-0.085-2.249-0.276-2.822
		C159.413,41.354,158.789,39.904,158.116,38.48C157.14,36.412,158.789,39.903,158.116,38.48z"/>
	<path fill="#9F792C" d="M180.756,31.291c-1.621,2.476-6.09,1.493-8.445,1.116c2.652,1.584,5.799,2.916,8.011,5.127
		c1.456-1.875,1.582-4.363,0.591-6.487C180.858,31.127,180.809,31.21,180.756,31.291C179.766,32.803,180.771,31.267,180.756,31.291z
		"/>
	<path fill="#006576" d="M132.483,41.728c0.239-0.12,0.47-0.275,0.698-0.416c-1.993-0.663-4.01-1.249-6.03-1.821
		c0.957,1.342-0.115,3.254-1.742,3.175c-0.748,0-1.435-0.493-1.741-1.164c-0.155-0.34-0.082-0.713-0.213-1.04
		c-0.092-0.231-0.601-0.409-0.803-0.533c-1.758-1.087-3.041-2.42-5.191-2.756c-2.172-0.339-4.396-0.499-6.585-0.25
		c3.162,2.488,6.644,5.093,10.418,6.563C125.051,44.949,129.149,43.643,132.483,41.728
		C132.488,41.726,128.988,43.735,132.483,41.728z"/>
	<path fill="#FFFFFF" d="M120.98,38.667c0.63,0.501,3.776,3.127,3.919,0.918c-0.004,0.052-0.007,0.103-0.01,0.155
		c0.002-0.028,0.013-0.152,0.013-0.208c0.056-0.856-1.414-1.066-2.092-1.243c-1.379-0.359-2.776-0.675-4.18-0.926
		C119.521,37.568,120.277,38.106,120.98,38.667C121.533,39.106,120.268,38.099,120.98,38.667z"/>
	<path fill="#9F792C" d="M125.118,28.31c-1.183,0.085-1.144,1.281-0.919,2.087c0.339,1.212,1.042,2.285,1.925,3.168
		c1.794,1.797,4.224,2.822,6.507,3.839c0-0.524-0.145-1.022-0.098-1.564c1.831,2.746,4.829,4.28,7.942,5.158
		c3.342,0.943,7.45,1.031,10.174-1.464c-4.979,1.759-9.232-0.716-13.155-3.601c-2.089-1.537-4.153-3.112-6.339-4.512
		c-0.993-0.637-2.01-1.232-3.056-1.777c-0.457-0.239-0.915-0.475-1.381-0.696C126.292,28.744,125.615,28.272,125.118,28.31
		C124.97,28.32,125.21,28.303,125.118,28.31z"/>
	<path fill="#FFFFFF" d="M127.249,49.269c-2.071-1.385-4.229-2.635-6.455-3.751c-2.305-1.156-4.695-2.097-6.964-3.321
		c-2.247-1.212-4.449-2.515-6.549-3.971c-0.499-0.346-0.99-0.705-1.488-1.052c-0.35-0.245-0.662-0.635-1.079-0.763
		c-0.977-0.298-2.319-0.107-3.3-0.002c0.449,1.444,1.523,2.631,2.52,3.726c-0.756,0.054-1.502-0.095-2.231-0.277
		c4.053,5.438,11.788,7.089,18.164,6.886c-0.473,0.239-0.963,0.438-1.456,0.629c1.505,0,2.969,0.169,4.434,0.522
		c0.848,0.205,1.684,0.455,2.512,0.729C125.87,48.795,127.026,49.124,127.249,49.269C126.69,48.896,127.271,49.284,127.249,49.269z"
		/>
	<path fill="#FFFFFF" d="M122.136,46.208c-0.115-0.063-0.45-0.234-0.646-0.343C121.702,45.983,121.92,46.094,122.136,46.208
		C122.146,46.213,121.015,45.615,122.136,46.208z"/>
</g>
</svg>
