<?xml version="1.0" encoding="utf-8"?>
<!-- Generator: Adobe Illustrator 16.0.3, SVG Export Plug-In . SVG Version: 6.00 Build 0)  -->
<!DOCTYPE svg PUBLIC "-//W3C//DTD SVG 1.1//EN" "http://www.w3.org/Graphics/SVG/1.1/DTD/svg11.dtd">
<svg version="1.1" id="PILLS" xmlns="http://www.w3.org/2000/svg" xmlns:xlink="http://www.w3.org/1999/xlink" x="0px" y="0px"
	 width="200px" height="136px" viewBox="0 0 200 136" enable-background="new 0 0 200 136" xml:space="preserve">
<path fill="#E51937" d="M200,128c0,4.418-3.582,8-8,8H8c-4.418,0-8-3.582-8-8V8c0-4.418,3.582-8,8-8h184c4.418,0,8,3.582,8,8V128z"
	/>
<g>
	<path fill="none" d="M149.084,52.967c-20.371-8.971-34.857-3.958-39.996-2.367l0.016,0.016
		C114.254,49.021,128.732,44.004,149.084,52.967z"/>
	<polygon fill="none" points="102.583,46.589 123.173,68.926 102.664,46.589 120.253,36.198 126,36.124 120.202,36.198 	"/>
	<path fill="none" d="M192.708,90.864c-3.752,6.317-6.771,8.356-9.603,9.683c-5.707,2.674-9.537,2.58-13.16,5.418
		c-2.951,2.314-7.617,5.297-10.771,6.7c-6.07,2.702-6.818,1.114-10.973,3.707c-1.411,0.88-0.514,0.373-4.062,3.294
		c-2.043,1.682-5.302,3.109-6.922,3.334c-2.119,0.296-4.458,0.529-6.435,1.059c-4.986,1.334-5.527,3.084-11.022,4.137
		c-6.412,1.231-9.061,0.623-15.181,3.539c-1.597,0.762-3.341,1.322-5.677,2.591c-1.098,0.6-3.502,1.675-6.213,1.675H192
		c4.418,0,8-3.182,8-7.602V86.659C196.829,87.623,194.357,88.086,192.708,90.864z"/>
	<path fill="none" d="M96.584,85.566c7.18,8.971,23.532,11.502,40.54,6.457c7.96-2.371,11.853-5.392,14.586-9.51
		c-2.733,4.118-6.626,7.139-14.586,9.51c-17.007,5.045-33.36,2.506-40.54-6.465c-2.437-2.811-3.421-5.48-3.474-7.884
		C93.162,80.081,94.145,82.754,96.584,85.566z"/>
	<path fill="none" d="M19.896,130.486c1.148-5.549,3.5-13.35,4.592-16.168c0,0,1.804-4.045-2.56-1.75
		c-4.421,1.629-7.878-1.197-10.559-0.284c-2.647,1.33-4.282,2.558-7.592,3.04c-1.443,0.209-2.748,0.156-3.778,0.012v13.062
		C0,132.818,3.582,136,8,136h12.541C19.813,135,19.732,132.676,19.896,130.486z"/>
	<path fill="none" d="M101.425,87.784c12.878,9.18,44.773,3.597,49.011-7.646c-4.237,11.242-36.131,16.817-49.011,7.639
		c-4.76-3.743-6.467-7.288-6.483-10.283C94.948,80.484,96.651,84.031,101.425,87.784z"/>
	<path fill="none" d="M153.424,48.626l7.776,0.018l-7.776-0.021l-4.689,2.824c0.015,0.006,0.029,0.013,0.045,0.019L153.424,48.626z"
		/>
	<path fill="none" d="M131.988,46.508c-8.623-1.16-16.299,0.137-24.193,2.754l0.018,0.018
		C115.695,46.665,123.372,45.363,131.988,46.508z"/>
	<path fill="none" d="M144.133,98.454c-6.915,3.458-14.111,4.952-22.334,5.142c-11.497,0.467-21.681-1.964-27.942-4.578
		c-3.833-1.402-9.533-4.955-13.083-11.028c-1.268-2.575-1.709-5.224-1.719-7.644c0.009,2.422,0.451,5.068,1.719,7.646
		c3.55,6.073,9.249,9.626,13.083,11.028c6.261,2.614,16.445,5.047,27.942,4.58c8.223-0.188,15.419-1.679,22.334-5.136
		c4.018-2.147,4.84-2.606,8.858-6.344c2.633-3.026,4.823-5.136,6.005-9.099c-1.182,3.963-3.373,6.071-6.005,9.099
		C148.973,95.855,148.148,96.307,144.133,98.454z"/>
	<path fill="none" d="M127.031,106.004c-4.954,0.654-12.43,0.748-18.409,0.28c-6.167-0.653-14.112-3.063-17.475-4.747
		c-4.113-1.961-6.261-3.458-8.785-6.057c-2.617-2.729-4.111-5.067-5.327-8.994c-0.584-1.81-0.873-3.764-0.899-5.758
		c0.025,1.996,0.314,3.951,0.899,5.765c1.215,3.925,2.709,6.263,5.327,8.991c2.523,2.598,4.671,4.097,8.785,6.058
		c3.363,1.685,11.308,4.097,17.475,4.75c5.979,0.468,13.455,0.38,18.409-0.272c5.419-0.561,11.025-2.509,14.392-3.893
		c2.709-1.309,5.7-2.492,7.999-4.287c-2.299,1.795-5.289,2.949-7.999,4.258C138.059,103.48,132.45,105.443,127.031,106.004z"/>
	<path fill="none" d="M5.755,24.297c3.811,0.333,3.249,3.696,8.936,0.173c2.725-1.522,7.396-2.739,12.112,0.566
		c2.013,1.182,3.696,5.199,1.532-1.424c-1.013-3.937-2.042-5.9-3.419-12.094C23.783,7.405,24.1,3.239,26.036,0H8
		C3.582,0,0,3.582,0,8v17.231c0.635-0.349,1.415-0.648,2.387-0.82C2.387,24.412,4.239,23.882,5.755,24.297z"/>
	<polygon fill="none" points="86.643,58.146 70.606,67.31 86.643,58.178 87.979,59.549 87.988,59.543 	"/>
	<polygon fill="none" points="99.916,71.812 98,73.905 98,73.913 99.987,71.836 	"/>
	<path fill="none" d="M89.669,61.096l7.549,8.148c0.001-0.001,0.001-0.001,0.002-0.002l-7.551-8.148
		c-5.999,4.091-8.054,7.924-9.344,11.663c-0.482,1.445-1.05,3.589-1.219,6.063c0.169-2.475,0.737-4.618,1.219-6.063
		C81.615,69.018,83.67,65.187,89.669,61.096z"/>
	<path fill="none" d="M98.404,3.209c6.292,3.665,6.3,4.487,16.784,4.029c1.938-0.086,5.396,1.411,7.266,2.633
		c2.081,1.359,7.136,4.298,11.6,4.583c5.689,0.362,10.562-0.362,17.574,4.619c5.12,4.554,11.484,4.34,17.167,7.423
		c1.826,0.99,6.188,4.324,8.335,7.766c0.458,0.74,2.327,1.953,6.999,2.726c4.199,0.692,8.601,5.675,10.942,9.153
		c2.9,2.673,1.383,1.037,4.931,3.463V8c0-4.418-3.582-8-8-8H90.536c0.44,0.063,0.924,0.163,1.501,0.33
		C94.582,1.062,96.158,1.902,98.404,3.209z"/>
	<path fill="none" d="M79.799,0H78.75C79.115,0.036,79.457,0.031,79.799,0z"/>
	<polygon fill="none" points="106.255,47.708 105.744,47.186 105.74,47.188 	"/>
	<path fill="#FFFFFF" d="M1.197,43.913C1.144,42.452,0.511,41.167,0,39.226v12.287C0.942,49.549,1.308,47.055,1.197,43.913z"/>
	<path fill="#FFFFFF" d="M2.08,29.732c0.829-0.46,2.251-1.458,3.732-0.773c2.225,1.031,2.631,2.772,5.832,1.928
		c3.195-0.84,6.799-3.923,9.805-3.33C23.7,28,24.794,30.14,26.79,31.662c1.285,0.979,3.556,0.963,4.924,0.334
		c2.835-1.307,2.875-5.405,1.681-8.771c-1.027-2.896-1.681-5.232-2.97-9.528c-0.595-1.979-0.955-2.195-1.17-5.237
		c-0.158-2.242-0.158-3.55,0.915-5.817C30.662,1.597,31.766,0.619,32.82,0h-6.784c-1.937,3.239-2.253,7.405-1.121,11.518
		c1.377,6.194,2.406,8.158,3.419,12.094c2.164,6.623,0.481,2.605-1.532,1.424c-4.716-3.305-9.387-2.089-12.112-0.566
		c-5.687,3.523-5.125,0.159-8.936-0.173c-1.516-0.415-3.368,0.115-3.368,0.115C1.415,24.583,0.635,24.883,0,25.231v8.237
		C0.323,31.888,0.762,30.467,2.08,29.732z"/>
	<path fill="#FFFFFF" d="M104.58,131.734c6.12-2.916,8.77-2.307,15.182-3.537c5.495-1.055,6.036-2.803,11.021-4.139
		c1.977-0.527,4.314-0.762,6.435-1.058c1.62-0.226,4.878-1.651,6.923-3.334c3.547-2.921,2.65-2.414,4.062-3.294
		c4.153-2.594,4.901-1.005,10.973-3.707c3.154-1.402,7.82-4.385,10.772-6.7c3.621-2.839,7.453-2.743,13.16-5.418
		c2.832-1.325,5.85-3.366,9.602-9.683c1.648-2.778,4.12-3.241,7.292-4.205v-4.834c-0.3,0.097-0.61,0.193-0.944,0.295
		c-5.209,1.568-7.799,2.292-10.727,7.344c-2.984,5.159-6.542,6.898-9.249,7.885c-4.601,1.668-10.19,2.668-13.735,6.246
		c-2.433,2.453-5.589,3.666-8.662,5.09c-3.301,1.531-7.02,1.475-10.302,3.33c-1.968,1.109-1.688,1.203-4.221,3.547
		c-1.476,1.363-4.117,2.688-5.61,2.897c-1.949,0.271-3.949,0.239-5.771,0.726c-4.588,1.229-6.194,3.164-10.301,4.168
		c-5.842,1.428-11.948,1.082-17.146,3.862c-1.438,0.769-2,0.862-4.147,2.031c-1.772,0.961-4.111,2.754-8.319,2.954
		c-4.015,0.191-4.017-0.773-8.598-0.15C76.813,132.791,74.66,135,70.195,136h22.496c2.71,0,5.114-1.075,6.213-1.674
		C101.238,133.059,102.982,132.497,104.58,131.734z"/>
	<path fill="#FFFFFF" d="M26.205,125.73c0.633-2.771,1.957-6.416,3.181-10.453c0.009-0.027,0.724-3.202,0.728-3.246
		c0.198-3.069-0.535-4.025-1.718-4.914c-0.749-0.559-2.878-0.452-3.86-0.37c-1.233,0.104-3.851,1.604-5.34,1.778
		c-1.688,0.197-4.188-1.463-8.08-0.928c-2.112,0.289-4.073,1.692-6.76,2.881c-1.412,0.625-2.994,0.535-4.355,0.097v4.759
		c1.031,0.145,2.335,0.21,3.778,0.001c3.31-0.481,4.945-1.698,7.592-3.028c2.68-0.912,6.138,1.938,10.559,0.31
		c4.364-2.296,2.56,1.8,2.56,1.8c-1.092,2.818-3.444,10.52-4.592,16.068c-0.164,2.188-0.083,4.514,0.645,5.514h6.133
		C23.2,134,25.635,128.227,26.205,125.73z"/>
	<path fill="#FFFFFF" d="M55.764,0.916C59.48,0.17,63.111-0.248,66.31,0.345c2.469,0.458,4.464,1.202,6.333,2.211
		c2.033,1.098,3.348,2.273,5.561,2.085c4.718-0.402,8.108-0.941,12.004-0.099c2.06,0.445,3.064,0.811,4.381,1.568
		c2.115,1.215,4.056,2.656,6.206,3.702c7.359,3.584,10.965,0.795,16.229,2.418c1.525,0.472,3.233,1.28,4.711,2.512
		c1.76,1.462,7.166,4.093,11.283,4.219c7.469,0.229,9.338-0.705,16.441,4.341c4.713,4.192,10.746,3.738,15.979,6.576
		c1.683,0.912,4.859,2.487,6.823,5.666c0.624,1.013,3.244,3.961,6.938,4.783c3.823,0.854,7.64,1.479,10.069,5.963
		c2.805,3.365,3.168,3.95,6.676,5.929c1.834,1.035,2.422,1.949,4.057,3.05v-5.664c-3.548-2.427-2.03-0.791-4.93-3.463
		c-2.344-3.478-6.744-8.461-10.943-9.153c-4.671-0.773-6.541-1.986-6.999-2.726c-2.146-3.442-6.509-6.776-8.335-7.766
		c-5.684-3.083-12.047-2.869-17.167-7.423c-7.012-4.981-11.885-4.257-17.574-4.619c-4.464-0.286-9.519-3.224-11.6-4.583
		c-1.869-1.222-5.327-2.719-7.267-2.633c-10.482,0.458-10.49-0.364-16.783-4.029c-2.246-1.307-3.822-2.147-6.367-2.88
		c-0.577-0.167-1.06-0.267-1.5-0.33H79.799c-0.342,0.031-0.684,0.036-1.048,0H42.808C47.045,0.792,51.293,1.814,55.764,0.916z"/>
	<path fill="#FFFFFF" d="M47.787,136h4.756C51.089,136,49.893,136,47.787,136z"/>
	<path d="M90.864,132.201c4.208-0.2,6.547-1.993,8.319-2.954c2.147-1.169,2.709-1.263,4.147-2.031
		c5.199-2.78,11.305-2.435,17.146-3.862c4.106-1.004,5.713-2.938,10.301-4.168c1.822-0.486,3.822-0.455,5.771-0.726
		c1.494-0.209,4.135-1.534,5.61-2.897c2.532-2.344,2.253-2.438,4.221-3.547c3.282-1.855,7.001-1.798,10.302-3.33
		c3.072-1.424,6.229-2.638,8.662-5.09c3.545-3.578,9.135-4.578,13.735-6.246c2.706-0.986,6.263-2.727,9.249-7.885
		c2.928-5.053,5.518-5.775,10.726-7.344c0.335-0.102,0.646-0.198,0.945-0.295v-6.083c-3.71,1.254-7.054,1.577-10.619,5.22
		c-3.806,3.883-7.962,8.616-10.778,9.469c-1.226,0.373-4.472,1.391-6.691,2.768c-2.197,1.365-2.817,1.322-4.788,3.078
		c-2.339,2.084-3.646,3.58-7.948,5.066c-2.652,0.914-5.783,1.338-8.562,2.172c-2.055,0.618-3.7,1.476-5.53,2.514
		c-2.793,1.58-6.154,5.285-10.772,6.144c-9.146,1.703-6.718,1.517-13.24,4.47c-1.621,0.732-4.963,1.532-7.309,1.532
		c-3.922,0-6.982,0.646-10.436,2.484c-2.516,1.339-5.075,3.797-10.011,4.452c-6.095,0.81-6.434,0.045-14.003,1.662
		c-2.296,0.496-5.194,2.168-7.385,2.959c-2.458,0.891-8.252,1.002-12.346,0.627c-3.997-0.366-6.934-0.373-12.709,0.674
		c-4.473,0.809-6.884,0.9-11.227,0.791c-0.978-0.027-1.714-0.715-2.348-1.743c-0.755-1.226-0.845-2.298-0.679-3.647
		c0.348-2.838,0.288-2.976,0.957-5.604c0.205-0.797,1.208-6.003,1.386-6.8c1.119-5.008,1.465-10.059-2.48-12.338
		c-1.233-0.711-4.298-1.17-6.516-0.776c-6.681,1.187-5.279,2.312-9.55,0.8c-0.716-0.253-2.532-0.581-3.588-0.539
		c-2.139,0.086-5.183,1.583-7.877,2.006c-1.892,0.299-2.386-1.81-2.336-3.313c0.078-2.337,0.323-4.579,0.218-7.19
		c-0.274-6.836-1.469-7.201-2.292-11.322C0.216,79.747,0.073,77.656,0,75.811v34.771c1.362,0.438,2.944,0.528,4.355-0.095
		c2.687-1.189,4.648-2.592,6.76-2.881c3.892-0.535,6.392,1.129,8.08,0.933c1.489-0.175,4.106-1.669,5.34-1.772
		c0.982-0.082,3.112-0.178,3.86,0.381c1.184,0.889,1.916,1.871,1.718,4.938c-0.004,0.044-0.719,3.269-0.728,3.296
		c-1.224,4.038-2.548,7.582-3.181,10.354c-0.57,2.496-3.004,8.27,0.47,10.27h21.113c2.105,0,3.302,0,4.756,0h17.65
		c4.465-1,6.618-3.209,12.073-3.949C86.847,131.428,86.85,132.393,90.864,132.201z"/>
	<path d="M6.526,53.25c1.137-2.642,0.984-4.979,0.407-7.946c-0.014-0.07-0.701-2.265-0.452-2.265
		c-0.197-1.4,0.139-2.932,0.586-3.883c0.721-1.539,1.283-2.282,2.434-2.781c0.712-0.31,1.462-0.683,2.219-0.734
		c2.482-0.175,2.983,1.415,7.625-0.53c2.402-1.009,4.79,0.344,5.97,0.775c3.219,1.17,2.66,1.17,4.709,1.238
		c1.948,0.063,3.824-0.429,5.632-1.528c1.041-0.634,1.827-0.982,2.442-1.878c0.53-0.772,1.231-2.907,1.42-4.008
		c0.231-1.343,0.604-2.184,0.231-5.361c-1.029-3.925-1.402-4.767-2.105-7.252c-0.57-2.022-1.26-3.963-1.55-5.819
		c-0.007-0.036-0.083-2.255-0.083-2.255c-0.252-1.856,1.011-3.19,2.617-3.202c5.751-0.047,11.146,1.593,17.226,1.553
		C60.868,7.342,63,6.315,68.904,8.463c2.056,0.749,3.272,2.429,6.491,3.336c6.12,1.726,10.984-2.402,16.222,0.063
		c4.352,2.049,3.437,0.811,7.528,3.419c1.907,1.218,5.457,3.273,10.548,4.021c3.524,0.521,9.115-0.935,14.875,3.244
		c3.24,2.348,6.201,3.296,10.344,3.725c4.88,0.503,5.354-0.184,9.199,2.602c2.832,2.051,2.052,1.595,4.908,3.72
		c1.291,0.962,2.307,1.941,4.176,2.782c1.07,0.481,5.172,1.054,5.046,1.047c3.646,0.187,4.673-0.112,7.569,0.917
		c-0.063-0.065,3.738,2.429,3.075,1.995c1.743,1.14,3.747,4.078,5.431,6.507c2.056,1.869,2.242,2.954,7.336,3.862
		c-0.983-0.175,4.586,1.746,5.427,2.213c2.188,1.215,2.748,1.963,4.69,4.176c2.006,2.29,2.806,2.9,6.855,5.61
		c0.561,0.376,0.958,0.666,1.372,0.979v-7.413c-1.634-1.101-2.222-2.015-4.058-3.05c-3.506-1.979-3.871-2.564-6.674-5.929
		c-2.431-4.484-6.246-5.109-10.07-5.963c-3.693-0.822-6.313-3.77-6.938-4.783c-1.964-3.179-5.142-4.754-6.824-5.666
		c-5.231-2.838-11.265-2.384-15.978-6.576c-7.104-5.046-8.974-4.111-16.44-4.341c-4.119-0.125-9.523-2.756-11.283-4.219
		c-1.479-1.231-3.187-2.04-4.711-2.512c-5.265-1.623-8.869,1.166-16.229-2.418c-2.15-1.046-4.091-2.487-6.206-3.702
		c-1.316-0.757-2.321-1.124-4.381-1.568c-3.893-0.841-7.283-0.302-12.001,0.1c-2.213,0.188-3.527-0.987-5.561-2.085
		c-1.869-1.009-3.864-1.752-6.333-2.211c-3.199-0.593-6.83-0.175-10.546,0.571C51.293,1.814,47.045,0.792,42.808,0H32.82
		c-1.054,0.619-2.158,1.597-2.652,2.644c-1.072,2.267-1.072,3.575-0.915,5.817c0.215,3.042,0.575,3.257,1.17,5.237
		c1.29,4.296,1.943,6.632,2.97,9.528c1.195,3.366,1.155,7.464-1.681,8.771c-1.368,0.629-3.64,0.646-4.924-0.334
		c-1.996-1.521-3.09-3.662-5.341-4.105c-3.006-0.593-6.61,2.489-9.805,3.33c-3.201,0.845-3.607-0.896-5.832-1.928
		c-1.48-0.685-2.903,0.312-3.732,0.773C0.762,30.467,0.323,31.888,0,33.469v5.757c0.511,1.94,1.144,3.226,1.197,4.687
		c0.111,3.142-0.255,5.636-1.197,7.6v17.91c0.605-4.594,2.559-9.098,3.736-10.799C5.148,56.582,5.452,55.748,6.526,53.25z"/>
	<path fill="#FFFFFF" d="M2.83,92.674c0.105,2.611-0.14,4.854-0.218,7.19c-0.05,1.505,0.445,3.612,2.336,3.312
		c2.694-0.422,5.738-1.92,7.877-2.005c1.056-0.042,2.872,0.285,3.588,0.539c4.271,1.512,2.869,0.387,9.55-0.8
		c2.218-0.394,5.282,0.065,6.516,0.776c3.945,2.279,3.6,7.33,2.48,12.338c-0.178,0.797-1.182,6.002-1.386,6.8
		c-0.669,2.628-0.609,2.766-0.957,5.604c-0.167,1.35-0.077,2.422,0.679,3.647c0.633,1.028,1.37,1.716,2.348,1.743
		c4.343,0.109,6.753,0.018,11.227-0.791c5.776-1.047,8.712-1.041,12.709-0.674c4.093,0.375,9.888,0.264,12.346-0.627
		c2.19-0.791,5.089-2.463,7.385-2.959c7.569-1.617,7.908-0.854,14.003-1.662c4.936-0.655,7.498-3.113,10.011-4.453
		c3.453-1.838,6.514-2.483,10.436-2.483c2.346,0,5.688-0.8,7.309-1.532c6.521-2.953,4.094-2.767,13.24-4.47
		c4.618-0.858,7.979-4.562,10.772-6.144c1.831-1.039,3.476-1.896,5.53-2.514c2.779-0.832,5.912-1.258,8.562-2.172
		c4.303-1.486,5.609-2.982,7.948-5.066c1.971-1.756,2.591-1.711,4.788-3.078c2.22-1.377,5.466-2.396,6.691-2.769
		c2.816-0.852,6.973-5.586,10.778-9.468c3.565-3.643,6.909-3.966,10.619-5.22v-13.06c-0.414-0.314-0.812-0.604-1.372-0.979
		c-4.05-2.709-4.85-3.32-6.855-5.61c-1.943-2.213-2.504-2.961-4.69-4.176c-0.841-0.468-6.411-2.389-5.427-2.213
		c-5.094-0.908-5.281-1.993-7.336-3.862c-1.684-2.429-3.688-5.367-5.43-6.507c0.662,0.434-3.14-2.06-3.076-1.995
		c-2.896-1.029-3.922-0.73-7.569-0.917c0.126,0.007-3.978-0.566-5.046-1.047c-1.869-0.84-2.885-1.82-4.176-2.782
		c-2.856-2.125-2.076-1.669-4.908-3.72c-3.846-2.786-4.319-2.098-9.199-2.602c-4.143-0.429-7.104-1.377-10.344-3.725
		c-5.76-4.179-11.35-2.723-14.875-3.244c-5.092-0.748-8.641-2.804-10.548-4.021c-4.091-2.608-3.177-1.371-7.528-3.419
		c-5.237-2.465-10.102,1.663-16.222-0.063c-3.219-0.908-4.435-2.588-6.491-3.336c-5.904-2.148-8.036-1.121-13.05-1.089
		c-6.08,0.04-11.474-1.6-17.226-1.553c-1.606,0.011-2.869,1.346-2.617,3.202c0,0,0.076,2.22,0.083,2.255
		c0.29,1.856,0.979,3.797,1.55,5.819c0.704,2.485,1.076,3.327,2.105,7.252c0.373,3.177,0,4.018-0.231,5.361
		c-0.189,1.101-0.89,3.235-1.42,4.008c-0.615,0.896-1.402,1.245-2.442,1.878c-1.809,1.099-3.685,1.591-5.632,1.528
		c-2.049-0.068-1.49-0.068-4.709-1.238c-1.18-0.432-3.568-1.784-5.97-0.775c-4.642,1.945-5.143,0.355-7.625,0.53
		c-0.757,0.052-1.507,0.425-2.219,0.734c-1.15,0.499-1.712,1.243-2.434,2.781c-0.447,0.951-0.784,2.483-0.586,3.883
		c-0.249,0,0.438,2.195,0.452,2.265c0.578,2.968,0.73,5.304-0.407,7.946c-1.074,2.498-1.377,3.332-2.79,5.374
		C2.559,60.325,0.605,64.829,0,69.423v6.384c0.073,1.846,0.216,3.937,0.538,5.545C1.361,85.473,2.556,85.838,2.83,92.674z
		 M43,73.989C43,73.915,46.402,70,46.402,70H48V40h-5v-5.671L47.038,30H75v6.908l-5,4.3v11.606l27-15.066v-4.727L99.743,30h28.11
		l-0.017,6.929l-3.438,3.369l-7.022-0.013l-11.632,6.926l0.511,0.51l1.54,1.548c7.895-2.617,15.57-3.917,24.193-2.758
		c5.162,0.688,10.662,2.25,16.746,4.938l4.59-2.824l7.676,0.02v20.373L157.309,73h-7.177c-5.345-9-14.411-17.006-32.726-13.083
		L126.938,70H129v8.364L125.499,82H97.95l-0.25-8H98v-0.095l1.916-2.093l-1.244-1.271c-2.006,1.54-3.711,3.971-3.705,6.953
		c0.016,2.996,1.71,6.541,6.471,10.283c12.879,9.18,44.768,3.804,49.004-7.438c0.067-0.179,0.121-0.34,0.175-0.34h10.804
		c-0.094,7-6.205,13.873-11.999,18.041c-2.299,1.795-5.289,2.878-7.999,4.188c-3.365,1.383-8.973,3.281-14.393,3.84
		c-4.953,0.654-12.428,0.718-18.408,0.25c-6.167-0.653-14.112-3.079-17.475-4.764c-4.113-1.961-6.261-3.467-8.785-6.062
		c-2.617-2.729-4.111-5.07-5.327-8.995c-0.584-1.812-0.874-3.771-0.899-5.765c-0.056-4.387,1.164-8.957,3.328-12.562
		c2.148-3.735,4.929-6.097,8.514-8.62l-1.336-1.372L70.606,67.51L70.588,70H75v9.016L71.99,82H43V73.989z"/>
	<path d="M75,79.016V70h-4.412l0.018-2.49l16.037-9.264l1.346,1.347c-0.003,0.002-0.006-0.021-0.009-0.019
		c-3.585,2.523-6.366,4.873-8.514,8.607c-2.165,3.605-3.384,8.167-3.328,12.553c0.026,1.994,0.315,3.945,0.899,5.755
		c1.215,3.926,2.709,6.264,5.327,8.993c2.523,2.597,4.671,4.094,8.785,6.055c3.363,1.684,11.308,4.093,17.475,4.747
		c5.979,0.468,13.455,0.374,18.409-0.28c5.419-0.561,11.025-2.523,14.392-3.906c2.709-1.309,5.7-2.262,7.999-4.058
		C155.216,93.873,161.327,87,161.421,80h-10.804c-0.053,0-0.114,0.161-0.182,0.34c-4.237,11.241-36.131,16.725-49.011,7.544
		c-4.774-3.753-6.477-7.349-6.483-10.341c-0.006-2.98,1.673-5.438,3.68-6.979l1.193,1.261l0.022,0.017L97.8,74.116l0,0L97.95,82
		h27.549L129,78.364V70h-2.062l-9.53-10.083C135.721,55.994,144.787,64,150.132,73h7.177L161,69.018V48.645l-7.676-0.018
		l-4.596,2.84c-0.016-0.006-0.004-0.013-0.021-0.019c-6.083-2.688-11.571-4.252-16.733-4.939c-8.617-1.146-16.287,0.157-24.17,2.772
		l-0.014-0.018l-1.539-1.555l-0.516-0.52l0.006-0.002l11.633-6.951l7.023-0.038l3.438-3.27L127.854,30h-28.11L97,33.021v4.727
		L70,52.814V41.208l5-4.3V30H47.038L43,34.329V40h5v30h-1.598c0,0-3.402,3.915-3.402,3.989V82h28.99L75,79.016z M96.584,85.559
		c7.18,8.971,23.532,11.51,40.54,6.465c7.96-2.371,11.853-5.491,14.586-9.609c0.283-0.426,0.554-0.414,0.813-1.414h6.916
		c-0.125,1-0.273,1.354-0.442,1.92c-1.183,3.963-3.373,6.122-6.005,9.148c-4.02,3.736-4.842,4.221-8.858,6.369
		c-6.915,3.457-14.11,4.959-22.334,5.147c-11.497,0.467-21.681-1.959-27.942-4.574c-3.833-1.401-9.533-4.952-13.083-11.024
		c-1.268-2.576-1.709-5.223-1.719-7.645c-0.002-0.519,0.016-1.027,0.05-1.521c0.169-2.477,0.737-4.619,1.219-6.064
		c1.29-3.738,3.346-7.571,9.344-11.662l7.551,8.148c0,0-0.001,0.001-0.002,0.002l0.002,0.001c-2.272,1.974-4.184,4.917-4.109,8.429
		C93.163,80.078,94.147,82.748,96.584,85.559z M109.089,50.6c5.14-1.59,19.625-6.604,39.996,2.367l4.3-2.967h6.018l-0.074,18.256
		l-6.691,0.238c-6.822-10.261-22.334-13.91-36.818-10.45l-6.729-7.423c0.006-0.001,0.01-0.003,0.016-0.005L109.089,50.6z M48,72h4
		V36h-4v-4h25v4.16l-4,0.039v19.586L103.107,36H100v-4.363l26-0.036v4.523l-5.747,0.074l-17.589,10.391l20.51,22.337l3.113,3.27
		L127,72.212V78h-26v-5.841l3.67,0.036L88.49,54.888L69,66.102V72h4v6H48V72z"/>
	<polygon fill="#E31837" points="73,72 69,72 69,66.102 88.44,54.888 104.62,72.193 101,72.159 101,78 127,78 127,72.212 
		126.287,72.193 123.225,68.926 102.607,46.589 120.215,36.198 126,36.124 126,31.601 100,31.637 100,36 103.107,36 69,55.785 
		69,36.198 73,36.16 73,32 48,32 48,36 52,36 52,72 48,72 48,78 73,78 	"/>
	<path fill="#E31837" d="M97.22,69.246l-0.002-0.001l-7.549-8.148c-5.999,4.091-8.054,7.922-9.344,11.661
		c-0.482,1.445-1.05,3.588-1.219,6.064c-0.034,0.494-0.052,1.004-0.05,1.523c0.009,2.42,0.451,5.068,1.719,7.644
		c3.55,6.073,9.249,9.626,13.083,11.028c6.261,2.614,16.445,5.045,27.942,4.578c8.224-0.189,15.419-1.684,22.334-5.142
		c4.017-2.147,4.839-2.599,8.858-6.336c2.633-3.027,4.822-5.234,6.005-9.198c0.169-0.566,0.317-0.92,0.442-1.92h-6.916
		c-0.262,1-0.531,0.988-0.813,1.414c-2.733,4.118-6.626,7.189-14.586,9.559c-17.007,5.047-33.36,2.541-40.54-6.432
		c-2.439-2.812-3.422-5.473-3.474-7.879C93.036,74.15,94.947,71.219,97.22,69.246z"/>
	<path fill="#E31837" d="M115.818,58.044c14.483-3.46,29.994,0.189,36.818,10.45l6.69-0.238L159.4,50h-6.017l-4.3,2.967
		c-20.352-8.963-34.831-3.946-39.98-2.351c-0.004,0.001-0.011,0.003-0.016,0.005L115.818,58.044z"/>
</g>
</svg>
