<?xml version="1.0" encoding="utf-8"?>
<!-- Generator: Adobe Illustrator 20.0.0, SVG Export Plug-In . SVG Version: 6.00 Build 0)  -->
<svg version="1.1" id="PILLS" xmlns="http://www.w3.org/2000/svg" xmlns:xlink="http://www.w3.org/1999/xlink" x="0px" y="0px"
	 viewBox="0 0 200 136" style="enable-background:new 0 0 200 136;" xml:space="preserve">
<style type="text/css">
	.st0{fill:#002244;}
	.st1{fill:#FFFFFF;}
</style>
<path class="st0" d="M200,128c0,4.4-3.6,8-8,8H8c-4.4,0-8-3.6-8-8V8c0-4.4,3.6-8,8-8h184c4.4,0,8,3.6,8,8V128z"/>
<g>
	<path class="st1" d="M153.1,85.8L153.1,85.8C153.1,85.8,153.1,85.8,153.1,85.8c0,0,0,0.7,0,1.7c0,0.8-0.1,1.7-0.3,2.6
		c-2,1-3.3,3.1-3.3,5.5c0,3.4,2.8,6.2,6.2,6.2v0c0,0,0,0,0,0s0.2-0.5,0.5-1.5c0,0,0,0,0,0c0,0,0,0,0,0c-0.7,0-1.4-0.2-2-0.5
		c-1.1-0.7-1.9-1.9-1.9-3.3c0-1.4,0.8-2.7,1.9-3.3c0.6-0.3,1.2-0.5,2-0.5c0,0,0,0,0,0c0.1,0,0.1,0,0.2,0v0h0
		c-0.2-1.1-0.6-2.2-1.1-3.3C154.7,88.1,154,86.9,153.1,85.8z"/>
	<path class="st1" d="M198.4,61.4c-0.2,0.6-0.4,1.2-0.6,1.8c-2.8,7-7.4,14.9-17.6,20.1c0.1,0.7,0.2,1.5,0.3,2.3
		c0.4,2.7,0.6,5.5,0.6,8.4c0,0.8-0.1,1.6-0.1,2.5c0,0.8,0,1.6-0.1,2.5l-0.2,2.4l-0.4,0.4c0,0-0.7,0.7-1.7,1.5
		c-0.8,0.7-1.8,1.6-2.6,2.4c-0.4,0.3-0.7,0.6-1,0.9c-0.8,4-1.8,7.9-2.9,11.4c-2.3,7.5-5,13.8-7,18.1h4c3-6.4,6.8-16.1,9.2-27.6
		c1.6-1.4,5.5-5,5.5-5l0.4-0.4l0.2-1.9l0.2-1.9c0.2-1.7,0.2-3.5,0.2-5.3c0-2.8-0.2-5.8-0.6-8.7c8.6-5.1,13.1-12,15.9-18.1V55.4
		C199.6,57.5,199.1,59.5,198.4,61.4z"/>
	<path class="st1" d="M108.8,135.2l0.7-1.3c0,0,1.2-2.2,1.8-3.7c0.4-1.1,0.8-1.7,1-2.6c0.1-0.5,0.2-1.2,0.2-2.2c0,0,0-0.1,0-0.1
		c0,0,0,0,0,0c0-0.3-0.1-0.5-0.1-0.8c-0.1-0.8-0.2-1.6-0.6-2.3c-0.3-0.3-0.5-0.6-0.8-0.9c-1.5-1.5-2.6-2.3-4.2-3.7
		c-0.7-0.7-1.4-1.3-2-1.8l0,0c-1,1.7-2.3,3.3-3.9,4.8c-0.1,0.1-0.2,0.2-0.2,0.2l-5.2,4.5l-1.7-2.3l-2.3-3.2
		C91.1,119.6,62.9,82,0,72.5v3.6c29.4,4.5,50.7,15.3,63.9,24.2c16.6,11.1,24.5,21.6,24.5,21.6l3.1,4.2l3.2,4.4l8.1-7
		c0.9-0.7,1.7-1.6,2.5-2.5l0.7,0.6c1,0.8,1.7,1.4,2.6,2.4c0.1,0.4,0.2,0.7,0.2,1.2c0,1.8-0.1,1.8-0.6,3l-0.2,0.6
		c-0.3,0.7-0.7,1.5-1,2.2c-0.2,0.3-0.3,0.6-0.4,0.8c-0.1,0.1-0.1,0.2-0.1,0.2h0l-2.1,3.8h5.9L108.8,135.2z"/>
	<path class="st1" d="M69.3,16.8c5-1.2,10-2.3,15.2-3.1c0.3,0,0.7-0.1,1.3-0.2c0,0,0,0,0,0c0.5-0.8,1.1-1.7,1.7-2.5
		c0.3-0.4,0.6-0.9,0.9-1.3C91.3,6,94.5,2.8,98,0h-5.5c-2.5,2.3-4.8,4.8-6.9,7.5c-0.7,0.9-1.3,1.8-1.9,2.7
		C48.7,15.7,18.4,31.9,0,43.7V48C15.3,38,40.1,24.1,69.3,16.8z"/>
	<path class="st1" d="M197.2,26.3c1.3,3.4,2.2,6.8,2.8,10.2V23.6c-2.9-7.2-7.9-15.8-16.6-23.6h-5.6C187.3,7.6,193.6,16.8,197.2,26.3
		z"/>
	<path class="st1" d="M156.6,96.9c-0.1,0.1-0.3,0.3-0.7,0.4s-0.7,0.3-1.2,0.2c-0.3,0-0.7-0.1-1-0.3c0.5,1.2,1.8,1.5,2.6,1.2
		c0-0.1,0.1-0.2,0.1-0.3C156.8,97.4,156.7,96.8,156.6,96.9C156.7,96.8,156.7,96.8,156.6,96.9z"/>
	<path class="st1" d="M108.6,110.8c0.2,0.1,0.3,0.2,0.3,0.2l0,0.1l0-0.1C109,111,108.9,110.9,108.6,110.8z"/>
	<path class="st1" d="M172.2,105.4l0.1-0.5l0.4-0.3c0.3-0.3,0.7-0.6,1.1-1c1.4-1.3,3.3-3,4.1-3.8l0.1-1.3c0.1-1.6,0.2-3.1,0.2-4.6
		c0-0.2,0-0.4,0-0.6c0-3.7-0.4-7.3-1.1-10.7l-0.2-1.1l1-0.5c6.2-3,10.2-6.9,13-11.1c0,0,0.1-0.1,0.1-0.1c0.1-0.1,0.2-0.3,0.3-0.4
		c1.5-2.4,2.7-4.9,3.7-7.4c1.8-4.3,2.7-9.3,2.9-14.7c0-0.4,0.1-0.8,0.1-1.2c0,0,0,0,0,0c0-15.6-7.3-33.7-25-46.2h-6.1
		c2.5,1.3,4.9,2.9,7.2,4.8c6.1,4.9,11.6,11.6,15.5,21c7.1,17.1,4.6,31.9-1.3,41.7c-2.9,4.9-6.7,8.6-10.6,10.7
		c-1.1,0.6-2.2,1.1-3.2,1.4c-0.4,0.2-0.9,0.3-1.3,0.4v0c0.3,1.1,0.5,2.2,0.7,3.4c0.1,0.6,0.2,1.1,0.3,1.7c0,0.1,0,0.1,0,0.2
		c0.2,1.5,0.4,3,0.5,4.6c0,0.3,0.1,0.6,0.1,0.9c0,0.3,0,0.7,0,1c0,0.4,0,0.8,0,1.2c0,0.3,0,0.6,0,0.9c0,0,0,0,0,0c0,0.5,0,0.9,0,1.4
		c0,0.2,0,0.5,0,0.7c0,0,0,0,0,0c0,0.7-0.1,1.4-0.1,2.2l-5.4,4.9l0,0c-2.3,12.6-6.7,23.3-9.7,29.7c-0.6,1.2-1.1,2.3-1.6,3.2h3.8
		c1-2,2.1-4.5,3.3-7.4C167.7,122.5,170.4,114.5,172.2,105.4z"/>
	<path class="st1" d="M117.1,133c0,0,1.2-2.4,1.6-5.6c0.1-0.7,0.1-1.5,0.1-2.3c0-2-0.4-4.1-1.6-6.2c-0.7-1.3-4.8-4.7-8.2-7.8
		c-0.1-0.1-0.2-0.2-0.4-0.3c-0.3-0.2-1-0.9-1.8-1.7c-1.4-1.3-3-3.1-3.5-3.8c-1.9-2.7-3.8-6.6-4.9-11.8c0,0-0.1,0.3-0.2,0.7
		c-0.4,2-1,8,2.8,14.3c-0.8,2.4-2.1,5.3-4.7,7.5c0,0-2.9-4.9-9.6-11.9C74.2,90.9,48.1,69.9,3.2,60.6c0,0,31.7-29.6,80.6-40.2
		c-0.5,1.1-1,2.3-1.4,3.4c-1.1,1.6-2.6,4.3-3.8,7.8c-2.8,7.7-4.4,19.7,2.3,34.4c11.7,26,43.8,27,54.6,10.7c0.3-0.5,0.6-1,0.9-1.5
		c0.4-0.6,0.7-1.2,1-1.8c0.6-1,1.2-2.2,1.6-3.4c0.4-1,0.7-2.1,1-3.1c3.8-15-8.3-26.2-18.3-25.3c13.3,6.8,9.7,19.5,4.3,23.7
		c-5.8,4.4-15.1,3.9-20.8-4c-11.8-16.3-1.8-36.2,14.8-42.9c7.4-3,16.1-3.3,24.7,0.5c2.9,1.3,5.7,3,8.6,5.3c1.1,0.9,2.1,1.8,3,2.8
		c8,8.3,9.9,19.6,7.8,27.1c-0.1,0.2-0.1,0.4-0.2,0.6c-0.1,0.2-0.1,0.4-0.2,0.6c0,0,0,0.1,0,0.1c-0.3,0.8-0.6,1.4-1,2.1
		c-0.2,0.4-0.5,0.9-0.8,1.2c-0.2,0.3-0.5,0.7-0.8,0.9c0,0-0.1,0.1-0.1,0.2c0,0,0,0.1-0.1,0.1l-0.1,0.1c0,0,0,0-0.1,0.1h0
		c-0.2,0.2-0.4,0.4-0.7,0.7c0,0,0.9,1,2,2.3c0.7,0.9,1.6,1.9,2.3,3c2.9,4.1,3.3,5.6,4.6,6.2c0.2,0.1,0.4,0.2,0.6,0.2h0
		c0.2,0,0.5,0.1,0.7,0.1c0.3,0,0.7,0,1.1-0.1c0,0,0,0,0,0c0.8-0.2,1.6-0.5,2.5-1c0.4-0.3,0.9-0.5,1.4-0.9c1.8-1.3,4.1-4,5.8-6.5
		c0.5-0.7,0.9-1.5,1.2-2.1c1-2.1,4-8.8,4.2-18.8l0-0.8v0v0c0-2.6-0.2-5.4-0.7-8.4c-0.1-0.8-0.2-1.5-0.4-2.3
		c-0.7-3.6-1.9-6.9-3.5-10.1c-4-8.1-10.4-14.7-17.2-19.2c-1.3-0.8-2.5-1.6-3.8-2.3h-58c-2.6,1.8-5.1,3.8-7.4,6.1
		c-1.7,1.7-3.3,3.5-4.8,5.4c-0.7,0.9-1.3,1.8-1.9,2.8c-0.3,0.4-0.6,0.8-0.8,1.3l-0.3,0.5l-0.3,0.1L87,16.2c-0.3,0.1-0.5,0.1-0.7,0.1
		c-0.5,0.1-1,0.2-1.3,0.2c-21.5,3.3-41.4,11-57.6,19C16.4,41.1,7.1,46.8,0,51.5v18c40.7,6,67.2,23.6,81.3,35.9c0,0,0,0,0.1,0.1
		c0.9,0.8,1.7,1.5,2.5,2.2c6.5,5.9,9.7,10.2,9.8,10.4l2.2,3l2.8-2.4c2-1.7,3.4-3.8,4.4-5.8l0.4-0.9l0.4-0.9l0.7,0.7l0.7,0.7
		c1,0.9,2.1,1.9,3.4,3c1.7,1.5,3.2,2.4,5.4,5l0.1,0.1l0.1,0.1c0.2,0.4,0.4,0.8,0.5,1.2c0.4,1.2,0.6,2.4,0.6,3.5c0,0,0,0,0,0
		c0,2.7-0.5,4.2-1.1,5.5c-0.1,0.2-0.2,0.4-0.2,0.6c-0.4,0.9-0.9,1.9-1.3,2.7l3.4,1.9h6.3L117.1,133z"/>
	<path class="st1" d="M134.7,122.7c0,0-2.4,0.2-2.6,1c1.6,1.5,1.4,5.5,1.5,8.4c0,0.4,0,0.8,0,1.1
		C133.7,132.6,136.4,128.7,134.7,122.7L134.7,122.7z"/>
	<path class="st1" d="M156.1,129.1c3.2-7.3,7.3-18.6,8.8-29.9l3.8-3.4c0-1.2,0-2.4-0.1-3.6C167.2,74.5,152.8,63,152.8,63l0,0l0,0
		c0,0,8.2,10.2,10.3,23.7c0.4,2.9,0.6,5.9,0.4,9l-2.2,2l-1.1,1c0,3.1-0.1,8.1-1.4,13.9c-0.7,3.2-1.8,6.6-3.4,10.1
		c-1.7-3.2-4.3-5.9-6.9-8.2c-3-2.5-6.2-4.5-8.9-5.8c-1.6-0.7-2.9-1.3-4-1.5c-1.7,1-4.6,2.6-7.4,4.5c-2.2,1.5-4.3,3.2-6,5v0
		c0.3,0.5,0.7,1.3,1.1,2.2c0.3,0.8,0.6,1.7,0.7,2.1c0.2,1.3,0.3,2.4,0.4,3.5c0.1,3.1-0.4,5.5-0.9,7.4c0,0,2.9,1.6,5,2.8
		c1.3,0.7,2.3,1.2,2.2,1.1c0.2-0.6,0.3-1.1,0.4-1.6c0.7-3.4,0.2-5.9-0.8-8c-0.7-1.4-1.5-2.7-2.3-4.1c0.4-0.3,1-0.6,1.6-1
		c2.3-1.3,5.4-3,7.1-3.7c2.2,3,3.3,8,1,15c-0.4,1.2-0.9,2.3-1.3,3.4h8.5c0.8-0.9,1.4-1.9,1.8-3c0.4-1.1,0.2-1.9,0.1-2.7
		c-0.2,0.2-0.4,0.5-0.6,0.8c-0.2,0.3-0.5,0.6-0.8,0.8c-1-2.2-1-4,0.2-5.3c0.6-0.7,1.3-0.9,2.1-1c0.3,0,0.7,0,1,0.2
		c0.8,0.3,1.4,0.9,1.7,1.6c0.3,0.6,0.4,1.3,0.4,1.9c0.2,2.9-1.4,5.5-2.3,6.7h4.5c0.1,0,0.2-0.1,0.2-0.1
		C153.7,134.5,154.8,132.1,156.1,129.1z"/>
	<path class="st0" d="M169.2,103.2L169.2,103.2l5.4-4.9c0.1-0.7,0.1-1.4,0.1-2.2c0,0,0,0,0,0c0-0.2,0-0.5,0-0.7c0-0.5,0-0.9,0-1.4
		c0,0,0,0,0,0c0-0.3,0-0.6,0-0.9c0-0.4,0-0.8,0-1.2c0-0.3,0-0.7,0-1c0-0.3,0-0.6-0.1-0.9c-0.1-1.6-0.3-3.1-0.5-4.6
		c0-0.1,0-0.1,0-0.2c-0.1-0.6-0.2-1.1-0.3-1.7c-0.2-1.1-0.4-2.3-0.7-3.4v0c0.4-0.1,0.9-0.2,1.3-0.4c1.1-0.4,2.2-0.8,3.2-1.4
		c3.9-2.2,7.7-5.8,10.6-10.7c5.9-9.9,8.4-24.6,1.3-41.7c-3.9-9.4-9.4-16.2-15.5-21c-2.3-1.9-4.7-3.4-7.2-4.8h-6
		c1.3,0.7,2.6,1.5,3.8,2.3c6.8,4.5,13.2,11.1,17.2,19.2c1.6,3.2,2.8,6.5,3.5,10.1c0.2,0.8,0.3,1.5,0.4,2.3c0.5,3,0.7,5.8,0.7,8.4v0
		v0l0,0.8c-0.2,10-3.2,16.7-4.2,18.8c-0.3,0.7-0.7,1.4-1.2,2.1c-1.6,2.5-4,5.3-5.8,6.5c-0.5,0.3-0.9,0.6-1.4,0.9
		c-0.9,0.5-1.8,0.8-2.5,1c0,0,0,0,0,0c-0.4,0.1-0.7,0.1-1.1,0.1c-0.3,0-0.5,0-0.7-0.1h0c-0.2,0-0.4-0.1-0.6-0.2
		c-1.3-0.6-1.7-2.1-4.6-6.2c-0.8-1.1-1.6-2.1-2.3-3c-1.1-1.4-2-2.3-2-2.3c0.2-0.2,0.5-0.4,0.7-0.7h0c0,0,0,0,0.1-0.1l0.1-0.1
		c0,0,0,0,0.1-0.1c0,0,0.1-0.1,0.1-0.2c0.3-0.3,0.5-0.6,0.8-0.9c0.3-0.4,0.5-0.8,0.8-1.2c0.4-0.7,0.7-1.3,1-2.1c0-0.1,0-0.1,0-0.1
		c0.1-0.2,0.1-0.4,0.2-0.6c0.1-0.2,0.1-0.4,0.2-0.6c2.1-7.5,0.2-18.8-7.8-27.1c-0.9-1-1.9-1.9-3-2.8c-2.8-2.3-5.7-4-8.6-5.3
		c-8.6-3.8-17.3-3.5-24.7-0.5c-16.6,6.6-26.6,26.6-14.8,42.9c5.7,7.9,15.1,8.4,20.8,4c5.4-4.2,9.1-16.9-4.3-23.7
		C131.8,40.8,143.8,52,140,67c-0.3,1-0.6,2-1,3.1c-0.5,1.2-1,2.3-1.6,3.4c-0.3,0.6-0.6,1.2-1,1.8c-0.3,0.5-0.6,1-0.9,1.5
		C124.7,93,92.6,92,80.9,66c-6.7-14.7-5-26.7-2.3-34.4c1.3-3.5,2.8-6.2,3.8-7.8c0.4-1.2,0.9-2.3,1.4-3.4C34.9,31,3.2,60.5,3.2,60.6
		c44.9,9.3,71.1,30.3,83.7,43.6c6.6,7,9.5,11.8,9.6,11.9c2.5-2.2,3.9-5.1,4.7-7.5c-3.9-6.3-3.2-12.3-2.8-14.3
		c0.1-0.5,0.2-0.7,0.2-0.7c1,5.2,3,9.1,4.9,11.8c0.5,0.7,2.2,2.4,3.5,3.8c0.8,0.8,1.5,1.5,1.8,1.7c0.2,0.1,0.3,0.2,0.3,0.2l0,0.1
		c3.4,3,7.5,6.5,8.2,7.8c1.2,2.1,1.6,4.2,1.6,6.2c0,0.8,0,1.6-0.1,2.3c-0.4,3.3-1.6,5.6-1.6,5.6l5.4,3h13.7c0.5-1.1,0.9-2.2,1.3-3.4
		c2.3-7.1,1.2-12-1-15c-1.7,0.7-4.8,2.4-7.1,3.7c-0.6,0.4-1.2,0.7-1.6,1c0.8,1.3,1.6,2.6,2.3,4.1c1,2.1,1.5,4.5,0.8,8
		c-0.1,0.5-0.2,1-0.4,1.6c0,0.1-1-0.5-2.2-1.1c-2.1-1.2-5-2.8-5-2.8c0.6-1.9,1.1-4.3,0.9-7.4c0-1.1-0.2-2.2-0.4-3.5
		c-0.1-0.4-0.3-1.2-0.7-2.1c-0.3-0.8-0.7-1.7-1.1-2.2v0c1.7-1.8,3.8-3.5,6-5c2.9-2,5.7-3.6,7.4-4.5c1,0.2,2.4,0.8,4,1.5
		c2.7,1.3,5.9,3.2,8.9,5.8c2.7,2.3,5.2,5.1,6.9,8.2c1.6-3.6,2.7-7,3.4-10.1c1.3-5.9,1.4-10.8,1.4-13.9l1.1-1l2.2-2
		c0.2-3.1,0.1-6.1-0.4-9C160.9,73.2,152.8,63,152.8,63l0,0l0,0c0,0,14.4,11.5,15.9,29.2c0.1,1.2,0.1,2.4,0.1,3.6l-3.8,3.4
		c-1.5,11.4-5.7,22.6-8.8,29.9c-1.3,3-2.4,5.4-3.1,6.8c-0.1,0-0.1,0.1-0.2,0.1h5.2c0.5-0.9,1-1.9,1.6-3.2
		C162.5,126.5,166.9,115.8,169.2,103.2z M134.7,122.7L134.7,122.7c1.7,6-0.9,9.9-1.1,10.5c0-0.3,0-0.7,0-1.1c0-2.8,0.2-6.9-1.5-8.4
		C132.3,122.9,134.7,122.7,134.7,122.7z M156.7,96.8c0,0,0.1,0.6-0.2,1.3c0,0.1-0.1,0.2-0.1,0.3c-0.8,0.3-2.1,0-2.6-1.2
		c0.4,0.2,0.7,0.3,1,0.3c0.5,0,0.9-0.1,1.2-0.2S156.5,97,156.7,96.8C156.7,96.8,156.7,96.8,156.7,96.8z M153.1,87.5c0-1,0-1.7,0-1.7
		c0,0,0,0,0,0v0c0.9,1.2,1.6,2.3,2.1,3.5c0.5,1.1,0.9,2.3,1.1,3.3h0v0c-0.1,0-0.1,0-0.2,0c0,0,0,0,0,0c-0.7,0-1.4,0.2-2,0.5
		c-1.1,0.7-1.9,1.9-1.9,3.3c0,1.4,0.8,2.7,1.9,3.3c0.6,0.3,1.2,0.5,2,0.5c0,0,0,0,0,0c0,0,0,0,0,0c-0.3,0.9-0.5,1.5-0.5,1.5s0,0,0,0
		v0c-3.4,0-6.2-2.8-6.2-6.2c0-2.4,1.4-4.5,3.3-5.5C152.9,89.2,153,88.2,153.1,87.5z"/>
	<path class="st0" d="M150.6,129.3c0-0.6-0.2-1.3-0.4-1.9c-0.3-0.7-0.9-1.3-1.7-1.6c-0.3-0.1-0.6-0.2-1-0.2c-0.8,0-1.5,0.3-2.1,1
		c-1.2,1.3-1.2,3.1-0.2,5.3c0.3-0.2,0.6-0.5,0.8-0.8c0.2-0.3,0.5-0.6,0.6-0.8c0.1,0.8,0.3,1.6-0.1,2.7c-0.4,1.1-1,2.1-1.8,3h3.5
		C149.1,134.8,150.8,132.1,150.6,129.3z"/>
	<path class="st0" d="M108.6,110.8c0.1,0.1,0.2,0.2,0.4,0.3l0-0.1C109,111,108.9,110.9,108.6,110.8z"/>
	<path class="st0" d="M27.4,35.6c16.2-8.1,36-15.7,57.6-19c0.3,0,0.8-0.1,1.3-0.2c0.2,0,0.4-0.1,0.7-0.1l0.3-0.1l0.3-0.1l0.3-0.5
		c0.3-0.4,0.5-0.9,0.8-1.3c0.6-1,1.3-1.9,1.9-2.8c1.5-2,3.1-3.8,4.8-5.4c2.3-2.3,4.8-4.3,7.4-6.1H98c-3.5,2.8-6.7,6-9.6,9.7
		c-0.3,0.4-0.6,0.9-0.9,1.3c-0.6,0.8-1.2,1.6-1.7,2.5c0,0,0,0,0,0c-0.6,0.1-1,0.2-1.3,0.2c-5.2,0.8-10.3,1.9-15.2,3.1
		C40.1,24.1,15.3,38,0,48v3.5C7.1,46.8,16.4,41.1,27.4,35.6z"/>
	<path class="st0" d="M112.8,134.1c0.4-0.8,0.9-1.8,1.3-2.7c0.1-0.2,0.2-0.4,0.2-0.6c0.6-1.3,1.1-2.8,1.1-5.5c0,0,0,0,0,0
		c0-1.1-0.2-2.3-0.6-3.5c-0.1-0.4-0.3-0.8-0.5-1.2l-0.1-0.1l-0.1-0.1c-2.1-2.6-3.7-3.5-5.4-5c-1.3-1.2-2.4-2.1-3.4-3l-0.7-0.7
		l-0.7-0.7l-0.4,0.9l-0.4,0.9c-1,2-2.4,4.1-4.4,5.8l-2.8,2.4l-2.2-3c-0.1-0.2-3.3-4.4-9.8-10.4c-0.8-0.7-1.6-1.4-2.5-2.2
		c0,0,0,0-0.1-0.1C67.2,93.2,40.7,75.6,0,69.6v3c62.9,9.4,91.1,47,91.3,47.3l2.3,3.2l1.7,2.3l5.2-4.5c0.1-0.1,0.2-0.2,0.2-0.2
		c1.7-1.5,3-3.1,3.9-4.8l0,0c0.6,0.6,1.3,1.2,2,1.8c1.6,1.4,2.8,2.1,4.2,3.7c0.2,0.3,0.5,0.5,0.8,0.9c0.4,0.7,0.5,1.5,0.6,2.3
		c0,0.3,0.1,0.5,0.1,0.8c0,0,0,0,0,0c0,0,0,0.1,0,0.1c0,1-0.1,1.7-0.2,2.2c-0.2,1-0.5,1.5-1,2.6c-0.6,1.5-1.8,3.7-1.8,3.7l-0.7,1.3
		l1.4,0.8h6L112.8,134.1z"/>
	<path class="st0" d="M175,106.5c0.3-0.3,0.6-0.6,1-0.9c0.8-0.8,1.8-1.6,2.6-2.4c1-0.9,1.7-1.5,1.7-1.5l0.4-0.4l0.2-2.4
		c0.1-0.8,0.1-1.6,0.1-2.5c0-0.8,0.1-1.6,0.1-2.5c0-2.9-0.2-5.7-0.6-8.4c-0.1-0.8-0.2-1.5-0.3-2.3c10.2-5.2,14.7-13,17.6-20.1
		c0.2-0.6,0.4-1.2,0.6-1.8c0.7-1.9,1.2-3.9,1.6-6v-19c-0.6-3.4-1.5-6.8-2.8-10.2c-3.6-9.5-9.9-18.7-19.4-26.3H173
		c17.7,12.5,25,30.6,25,46.2c0,0,0,0,0,0c0,0.4,0,0.8-0.1,1.2c-0.1,5.4-1.1,10.4-2.9,14.7c-1,2.5-2.2,4.9-3.7,7.4
		c-0.1,0.1-0.2,0.3-0.3,0.4c0,0-0.1,0.1-0.1,0.1c-2.8,4.2-6.8,8.1-13,11.1l-1,0.5l0.2,1.1c0.6,3.4,1.1,7,1.1,10.7c0,0.2,0,0.4,0,0.6
		c0,1.5-0.1,3.1-0.2,4.6l-0.1,1.3c-0.8,0.8-2.8,2.5-4.1,3.8c-0.4,0.4-0.8,0.7-1.1,1l-0.4,0.3l-0.1,0.5c-1.8,9.1-4.6,17-7.1,23.1
		c-1.2,2.9-2.4,5.4-3.3,7.4h3.2c2.1-4.3,4.7-10.6,7-18.1C173.2,114.4,174.2,110.5,175,106.5z"/>
</g>
</svg>
