<?xml version="1.0" encoding="utf-8"?>
<!-- Generator: Adobe Illustrator 16.0.3, SVG Export Plug-In . SVG Version: 6.00 Build 0)  -->
<!DOCTYPE svg PUBLIC "-//W3C//DTD SVG 1.1//EN" "http://www.w3.org/Graphics/SVG/1.1/DTD/svg11.dtd">
<svg version="1.1" id="PILLS" xmlns="http://www.w3.org/2000/svg" xmlns:xlink="http://www.w3.org/1999/xlink" x="0px" y="0px"
	 width="200px" height="136px" viewBox="0 0 200 136" enable-background="new 0 0 200 136" xml:space="preserve">
<path fill="#005778" d="M200,128c0,4.418-3.582,8-8,8H8c-4.418,0-8-3.582-8-8V8c0-4.418,3.582-8,8-8h184c4.418,0,8,3.582,8,8V128z"
	/>
<g>
	<path fill="none" d="M58.446,59.78c-0.045-0.036-0.083-0.075-0.119-0.116C58.362,59.705,58.401,59.744,58.446,59.78z"/>
	<path fill="none" d="M58,59.42L58,59.42C58,59.419,58,59.419,58,59.42z"/>
	<path fill="none" d="M58.261,59.574c-0.007-0.011-0.015-0.021-0.021-0.032C58.246,59.553,58.254,59.563,58.261,59.574z"/>
	<path fill="none" d="M58,58.841c0-0.004,0-0.008,0-0.013C58,58.833,58,58.837,58,58.841z"/>
	<path fill="none" d="M58.321,58.111c0.051-0.111,0.122-0.255,0.209-0.413C58.454,57.833,58.382,57.97,58.321,58.111z"/>
	<path fill="none" d="M107.493,6.899c0.882,0.046,2.676-2.923,4.676-6.899h-8.224C105.044,3.474,106.389,6.841,107.493,6.899z"/>
	<path fill="none" d="M168.579,28.175c-0.123,0.053-0.271,0.117-0.433,0.188C168.309,28.292,168.456,28.228,168.579,28.175z"/>
	<path fill="none" d="M121.926,7.893c1.432,0.359,6.104-3.964,9.988-7.893h-11.104C120.893,4.271,121.118,7.689,121.926,7.893z"/>
	<path fill="none" d="M70.855,13.286C72.213,11.765,68.2,0.217,68.2,0.217s8.562,8.665,11.252,8.145
		c1.059-0.205,1.77-3.926,2.244-8.361H49.122c1.242,0.892,2.644,1.897,4.118,2.955C61.808,9.101,70.044,14.193,70.855,13.286z"/>
	<path fill="none" d="M96.018,6.305c1.648-0.664,2.976-3.42,3.947-6.305h-9.918C92.32,3.909,94.593,6.879,96.018,6.305z"/>
	<path fill="none" d="M2.444,90.129c1.027-0.744,2.732-1.559,5.288-1.559c0.253,0,1.568,0.074,1.568,0.074
		c2.142,0.135,4.357,0.272,6.217,0.272c1.962,0,2.91-0.161,3.359-0.295c0.238-0.073,0.436-0.147,0.61-0.224l2.347-1.149
		c0.677-0.301,1.62-0.406,2.631,0.476c0.54,0.531,0.672,1.312,0.7,2.227L25,89.986v0.035c0,0.805,0.053,1.637-0.158,2.472
		l0.078,0.015l0.038,0.016c-0.413,1.521-1.151,3.115-2.169,4.605c-0.176,0.26-0.368,0.534-0.573,0.798
		c0.569,0.03,1.157,0.048,1.752,0.048c4.14,0,7.541-0.768,11.275-1.973c3.021-0.977,6.503-7.127,5.912-8.684
		c-0.591-1.559-12.483-2.633-12.483-2.633s10.216-8.84,9.744-11.596c-0.472-2.755-25.177-7.922-25.177-7.922
		s27.278-6.902,27.334-9.01c0.057-2.108-13.908-8.488-13.908-8.488s16.062,1.75,16.703-0.387
		c0.81-2.701-24.998-17.705-24.998-17.705s7.886,1.462,15.634,2.521c7.305,0.998,14.494,1.627,14.72,0.757
		c0.467-1.794-6.763-8.758-6.763-8.758s12.718,3.769,14.414,1.125c0.691-1.079-0.913-6.618-3.556-12.39
		C50.566,7.914,47.974,3.123,46.215,0H8C3.582,0,0,3.582,0,8v80.919c0.637,0.285,1.268,0.588,1.886,0.916L2.444,90.129z"/>
	<path fill="none" d="M165.189,26.021c-2.021,0.829-3.891,1.351-6.78,2.074c2.892-0.722,4.758-1.244,6.782-2.073
		c2.902-1.191,3.832-1.717,3.735-1.941c-0.006-0.015-0.016-0.026-0.026-0.035c0.011,0.008,0.02,0.02,0.024,0.033
		C169.021,24.305,168.094,24.832,165.189,26.021z"/>
	<path fill="none" d="M143.9,33.846c0.031-0.058,0.063-0.117,0.097-0.175C143.965,33.729,143.934,33.788,143.9,33.846z"/>
	<path fill="none" d="M132.354,122.134c-1.83,1.046,0.336,13.866,0.513,13.866h18.579C144.535,131,133.641,121.398,132.354,122.134z
		"/>
	<path fill="none" d="M144.082,33.517c0.031-0.058,0.064-0.116,0.098-0.173C144.146,33.402,144.113,33.459,144.082,33.517z"/>
	<path fill="none" d="M144.271,33.18c0.03-0.051,0.06-0.103,0.09-0.154C144.331,33.078,144.302,33.129,144.271,33.18z"/>
	<path fill="none" d="M143.73,34.161c0.028-0.052,0.058-0.106,0.086-0.159C143.788,34.055,143.759,34.108,143.73,34.161z"/>
	<path fill="none" d="M123.632,127.436c-0.989,0.244-1.612,4.564-1.985,8.564h11.181C132.225,136,125.889,126.88,123.632,127.436z"
		/>
	<path fill="none" d="M143.575,34.455c0.021-0.041,0.044-0.083,0.065-0.125C143.619,34.372,143.596,34.414,143.575,34.455z"/>
	<path fill="none" d="M143.352,35.166c-0.004,0.004-0.006,0.008-0.011,0.012C143.344,35.174,143.348,35.17,143.352,35.166z"/>
	<path fill="none" d="M2.695,92.521C1.834,91.971,0.928,91.482,0,91.037v0.005c0.927,0.446,1.833,0.937,2.692,1.487L2.695,92.521z"
		/>
	<path fill="none" d="M143.436,34.721c0.013-0.023,0.024-0.046,0.037-0.07C143.46,34.674,143.448,34.698,143.436,34.721z"/>
	<path fill="none" d="M144.468,32.843c0.022-0.038,0.046-0.074,0.066-0.112C144.512,32.769,144.49,32.805,144.468,32.843z"/>
	<path fill="none" d="M154.441,29.281c0.006,0.008,0.011,0.017,0.016,0.024c0,0,1.76-0.565,3.172-0.998
		c-1.414,0.432-3.171,0.997-3.171,0.997C154.452,29.296,154.448,29.289,154.441,29.281z"/>
	<path fill="none" d="M70.798,52.467c9.965-1.31,13.247,1.022,20.499-1.396C92.731,49.62,94.469,48,95.776,47
		c-0.001,0-0.002,0-0.003,0c-1.306,1-2.981,2.619-4.414,4.069c-7.253,2.418-10.599,0.123-20.562,1.432
		C62.931,53.536,60,56.182,58,58.294c0,0,0,0.001,0,0.002C60,56.185,62.928,53.503,70.798,52.467z"/>
	<path fill="none" d="M150.691,26.73c1.15-0.502,2.179-0.828,3.104-1.042C152.87,25.902,151.841,26.228,150.691,26.73
		c-2.287,0.998-3.948,2.823-4.924,4.144C146.744,29.553,148.408,27.728,150.691,26.73z"/>
	<path fill="none" d="M143.635,34.859c2.399-2.46,7.594-4.504,10.797-5.595l0,0C151.229,30.354,146.033,32.398,143.635,34.859z"/>
	<path fill="none" d="M96.116,130.213c-0.869-0.242-2.781,2.787-4.991,5.787h8.558C98.636,134,97.351,130.555,96.116,130.213z"/>
	<path fill="none" d="M110.038,128.667c-1.567-0.185-3.642,4.333-5.304,7.333h10.414C113.122,132,111.077,128.54,110.038,128.667z"
		/>
	<path fill="none" d="M144.669,32.507c0.007-0.012,0.015-0.023,0.021-0.035C144.684,32.484,144.676,32.496,144.669,32.507z"/>
	<path fill="none" d="M154.432,29.264c-0.039-0.053-0.07-0.106-0.096-0.16C154.361,29.157,154.393,29.211,154.432,29.264
		L154.432,29.264z"/>
	<path fill="none" d="M143.488,35.014c0.033-0.036,0.066-0.073,0.101-0.109C143.555,34.941,143.521,34.978,143.488,35.014z"/>
	<path fill="none" d="M192,0h-56.76c-2.067,5.448-4.551,12.794-3.502,14.186c1.703,2.264,15.348-4.828,15.348-4.828
		s-0.887,1.728-1.534,3.607c-1.247,3.624-0.771,5.175-0.771,5.175l1.226-0.165l-0.004,0.002c2.974-0.415,5.952-0.628,8.948-0.627
		c5.797,0,11.67,0.771,17.936,2.354c1.995-0.697,8.717-2.974,12.497-3.349c0.528-0.052,1.062-0.079,1.585-0.079
		c4.934,0,8.557,2.191,9.571,5.739l0.003,0.004c0,0,0.159,0.496,0.196,1.331c0.036,0.842-0.077,1.369-0.077,1.369
		c-0.321,1.91-1.752,3.412-2.312,3.882c-0.644,0.54-6.9,5.159-6.9,5.159c-0.188,0.117-0.369,0.232-0.562,0.351
		c-2.709,1.666-11.189,7.332-17.855,13.486c0,0-2.004,1.815-3.405,3.816c-1.399,2.001-3.312,5.098-2.271,7.474
		c1.522,3.478,25.916,5.437,25.916,5.437s-6.562,1.462-13.656,3.644c-5.92,1.82-10.405,3.937-10.405,4.789
		c0,0.978,3.741,3.646,7.244,5.786c3.228,1.973,6.229,3.739,6.229,3.739s-17.894,1.702-18.5,3.476
		c-0.281,0.824,6.31,5.898,13.801,10.405c8.654,5.207,14.521,8.381,14.521,8.381s-6.48-1.378-16.441-3.31
		c-8.642-1.676-17.004-2.523-17.764-1.711c-0.836,0.896,0.944,4.623,3.081,7.957c2.046,3.188,4.437,6.011,4.437,6.011
		s-16.041-4.535-17.867-2.409c-1.346,1.564,6.438,16.92,10.639,24.92H192c4.418,0,8-3.182,8-7.602V8C200,3.582,196.418,0,192,0z"/>
	<path fill="none" d="M79.136,126.486c-2.237-1.157-11.882,7.479-11.882,7.479s2.549-12.068,0.16-15.005
		c-1.264-1.556-6.613,1.167-11.387,4.524c-4.744,3.334-9.833,7.846-9.833,7.846s2.817-5.215,5.013-9.628
		c1.854-3.726,3.395-6.899,3.181-7.788c-2.132,0.136-6.08,0.088-6.08,0.088c-11.125-0.053-20.835-2.361-27.048-4.303
		c-5.66-1.77-9.466-3.528-10.703-4.131c-1.284-0.002-4.508-0.06-8.325-0.506c-0.765-0.09-1.507-0.191-2.23-0.303V128.4
		C0,132.818,3.582,136,8,136h72.246C80.185,131,79.957,126.91,79.136,126.486z"/>
	<path fill="none" d="M87.656,94.771c-0.242,0.58-0.724,1.709-1.339,3.002c-0.99,2.084-2.28,4.576-2.864,6.309
		c0.583-1.732,1.874-4.225,2.864-6.309C86.932,96.48,87.414,95.352,87.656,94.771z"/>
	<path fill="none" d="M130.27,79.635c-0.062,0.047-0.145,0.106-0.242,0.178C130.125,79.741,130.206,79.682,130.27,79.635z"/>
	<path fill="none" d="M104.887,85.629c5.09-6.279,8.545-11.802,11.396-16.72C113.434,73.827,109.977,79.35,104.887,85.629
		c-4.455,5.495-8.455,9.758-11.885,12.971C96.432,95.389,100.432,91.124,104.887,85.629z"/>
	<path fill="none" d="M167.811,28.511c-0.031,0.013-0.06,0.026-0.09,0.041C167.751,28.538,167.779,28.524,167.811,28.511z"/>
	<path fill="none" d="M90.539,100.814c0.523-0.449,1.062-0.928,1.618-1.434C91.601,99.889,91.062,100.366,90.539,100.814z"/>
	<path fill="none" d="M121.504,85.854c2.717-1.809,7.189-5.062,8.521-6.041c-1.332,0.978-5.805,4.231-8.52,6.037
		C121.507,85.852,121.504,85.852,121.504,85.854z"/>
	<path fill="none" d="M44.025,111.952c-0.363-0.021-0.725-0.044-1.084-0.069C43.301,111.908,43.662,111.932,44.025,111.952z"/>
	<path fill="none" d="M22.009,105.434c0.014,0.002,0.027,0.004,0.042,0.006C22.036,105.438,22.022,105.436,22.009,105.434z"/>
	<path fill="none" d="M22.138,106c0.001,0,0.002,0,0.003,0C22.14,106,22.139,106,22.138,106z"/>
	<path fill="none" d="M167.052,28.852c-0.043,0.02-0.087,0.04-0.131,0.06C166.965,28.891,167.009,28.871,167.052,28.852z"/>
	<path fill="none" d="M21.863,105.409c0.007,0.002,0.013,0.002,0.023,0.006h0.003l0.005,0.001c0.003,0.001,0.008,0.001,0.012,0.002
		C21.888,105.415,21.873,105.412,21.863,105.409z"/>
	<path fill="none" d="M21.92,105.421c0.015,0.003,0.031,0.005,0.05,0.009C21.951,105.426,21.935,105.424,21.92,105.421z"/>
	<path fill="#005778" d="M145.768,30.874c-0.197,0.268-0.369,0.516-0.509,0.73c0.259-0.364,0.503-0.655,0.707-0.809
		c0,0,2.804-3.233,8.529-2.812c-0.19,0.292-0.353,0.701-0.169,1.104c0.003,0.005-0.208,0.012-0.206,0.018
		c0.024,0.054-0.12,0.107-0.12,0.16v-0.032V29c0,0,0.432,0,0.434,0c0.004,0,0.006,0.143,0.01,0.149
		c0.005,0.008,0.01,0.082,0.016,0.089c0,0,1.757-0.532,3.171-0.963c0.113-0.035,0.226-0.053,0.333-0.085
		c0.152-0.038,0.301-0.066,0.447-0.103c2.89-0.723,4.759-1.24,6.781-2.069c2.904-1.19,3.832-1.715,3.734-1.94
		c-0.006-0.014-0.014-0.024-0.025-0.033c-0.166-0.126-0.896,0.353-2.475,0.733c-1.688,0.407-5.839,0.536-7.609,0.536
		c-1.242,0-2.848-0.126-5.02,0.375c-0.926,0.214-1.953,0.54-3.104,1.042C148.408,27.728,146.744,29.553,145.768,30.874z"/>
	<path fill="#FFFFFF" d="M154.336,29.104c-0.002-0.006-0.006-0.012-0.01-0.018c-0.184-0.402-0.021-0.812,0.169-1.104
		c-5.726-0.421-8.529,2.812-8.529,2.812c-0.204,0.154-0.448,0.445-0.707,0.809c-0.003,0.004-0.007,0.01-0.01,0.014
		c-0.183,0.255-0.371,0.547-0.56,0.854c-0.006,0.012-0.015,0.023-0.021,0.035c-0.045,0.074-0.09,0.149-0.135,0.224
		c-0.021,0.038-0.044,0.074-0.066,0.112c-0.036,0.061-0.071,0.122-0.106,0.184c-0.03,0.051-0.059,0.103-0.09,0.154
		c-0.03,0.055-0.062,0.109-0.092,0.164c-0.033,0.058-0.064,0.116-0.098,0.173c-0.029,0.052-0.057,0.103-0.085,0.154
		c-0.032,0.058-0.063,0.117-0.097,0.175c-0.028,0.053-0.057,0.104-0.084,0.156c-0.028,0.053-0.059,0.107-0.086,0.159
		c-0.03,0.057-0.06,0.113-0.09,0.169c-0.021,0.042-0.045,0.084-0.065,0.125c-0.035,0.067-0.069,0.132-0.103,0.196
		c-0.013,0.023-0.024,0.047-0.037,0.07c-0.272,0.526-0.459,0.907-0.487,0.965c0.116-0.171,0.247-0.34,0.393-0.508
		c0.003-0.004,0.007-0.008,0.011-0.012c0.043-0.051,0.092-0.102,0.139-0.152c0.033-0.036,0.064-0.073,0.1-0.109
		c0.016-0.015,0.031-0.031,0.047-0.046c2.397-2.46,7.592-4.505,10.795-5.595C154.393,29.211,154.361,29.157,154.336,29.104z"/>
	<path fill="#F58220" d="M122.285,125.13c2.781-1.097,6,2.666,7.875,4.949c-0.503-3.142-0.98-9.271,0.953-10.54
		c1.937-1.268,15.587,9.842,20.57,14.789c-1.226-3.084-12.037-19.581-10.086-24.082c1.774-4.09,12.836-0.938,14.952-0.305
		c-2.892-2.271-6.057-9.901-4.839-12.371c1.217-2.469,19.529,1.14,27.207,3.301c-6.173-2.415-23.031-12.689-21.82-15.756
		c1.209-3.064,12.021-4.184,15.312-4.184c-0.98-0.479-7.883-4.285-10.25-7.053c-2.367-2.771,10.093-7.931,17.223-8.898
		c-6.384-0.516-18.398-1.505-18.517-6.144c-0.039-1.48,0.192-2.681,0.608-3.678c-1.82,1.733-3.772,3.591-5.811,5.51
		c0.291,2.296,0.445,4.642,0.445,7.022c0,30.377-24.625,55.004-55.006,55.004c-12.026,0-23.154-3.865-32.208-10.416
		c-4.148,0.811-8.261,1.281-12.415,1.496c-0.667,3.752-3.409,7.625-5.074,11.186c10.031-9.275,15.58-8.939,17.527-7.871
		c1.944,1.066,1.451,9.902,0.872,12.516c1.566-2.063,8.863-6.799,11.025-5.812c1.15,0.525,1.412,6.207,1.406,12.207h6.22
		c2.753-4,5.652-8.734,7.388-8.734c3.43,0,5.698,6.229,6.227,9.016c0.738-2.784,4.628-10.219,8.094-10.608
		c2.532-0.286,5.211,5.327,7.365,10.327h2.254C119.916,132,120.32,125.904,122.285,125.13z"/>
	<path fill="#F58220" d="M80.154,11.163c-3.37,0.07-5.98-3.248-8.632-5.731c1.316,2.124,3.193,8.56,0.736,10.551
		c-2.453,1.993-18.912-9.715-22.515-13.309c4.059,5.98,11.307,20.09,9.171,23.633c-2.137,3.543-9.6,2.005-10.907,1.368
		c0.853,0.705,6.016,6.666,1.586,7.627c-5.951,1.288-22.23-2.511-23.101-2.716c3.895,1.403,20.987,11.522,19.917,15.407
		c-0.936,3.389-7.877,2.227-10.616,2.191c2.444,1.147,8.258,3.482,7.553,6.769c-0.701,3.29-17.051,6.982-22.099,8.046
		c5.721,1.269,20.192,3.526,20.404,7.935c0.211,4.41-8.863,10.51-8.863,10.51s8.06,0.371,9.792,1.309
		c2.537,1.372,0.586,6.514-1.659,9.188c3.072-1.42,6.07-3.258,9.199-5.576c-2.591-6.381-4.02-13.357-4.02-20.67
		c0-30.376,24.625-55.002,55.001-55.002c11.133,0,21.494,3.312,30.154,8.998c3.834-1.429,7.546-2.463,11.145-3.168
		c-0.24-1.454-0.051-3.001,0.832-4.936c-3.154,2.601-11.25,4.917-13.59,2.707c-2.343-2.21,1.588-11.445,3.6-15.263
		c-3.314,3.946-9.158,10.99-12.69,9.596c-1.847-0.726-2.077-5.635-1.925-10.624h-4.004c-2.562,5.391-5.492,10.225-7.402,9.926
		c-2.66-0.255-4.757-7.181-5.23-9.926h-0.016c-0.56,2.554-1.934,8.446-5.92,9.023C93.317,9.421,89.903,5.058,87.287,0h-3.411
		C83.087,7.654,81.485,11.135,80.154,11.163z"/>
	<path fill="#008E97" d="M8.541,101.206c-3.117-2.738-5.686-6.56-5.903-6.784c0.708,0.615,1.416,1.201,2.124,1.762
		c5.532,5.907,11.82,8.344,17.102,9.226c0.01,0.003,0.025,0.006,0.042,0.009c0.004,0,0.01,0.001,0.015,0.002
		c0.015,0.003,0.031,0.005,0.05,0.008c0.012,0.002,0.025,0.004,0.039,0.006c0.013,0,0.027,0.278,0.042,0.28
		c0.027,0.003,0.055,0.285,0.087,0.285c0.001,0,0.002,0,0.003,0c1.153,0,5.28,0.019,5.28,0.019
		c6.079-0.129,14.241-2.054,21.816-4.25c19.112-5.547,37.645-20.631,42.479-24.742c0.439-0.375,0.766-0.693,0.969-0.871
		c0.081-0.072,0.143-0.143,0.184-0.18s0.062-0.064,0.062-0.064s-1.191,5.189-1.656,7.029c-0.305,1.455-1.397,6.32-3.45,11.416
		c0,0.002-0.06,0.151-0.17,0.416c-0.242,0.58-0.724,1.709-1.338,3c-0.99,2.086-2.281,4.576-2.864,6.309
		c-0.194,0.578-0.31,1.07-0.31,1.438c0,0.07,0.003,0.133,0.012,0.191c0,0,0.017,0.16,0.08,0.365
		c1.673-0.887,3.946-2.426,6.531-4.606c0.253-0.211,0.51-0.429,0.772-0.653c0.523-0.45,1.062-0.929,1.618-1.435
		c0.278-0.253,0.56-0.514,0.846-0.78c3.43-3.214,7.43-7.478,11.884-12.972c5.09-6.28,8.547-11.802,11.396-16.72
		c4.62-7.973,7.647-14.354,13.45-19.776c3.973-3.716,14.414-9.456,19.761-11.32c0.062-0.032,0.103-0.051,0.118-0.058
		c7.01-4,13.896-7.294,17.31-8.844c0.044-0.02,0.088-0.04,0.131-0.06c0.242-0.109,0.464-0.21,0.667-0.3
		c0.031-0.014,0.061-0.027,0.092-0.041c0.119-0.053,0.23-0.103,0.336-0.148c0.162-0.071,0.309-0.135,0.432-0.188
		c0.146-0.062,0.265-0.112,0.354-0.148c5.285-2.127,23.873-8.3,25.83-5.231c-0.715-3.094-4.049-4.558-7.642-4.599
		c-0.515-0.006-1.032,0.018-1.549,0.069c-4.193,0.417-12.599,3.444-12.599,3.444c-15.349-3.985-33.562-4.434-55.908,9.164
		c-4.17,2.54-7.981,5.167-11.508,7.844c-3.523,2.679-6.763,5.404-9.783,8.14c-1.307,1.179-2.982,2.691-4.417,4.142
		c-7.252,2.418-10.472,0.157-20.437,1.467c-7.871,1.036-10.936,3.718-12.674,5.83c-0.046,0.126-0.142,0.253-0.169,0.385
		C58.069,58.73,58,58.779,58,58.828c0,0.004,0,0.009,0,0.013c0,0.2,0,0.399,0,0.578v0.001c0,0.042,0.127,0.083,0.15,0.122
		c0.006,0.011,0.059,0.021,0.066,0.032c0.021,0.031,0.064,0.061,0.088,0.09c0.036,0.041,0.085,0.08,0.13,0.116
		c0.942,0.756,2.401,0.378,5.163,0.173c2.758-0.202,6.94-0.135,9.698,1.589c1.778,1.104,2.587,3.776,2.882,5.253
		c-2.067,2.191-4.093,4.314-6.14,6.336C57.45,85.585,48.978,93.01,39.496,96.719c-20.571,8.053-32.159-1.406-36.801-4.197
		l-0.003,0.008C1.833,91.979,0.927,91.488,0,91.042v9.628c0.191,0.031,0.375,0.066,0.568,0.094
		C5.867,101.518,7.551,101.281,8.541,101.206z M150.691,26.73c1.149-0.502,2.179-0.828,3.104-1.042
		c2.172-0.501,3.776-0.375,5.019-0.375c1.771,0,5.922-0.128,7.61-0.535c1.579-0.38,2.31-0.859,2.476-0.732
		c0.012,0.008,0.021,0.02,0.026,0.035c0.097,0.224-0.833,0.75-3.735,1.941c-2.023,0.829-3.891,1.352-6.782,2.073
		c-0.147,0.037-0.294,0.073-0.447,0.111c-0.108,0.033-0.219,0.067-0.333,0.102c-1.413,0.433-3.172,0.998-3.172,0.998
		c-0.005-0.007-0.01-0.048-0.016-0.056c-0.002-0.006-0.006-0.049-0.01-0.049l0,0c-3.205,1.2-8.397,3.167-10.798,5.626
		c-0.015,0.015-0.03,0.047-0.046,0.062c-0.035,0.036-0.066,0.081-0.1,0.117c-0.047,0.051-0.094,0.105-0.139,0.156
		c-0.004,0.004-0.007,0.01-0.011,0.014c-0.146,0.168-0.276,0.338-0.394,0.509c0.029-0.058,0.216-0.438,0.488-0.965
		c0.012-0.021,0.024-0.046,0.036-0.069c0.033-0.064,0.067-0.129,0.103-0.196c0.021-0.041,0.045-0.083,0.066-0.125
		c0.03-0.056,0.059-0.112,0.09-0.169c0.028-0.052,0.058-0.106,0.086-0.159c0.027-0.052,0.056-0.103,0.084-0.156
		c0.031-0.058,0.063-0.116,0.097-0.175c0.028-0.051,0.056-0.102,0.085-0.154c0.031-0.058,0.064-0.115,0.098-0.173
		c0.031-0.055,0.062-0.109,0.092-0.164c0.03-0.051,0.06-0.103,0.09-0.154c0.035-0.062,0.07-0.123,0.106-0.184
		c0.022-0.038,0.044-0.074,0.065-0.112c0.046-0.075,0.091-0.15,0.136-0.224c0.007-0.012,0.015-0.023,0.021-0.035
		c0.188-0.307,0.377-0.599,0.56-0.854c0.003-0.004,0.006-0.01,0.01-0.014c0.14-0.215,0.312-0.463,0.509-0.73
		C146.743,29.553,148.404,27.728,150.691,26.73z"/>
	<path fill="#FFFFFF" d="M58.148,100.498c-15.513,5.82-29.642,5.543-30.728,5.52c0,0-4.127-0.018-5.28-0.018
		c-0.001,0-0.002,0-0.003,0c-0.032,0-0.06-0.282-0.087-0.285c-0.015-0.002-0.028-0.142-0.042-0.143
		c-0.014-0.002-0.027-0.073-0.039-0.074c-0.019-0.003-0.036-0.04-0.05-0.042c-0.005-0.001-0.01-0.229-0.015-0.231
		c-0.004,0-0.009-0.224-0.012-0.224h0.018l0.298,0.308c2.271,0.742,15.525,5.058,36.221,0.205
		c10.509-2.464,22.127-7.354,29.396-11.211c2.053-5.096,3.145-9.938,3.45-11.393C83.299,88.277,70.83,95.868,58.148,100.498z"/>
	<path fill="#005778" d="M58.148,100.498c12.682-4.63,25.151-12.193,33.127-17.562c0.465-1.838,1.656-7.033,1.656-7.033
		s-0.021,0.019-0.062,0.056c-0.042,0.037-0.103,0.09-0.184,0.162c-0.204,0.178-0.53,0.462-0.969,0.836
		c-4.834,4.112-23.367,19.127-42.479,24.674c-7.575,2.196-15.737,3.984-21.816,4.112C28.506,105.766,42.635,106.318,58.148,100.498z
		"/>
	<path fill="#008E97" d="M138.718,83.971c2.97-5.632,5.394-12.287,6.974-17.157c-2.732,2.458-5.482,4.863-8.154,7.086
		c-2.102,1.746-4.479,3.64-7.125,5.627c-0.823,10.356-2.917,15.277-2.898,16.23c0.012,0.535,0.166,1.055,0.573,1.301
		C130.536,95.284,135.188,90.662,138.718,83.971z"/>
	<path fill="#005778" d="M23.41,90.011c-0.039-1.227-1.032-1.05-1.16-1.03c2.31,2.812-6.25,8.592-6.25,8.832v0.002
		c1,0.054,1.183,0.17,1.83,0.233c0.644,0.065,1.513,0.033,1.677,0.022c0.013-0.012,1.058-1.133,1.66-2.021
		c0.993-1.454,1.634-2.864,1.951-4.03C23.292,91.337,23.407,90.667,23.41,90.011z"/>
	<path fill="#005778" d="M129.732,49.133c-5.803,5.422-8.83,11.803-13.45,19.776c-2.851,4.918-6.306,10.44-11.396,16.72
		c-4.455,5.495-8.455,9.758-11.885,12.971c-0.286,0.268-0.568,0.528-0.846,0.781c-0.556,0.506-1.095,0.984-1.618,1.434
		c-0.262,0.226-0.519,0.443-0.772,0.654c-2.585,2.182-4.858,3.719-6.531,4.606c0.013,0.036,0.218,0.737,0.813,0.884
		c0.971,0.243,4.6-1.582,9.232-5.494c0.025-0.01,6.838-3.24,11.387-5.601c0.649-0.339,1.253-0.657,1.785-0.947
		c5.003-2.729,13.252-7.869,15.052-9.063c0-0.004,0.003-0.004,0.003-0.004c2.714-1.806,7.188-5.06,8.521-6.037
		c0.099-0.072,0.18-0.133,0.242-0.179c0.092-0.069,0.143-0.106,0.143-0.106c2.646-1.988,5.023-3.883,7.125-5.629
		c2.672-2.223,5.422-4.629,8.154-7.085c-1.58,4.871-4.004,11.525-6.974,17.158c-3.528,6.69-8.182,11.312-10.631,13.086
		c0.785,0.5,1.958-0.242,2.085-0.31c2.018-1.104,7.707-5.935,11.52-13.665c5.438-11.032,7.716-19.514,7.765-19.667
		c0.438-0.407,17.996-16.977,18.239-17.201c6.566-6.07,15.119-11.855,18.187-13.742c3.207-1.973,5.154-3.466,6.298-4.468
		c1.146-1.003,1.49-1.509,1.49-1.509c0.154-0.28,0.531-0.979,0.561-1.541c0.004-0.08,0.002-0.157-0.01-0.23
		c-0.209-1.339-3.084-0.964-10.199,1.441c-0.022,0.009-0.047,0.017-0.073,0.026c-0.605,0.205-1.236,0.422-1.903,0.656
		c-20.9,7.342-41.115,30.318-67.275,50.158l0.194-0.303c7.765-11.689,10.445-20.245,18.284-27.57
		c4.045-3.86,10.246-7.886,16.363-11.378c-0.014,0.007-0.057,0.026-0.117,0.058C144.146,39.677,133.705,45.417,129.732,49.133z"/>
	<path fill="#008E97" d="M22.459,89h-0.003c-0.801,0-1.156,0.912-3.027,1.473C17.25,91.127,12.6,90.779,8.391,90.52
		c-3.065-0.188-4.892,0.961-5.549,1.603C4.758,93.211,11,96.799,16,97.814v-0.002C16,97.57,24.769,92,22.459,89z"/>
	<path fill="#005778" d="M70.923,52.466c9.963-1.309,13.184,0.952,20.437-1.467c1.433-1.45,3.108-2.96,4.414-4.14
		c-1.796,0.577-3.234,0.949-4.567,1.21c-0.19,0.037-0.379,0.072-0.565,0.105c-3.396,0.671-5.86,0.495-12.904,1.42
		c-11.067,1.457-16.244,4.925-17.694,6.266c-0.438,0.404-0.773,0.754-1.234,1.396c-0.064,0.089-0.122,0.183-0.18,0.275
		c-0.034,0.054-0.065,0.111-0.097,0.167c-0.087,0.157-0.159,0.301-0.209,0.413c-0.026,0.061-0.049,0.122-0.071,0.183
		C59.991,56.182,63.056,53.501,70.923,52.466z"/>
	<path fill="#005778" d="M11.004,103.645c0.003,0.002,13.454,6.961,31.937,8.238c0.36,0.024,0.721,0.047,1.084,0.069
		c2.72,0.153,5.543,0.18,8.444,0.043c0.051-0.004,13.812,0.307,30.686-6.285c-0.009-0.058-0.012-0.122-0.012-0.192
		c0-0.365,0.116-0.858,0.31-1.437c0.583-1.733,1.874-4.224,2.864-6.31c0.615-1.291,1.097-2.422,1.339-3.002
		c0.11-0.264,0.17-0.414,0.17-0.416c-7.268,3.857-18.886,8.801-29.396,11.263c-20.696,4.853-33.95,0.644-36.221-0.099l-0.298-0.098
		l-0.018,0.288L21.889,106h-0.003c-0.01,0-0.016-0.296-0.023-0.299c-5.282-0.881-11.57-3.465-17.102-9.372
		c-0.708-0.562-1.416-1.22-2.124-1.835c0.218,0.225,2.787,4.01,5.903,6.748c-0.99,0.074-2.674,0.292-7.973-0.46
		c-0.194-0.027-0.377-0.082-0.568-0.113v2.146c4.873,0.771,9.318,0.832,10.632,0.832C10.828,103.646,10.957,103.645,11.004,103.645z
		"/>
	<path fill="#FFFFFF" d="M107.221,9.926c1.911,0.298,4.84-4.536,7.403-9.926h-2.455c-2,3.976-3.794,6.946-4.676,6.899
		c-1.104-0.059-2.449-3.426-3.548-6.899h-1.955C102.465,2.746,104.562,9.671,107.221,9.926z"/>
	<path fill="#FFFFFF" d="M96.055,9.023c3.987-0.577,5.361-6.469,5.919-9.023h-2.01c-0.971,2.885-2.299,5.641-3.947,6.305
		C94.593,6.879,92.32,3.909,90.046,0h-2.759C89.903,5.058,93.317,9.421,96.055,9.023z"/>
	<path fill="#FFFFFF" d="M110.165,125.723c-3.466,0.392-7.354,7.774-8.095,10.559c-0.527-2.788-2.795-9.064-6.227-9.064
		c-1.736,0-4.634,4.784-7.388,8.784h2.668c2.211-3,4.123-6.03,4.992-5.787c1.234,0.343,2.52,3.787,3.566,5.787h5.05
		c1.662-3,3.736-7.519,5.305-7.333c1.04-0.127,3.084,3.333,5.109,7.333h2.383C115.375,131,112.695,125.438,110.165,125.723z"/>
	<path fill="#FFFFFF" d="M143.95,111.08c1.827-2.126,17.866,2.309,17.866,2.309s-2.39-2.771-4.436-5.959
		c-2.137-3.334-3.917-7.035-3.081-7.932c0.759-0.812,9.122,0.046,17.763,1.723c9.963,1.932,16.442,3.315,16.442,3.315
		s-5.868-3.171-14.521-8.378c-7.492-4.508-14.084-9.58-13.801-10.404c0.605-1.773,18.498-3.475,18.498-3.475
		s-3.002-1.766-6.229-3.738c-3.503-2.143-7.244-4.809-7.244-5.786c0-0.853,4.486-2.969,10.405-4.789
		c7.094-2.181,13.657-3.644,13.657-3.644s-24.395-1.958-25.918-5.438c-1.041-2.375,0.871-5.473,2.271-7.474
		c1.4-2,3.404-3.816,3.404-3.816c6.666-6.154,15.147-11.82,17.856-13.486c0.192-0.118,0.375-0.234,0.562-0.351
		c0,0,6.257-4.62,6.899-5.159c0.562-0.471,1.992-1.972,2.313-3.882c0,0,0.112-0.527,0.077-1.369
		c-0.038-0.834-0.196-1.331-0.196-1.331l-0.003-0.004c-1.016-3.548-4.639-5.739-9.571-5.739c-0.524,0-1.058,0.027-1.585,0.079
		c-3.779,0.375-10.502,2.652-12.497,3.349c-6.266-1.583-12.138-2.354-17.936-2.354c-2.996,0-5.976,0.212-8.948,0.627l0.004-0.002
		l-1.227,0.165c0,0-0.478-1.551,0.771-5.175c0.646-1.879,1.534-3.607,1.534-3.607s-13.644,7.092-15.349,4.828
		c-1.049-1.392,1.437-8.738,3.502-14.186h-3.324c-3.885,3.929-8.559,8.251-9.988,7.893c-0.809-0.203-1.033-3.622-1.117-7.893h-2.182
		c-0.152,4.989,0.078,9.898,1.925,10.624c3.532,1.394,9.375-5.65,12.69-9.596c-2.012,3.818-5.941,13.053-3.6,15.263
		c2.34,2.21,10.436-0.105,13.59-2.707c-0.883,1.935-1.072,3.482-0.832,4.936c-3.599,0.706-7.311,1.74-11.145,3.168
		c-8.661-5.686-19.021-8.998-30.154-8.998C70.726,12.688,46.1,37.314,46.1,67.69c0,7.312,1.428,14.289,4.02,20.669
		c-3.129,2.318-6.127,4.158-9.199,5.578c2.246-2.676,4.196-7.816,1.659-9.188c-1.732-0.938-9.792-1.31-9.792-1.31
		s9.075-6.099,8.863-10.508c-0.212-4.408-14.684-6.667-20.404-7.936c5.048-1.064,21.397-4.757,22.099-8.046
		c0.705-3.287-5.109-5.622-7.553-6.769c2.739,0.036,9.68,1.198,10.616-2.191c1.07-3.885-16.022-14.004-19.917-15.407
		c0.871,0.205,17.15,4.004,23.101,2.716c4.43-0.961-0.733-6.922-1.586-7.627c1.308,0.638,8.771,2.176,10.907-1.368
		c2.136-3.543-5.112-17.652-9.171-23.633c3.604,3.594,20.062,15.302,22.515,13.309c2.457-1.992,0.58-8.427-0.736-10.551
		c2.652,2.483,5.262,5.801,8.632,5.731c1.331-0.025,2.933-3.506,3.722-11.16h-2.18c-0.474,4.435-1.185,8.156-2.244,8.361
		C76.762,8.881,68.2,0.216,68.2,0.216s4.013,11.548,2.655,13.069C70.043,14.192,61.808,9.1,53.239,2.954
		C51.766,1.897,50.364,0.892,49.122,0h-2.907c1.759,3.123,4.351,7.914,6.604,12.833c2.643,5.772,4.247,11.311,3.556,12.39
		c-1.695,2.644-14.414-1.125-14.414-1.125s7.229,6.964,6.763,8.758c-0.227,0.87-7.415,0.241-14.72-0.757
		c-7.749-1.06-15.634-2.521-15.634-2.521s25.808,15.004,24.998,17.705c-0.641,2.136-16.703,0.387-16.703,0.387
		s13.965,6.38,13.908,8.488c-0.056,2.108-27.334,9.01-27.334,9.01s24.705,5.167,25.177,7.922c0.473,2.756-9.744,11.596-9.744,11.596
		s11.893,1.075,12.484,2.633c0.591,1.557-2.89,7.707-5.911,8.684c-3.734,1.205-7.133,1.973-11.272,1.973
		c-0.596,0-1.177-0.018-1.747-0.048c0.205-0.265,0.407-0.538,0.583-0.798c1.019-1.49,1.777-3.085,2.19-4.605l0.004-0.016
		l-0.161-0.015C25.053,91.657,25,90.826,25,90.021v-0.035l0.165-0.035c-0.028-0.915-0.243-1.695-0.783-2.227
		c-1.012-0.882-1.913-0.776-2.589-0.476l-2.326,1.149c-0.175,0.076-0.361,0.15-0.6,0.224c-0.449,0.134-1.391,0.295-3.353,0.295
		c-1.861,0-4.073-0.138-6.215-0.272c0,0-1.314-0.074-1.568-0.074c-2.555,0-4.259,0.814-5.287,1.559l-0.559-0.294
		C1.267,89.507,0.637,89.204,0,88.919v2.118c0.928,0.445,1.834,0.934,2.695,1.484c4.642,2.791,16.23,12.25,36.801,4.197
		c9.481-3.709,17.954-11.134,30.542-23.588c2.047-2.021,4.074-4.145,6.141-6.336c-0.295-1.477-1.103-4.148-2.88-5.253
		c-2.758-1.724-6.938-1.791-9.696-1.589c-2.762,0.205-4.215,0.583-5.157-0.173c-0.045-0.036-0.084-0.075-0.119-0.116
		c-0.025-0.029-0.046-0.059-0.066-0.09c-0.007-0.011-0.104-0.021-0.11-0.032c-0.023-0.04-0.15-0.08-0.15-0.122v-0.001
		c0-0.178,0-0.378,0-0.578c0-0.004,0-0.008,0-0.013c0-0.049-0.056-0.098-0.045-0.146C57.983,58.55,58,58.423,58,58.297
		c0-0.001,0-0.002,0-0.002c0-0.062,0.17-0.123,0.196-0.183c0.061-0.142,0.195-0.278,0.272-0.413
		c0.032-0.056,0.095-0.112,0.128-0.167c0.059-0.093,0.132-0.187,0.196-0.275c0.46-0.641,0.804-0.991,1.242-1.396
		c1.451-1.341,6.631-4.809,17.698-6.266c7.044-0.925,9.51-0.75,12.906-1.42c0.187-0.033,0.376,0.002,0.566-0.035
		c1.333-0.261,2.772-1.14,4.568-1.14c0.001,0,0.002,0,0.003,0c3.02-3,6.259-5.532,9.782-8.21c3.527-2.677,7.338-5.339,11.51-7.879
		c22.346-13.598,40.559-13.167,55.908-9.182c0,0,8.404-3.036,12.598-3.453c0.517-0.052,1.035-0.08,1.549-0.074
		c3.593,0.041,6.927,1.502,7.643,4.597c-1.959-3.069-20.546,3.103-25.83,5.229c-0.091,0.036-0.209,0.085-0.354,0.147
		c-0.123,0.053-0.271,0.117-0.433,0.188c-0.104,0.046-0.215,0.095-0.336,0.147c-0.031,0.013-0.06,0.026-0.091,0.041
		c-0.202,0.09-0.426,0.19-0.667,0.3c-0.043,0.02-0.087,0.04-0.131,0.06c-3.413,1.55-10.3,4.844-17.311,8.844
		c-6.117,3.492-12.318,7.518-16.363,11.378c-7.839,7.325-10.52,15.881-18.284,27.57l-0.194,0.303
		c26.16-19.84,46.375-42.816,67.275-50.158c0.667-0.234,1.297-0.451,1.903-0.656c0.024-0.009,0.051-0.017,0.073-0.026
		c7.114-2.405,9.992-2.78,10.198-1.441c0.013,0.073,0.015,0.15,0.011,0.23c-0.029,0.562-0.406,1.26-0.561,1.541
		c0,0-0.344,0.506-1.49,1.509c-1.145,1.002-3.091,2.495-6.298,4.468c-3.067,1.887-11.62,7.672-18.187,13.742
		c-0.243,0.224-17.801,16.794-18.239,17.201c-0.049,0.153-2.325,8.635-7.765,19.667c-3.812,7.729-9.5,12.559-11.52,13.665
		c-0.127,0.067-1.3,0.81-2.085,0.31c-0.407-0.246-0.562-0.765-0.573-1.3c-0.02-0.954,2.075-5.875,2.898-16.229
		c0,0-0.051,0.039-0.143,0.107c-0.062,0.045-0.145,0.105-0.242,0.178c-1.332,0.978-5.808,4.232-8.522,6.041
		c-1.8,1.194-10.048,6.336-15.052,9.063c-0.531,0.29-1.135,0.608-1.785,0.947c-4.548,2.36-11.362,5.59-11.387,5.601
		c-4.632,3.912-8.261,5.736-9.232,5.494c-0.596-0.146-0.8-0.85-0.813-0.884c-0.063-0.205-0.08-0.365-0.08-0.365
		c-16.874,6.593-30.635,6.281-30.686,6.285c-2.9,0.137-5.724,0.11-8.444-0.043c-0.363-0.021-0.725-0.044-1.084-0.069
		c-18.483-1.277-31.934-8.236-31.937-8.238c-0.047,0-0.176,0.002-0.372,0.002c-1.314,0-5.759-0.062-10.632-0.832v1.945
		c0.724,0.11,1.466,0.211,2.23,0.301c3.817,0.449,7.041,0.506,8.325,0.508c1.237,0.603,5.043,2.361,10.703,4.131
		c6.213,1.941,15.923,4.25,27.048,4.304c0,0,3.948,0.05,6.08-0.086c0.214,0.89-1.328,4.065-3.181,7.791
		c-2.195,4.413-5.013,9.634-5.013,9.634s5.089-4.498,9.833-7.832c4.774-3.357,10.123-6.055,11.387-4.5
		c2.389,2.937-0.16,15.057-0.16,15.057s9.645-8.736,11.882-7.579c0.821,0.424,1.049,4.514,1.11,9.514h1.991
		c0.006-6-0.256-11.681-1.406-12.207c-2.162-0.985-9.459,3.649-11.025,5.713c0.58-2.614,1.073-11.399-0.872-12.465
		c-1.948-1.069-7.496-1.38-17.527,7.896c1.665-3.559,4.407-7.42,5.074-11.172c4.154-0.216,8.267-0.68,12.415-1.49
		c9.052,6.552,20.18,10.42,32.208,10.42c30.379,0,55.004-24.624,55.004-55.002c0-2.38-0.153-4.725-0.444-7.021
		c2.036-1.918,3.991-3.776,5.812-5.509c-0.418,0.997-0.648,2.198-0.609,3.678c0.119,4.638,12.133,5.628,18.517,6.144
		c-7.13,0.967-19.59,6.127-17.223,8.898c2.368,2.768,9.27,6.573,10.25,7.053c-3.29,0-14.103,1.119-15.312,4.184
		c-1.211,3.066,15.646,13.342,21.819,15.756c-7.679-2.161-25.99-5.768-27.207-3.298c-1.217,2.469,1.946,10.103,4.839,12.374
		c-2.117-0.635-13.177-3.779-14.953,0.311c-1.949,4.5,8.861,21.01,10.088,24.094c-4.984-4.945-18.636-16.031-20.57-14.764
		c-1.936,1.271-1.459,7.448-0.954,10.59c-1.875-2.283-5.093-6.146-7.875-5.049c-1.966,0.774-2.369,6.87-2.501,10.87h1.861
		c0.375-4,0.996-8.319,1.986-8.565c2.258-0.555,8.592,8.565,9.195,8.565h0.039c-0.178,0-2.344-12.821-0.514-13.866
		c1.289-0.736,12.183,8.866,19.094,13.866h3.143C150.387,128,142.605,112.645,143.95,111.08z M19.611,98.07
		c-0.164,0.011-0.929,0.043-1.573-0.022c-0.647-0.063-1.335-0.18-1.621-0.233c-5.275-1.016-11.451-4.605-13.367-5.695
		c0.657-0.641,2.274-1.793,5.34-1.605c4.209,0.26,8.86,0.613,11.038-0.041C21.299,89.912,21.655,89,22.456,89h0.003
		c0.128,0,0.913-0.205,0.951,1.021c-0.003,0.655-0.093,1.32-0.266,2.004c-0.317,1.164-0.933,2.572-1.925,4.026
		C20.617,96.939,19.624,98.059,19.611,98.07z"/>
</g>
</svg>
