<?xml version="1.0" encoding="utf-8"?>
<!-- Generator: Adobe Illustrator 16.0.4, SVG Export Plug-In . SVG Version: 6.00 Build 0)  -->
<!DOCTYPE svg PUBLIC "-//W3C//DTD SVG 1.1//EN" "http://www.w3.org/Graphics/SVG/1.1/DTD/svg11.dtd">
<svg version="1.1" id="PILLS" xmlns="http://www.w3.org/2000/svg" xmlns:xlink="http://www.w3.org/1999/xlink" x="0px" y="0px"
	 width="200px" height="136px" viewBox="0 0 200 136" enable-background="new 0 0 200 136" xml:space="preserve">
<path fill="#4E2683" d="M200,128c0,4.418-3.582,8-8,8H8c-4.418,0-8-3.582-8-8V8c0-4.418,3.582-8,8-8h184c4.418,0,8,3.582,8,8V128z"
	/>
<g>
	<path fill="none" d="M99.369,136h0.002c-0.492-0.305-0.963-0.585-1.395-0.825C98.408,135.415,98.877,135.695,99.369,136z"/>
	<path fill="none" d="M88.024,129.082c0,0-0.013,3.204,1.042,6.918h0.001C88.016,132.298,88.024,129.107,88.024,129.082
		L88.024,129.082z"/>
	<path fill="none" d="M93.076,132.409c1.553,0.906,3.257,1.855,4.9,2.767C96.333,134.263,94.629,133.314,93.076,132.409z"/>
	<path fill="none" d="M100,133.562c1,0.722,2.404,1.498,3.627,2.275c-1.222-0.779-2.627-1.555-3.627-2.277
		C100,133.56,100,133.561,100,133.562z"/>
	<path fill="none" d="M99.876,133.377c0.138-2.128,0.783-5.641,2.354-10.015C100.656,127.737,100.012,131.249,99.876,133.377z"/>
	<path fill="none" d="M178.354,121.742c-2.214,0.147-5.686,0.392-9.814,0.88C172.668,122.135,176.14,121.89,178.354,121.742z"/>
	<path fill="none" d="M117.553,131.25C117.553,131.251,117.552,131.251,117.553,131.25c0.322,0.607,0.953,1.758,1.511,3.253
		C118.505,133.006,117.875,131.854,117.553,131.25z"/>
	<path fill="none" d="M116.427,133.001c-0.341,0.517-0.674,1.005-0.925,1.343c-0.278,0.377-0.627,0.953-1.017,1.656h0
		c0.39-0.702,0.74-1.276,1.018-1.652C115.754,134.01,116.086,133.521,116.427,133.001z"/>
	<path fill="none" d="M118.658,110.85c-0.997-2.95-2.647-5.257-4.064-6.725c0,0-0.418,0.46-1.08,1.227
		c0.661-0.766,1.079-1.225,1.079-1.225C116.01,105.596,117.66,107.901,118.658,110.85z"/>
	<path fill="none" d="M117.66,124.66c-0.407,0.904-0.856,1.75-1.342,2.573C116.804,126.409,117.254,125.564,117.66,124.66z"/>
	<path fill="none" d="M123.256,60.153c-0.239,0.134-0.48,0.27-0.686,0.366c-0.634,0.31-1.259,0.519-1.861,0.678
		c0.601-0.16,1.226-0.367,1.861-0.674C122.774,60.424,123.016,60.288,123.256,60.153z"/>
	<path fill="none" d="M112.825,61.913c0.037-0.012,0.076-0.021,0.116-0.03c-0.041,0.009-0.08,0.019-0.121,0.029
		C112.821,61.912,112.824,61.913,112.825,61.913z"/>
	<path fill="none" d="M122.096,136L122.096,136c-0.148-0.841-0.316-1.651-0.493-2.412C121.78,134.349,121.946,135.159,122.096,136z"
		/>
	<path fill="none" d="M124.458,37.899c-0.445-0.793-0.96-1.52-1.551-2.155c-0.003-0.003-0.007-0.006-0.01-0.009
		C123.493,36.372,124.011,37.103,124.458,37.899z"/>
	<path fill="none" d="M128.238,45.987c-0.333-3.677-1.962-6.924-4.393-9.367c2.427,2.447,4.055,5.692,4.39,9.366
		c0.186,2.043-0.049,4.026-0.621,5.876c0.003-0.006,0.005-0.014,0.008-0.02C128.19,50,128.423,48.023,128.238,45.987z"/>
	<path fill="none" d="M106.788,57.644c-0.032-0.006-1.065-0.214-2.624-0.489c1.583,0.28,2.629,0.493,2.629,0.493
		C106.791,57.646,106.789,57.645,106.788,57.644z"/>
	<path fill="none" d="M98.133,56c-0.001,0-0.003,0-0.005,0c2.555,4,6.558,6.554,11.224,7.451C104.689,62.553,100.689,60,98.133,56z"
		/>
	<path fill="none" d="M129,45.104c0,0.004,0,0.008,0,0.012c1,2.498,0.357,4.646-0.205,6.496C129.363,49.761,130,47.605,129,45.104z"
		/>
	<path fill="none" d="M63.289,19.763C56.633,15.361,51.409,8.214,48.729,0h-0.002C51.408,8.215,56.632,15.363,63.289,19.763z"/>
	<path fill="none" d="M117.909,27.025c1.914,0.86,3.699,2.06,5.279,3.504c-1.581-1.445-3.366-2.646-5.281-3.506
		c-1.833-0.949-7.415-3.009-13.449-3.555c-0.508-0.056-1.026-0.097-1.55-0.13c0.525,0.034,1.044,0.076,1.553,0.134
		C110.495,24.018,116.074,26.073,117.909,27.025z"/>
	<path fill="none" d="M128.852,51.778c-0.001,0.002-0.031,0.005-0.032,0.008c0.748-1.863,1.18-3.888,1.18-6.01
		c0-0.002,0-0.004,0-0.006C130,47.891,129.598,49.916,128.852,51.778z"/>
	<path fill="none" d="M130,42.662v-0.088c0-0.946-0.458-1.883-0.753-2.806c0.295,0.923,0.567,1.86,0.712,2.806L130,42.662z"/>
	<path fill="none" d="M141.045,121.062c-0.437,0.013-0.851,0.021-1.252,0.028c0.4-0.006,0.814-0.015,1.252-0.027
		C141.045,121.062,141.045,121.062,141.045,121.062z"/>
	<path fill="none" d="M171.688,87.639c-1.665,0.354-3.476,0.91-5.384,1.778c-2.034,0.927-4.044,2.083-5.967,3.416
		c1.922-1.332,3.931-2.487,5.963-3.412C168.209,88.551,170.022,87.994,171.688,87.639z"/>
	<path fill="none" d="M158.953,115.841c0.054-0.207,0.097-0.423,0.153-0.628C159.05,115.417,159.007,115.634,158.953,115.841z"/>
	<path fill="none" d="M150.741,123.177c0.084-0.598,0.171-1.203,0.266-1.84c0.212-1.417,0.477-2.763,0.771-4.046
		c-0.295,1.284-0.559,2.63-0.772,4.048C150.911,121.975,150.825,122.58,150.741,123.177z"/>
	<path fill="none" d="M183.436,90.984C182.809,90.022,181.99,89,180.92,88h-0.002C181.989,89,182.809,90.022,183.436,90.984z"/>
	<path fill="none" d="M158,120.125c0,0.001,0,0.002,0,0.003c0,0,5.008-12.304,12.833-17.456c2.472-1.629,4.852-2.914,6.932-3.911
		c-2.08,0.997-4.47,2.28-6.94,3.907C163.009,107.821,158,120.092,158,120.125z"/>
	<path fill="none" d="M159.769,113.048c0.014-0.042,0.025-0.086,0.039-0.127C159.793,112.962,159.782,113.006,159.769,113.048z"/>
	<path fill="none" d="M157.134,95.292c-4.375,3.683-8.029,8.219-10.054,12.86C149.106,103.513,152.761,98.975,157.134,95.292z"/>
	<path fill="none" d="M162.501,64.732c0.331-0.16,0.845-0.382,1.533-0.616C163.347,64.35,162.832,64.571,162.501,64.732z"/>
	<path fill="none" d="M158.168,101.798c-1.36,0.953-2.586,2.138-3.697,3.525C155.582,103.936,156.808,102.751,158.168,101.798z"/>
	<path fill="none" d="M162.05,64.966c1.134,0.147,2.056,0.344,2.886,0.554c-0.83-0.21-1.75-0.408-2.882-0.556
		C162.053,64.964,162.05,64.966,162.05,64.966z"/>
	<path fill="none" d="M157.44,113.32c-0.965,3.138-1.788,6.782-2.453,11.057c-0.704,4.535-1.554,8.385-2.436,11.623h0
		c0.882-3.238,1.732-7.089,2.438-11.625C155.654,120.101,156.476,116.458,157.44,113.32z"/>
	<path fill="none" d="M174.625,80.549c0.033,0.003,0.071,0.004,0.103,0.008C174.696,80.553,174.658,80.552,174.625,80.549z"/>
	<path fill="none" d="M144.299,117.684c0.553-3.131,1.401-6.368,2.781-9.531C145.7,111.316,144.852,114.553,144.299,117.684z"/>
	<path fill="none" d="M162.65,123.447c-0.544,0.089-1.087,0.179-1.655,0.281C161.563,123.626,162.107,123.536,162.65,123.447z"/>
	<path fill="none" d="M185.467,95.788c0,0-0.052-0.763-0.433-1.942C185.412,95.014,185.466,95.771,185.467,95.788L185.467,95.788z"
		/>
	<path fill="none" d="M137.67,129.839c-0.118,0.047-0.241,0.096-0.351,0.142c-3.57,1.49-9.274,4.392-12.414,6.02h0.007
		c3.143-1.629,8.842-4.529,12.409-6.019C137.431,129.935,137.554,129.887,137.67,129.839z"/>
	<path fill="none" d="M140.234,128.909c0.021-0.007,0.042-0.014,0.063-0.021c0.07-1.494,0.2-3.376,0.416-5.307
		c-0.217,1.932-0.346,3.817-0.419,5.308C140.273,128.896,140.255,128.902,140.234,128.909z"/>
	<path fill="none" d="M159.03,123.601c0.218-0.555,0.435-1.063,0.658-1.52C159.464,122.538,159.248,123.046,159.03,123.601z"/>
	<path fill="none" d="M74.339,47.179c-3.81-1.067-7.322-2.443-10.531-4.122c3.209,1.68,6.568,3.056,10.379,4.124
		C81.736,49.323,90,50.92,96,52.711v-0.017c0,0.008,0.148,0.019,0.148,0.013C90.233,50.92,81.887,49.322,74.339,47.179z"/>
	<path fill="none" d="M122.182,115.552c0.029,1.456-0.132,3.004-0.392,4.488C122.05,118.556,122.21,117.008,122.182,115.552z"/>
	<path fill="none" d="M184.796,93.167c0,0.002,0.001,0.004,0.002,0.006C184.797,93.17,184.796,93.168,184.796,93.167z"/>
	<path fill="none" d="M184.924,93.521c0.025,0.07,0.054,0.145,0.076,0.212C184.978,93.666,184.949,93.592,184.924,93.521z"/>
	<path fill="none" d="M143.03,136L143.03,136c-0.002-0.871-0.006-1.719-0.004-2.534C143.023,134.281,143.027,135.129,143.03,136z"/>
	<path fill="none" d="M172.017,88c0.001,0,0.002,0,0.003,0C172.019,88,172.018,88,172.017,88z"/>
	<path fill="none" d="M122.181,115.273c-0.003-0.087-0.015-0.169-0.02-0.256C122.166,115.104,122.178,115.187,122.181,115.273z"/>
	<path fill="none" d="M74.738,0L74.738,0c0.372,1.868,0.885,3.786,1.62,5.726C75.624,3.786,75.111,1.868,74.738,0z"/>
	<path fill="none" d="M144.026,101.738c0.001-0.005,0.002-0.008,0.003-0.013c-0.007-0.152-0.31-6.808-0.908-8.786
		c-0.096-0.314-0.246-0.621-0.417-0.924c0.17,0.302,0.318,0.608,0.414,0.921C143.726,94.941,144.026,101.738,144.026,101.738z"/>
	<path fill="none" d="M161.903,69.429c-0.614,0.101-1.149,0.163-1.655,0.268c0.506-0.105,1.043-0.146,1.659-0.247
		c3.666-0.598,6.49,0.55,6.542,0.55c0.002,0,0.004,0,0.007,0C168.457,70,165.605,68.823,161.903,69.429z"/>
	<path fill="none" d="M144.696,88.572c0.896,1.87,0.958,3.788,0.871,4.712c-0.071,0.812-0.174,2.012-0.511,3.869
		c0.339-1.856,0.443-3.058,0.515-3.865C145.657,92.358,145.595,90.44,144.696,88.572z"/>
	<path fill="none" d="M179.416,80.111c-0.956-0.729-1.759-2.495-1.697-5.055c-0.066,2.565,0.737,4.325,1.691,5.06
		c0.96,0.735,1.918,0.883,2.506,1.328c0.593,0.441,0.593,1.767,0.298,2.869c-0.113,0.419-0.3,0.7-0.536,0.875
		c0.237-0.176,0.425-0.455,0.537-0.873c0.293-1.102,0.293-2.43-0.295-2.875C181.332,81.003,180.374,80.852,179.416,80.111z"/>
	<path fill="none" d="M131.397,113.923c-1.329-1.973-2.134-4.038-2.622-5.994c0.487,1.958,1.292,4.023,2.622,5.998
		c3.537,5.254,10.38,3.908,10.38,3.908s0.776-5.496,3.69-11.694c-2.917,6.198-3.695,11.693-3.695,11.693
		S134.934,119.181,131.397,113.923z"/>
	<path fill="none" d="M173.865,80.134c0.663,0.212,1.156,0.433,1.264,0.483c-0.034-0.006-0.081-0.011-0.118-0.018
		c0.047,0.008,0.105,0.015,0.147,0.023C175.158,80.622,174.618,80.372,173.865,80.134z"/>
	<path fill="none" d="M121.673,98.024c0.001,0.001,0.001,0.002,0.002,0.003c1.143-1.016,2.31-2.016,3.49-3.04
		C123.985,96.01,122.817,97.009,121.673,98.024z"/>
	<path fill="none" d="M136.146,82.953c0.602,0.332,1.555,0.71,2.578,1.123c-1.022-0.413-1.976-0.792-2.576-1.125
		C136.147,82.951,136.146,82.952,136.146,82.953z"/>
	<path fill="none" d="M134.357,87.443c0.759,0.18,1.465,0.359,2.084,0.524C135.822,87.801,135.116,87.623,134.357,87.443z"/>
	<path fill="none" d="M170.379,82c-0.542,1.049-0.186,2.658,0.034,3.416C170.195,84.659,169.84,83.048,170.379,82z"/>
	<path fill="none" d="M177.502,72.909c-0.41-2.054-1.255-3.993-1.255-3.993c-0.64,0.253-1.437,0.376-2.339,0.41
		c0.901-0.033,1.699-0.155,2.338-0.408C176.247,68.918,177.093,70.856,177.502,72.909z"/>
	<path fill="none" d="M150.753,61.184c-0.67,0.01-2.428,0.2-3.921,0.356C148.325,61.385,150.081,61.197,150.753,61.184
		L150.753,61.184z"/>
	<path fill="none" d="M159.302,67.445c-5.161-0.37-8.766,2.06-8.766,2.06c-0.322-0.812-0.479-1.688-0.54-2.558
		c0.059,0.87,0.216,1.748,0.537,2.56C150.534,69.507,154.145,67.077,159.302,67.445z"/>
	<path fill="none" d="M145.147,61.707c-0.171,0.015-0.323,0.026-0.438,0.033c-0.001,0.004-0.016,0.008-0.02,0.012
		c0.004-0.003,0.018-0.007,0.019-0.011C144.824,61.733,144.976,61.722,145.147,61.707z"/>
	<path fill="none" d="M39.647,0.51c0.001-0.097,0-0.224-0.003-0.355c0.001,0.132,0.002,0.261-0.001,0.359
		c-0.034,1.985,0.042,10.239,3.589,19.35c0.898,2.301,1.949,4.461,3.125,6.504c-1.175-2.043-2.225-4.204-3.122-6.506
		C39.685,10.751,39.607,2.495,39.647,0.51z"/>
	<path fill="none" d="M151.157,92.796c0.01-0.034,0.016-0.066,0.025-0.102c0.009-0.041,0.017-0.083,0.034-0.133
		c0.085-0.346,0.219-0.849,0.402-1.463c0.025-0.083,0.052-0.176,0.086-0.269c0.242-0.782,0.569-1.707,0.981-2.632
		c0.093-0.218,0.193-0.436,0.304-0.655c0.107-0.228,0.217-0.444,0.335-0.655c0.092-0.177,0.192-0.354,0.303-0.531
		c0.076-0.143,0.158-0.277,0.251-0.403c0.193-0.309,0.403-0.605,0.623-0.873c0.287-0.357,0.588-0.692,0.89-1.024
		c-0.303,0.333-0.605,0.669-0.894,1.026c-2.326,2.884-3.396,7.93-3.396,7.93s0.011-0.019,0.015-0.027c0-0.009,0-0.019,0.006-0.03
		C151.131,92.922,151.139,92.864,151.157,92.796z"/>
	<path fill="none" d="M166,73.859c0,0.051-0.018,0.124-0.02,0.205c0.007-0.129,0.002-0.237-0.003-0.287
		c-0.038-0.343-0.466-1.087-0.939-1.775c0.473,0.688,0.962,1.432,0.962,1.773V73.859z"/>
	<path fill="none" d="M152.038,91.496c0.054-0.083,0.107-0.164,0.165-0.251c-0.006,0.009-0.014,0.02-0.02,0.029
		C152.129,91.355,152.085,91.422,152.038,91.496z"/>
	<path fill="none" d="M165.943,74.349c0-0.004,0.001-0.006,0.001-0.011c0.001-0.023,0.003-0.038,0.005-0.056
		c-0.002,0.019-0.004,0.033-0.006,0.056V74.349z"/>
	<path fill="none" d="M161.722,72.009c-1.001-0.175-2.343-0.251-3.694-0.366c1.352,0.116,2.693,0.194,3.694,0.37
		c0.972,0.173,1.975,0.72,2.772,1.253l-1.042,4.653l1.042-4.657C163.698,72.733,162.697,72.186,161.722,72.009z"/>
	<path fill="none" d="M154.757,87.898c-0.015,0.016-0.029,0.032-0.043,0.048C154.728,87.93,154.743,87.914,154.757,87.898z"/>
	<path fill="none" d="M164.529,80.24c-0.122,0.188-0.256,0.375-0.422,0.549C164.273,80.619,164.408,80.433,164.529,80.24z"/>
	<path fill="none" d="M180.225,85.345c-0.823-0.204-5.133-0.789-9.812,0.071c4.682-0.857,8.985-0.278,9.809-0.068
		c0.33,0.082,0.65,0.112,0.938,0.06C180.873,85.459,180.554,85.428,180.225,85.345z"/>
	<path fill="none" d="M153.806,89.039c-0.038,0.049-0.076,0.096-0.114,0.145C153.729,89.135,153.768,89.087,153.806,89.039z"/>
	<path fill="none" d="M152.934,90.192c-0.037,0.05-0.069,0.097-0.105,0.147C152.864,90.29,152.898,90.242,152.934,90.192z"/>
	<path fill="none" d="M162.518,78.437c0.331-0.19,0.645-0.362,0.935-0.517C163.162,78.074,162.849,78.247,162.518,78.437z"/>
	<path fill="none" d="M151.826,91.823c0.018-0.028,0.033-0.053,0.052-0.082c-0.004,0.006-0.009,0.014-0.014,0.021
		C151.85,91.784,151.84,91.801,151.826,91.823z"/>
	<path fill="none" d="M92.268,9.201c0.486-0.718,0.952-1.414,1.371-2.055c-0.351-0.217-0.669-0.432-1.005-0.648
		c0.334,0.216,0.652,0.431,1.002,0.647C93.218,7.787,92.753,8.483,92.268,9.201z"/>
	<path fill="none" d="M163.124,60.693c-1.761-0.14-4.235-0.247-6.188-0.048C158.887,60.448,161.36,60.554,163.124,60.693z"/>
	<path fill="none" d="M182.806,110.474c1.819,0.73,2.851,1.395,3.518,5.159c0.057,0.32,0.087,0.602,0.105,0.868
		c-0.019-0.266-0.048-0.548-0.104-0.868c-0.664-3.766-1.699-4.429-3.522-5.162c-1.816-0.721-4.91-0.544-4.91-0.544
		s0.246-0.603,0.571-1.521c-0.326,0.918-0.573,1.523-0.573,1.523S180.985,109.747,182.806,110.474z"/>
	<path fill="none" d="M93.816,0h-0.39c0.115,0.073,0.221,0.147,0.338,0.22C93.783,0.149,93.798,0.072,93.816,0z"/>
	<path fill="none" d="M86.184,17.93c0.392-0.554,0.806-1.139,1.227-1.736c-0.421,0.596-0.836,1.181-1.229,1.734
		C86.183,17.929,86.183,17.93,86.184,17.93z"/>
	<path fill="none" d="M80.61,12.722c-1.672-1.966-3.238-4.312-4.253-6.996C77.371,8.41,78.938,10.756,80.61,12.722z"/>
	<path fill="none" d="M180,101.01c0-0.001,0-0.002,0-0.003c0,0-13.721,5.993-17.657,16.993h0.002
		C166.277,107,180,101.032,180,101.01z"/>
	<path fill="none" d="M124.58,59.326c-0.002,0.001-0.003,0.002-0.005,0.003c-0.664,0.613-1.384,1.165-2.135,1.671
		C123.193,60.493,123.915,59.941,124.58,59.326z"/>
	<path fill="none" d="M129.043,46.89c-0.103,0.841-0.29,1.653-0.515,2.45C128.753,48.543,128.941,47.731,129.043,46.89z"/>
	<path fill="none" d="M183.837,119.214c-0.874-0.052-3.176-0.078-6.663-0.416C180.663,119.141,182.96,119.163,183.837,119.214z"/>
	<path fill="none" d="M130.136,44.571c0.017,0.163,0.013,0.332,0.026,0.497C130.149,44.903,130.153,44.734,130.136,44.571z"/>
	<path fill="none" d="M130.235,46.491v-0.042c0,0,0-0.001,0-0.001c0,0.01-0.001,0.021-0.002,0.032
		C130.234,46.483,130.235,46.487,130.235,46.491z"/>
	<path fill="none" d="M109.766,0h-0.006c12.688,2.367,26.364,8.233,38.472,18.078C136.128,8.231,122.453,2.369,109.766,0z"/>
	<path fill="none" d="M168.43,44c-2.466-5-6.016-11.761-11.021-17.546C162.411,32.24,165.959,39,168.427,44
		C168.428,44,168.429,44,168.43,44z"/>
	<path fill="none" d="M165.909,43.998c-1.971-0.251-4.489-0.509-7.337-0.688C161.42,43.49,163.938,43.747,165.909,43.998z"/>
	<path fill="none" d="M168,85.98c0-0.001,0-0.002,0-0.002c-4,1.051-8.22,3.328-12.741,7.24C159.781,89.306,164,87.029,168,85.98z"/>
	<path fill="none" d="M184.063,119.225c0.721,0.031,1.755-0.016,2.188-1.082C185.818,119.208,184.782,119.256,184.063,119.225z"/>
	<path fill="none" d="M122.418,98.859c-0.008-0.007-0.019-0.011-0.027-0.018C122.4,98.849,122.41,98.853,122.418,98.859z"/>
	<path fill="none" d="M132.875,44.314c0.211-0.025,0.536-0.063,0.941-0.109C133.41,44.251,133.085,44.289,132.875,44.314
		C132.875,44.314,132.875,44.313,132.875,44.314z"/>
	<path fill="none" d="M132.741,43.291c0.009,0.061,0.019,0.12,0.025,0.183c0.005,0.036,0.009,0.071,0.014,0.107
		c-0.005-0.036-0.009-0.073-0.014-0.108C132.758,43.412,132.75,43.352,132.741,43.291z"/>
	<path fill="none" d="M123.418,27.387C128.3,31.13,131.852,37,132.624,43H133c0,0,0-0.416,0-0.416l-0.18,0.102
		C132.043,36.752,128.302,31.129,123.418,27.387z"/>
	<path fill="none" d="M104.472,20.753c0.087,0.009,0.176,0.016,0.263,0.026c0.163,0.015,0.324,0.034,0.487,0.05
		c-0.163-0.017-0.325-0.036-0.489-0.051C104.646,20.769,104.558,20.763,104.472,20.753z"/>
	<path fill="none" d="M86.855,21.863c0.001,0,0.002,0,0.004,0c0.001-0.001,0.127-0.163,0.269-0.346
		C86.984,21.701,86.855,21.863,86.855,21.863z"/>
	<path fill="none" d="M95.194,10.071c0.558-0.751,1.048-1.5,1.481-2.235c-0.434,0.734-0.925,1.482-1.48,2.233
		c-1.59,2.136-4.766,6.523-7.692,10.945c-0.01,0.017-0.028,0.042-0.047,0.07c0.02-0.028,0.038-0.053,0.049-0.069
		C90.428,16.594,93.606,12.206,95.194,10.071z"/>
	<path fill="none" d="M121.999,98.462c-0.004-0.004-0.006-0.01-0.01-0.014C121.993,98.452,121.995,98.458,121.999,98.462z"/>
	<path fill="none" d="M90.895,103.33c0.113-0.235,0.231-0.471,0.353-0.708C91.125,102.859,91.008,103.095,90.895,103.33z"/>
	<path fill="none" d="M88.577,107.18c-0.038,0.205-0.067,0.421-0.103,0.63C88.51,107.602,88.539,107.385,88.577,107.18z"/>
	<path fill="none" d="M91.323,102.476c0.115-0.22,0.233-0.441,0.355-0.664C91.556,102.035,91.438,102.255,91.323,102.476z"/>
	<path fill="none" d="M91.782,101.627c0.117-0.209,0.237-0.418,0.361-0.628C92.02,101.209,91.899,101.418,91.782,101.627z"/>
	<path fill="none" d="M88.306,108.856c-0.027,0.199-0.047,0.409-0.072,0.611C88.258,109.266,88.278,109.055,88.306,108.856z"/>
	<path fill="none" d="M88.098,110.626c-0.019,0.199-0.031,0.41-0.047,0.613C88.067,111.037,88.079,110.826,88.098,110.626z"/>
	<path fill="none" d="M90.487,104.2c0.116-0.258,0.237-0.519,0.363-0.781C90.724,103.682,90.604,103.942,90.487,104.2z"/>
	<path fill="none" d="M94.592,97.479c0.147-0.18,0.298-0.357,0.451-0.535C94.891,97.122,94.739,97.299,94.592,97.479z"/>
	<path fill="none" d="M93.957,98.289c0.138-0.183,0.281-0.365,0.425-0.546C94.237,97.923,94.095,98.105,93.957,98.289z"/>
	<path fill="none" d="M95.27,96.683c0.155-0.175,0.315-0.348,0.477-0.521C95.585,96.334,95.425,96.507,95.27,96.683z"/>
	<path fill="none" d="M93.359,99.111c0.131-0.188,0.266-0.375,0.403-0.561C93.625,98.737,93.49,98.924,93.359,99.111z"/>
	<path fill="none" d="M92.273,100.782c0.121-0.2,0.244-0.4,0.372-0.6C92.518,100.382,92.394,100.582,92.273,100.782z"/>
	<path fill="none" d="M92.798,99.943c0.125-0.193,0.254-0.386,0.386-0.579C93.053,99.557,92.924,99.75,92.798,99.943z"/>
	<path fill="none" d="M89.301,104.102c-0.055,0.188-0.101,0.388-0.153,0.581C89.2,104.49,89.246,104.29,89.301,104.102z"/>
	<path fill="none" d="M94.342,94.667c-0.11,0.128-0.214,0.262-0.322,0.393C94.127,94.929,94.231,94.795,94.342,94.667z"/>
	<path fill="none" d="M88.91,105.597c-0.048,0.203-0.087,0.417-0.132,0.625C88.822,106.015,88.862,105.8,88.91,105.597z"/>
	<path fill="none" d="M92.789,96.668c-0.091,0.131-0.175,0.269-0.264,0.402C92.613,96.937,92.698,96.799,92.789,96.668z"/>
	<path fill="none" d="M95.183,93.735c-0.125,0.133-0.245,0.272-0.369,0.408C94.938,94.007,95.058,93.868,95.183,93.735z"/>
	<path fill="none" d="M96.987,91.985c-0.17,0.152-0.333,0.309-0.499,0.464C96.654,92.294,96.817,92.137,96.987,91.985z"/>
	<path fill="none" d="M97.946,91.157c-0.209,0.175-0.413,0.354-0.618,0.533C97.533,91.512,97.737,91.332,97.946,91.157z"/>
	<path fill="none" d="M93.543,95.643c-0.098,0.126-0.189,0.258-0.285,0.387C93.354,95.901,93.445,95.769,93.543,95.643z"/>
	<path fill="none" d="M89.75,102.685c-0.063,0.182-0.119,0.375-0.179,0.561C89.631,103.06,89.687,102.867,89.75,102.685z"/>
	<path fill="none" d="M92.081,97.746c-0.084,0.137-0.163,0.282-0.246,0.422C91.918,98.028,91.997,97.883,92.081,97.746z"/>
	<path fill="none" d="M95.989,95.903c0.166-0.172,0.338-0.341,0.511-0.511C96.327,95.562,96.155,95.731,95.989,95.903z"/>
	<path fill="none" d="M90.254,101.348c-0.068,0.168-0.13,0.346-0.195,0.517C90.124,101.693,90.186,101.516,90.254,101.348z"/>
	<path fill="none" d="M91.421,98.883c-0.079,0.145-0.151,0.298-0.228,0.446C91.271,99.181,91.342,99.027,91.421,98.883z"/>
	<path fill="none" d="M153.074,63.535c-0.277,1.317-0.127,2.642-0.127,2.642l0.002-0.002
		C152.947,66.151,152.8,64.841,153.074,63.535z"/>
	<path fill="none" d="M56.21,100.895c1.46-0.968,3.102-2.155,4.836-3.471c-1.741,1.319-3.389,2.51-4.853,3.479
		C56.199,100.9,56.205,100.897,56.21,100.895z"/>
	<path fill="none" d="M73.269,100.504c2.311-1.794,4.584-3.969,6.804-6.64c0.071-0.085,0.135-0.164,0.207-0.249
		c-0.072,0.085-0.137,0.164-0.209,0.249C77.852,96.535,75.579,98.71,73.269,100.504z"/>
	<path fill="none" d="M80.685,93.132c-0.887,3.04-1.372,7.031-1.435,11.519c0.066-4.494,0.551-8.49,1.438-11.524
		C80.688,93.128,80.686,93.13,80.685,93.132z"/>
	<path fill="none" d="M100.1,110.47c0.772-0.986,1.411-1.655,1.736-1.915c-0.031,0.043-0.125,0.177-0.243,0.354
		c0.158-0.238,0.256-0.371,0.256-0.371C101.53,108.792,100.884,109.469,100.1,110.47z"/>
	<path fill="none" d="M93.792,128.315c-0.048-1.4,0.066-3.354,1.167-7.69C93.854,124.961,93.74,126.914,93.792,128.315z"/>
	<path fill="none" d="M40.813,99.204C36.01,103.125,30.581,108,27.035,112c0.001,0,0.003,0,0.004,0
		C30.581,108,36.01,103.127,40.813,99.204z"/>
	<path fill="none" d="M27.529,111.939c2.521-0.529,9.194-1.867,11.063-2.055c3.172-0.328,6.413-0.523,9.682-0.826
		c-3.269,0.302-6.508,0.496-9.679,0.822C36.72,110.073,30.045,111.408,27.529,111.939z"/>
	<path fill="none" d="M173.728,80.093c-0.12-0.037-0.239-0.072-0.367-0.106C173.487,80.021,173.608,80.056,173.728,80.093z"/>
	<path fill="none" d="M59.663,92.75c0.004-0.003,0.01-0.006,0.015-0.01c0.081-0.089,2.98-3.264,7.291-6.727
		C62.594,89.523,59.663,92.75,59.663,92.75z"/>
	<path fill="none" d="M173.523,80.523c0.036-0.002,0.075-0.007,0.111-0.008C173.598,80.516,173.56,80.521,173.523,80.523z"/>
	<path fill="none" d="M174.108,80.517c0.035,0.001,0.074,0,0.109,0.001C174.183,80.516,174.144,80.518,174.108,80.517z"/>
	<path fill="none" d="M172.913,80.582c0.032-0.005,0.063-0.013,0.095-0.017C172.976,80.569,172.945,80.577,172.913,80.582z"/>
	<path fill="none" d="M97.111,131.407c0,0.001,0,0.001,0,0.002c0,0,0.089-0.556,0.319-1.541
		C97.204,130.836,97.114,131.387,97.111,131.407z"/>
	<path fill="none" d="M172.343,80.69c0.008-0.002,0.015-0.005,0.023-0.007C172.358,80.685,172.351,80.688,172.343,80.69z"/>
	<path fill="none" d="M105.299,111.918c0.703-1.063,1.463-2.134,2.285-3.204c0.929-1.21,1.854-2.339,2.773-3.422
		c-0.92,1.083-1.845,2.211-2.774,3.421C106.761,109.783,106.001,110.854,105.299,111.918z"/>
	<path fill="none" d="M96.751,95.146c0.181-0.171,0.367-0.339,0.555-0.507C97.118,94.807,96.932,94.975,96.751,95.146z"/>
	<path fill="none" d="M140.398,63c-0.001,0-0.001,0-0.002,0c-0.148,1-0.428,3.399-0.938,5.422C139.969,66.402,140.252,64,140.398,63
		z"/>
	<path fill="none" d="M134.945,63.282c0.013-0.049,0.027-0.117,0.041-0.182h0c-0.008,0.06-0.025,0.134-0.042,0.186
		c-1.791,5.993-5.262,10.305-10.766,12.825C129.687,73.59,133.151,69.278,134.945,63.282z"/>
	<path fill="none" d="M98.94,90.355c-0.258,0.202-0.511,0.408-0.763,0.615C98.43,90.764,98.682,90.558,98.94,90.355z"/>
	<path fill="none" d="M98.408,93.707c0.236-0.186,0.48-0.367,0.727-0.547C98.888,93.34,98.645,93.521,98.408,93.707z"/>
	<path fill="none" d="M97.557,94.413c0.202-0.175,0.41-0.345,0.62-0.515C97.967,94.067,97.758,94.238,97.557,94.413z"/>
	<path fill="none" d="M125.44,90.193c2.073-2.015,4.064-4.076,5.946-6.375c1.072-1.311,2.001-2.605,2.829-3.88
		c-0.829,1.275-1.758,2.568-2.831,3.879C129.504,86.116,127.513,88.178,125.44,90.193z"/>
	<path fill="none" d="M93.77,88.685c2.271-4.938,6.497-7.56,12.461-11.76c-0.955-0.394-1.953-0.888-2.931-1.456
		c0.977,0.567,1.974,1.062,2.928,1.456C100.264,81.127,96.035,83.747,93.77,88.685z"/>
	<path fill="none" d="M105.098,80.629c0.448-0.244,0.911-0.513,1.381-0.793c-0.47,0.279-0.934,0.547-1.382,0.789
		c-7.154,3.908-12.13,10.267-12.176,10.325c-0.001,0.002-0.001,0.003-0.002,0.005C92.919,90.955,97.909,84.551,105.098,80.629z"/>
	<path fill="none" d="M124.177,76.11c-7.196,7.338-17.929,12.441-23.913,16.273c-0.327,0.209-0.645,0.426-0.956,0.647
		c0.309-0.221,0.626-0.436,0.952-0.645C106.248,88.551,116.983,83.448,124.177,76.11z"/>
	<path fill="none" d="M85.135,80.945c-1.802,1.371-3.542,2.808-5.079,4.26c-3.18,3.01-8.2,6.864-14.299,10.555
		c6.099-3.689,11.117-7.544,14.299-10.553C81.593,83.755,83.333,82.317,85.135,80.945z"/>
	<path fill="none" d="M90.487,104.202c-1.843,4.102-2.426,7.567-2.526,8.21c-0.002,0.038-0.006,0.073-0.008,0.112
		C87.953,112.524,88.442,108.753,90.487,104.202z"/>
	<path fill="none" d="M95.644,93.269c0.141-0.142,0.278-0.287,0.422-0.426C95.922,92.982,95.784,93.127,95.644,93.269z"/>
	<path fill="none" d="M90.812,100.081c-0.075,0.158-0.143,0.325-0.215,0.487C90.669,100.406,90.737,100.239,90.812,100.081z"/>
	<path fill="none" d="M96.898,123.422c0.04-0.471,0.077-0.945,0.133-1.396C96.975,122.478,96.938,122.951,96.898,123.422z"/>
	<path fill="none" d="M114.417,75.443c-3.75,0-7.231-1.135-10.135-3.069c2.902,1.937,6.382,3.073,10.135,3.073
		c5.126,0,9.754-2.111,13.08-5.504C124.171,73.334,119.543,75.443,114.417,75.443z"/>
	<path fill="none" d="M77.176,101.199c-0.348,3.109,0.045,8.726,0.045,8.726S74.6,111,71.405,111c0.001,0,0.001,0,0.002,0
		c3.194,0,5.816-1.074,5.816-1.074S76.831,104.307,77.176,101.199z"/>
	<path fill="none" d="M97.135,121.326c0.065-0.446,0.128-0.895,0.207-1.32C97.263,120.432,97.2,120.879,97.135,121.326z"/>
	<path fill="none" d="M96.816,127.985c-0.022-0.508-0.052-1.021-0.053-1.513C96.765,126.964,96.793,127.477,96.816,127.985z"/>
	<path fill="none" d="M97.007,130.41c-0.056-0.51-0.123-1.025-0.157-1.521C96.885,129.385,96.951,129.9,97.007,130.41z"/>
	<path fill="none" d="M96.785,125.646c0.01-0.493,0.016-0.989,0.045-1.464C96.802,124.657,96.795,125.153,96.785,125.646z"/>
	<path fill="none" d="M74.831,51.157c0.039-0.213,0.085-0.429,0.129-0.644c-0.044,0.215-0.09,0.43-0.133,0.643
		c-0.11,0.696-0.19,1.403-0.283,2.107C74.637,52.559,74.718,51.85,74.831,51.157z"/>
	<path fill="none" d="M97.473,119.372c0.086-0.421,0.172-0.842,0.269-1.241C97.645,118.53,97.56,118.951,97.473,119.372z"/>
	<path fill="none" d="M112.315,81.469c-4.843,3.263-9.436,5.821-13.305,8.834C102.879,87.291,107.473,84.732,112.315,81.469z"/>
	<path fill="none" d="M97.894,117.559c0.103-0.393,0.206-0.785,0.317-1.154C98.099,116.774,97.997,117.166,97.894,117.559z"/>
	<path fill="none" d="M73.684,71.322c0.017,0.001,0.027-0.01,0.027-0.01c1.18-0.462,3.687-1.199,6.21-1.901
		c-2.523,0.701-5.031,1.438-6.214,1.901C73.707,71.312,73.698,71.321,73.684,71.322z"/>
	<path fill="none" d="M38.518,92.294c30.354-20.4,55.448-23.696,57.32-24.073l0.503,0.436l-0.5-0.438
		c-1.874,0.377-26.973,3.672-57.325,24.073c-10.052,6.757-22.383,18.752-28.469,25.442c0.001,0,0.003-0.001,0.004-0.002
		C16.141,111.038,28.468,99.05,38.518,92.294z"/>
	<path fill="none" d="M17.072,114.854c-1.565,0.6-3.072,1.21-4.372,1.752C14,116.065,15.507,115.455,17.072,114.854z"/>
	<path fill="none" d="M73.553,62.202c0.003-0.06,0.021-0.285,0.049-0.613c-0.028,0.328-0.047,0.552-0.052,0.611
		c-0.187,3.952-0.197,6.197-0.142,7.471C73.355,68.397,73.366,66.153,73.553,62.202z"/>
	<path fill="none" d="M81.336,51.626c-0.722-0.174-1.441-0.351-2.163-0.521c-0.983-0.226-1.957-0.455-2.931-0.685
		c0.973,0.23,1.945,0.46,2.927,0.688C79.894,51.277,80.613,51.454,81.336,51.626z"/>
	<path fill="none" d="M91.084,54.099c1.111,0.297,2.18,0.59,3.186,0.881l0,0C93.269,54.686,92.194,54.392,91.084,54.099
		c-1.867,0.226-3.867,0.513-5.969,0.881c-0.861,0.153-1.728,0.321-2.593,0.497c0.865-0.175,1.732-0.341,2.594-0.493
		C87.215,54.613,89.215,54.327,91.084,54.099z"/>
	<path fill="none" d="M132.985,46.687c0.335-0.038,0.925-0.101,1.699-0.178c-0.775,0.077-1.365,0.139-1.7,0.176v0.033
		c0,0.038-0.003,0.076-0.003,0.114c0-0.038,0.003-0.075,0.003-0.113C132.984,46.707,132.985,46.696,132.985,46.687z"/>
	<path fill="none" d="M69.084,110.629c-0.044-0.01-0.088-0.018-0.132-0.028C68.996,110.612,69.041,110.62,69.084,110.629z"/>
	<path fill="none" d="M77.2,100.995c-0.003,0.023-0.007,0.043-0.01,0.067C77.192,101.038,77.196,101.019,77.2,100.995z"/>
	<path fill="none" d="M68.942,110.599c-2.222-0.521-4.222-1.512-4.545-1.677C64.703,109.079,66.707,110.076,68.942,110.599z"/>
	<path fill="none" d="M22.723,112.868C22.723,112.868,22.723,112.868,22.723,112.868c0.27-0.277,0.551-0.565,0.84-0.861
		C23.273,112.303,22.992,112.591,22.723,112.868z"/>
	<path fill="none" d="M173.02,57.416c-1.321-5.707-3.219-10.352-3.219-10.352c-0.483-0.09-1.213-0.212-2.132-0.348
		c0.918,0.136,1.647,0.258,2.13,0.348C169.798,47.064,171.695,51.706,173.02,57.416z"/>
	<path fill="none" d="M172.96,79.891c-0.059-0.013-0.115-0.028-0.175-0.04C172.844,79.863,172.901,79.878,172.96,79.891z"/>
	<path fill="none" d="M63.258,85.862c0.283-0.135,0.565-0.269,0.843-0.399C63.822,85.594,63.542,85.727,63.258,85.862z"/>
	<path fill="none" d="M60.18,87.354c0.045-0.022,0.091-0.045,0.137-0.068C60.271,87.309,60.225,87.332,60.18,87.354z"/>
	<path fill="none" d="M61.226,86.84c0.113-0.055,0.227-0.11,0.339-0.165C61.452,86.73,61.339,86.785,61.226,86.84z"/>
	<path fill="none" d="M98.373,115.897c0.115-0.363,0.231-0.726,0.352-1.064C98.604,115.173,98.488,115.533,98.373,115.897z"/>
	<path fill="none" d="M99.973,110.638c-0.113,0.147-0.226,0.293-0.344,0.453C99.747,110.931,99.86,110.784,99.973,110.638z"/>
	<path fill="none" d="M160.595,121c6.35,0,16.562,0.121,19.166,0.195c2.57,0.076,4.927-0.212,4.984-0.217
		c0.002-0.002,0.006-0.055,0.009-0.057c0,0-2.396,0.166-4.993,0.092c-2.605-0.076-12.818-0.21-19.165-0.21
		c-0.011,0-0.022,0.197-0.034,0.197C160.573,121,160.584,121,160.595,121z"/>
	<path fill="none" d="M98.687,112.445c-0.024,0.036-0.047,0.069-0.071,0.105C98.639,112.514,98.663,112.481,98.687,112.445z"/>
	<path fill="none" d="M99.305,111.542c-0.058,0.082-0.115,0.158-0.174,0.243C99.19,111.7,99.247,111.624,99.305,111.542z"/>
	<path fill="none" d="M163.511,63.29c1.585,0.054,2.736,0.214,2.784,0.221c0.002,0,0.003-0.001,0.005-0.001
		C166.3,63.509,165.128,63.344,163.511,63.29z"/>
	<path fill="none" d="M109.795,78.028c0.421,0.084,0.917,0.164,1.463,0.237C110.711,78.192,110.216,78.112,109.795,78.028z"/>
	<polygon fill="none" points="116.678,78.473 116.491,78.556 116.664,78.483 	"/>
	<path fill="none" d="M62.259,86.34c0.19-0.091,0.38-0.183,0.568-0.272C62.638,86.158,62.449,86.248,62.259,86.34z"/>
	<path fill="none" d="M103.27,75.451c0.009,0.006,0.018,0.012,0.027,0.017C103.288,75.463,103.279,75.457,103.27,75.451z"/>
	<path fill="none" d="M74.643,80.775c-0.526,0.215-4.881,2.023-10.395,4.618c5.478-2.576,9.805-4.373,10.38-4.609
		C74.633,80.781,74.638,80.778,74.643,80.775z"/>
	<path fill="none" d="M67.583,85.521c-0.02,0.016-0.04,0.031-0.06,0.046C67.542,85.552,67.563,85.537,67.583,85.521z"/>
	<path fill="none" d="M93.857,129.494c0,0,0-0.001,0-0.002c-0.428-0.298-0.932-0.627-1.486-0.989
		C92.925,128.866,93.43,129.195,93.857,129.494z"/>
	<path fill="none" d="M100.457,110.852c0.12-0.228,0.238-0.448,0.348-0.643C100.694,110.405,100.578,110.623,100.457,110.852z"/>
	<path fill="none" d="M99.424,113.044c0.127-0.299,0.254-0.595,0.38-0.866C99.678,112.45,99.552,112.743,99.424,113.044z"/>
	<path fill="none" d="M178.664,65.641c3.322-1.975,3.836-5.768,3.836-5.768h0C182.493,59.924,181.964,63.676,178.664,65.641z"/>
	<path fill="none" d="M98.89,114.391c0.124-0.333,0.248-0.663,0.374-0.969C99.137,113.729,99.014,114.057,98.89,114.391z"/>
	<path fill="none" d="M99.954,111.862c0.126-0.265,0.251-0.523,0.371-0.758C100.204,111.34,100.081,111.596,99.954,111.862z"/>
	<path fill="none" d="M84.671,52.55c-0.369,0.065-0.741,0.142-1.112,0.211C83.93,52.692,84.302,52.616,84.671,52.55
		c0.082-0.016,0.167-0.024,0.251-0.042c-0.005-0.001-0.011-0.002-0.017-0.004c0.004,0.001,0.009,0.002,0.013,0.003
		C84.836,52.522,84.755,52.536,84.671,52.55z"/>
	<path fill="none" d="M100.913,110.02c0.109-0.19,0.215-0.372,0.31-0.526C101.127,109.649,101.024,109.827,100.913,110.02z"/>
	<path fill="none" d="M101.297,109.373c0.094-0.152,0.183-0.292,0.255-0.402C101.479,109.083,101.394,109.217,101.297,109.373z"/>
	<path fill="#FFC62F" d="M105.299,111.918c0.703-1.063,1.462-2.135,2.284-3.205c0.93-1.21,1.854-2.338,2.774-3.421
		c5.288-6.224,10.4-10.545,15.083-15.099c2.072-2.016,4.063-4.077,5.944-6.375c1.073-1.311,2.002-2.604,2.831-3.879
		c2.124-3.269,3.518-6.403,4.442-9.3c0.319-0.909,0.579-1.81,0.801-2.688c0.509-2.023,0.789-3.912,0.938-5.422
		c-1.856,0.169-3.63,0.396-5.411,0.571c-0.014,0.065-0.028,0.133-0.041,0.182c-1.793,5.997-5.258,10.309-10.768,12.828
		c-7.193,7.338-17.929,12.441-23.917,16.276c-0.326,0.208-0.643,0.424-0.952,0.645c-0.059,0.042-0.115,0.087-0.173,0.129
		c-0.247,0.18-0.49,0.361-0.727,0.547c-0.079,0.062-0.154,0.127-0.231,0.19c-0.21,0.17-0.418,0.34-0.62,0.515
		c-0.085,0.075-0.167,0.151-0.251,0.227c-0.188,0.167-0.374,0.335-0.555,0.507c-0.085,0.082-0.167,0.165-0.251,0.247
		c-0.173,0.169-0.345,0.339-0.511,0.511c-0.082,0.085-0.162,0.172-0.242,0.259c-0.162,0.172-0.322,0.345-0.477,0.521
		c-0.077,0.086-0.151,0.174-0.227,0.261c-0.153,0.178-0.304,0.355-0.451,0.535c-0.071,0.087-0.141,0.175-0.21,0.263
		c-0.145,0.181-0.287,0.363-0.425,0.546c-0.066,0.087-0.13,0.175-0.194,0.262c-0.137,0.186-0.272,0.373-0.403,0.561
		c-0.059,0.084-0.117,0.168-0.175,0.253c-0.131,0.192-0.26,0.386-0.386,0.579c-0.052,0.08-0.103,0.16-0.153,0.239
		c-0.127,0.2-0.251,0.4-0.372,0.6c-0.043,0.073-0.087,0.146-0.13,0.218c-0.124,0.209-0.244,0.419-0.361,0.628
		c-0.035,0.062-0.069,0.124-0.104,0.185c-0.122,0.222-0.24,0.443-0.355,0.664c-0.025,0.048-0.051,0.097-0.076,0.146
		c-0.122,0.237-0.24,0.473-0.353,0.708c-0.015,0.03-0.273,0.06-0.288,0.09C90.481,103.682,91,103.942,90,104.2c0,0,0,0.001,0,0.001
		c-2,4.551-2.291,8.322-2.291,8.322c0.003-0.039,0.128-0.074,0.13-0.112c-0.001,0.007,0.058,0.019,0.057,0.026
		c0.024-0.411,0.091-0.802,0.124-1.198c0.017-0.203,0.043-0.414,0.062-0.613c0.039-0.396,0.095-0.776,0.143-1.159
		c0.025-0.202,0.049-0.413,0.076-0.611c0.05-0.358,0.113-0.7,0.171-1.046c0.035-0.209,0.065-0.426,0.104-0.63
		c0.061-0.328,0.133-0.641,0.201-0.958c0.044-0.207,0.084-0.422,0.132-0.625c0.074-0.313,0.158-0.612,0.238-0.915
		c0.052-0.193,0.098-0.393,0.153-0.581c0.084-0.293,0.179-0.572,0.271-0.855c0.06-0.187,0.116-0.379,0.179-0.561
		c0.097-0.281,0.204-0.549,0.309-0.82c0.065-0.171,0.127-0.349,0.195-0.517c0.109-0.267,0.227-0.522,0.343-0.78
		c0.072-0.162,0.14-0.329,0.215-0.487c0.122-0.257,0.253-0.503,0.382-0.752c0.077-0.148,0.148-0.301,0.228-0.446
		c0.133-0.245,0.274-0.479,0.414-0.715c0.083-0.14,0.161-0.285,0.246-0.422c0.143-0.231,0.294-0.453,0.443-0.676
		c0.089-0.133,0.173-0.271,0.264-0.402c0.152-0.218,0.312-0.427,0.469-0.638c0.096-0.128,0.188-0.261,0.285-0.387
		c0.155-0.199,0.317-0.39,0.477-0.583c0.107-0.13,0.211-0.265,0.322-0.393c0.154-0.179,0.314-0.35,0.473-0.524
		c0.124-0.135,0.243-0.274,0.369-0.408c0.15-0.159,0.307-0.311,0.46-0.466c0.141-0.142,0.278-0.287,0.422-0.426
		c0.138-0.134,0.282-0.263,0.423-0.394c0.166-0.155,0.329-0.312,0.499-0.464c0.111-0.1,0.228-0.196,0.341-0.295
		c0.205-0.178,0.408-0.358,0.618-0.533c0.076-0.063,0.155-0.124,0.231-0.187c0.252-0.207,0.505-0.413,0.763-0.615
		c0.023-0.018,0.047-0.035,0.069-0.053c3.87-3.013,8.462-5.571,13.305-8.834c1.028-0.692,2.065-1.413,3.11-2.181
		c0.283-0.207,0.954-0.593,1.238-0.805l-0.173,0.072l-0.232,0.103c-1.208,0-3.3-0.164-5-0.393c-0.547-0.073-1.042-0.153-1.463-0.237
		c-0.128-0.025-0.267-0.05-0.378-0.076c-1.007,0.691-1.99,1.32-2.938,1.883c-0.47,0.28-0.933,0.55-1.381,0.793
		c-7.189,3.922-12.179,10.326-12.179,10.326c0-0.002,0.001-0.003,0.002-0.005c0,0-0.004,0.005-0.004,0.005
		c0.244-0.812,0.528-1.564,0.853-2.27c2.266-4.938,6.494-7.792,12.458-11.995c-0.954-0.394-1.951-0.69-2.928-1.69
		c0,0-0.001,0-0.002,0c-0.009,0-0.018,0.223-0.027,0.217c-1.622-0.942-3.188-1.966-4.41-3.173
		c-2.974,1.537-8.604,4.946-13.726,8.843c-1.802,1.372-3.542,2.839-5.08,4.292c-3.182,3.009-8.2,6.878-14.299,10.567
		c-2.962,1.792-6.175,3.554-9.563,5.153c0.005-0.003,0.012-0.005,0.017-0.008c-0.005,0.002-0.011,0.007-0.016,0.009
		c1.463-0.968,3.112-2.158,4.853-3.478c7.915-6.004,17.818-14.775,21.8-18.573c-1.06,0.613-18.173,10.508-23.181,13.903
		c0,0,0.01-0.011,0.012-0.013c-0.005,0.003-0.01,0.007-0.015,0.01c0,0,2.932-3.228,7.306-6.737c0.185-0.149,0.364-0.296,0.555-0.446
		c0.02-0.015,0.04-0.03,0.06-0.046c2.099-1.646,4.495-3.324,7.044-4.738c-0.575,0.237-4.902,2.033-10.38,4.609
		c-0.049,0.023-0.098,0.046-0.147,0.069c-0.278,0.131-0.56,0.265-0.843,0.399c-0.144,0.068-0.287,0.137-0.431,0.206
		c-0.188,0.09-0.378,0.181-0.568,0.272c-0.23,0.111-0.461,0.223-0.694,0.335c-0.112,0.055-0.226,0.11-0.339,0.165
		c-0.302,0.147-0.604,0.295-0.909,0.446c-0.046,0.023-0.092,0.045-0.137,0.068c-4.963,2.454-10.301,5.33-14.443,8.156
		c-1.472,1.004-3.157,2.294-4.924,3.737c-4.803,3.923-10.232,9.007-13.773,12.795c0.137-0.029,0.304-0.065,0.489-0.104
		c2.516-0.531,9.191-1.866,11.065-2.058c3.171-0.326,6.411-0.52,9.679-0.822c8.36-0.775,16.909-2.274,24.996-8.555
		c2.31-1.794,4.583-3.969,6.801-6.64c0.072-0.085,0.137-0.164,0.209-0.249c0.14-0.168,0.284-0.34,0.407-0.492
		c-0.001,0.002-0.001,0.006-0.002,0.008c0.001-0.001,0.003-0.003,0.004-0.005c-0.888,3.034-1.372,7.03-1.438,11.524
		c-0.018,1.246-0.008,2.524,0.041,3.838c0.419,11.673,8.535,17.038,13.08,20.014c0.554,0.362,1.058,0.691,1.486,0.989
		c-0.021-0.374-0.051-0.751-0.065-1.177c-0.052-1.401,0.062-3.354,1.167-7.69c0.79-3.112,2.259-5.932,3.658-8.075
		c0.024-0.037,0.047-0.069,0.071-0.105c0.149-0.227,0.298-0.45,0.445-0.66c0.059-0.085,0.116-0.161,0.174-0.243
		c0.108-0.153,0.218-0.309,0.324-0.452c0.118-0.16,0.23-0.306,0.344-0.453c0.042-0.055,0.086-0.115,0.127-0.167
		c0.784-1.001,1.43-1.678,1.749-1.931c0,0-0.098,0.133-0.256,0.371c-0.013,0.02-0.026,0.04-0.041,0.061
		c-0.072,0.11-0.161,0.25-0.255,0.402c-0.025,0.04-0.049,0.078-0.075,0.121c-0.094,0.154-0.2,0.336-0.31,0.526
		c-0.036,0.062-0.071,0.123-0.108,0.189c-0.11,0.195-0.228,0.416-0.348,0.643c-0.044,0.084-0.087,0.164-0.132,0.252
		c-0.12,0.234-0.245,0.493-0.371,0.758c-0.05,0.105-0.1,0.206-0.15,0.316c-0.125,0.271-0.252,0.567-0.38,0.866
		c-0.054,0.126-0.107,0.247-0.161,0.378c-0.125,0.307-0.25,0.636-0.374,0.969c-0.055,0.148-0.111,0.289-0.165,0.442
		c-0.121,0.339-0.237,0.701-0.352,1.064c-0.054,0.17-0.11,0.332-0.162,0.507c-0.111,0.369-0.214,0.761-0.317,1.154
		c-0.05,0.191-0.104,0.375-0.151,0.572c-0.097,0.399-0.183,0.82-0.269,1.241c-0.043,0.212-0.091,0.416-0.131,0.634
		c-0.079,0.426-0.142,0.874-0.207,1.32c-0.034,0.234-0.074,0.459-0.104,0.699c-0.056,0.452-0.093,0.926-0.133,1.396
		c-0.021,0.255-0.051,0.5-0.067,0.76c-0.029,0.475-0.035,0.971-0.045,1.464c-0.006,0.277-0.022,0.544-0.022,0.827
		c0.001,0.492,0.031,1.005,0.053,1.513c0.013,0.303,0.013,0.596,0.034,0.905c0.034,0.495,0.101,1.011,0.157,1.521
		c0.037,0.333,0.057,0.657,0.104,0.997c0.003-0.02,0.093-0.57,0.319-1.539C98.148,126.803,100.238,119.57,105.299,111.918z"/>
	<path fill="#FFC62F" d="M77.176,101.199c0.005-0.044,0.008-0.093,0.014-0.136c0.003-0.024,0.007-0.044,0.01-0.067
		c0.052-0.409,0.117-0.773,0.2-1.063c0,0-6.068,7.26-12.784,8.943l-0.261,0.026c0,0,0.016,0.008,0.042,0.021
		c0.323,0.165,2.323,1.156,4.545,1.677c0.003,0,0.007,0.001,0.011,0.002c0.043,0.01,0.088,0.018,0.132,0.028
		c0.77,0.172,1.563,0.288,2.321,0.288c3.194-0.001,5.815-1.034,5.815-1.034S76.828,104.308,77.176,101.199z"/>
	<path fill="#FFFFFF" d="M39.647,0.51c-0.04,1.985,0.038,10.242,3.589,19.352c0.896,2.302,1.946,4.463,3.122,6.506
		c4.132,7.179,9.959,12.768,17.451,16.689c3.209,1.679,6.721,3.054,10.531,4.122c7.548,2.143,15.894,3.742,21.809,5.529
		c0,0.005-0.148-0.005-0.148-0.013v-0.009c0,0,6.69,1.917,10.642,4.959c0,0,0.07-0.001,0.07-0.001
		c0.001,0.001,0.042,0.003,0.043,0.004c0,0-1.027-0.212-2.61-0.493c-1.625-0.287-3.804-0.645-6.021-0.921
		c2.556,3.804,6.561,6.553,11.224,7.451c1.076,0.207,2.19,0.315,3.327,0.315c3.622,0,6.972-1.117,9.764-2.999
		c0.751-0.507,1.472-1.058,2.136-1.671c-0.476,0.332-0.911,0.595-1.319,0.824c-0.24,0.135-0.481,0.271-0.686,0.37
		c-0.635,0.307-1.26,0.514-1.861,0.674c-0.816,0.217-1.584,0.333-2.223,0.382c-2.505,0.797-5.019,0.489-5.667,0.379
		c0.002,0,0.004,0.042,0.006,0.042c-0.001,0-0.004,0-0.005,0c0.041,0,0.081-0.064,0.121-0.073c0.014-0.003,0.025-0.03,0.04-0.032
		c7.53-1.303,14.557-7.072,13.768-15.855c-0.252-2.81-0.96-5.766-2.29-8.134c-0.447-0.797-0.965-1.53-1.561-2.167
		c0.003,0.003,0.007,0.005,0.01,0.008c-0.004-0.004-0.007-0.009-0.01-0.013c0.33,0.281,0.643,0.581,0.948,0.888
		c2.431,2.443,4.06,5.689,4.393,9.367c0.185,2.036-0.047,4.013-0.615,5.855c0.371-0.8,0.663-1.641,0.906-2.502
		c0.225-0.797,0.412-1.609,0.515-2.45c0.071-0.585,0.03-1.181,0.036-1.786c0.001,0.004-0.079,0.008-0.079,0.012
		c0-0.004,0-0.008,0-0.012c1,2.501,0.444,4.657-0.124,6.508c-0.017,0.055-0.048,0.112-0.065,0.167
		c0.746-1.862,1.189-3.887,1.189-6.009c0,0.002,0,0.004,0,0.006c0-0.003,0-0.005,0-0.008c0,0.248,0.134,0.473,0.174,0.712
		c0.001-0.011,0.032-0.021,0.032-0.032c0-0.467-0.022-0.924-0.058-1.381c-0.013-0.165,0.078-0.333,0.061-0.497
		c-0.066-0.617-0.208-1.224-0.208-1.82v-0.089l-0.082-0.088c-0.145-0.946-0.417-1.883-0.712-2.806
		c-1.113-3.476-3.252-6.727-5.999-9.239c-1.58-1.444-3.375-2.644-5.289-3.504c-1.835-0.953-7.419-3.008-13.454-3.553
		c-0.509-0.058-1.03-0.1-1.556-0.134c-2.298-0.144-4.784-0.068-7.706,0.239c-1.598,0.168-3.161,0.371-4.683,0.564
		c-8.195,1.051-15.928,2.042-24.216-2.606c-1.037-0.522-2.038-1.126-3.016-1.773C56.632,15.363,51.408,8.215,48.727,0h-9.084
		c0.001,0.052,0.001,0.103,0.001,0.154C39.646,0.286,39.648,0.413,39.647,0.51z"/>
	<path fill="#FFC62F" d="M93.076,132.409c-2.184-1.272-4.069-2.458-5.051-3.326c0,0.025-0.009,3.216,1.043,6.917h10.302
		c-0.492-0.305-0.961-0.585-1.393-0.825C96.333,134.264,94.629,133.314,93.076,132.409z"/>
	<path fill="#FFC62F" d="M117.66,124.66c0.663-1.473,1.21-3.11,1.59-5.126c0.622-3.28,0.244-6.208-0.592-8.684
		c-0.998-2.949-2.648-5.254-4.065-6.723c0,0-0.418,0.459-1.079,1.225c-2.247,2.604-7.443,8.924-9.812,14.307
		c-0.57,1.295-1.046,2.522-1.471,3.703c-1.572,4.375-2.216,7.887-2.354,10.015c-0.004,0.057-0.013,0.127-0.016,0.182
		c1.16,0.722,2.405,1.499,3.627,2.277c0.086,0.055,0.172,0.109,0.258,0.164h7.253c1.902-3.733,3.783-6.167,5.319-8.768
		C116.804,126.409,117.253,125.564,117.66,124.66z"/>
	<path fill="#FFC62F" d="M74.544,53.263c-0.069,0.529-0.154,1.053-0.212,1.583c2.788-0.723,6.031-1.485,9.228-2.084
		c0.371-0.07,0.743-0.146,1.112-0.211c0.083-0.015,0.165-0.028,0.248-0.042c-0.004-0.001-0.009-0.002-0.013-0.003
		c-0.053-0.015-0.106-0.031-0.16-0.038c-0.605-0.16-1.219-0.311-1.84-0.463c-0.52-0.13-1.046-0.252-1.57-0.378
		c-0.723-0.172-1.442-0.349-2.167-0.517c-0.982-0.229-1.955-0.458-2.927-0.688c-0.4-0.094-0.808-0.186-1.204-0.281
		c-0.028,0.124-0.052,0.249-0.078,0.374c-0.044,0.215-0.09,0.431-0.129,0.644C74.718,51.85,74.637,52.559,74.544,53.263z"/>
	<path fill="#FFFFFF" d="M80.61,12.722c1.946,2.286,4.035,4.053,5.571,5.207c0.393-0.553,0.808-1.139,1.229-1.734
		c1.602-2.269,3.352-4.767,4.857-6.993c0.485-0.718,0.95-1.415,1.368-2.056c-0.35-0.216-0.667-0.431-1.002-0.647
		C89.285,4.34,86.706,2.203,84.702,0h-9.964c0.373,1.868,0.886,3.786,1.62,5.726C77.372,8.409,78.938,10.756,80.61,12.722z"/>
	<path fill="#E9BF9B" d="M182.214,84.313c0.295-1.103,0.295-2.428-0.298-2.869c-0.588-0.444-1.406-0.592-2.366-1.328
		c-0.954-0.735-1.551-2.495-1.551-5.06c0-0.007,0-0.014,0-0.021c0-0.67-0.213-1.405-0.356-2.126
		c-0.41-2.053-1.327-3.991-1.327-3.991c-0.639,0.253-1.472,0.375-2.373,0.408c-4.086,0.154-10.403-1.579-14.625-1.882
		c-5.157-0.368-8.777,2.062-8.777,2.062c-0.321-0.812-0.482-1.689-0.542-2.56c-0.201-2.922,0.754-5.763,0.755-5.764
		c-0.673,0.013-2.43,0.201-3.923,0.356c-0.65,0.068-1.246,0.129-1.685,0.167c-0.171,0.015-0.323,0.027-0.439,0.034
		c-0.001,0.004-0.016,0.007-0.02,0.011c-0.058,0.062-0.428,0.117-0.997,0.18c0,0.118,0,0.236,0.008,0.354
		c0,0-1.63,12.504-7.553,20.665c0.601,0.333,1.554,0.713,2.576,1.125c1.623,0.653,3.421,1.391,4.271,2.163
		c0.776,0.71,1.31,1.518,1.701,2.333c0.898,1.868,0.96,3.787,0.875,4.716c-0.072,0.807-0.191,2.009-0.53,3.865
		c-0.221,1.218-0.041,2.712-1.041,4.586c0,0,0-0.012,0-0.014c0,0.005,0.013,0.008,0.012,0.013c0,0-0.293-6.797-0.9-8.801
		c-0.095-0.313-0.24-0.62-0.41-0.921c-0.921-1.625-2.816-3.031-4.658-3.592c-0.408-0.127-0.959-0.285-1.603-0.457
		c-0.619-0.165-1.325-0.344-2.084-0.524c-0.37-0.088-0.748-0.175-1.137-0.261c-2.701,3.09-5.412,5.515-8.054,7.805
		c-1.18,1.024-2.348,2.024-3.49,3.04c0.094,0.147,0.199,0.288,0.313,0.421c0.004,0.004,0.006,0.01,0.01,0.014
		c0.12,0.137,0.25,0.265,0.393,0.38c0.008,0.007,0.019,0.011,0.027,0.018c0.28,0.221,0.604,0.394,0.983,0.492
		c2.221,0.581,5.037-0.748,5.037-0.748s-0.916,4.292,0.337,9.326c0.487,1.957,1.292,4.021,2.622,5.994
		c3.537,5.257,10.376,3.91,10.376,3.91s0.778-5.495,3.695-11.693c1.093-2.324,2.484-4.747,4.251-7.016
		c1.784-2.29,3.685-4.243,5.608-5.907c4.522-3.912,9.172-6.188,12.741-7.24c-0.186-0.944-0.496-2.891-0.134-3.84
		c0.487-1.27,1.883-2.429,3.58-2.429c0.421,0,0.854,0.058,1.271,0.142c0.06,0.012,0.116,0.027,0.175,0.04
		c0.136,0.03,0.271,0.061,0.4,0.095c0.128,0.034,0.247,0.07,0.367,0.106c0.045,0.014,0.093,0.027,0.137,0.041
		c0.753,0.238,1.293,0.488,1.293,0.488c-0.042-0.008-0.1-0.015-0.147-0.023c-0.089-0.015-0.176-0.03-0.283-0.042
		c-0.031-0.004-0.07-0.005-0.103-0.008c-0.128-0.013-0.261-0.025-0.408-0.031c-0.035-0.001-0.074,0-0.109-0.001
		c-0.153-0.004-0.309-0.007-0.474-0.001c-0.036,0.001-0.075,0.006-0.111,0.008c-0.169,0.008-0.341,0.019-0.516,0.042
		c-0.032,0.004-0.063,0.012-0.095,0.017c-0.182,0.026-0.365,0.056-0.547,0.101c-0.008,0.002-0.015,0.005-0.023,0.007
		c-0.627,0.157-1.229,0.435-1.677,0.901c-0.116,0.122-0.211,0.26-0.288,0.409c-0.539,1.048-0.184,2.659,0.034,3.416
		c4.678-0.86,8.988-0.274,9.812-0.071c0.33,0.083,0.648,0.114,0.935,0.063c0.189-0.035,0.365-0.105,0.519-0.22
		C181.915,85.013,182.102,84.732,182.214,84.313z M168.455,69.917c-2.487,0.118-4.244,1.05-4.244,1.05
		c0.227,0.271,0.522,0.642,0.807,1.055c0.474,0.688,0.914,1.422,0.952,1.765c0.005,0.05,0.001,0.152-0.005,0.282
		c-0.001,0.042-0.002,0.08-0.005,0.128c0,0,0.024,0.037,0.018,0.085c-0.001,0.019,0.023,0.032,0.023,0.055c0,0.005,0,0.007,0,0.011
		v0.015c0,0.832-0.508,4.74-1.409,5.834c-0.01,0.015-0.038,0.028-0.048,0.043c-0.121,0.192-0.262,0.378-0.429,0.549
		c-0.006,0.006-0.013,0.013-0.019,0.02c-1.033,0.968-2.842,1.884-6.254,4.254c-0.471,0.327-0.925,0.696-1.371,1.091
		c-0.219,0.195-0.438,0.403-0.648,0.614c-0.371,0.365-0.727,0.745-1.065,1.129c-0.014,0.016-0.029,0.032-0.043,0.048
		c-0.32,0.364-0.622,0.73-0.908,1.092c-0.038,0.048-0.077,0.097-0.114,0.145c-0.27,0.345-0.524,0.684-0.758,1.009
		c-0.036,0.049-0.07,0.098-0.105,0.147c-0.228,0.319-0.439,0.625-0.626,0.906c-0.058,0.087-0.111,0.168-0.165,0.251
		c-0.053,0.082-0.11,0.169-0.16,0.245c-0.019,0.029-0.034,0.054-0.052,0.082c-0.413,0.646-0.661,1.094-0.71,1.175
		c0-0.002,0.002-0.008,0.002-0.012c-0.004,0.008-0.015,0.027-0.015,0.027s1.07-5.046,3.396-7.93
		c0.289-0.357,0.591-0.693,0.894-1.026c2.346-2.581,5.078-4.444,7.125-5.62c0.331-0.19,0.645-0.362,0.935-0.517l1.042-4.653
		c-0.797-0.533-1.8-1.081-2.772-1.253c-1.001-0.176-2.343-0.254-3.694-0.37c-1.37-0.117-2.749-0.273-3.794-0.616
		c0.009-0.018,0.026-0.042,0.026-0.042c2.075-0.253,3.447-0.803,5.989-1.33c0.505-0.105,1.041-0.125,1.655-0.226
		c3.702-0.606,6.553,0.571,6.553,0.571c-0.002,0-0.004,0-0.007,0C168.45,70,168.455,69.917,168.455,69.917z"/>
	<path fill="#FFC62F" d="M182.5,59.873c-0.002,0.001-1.582,0.723-5.093,1.512c-3.522,0.791-10.623-0.303-12.75-0.547
		c-0.387-0.044-0.917-0.097-1.533-0.146c-1.763-0.139-4.236-0.245-6.188-0.048c-1.109,0.112-2.052,0.321-2.592,0.682
		c-0.721,0.48-1.086,1.342-1.269,2.208c-0.274,1.306-0.127,2.617-0.125,2.639c0.014-0.014,1.477-1.515,5.034-2.427
		c1.799-0.457,3.892-0.513,5.528-0.457c1.617,0.054,2.789,0.464,2.789,0.464c-0.002,0-0.003,0.246-0.005,0.246
		c0.001,0,0.009,0,0.009,0c-0.895,0-1.646,0.148-2.27,0.36c-0.688,0.234-1.203,0.333-1.533,0.494
		c-0.281,0.137-0.442,0.168-0.448,0.171c1.133,0.148,2.053,0.315,2.882,0.525c2.905,0.734,4.634,1.625,9.917,1.246
		c1.572-0.111,2.813-0.555,3.812-1.148C181.964,63.684,182.493,59.924,182.5,59.873z"/>
	<path fill="#FFC62F" d="M96.675,7.836c-0.433,0.734-0.923,1.483-1.481,2.235c-1.588,2.135-4.766,6.523-7.69,10.944
		c-0.011,0.016-0.029,0.042-0.049,0.069c-0.074,0.104-0.205,0.275-0.327,0.432c-0.142,0.183-0.268,0.344-0.269,0.346
		c1.092-0.126,2.192-0.268,3.316-0.411c1.546-0.193,3.118-0.404,4.749-0.572c3.672-0.391,6.712-0.431,9.547-0.126
		c0.086,0.009,0.175,0.016,0.261,0.025c0.164,0.015,0.326,0.034,0.489,0.051c5.571,0.569,10.842,2.33,13.382,3.514
		c1.705,0.721,3.32,1.688,4.815,2.834c4.884,3.742,8.433,9.469,9.209,15.404l-0.013,0.002c0.042,0.218,0.085,0.427,0.118,0.646
		c0.002,0.021,0.005,0.041,0.008,0.061c0.008,0.061,0.017,0.121,0.025,0.181c0.005,0.036,0.072,0.072,0.077,0.108
		c0.035,0.241,0.157,0.483,0.157,0.725c0,0,0,0.001,0,0.008c0-0.025,0.473-0.062,0.878-0.108c3.069-0.344,11.249-1.172,18.243-1.127
		c2.271,0.017,4.442,0.104,6.467,0.232c2.848,0.179,5.358,0.437,7.329,0.688c0.983,0.125,1.833,0.248,2.514,0.358
		c-2.467-5.501-6.018-11.76-11.02-17.545c-1.272-1.471-2.635-2.912-4.102-4.301c-1.652-1.566-3.354-3.028-5.077-4.431
		C136.124,8.233,122.447,2.367,109.759,0H99.698c-0.237,1.229-0.766,3.319-1.906,5.734C97.471,6.412,97.101,7.117,96.675,7.836z"/>
	<path fill="#FFC62F" d="M41.551,95.855c15.836-11.086,42.918-22.551,55.628-26.022c-0.27-0.37-0.539-0.74-0.791-1.135l-0.047-0.041
		l-0.503-0.436c-1.872,0.377-26.966,3.673-57.32,24.073c-10.049,6.756-22.377,18.744-28.466,25.438
		c0.694-0.302,1.606-0.692,2.648-1.126c1.3-0.542,2.807-1.152,4.372-1.752c1.893-0.726,3.866-1.437,5.651-1.986
		c0.269-0.277,0.55-0.565,0.84-0.861C28.146,107.315,35.123,100.363,41.551,95.855z"/>
	<path fill="#FFC62F" d="M157.44,113.32c2.711-8.826,6.574-13.559,11.411-16.379c0,0-5.794,6.297-9.043,15.979
		c-0.014,0.042-0.025,0.086-0.039,0.127c-0.234,0.705-0.458,1.425-0.662,2.165c-0.056,0.205-0.1,0.421-0.153,0.628
		c-0.358,1.378-0.668,2.802-0.886,4.285c0.014-0.033,4.984-12.304,12.8-17.457c2.471-1.627,4.835-2.91,6.916-3.907
		c4.511-2.164,7.683-2.973,7.685-2.974c-0.001-0.018-0.055-0.774-0.432-1.942c-0.012-0.039-0.021-0.073-0.035-0.112
		c-0.022-0.067-0.051-0.142-0.076-0.212c-0.041-0.115-0.079-0.228-0.125-0.349c-0.001-0.002-0.002-0.004-0.002-0.006
		c-0.301-0.778-0.735-1.681-1.36-2.64c-0.627-0.962-1.446-1.761-2.517-2.766C180.902,87.756,177.261,87,172.02,88
		c-0.001,0-0.002,0-0.003,0c-0.107,0-0.221-0.166-0.329-0.143c-1.666,0.355-3.479,0.803-5.388,1.672
		c-2.033,0.925-4.042,2.026-5.963,3.358c-1.102,0.764-2.17,1.563-3.203,2.433c-4.374,3.683-8.028,8.207-10.054,12.847
		c-1.379,3.163-2.228,6.393-2.781,9.524c-0.783,4.439-0.965,8.662-1.177,12.151c-0.07,1.114-0.091,2.33-0.096,3.626
		c-0.002,0.814,0.002,1.662,0.005,2.532h3.051c0.209-1.546,0.397-3.21,0.553-5.01c1.003-11.564,3.496-20.245,7.835-25.666
		c1.111-1.388,2.337-2.573,3.697-3.525c0,0-0.021,0.029-0.061,0.086c-0.519,0.751-4.258,6.383-6.329,15.407
		c-0.294,1.283-0.559,2.629-0.771,4.046c-0.095,0.637-0.182,1.242-0.266,1.84c-0.744,5.302-1.076,9.155-1.468,12.823h3.279
		c0.882-3.237,1.731-7.087,2.436-11.623C155.652,120.102,156.475,116.458,157.44,113.32z"/>
	<path fill="#E9BF9B" d="M137.67,129.839c0.73-0.297,1.594-0.609,2.564-0.93c0.021-0.007,0.039-0.014,0.06-0.021
		c0.073-1.491,0.202-3.376,0.419-5.308c0.094-0.839,0.202-1.687,0.332-2.518c-0.438,0.012-0.852,0.021-1.252,0.027
		c-0.502,0.009-0.979,0.015-1.405,0.015c-5.277,0-8.563-3.06-11.019-6.657c-2.445-3.597-4.134-10.783-4.134-10.783
		s-3.05-0.077-4.858-2.53c-0.303,0.302-0.604,0.604-0.907,0.932c0,0,2.755,3.825,4.438,11.019c0.141,0.606,0.217,1.258,0.254,1.932
		c0.005,0.087,0.017,0.169,0.02,0.256c0.003,0.091-0.001,0.187,0,0.278c0.029,1.457-0.132,3.004-0.392,4.488
		c-0.69,3.947-2.026,7.428-2.026,7.428s1.008,2.539,1.839,6.12c0.177,0.761,0.344,1.571,0.494,2.412h2.809
		c3.14-1.627,8.843-4.529,12.414-6.02C137.43,129.935,137.553,129.886,137.67,129.839z"/>
	<path fill="#E9BF9B" d="M179.76,121.195c-2.603-0.074-12.816-0.195-19.166-0.195c-0.01,0-0.022,0-0.033,0
		c-0.015,0-0.032-0.201-0.042-0.201c-0.3,0.467-0.571,0.851-0.832,1.385c-0.223,0.457-0.44,0.914-0.658,1.469
		c-0.069,0.176-0.138,0.315-0.208,0.505c0.741-0.145,1.46-0.29,2.172-0.417c0.568-0.103,1.111-0.198,1.655-0.288
		c0.405-0.066,0.826-0.144,1.215-0.202c1.622-0.244,3.189-0.453,4.674-0.628c4.128-0.488,7.6-0.733,9.814-0.88
		c1.236-0.083,2.088-0.136,2.423-0.183c1.148-0.152,3.197,0.025,3.967-0.582C184.688,120.983,182.33,121.271,179.76,121.195z"/>
	<path fill="#E9BF9B" d="M162.346,117.826c0.026,0.001,8.244,0.22,12.851,0.758c0.702,0.084,1.352,0.152,1.978,0.214
		c3.487,0.338,5.789,0.364,6.663,0.416c0.07,0.004,0.146,0.008,0.226,0.011c0.719,0.031,1.755-0.018,2.188-1.082
		c0.159-0.392,0.229-0.93,0.179-1.643c-0.019-0.266-0.049-0.548-0.105-0.868c-0.667-3.764-1.699-4.429-3.518-5.159
		c-1.821-0.727-4.916-0.545-4.916-0.545s0.247-0.604,0.573-1.523c0.682-1.928,1.712-5.259,1.549-7.396
		C179.961,101.032,166.277,106.949,162.346,117.826z"/>
	<path fill="#FFC62F" d="M117.552,131.251c-0.313,0.499-0.725,1.144-1.125,1.75c-0.341,0.52-0.673,1.009-0.923,1.347
		c-0.278,0.376-0.628,0.95-1.018,1.652h5.068c-0.148-0.533-0.315-1.027-0.49-1.496C118.505,133.009,117.875,131.858,117.552,131.251
		z"/>
	<path fill="#4F2683" d="M73.408,69.671c0.063,1.479,0.213,1.647,0.275,1.651c0.014,0,0.023-0.01,0.023-0.01
		c1.183-0.463,3.691-1.2,6.214-1.901c3.532-0.983,7.095-1.898,7.095-1.898c3.068-0.715,6.716-1.479,10.978-2.269
		c1.438,2.895,3.619,5.35,6.288,7.13c2.904,1.935,6.385,3.069,10.135,3.069c5.126,0,9.753-2.109,13.08-5.5
		c2.508-2.559,4.277-5.845,4.949-9.516c19.66-2.135,28.949-2.194,41.084-0.58c-0.155-0.825-0.328-1.638-0.511-2.431
		c-1.325-5.71-3.222-10.352-3.222-10.352c-0.483-0.09-1.212-0.212-2.13-0.348c-3.217-0.473-8.883-1.112-15.578-1.157
		c-6.406-0.049-13.88,0.602-17.398,0.95c-0.774,0.077-1.692,0.14-1.692,0.178c0,0.01,0,0.021,0,0.032
		c0,0.038-0.011,0.075-0.011,0.113c-0.074,11.574-10.051,19.816-19.341,19.958C99.569,67,94.382,55.654,94.272,54.98
		c-1.005-0.291-2.076-0.584-3.187-0.881c-1.87,0.229-3.87,0.515-5.968,0.885c-0.861,0.152-1.729,0.318-2.594,0.493
		c-3.026,0.615-6.016,1.339-8.553,2c-0.12,1.279-0.285,3.148-0.368,4.112c-0.028,0.329-0.046,0.553-0.049,0.613
		C73.366,66.153,73.355,68.397,73.408,69.671z"/>
	<path d="M161.907,69.344c-0.616,0.101-1.152,0.205-1.659,0.31c-2.542,0.527-3.915,1.077-5.989,1.33c0,0-0.017,0.024-0.026,0.042
		c1.045,0.343,2.424,0.5,3.794,0.616c1.352,0.115,2.693,0.191,3.694,0.366c0.976,0.177,1.977,0.724,2.773,1.253l-1.042,4.657
		c-0.291,0.155-0.604,0.327-0.935,0.517c-2.047,1.175-4.779,3.039-7.125,5.62c-0.302,0.333-0.603,0.667-0.89,1.024
		c-0.22,0.268-0.429,0.564-0.623,0.873c-0.093,0.126-0.175,0.261-0.251,0.403c-0.11,0.177-0.21,0.354-0.303,0.531
		c-0.118,0.211-0.229,0.427-0.335,0.655c-0.111,0.219-0.211,0.437-0.304,0.655c-0.412,0.925-0.739,1.85-0.981,2.632
		c-0.035,0.092-0.061,0.186-0.086,0.269c-0.184,0.614-0.317,1.118-0.402,1.463c-0.018,0.05-0.025,0.092-0.034,0.133
		c-0.009,0.036-0.015,0.068-0.025,0.102c-0.018,0.068-0.026,0.126-0.033,0.159c-0.006,0.012-0.006,0.021-0.006,0.03
		c0,0.004-0.002,0.01-0.002,0.012c0.05-0.081,0.297-0.528,0.71-1.175c0.014-0.022,0.024-0.039,0.039-0.062
		c0.004-0.006,0.009-0.014,0.014-0.021c0.05-0.076,0.106-0.163,0.16-0.245c0.048-0.074,0.091-0.141,0.145-0.222
		c0.006-0.009,0.014-0.02,0.02-0.029c0.187-0.28,0.399-0.587,0.626-0.906c0.036-0.05,0.068-0.097,0.105-0.147
		c0.234-0.325,0.488-0.664,0.758-1.009c0.038-0.049,0.076-0.096,0.114-0.145c0.286-0.362,0.588-0.729,0.908-1.092
		c0.014-0.017,0.029-0.032,0.043-0.048c0.339-0.384,0.694-0.765,1.065-1.129c0.21-0.21,0.428-0.418,0.647-0.614
		c0.446-0.396,0.899-0.764,1.37-1.091c3.412-2.371,5.22-3.287,6.253-4.254c0.006-0.006,0.009-0.013,0.015-0.02
		c0.166-0.174,0.3-0.362,0.422-0.549c0.01-0.015,0.052-0.028,0.062-0.043c0.901-1.094,1.409-5.002,1.409-5.834v-0.015v-0.011
		c0-0.023-0.024-0.038-0.022-0.056c0.005-0.049-0.005-0.086-0.005-0.086c0.003-0.049,0.013-0.089,0.015-0.131
		C165.99,73.982,166,73.91,166,73.859v-0.085c0-0.341-0.493-1.085-0.966-1.773c-0.284-0.413-0.588-0.805-0.815-1.076
		c0,0,1.752-0.975,4.239-1.092c0,0-0.006-0.001-0.007-0.002C168.399,69.811,165.573,68.746,161.907,69.344z"/>
	<path d="M151.006,121.339c0.213-1.417,0.477-2.764,0.772-4.048c2.071-9.023,5.81-14.655,6.329-15.407
		c0.04-0.057,0.061-0.086,0.061-0.086c-1.36,0.953-2.586,2.138-3.697,3.525c-4.34,5.421-6.832,14.102-7.835,25.666
		c-0.156,1.8-0.344,3.464-0.553,5.01h3.191c0.392-3.668,0.724-7.521,1.468-12.823C150.825,122.58,150.911,121.975,151.006,121.339z"
		/>
	<path d="M183.307,123.61c4.591-0.691,5.742-1.715,5.851-3.438c0.118-1.723-0.346-4.826-0.69-6.894
		c-0.334-2.059-2.403-3.898-3.437-4.127c-1.034-0.227-3.673-0.916-3.673-0.916c1.949-5.505,1.949-8.952,1.949-8.952
		c1.724-0.917,5.161-2.293,5.161-2.293c-1.143-6.086-5.276-10.794-5.276-10.794c0.345-1.261,1.15-3.437,1.15-4.245
		c0-0.807-1.496-2.176-3.102-3.21c-1.607-1.033-1.832-2.867-1.832-5.052c0-2.176-0.917-4.934-1.262-5.051
		c-0.345-0.109,4.093-1.514,5.471-5.423c1.379-3.899,1.413-7.068,1.413-7.068c-1.832,2.672-9.009,3.774-9.009,3.774
		c-0.572-6.085-5.456-25.712-25.191-43.498C141.724,8.219,129.665,3.119,119.311,0h-9.545c12.687,2.369,26.362,8.231,38.466,18.078
		c1.724,1.403,3.424,2.865,5.077,4.431c1.467,1.389,2.829,2.652,4.101,4.123C162.414,32.417,165.963,39,168.43,44
		c-0.001,0-0.002,0-0.003,0c-0.681,0-1.535-0.055-2.518-0.18c-1.972-0.25-4.489-0.419-7.337-0.599
		c-2.024-0.127-4.211-0.171-6.482-0.188c-6.994-0.045-15.205,0.805-18.274,1.15c-0.405,0.045-0.667,0.094-0.878,0.12
		c0-0.001,0.062,0.011,0.062,0.01c0-0.006,0-0.008,0-0.008c0-0.242-0.122-0.484-0.157-0.725c-0.005-0.036-0.04-0.071-0.045-0.107
		c-0.006-0.063-0.032-0.122-0.041-0.183c-0.003-0.021,0.179-0.04,0.177-0.061c-0.033-0.218,0.066-0.427,0.066-0.646
		c0,0,0,0.416,0,0.416h-0.376c-0.772-6-4.324-11.87-9.206-15.613c-1.495-1.146-3.11-2.217-4.815-2.938
		c-2.54-1.185-7.811-2.997-13.382-3.566c-0.163-0.017-0.324-0.062-0.487-0.077c-0.086-0.01-0.175-0.029-0.263-0.039
		c-2.834-0.305-5.875-0.271-9.547,0.119c-1.631,0.168-3.203,0.445-4.749,0.638C89.051,21.667,87.951,22,86.859,22
		c-0.001,0-0.003,0-0.004,0c0,0,0.129-0.23,0.272-0.415c0.122-0.157,0.253-0.362,0.327-0.466c0.02-0.028,0.037-0.07,0.047-0.087
		c2.927-4.422,6.102-8.818,7.692-10.954c0.556-0.751,1.046-1.503,1.48-2.237c0.425-0.719,0.796-1.427,1.116-2.105
		c1.14-2.415,1.669-4.507,1.906-5.736H96.88c-0.294,1.391-0.732,2.874-1.399,4.128c-0.05,0.093-0.118,0.211-0.186,0.32
		C92.945,3.175,90.536,1.679,88.439,0h-3.737c2.004,2.203,4.583,4.34,7.932,6.498c0.335,0.216,0.654,0.432,1.005,0.648
		c-0.419,0.641-0.885,1.337-1.371,2.055c-1.506,2.227-3.255,4.724-4.857,6.993c-0.421,0.597-0.835,1.182-1.227,1.736
		c0,0-0.001-0.001-0.002-0.001c-1.537-1.154-3.625-2.921-5.571-5.207c-1.672-1.965-3.239-4.312-4.253-6.996
		C75.623,3.786,75.11,1.868,74.737,0h-3.108c0.44,3.029,1.13,5.895,2.275,8.373c2.572,5.573,6.824,9.985,9.673,12.523
		c0.102,0.085,0.202,0.177,0.294,0.261l0.926,0.917c-5.901,0.554-11.391,0.344-17.224-2.933C60.449,15.552,54.593,8.349,51.606,0
		h-2.877c2.681,8.214,7.905,15.361,14.56,19.763c0.979,0.647,1.979,1.25,3.016,1.773c8.289,4.648,16.021,3.657,24.216,2.606
		c1.522-0.193,3.084-0.396,4.682-0.564c2.922-0.307,5.406-0.383,7.705-0.239c0.524,0.033,1.042,0.074,1.55,0.13
		c6.034,0.546,11.616,2.605,13.449,3.555c1.915,0.859,3.701,2.061,5.281,3.506c2.746,2.512,4.945,5.763,6.059,9.239
		c0.295,0.923,0.753,1.86,0.753,2.806v0.088v0.089c0,0.596,0.149,1.203,0.216,1.82c0.017,0.163-0.027,0.332-0.014,0.497
		c0.036,0.457-0.064,0.914-0.064,1.381c0,0-0.138,0-0.138,0.001v0.042c0-0.003,0.058-0.007,0.057-0.011
		c-0.04-0.239-0.057-0.464-0.057-0.712c0,0.002,0,0.005,0,0.008c0,2.123-0.403,4.147-1.151,6.01
		c0.001-0.002,0.031-0.005,0.032-0.008c0.018-0.055,0.046-0.112,0.062-0.167c0.562-1.85,0.748-3.998,0.212-6.496
		c0-0.004,0.002-0.008,0.001-0.012c-0.006,0.604-0.044,1.2-0.116,1.786c-0.102,0.841-0.289,1.653-0.514,2.45
		c-0.243,0.861-0.534,1.702-0.905,2.502c-0.003,0.006-0.005,0.014-0.008,0.02c0.571-1.85,0.807-3.833,0.621-5.876
		c-0.335-3.674-1.963-6.919-4.39-9.366c-0.305-0.307-0.618-0.607-0.948-0.888c0.003,0.004,0.006,0.008,0.01,0.012
		c0.591,0.635,1.106,1.362,1.551,2.155c1.33,2.368,2.038,5.319,2.29,8.129c0.79,8.783-6.237,14.542-13.768,15.844
		c-0.015,0.002-0.026,0.007-0.04,0.01c-0.04,0.009-0.079,0.018-0.116,0.03c-0.002,0-0.004,0.001-0.006,0.001
		c0.647,0.11,3.162,0.462,5.667-0.335c0.639-0.049,1.407-0.165,2.223-0.382c0.602-0.16,1.227-0.368,1.861-0.678
		c0.206-0.096,0.447-0.231,0.686-0.366c0.408-0.229,0.843-0.492,1.319-0.824c0.001-0.001,0.003-0.002,0.005-0.003
		c-0.665,0.615-1.387,1.167-2.14,1.675c-2.792,1.882-6.141,2.999-9.762,2.999c-1.137,0-2.249-0.225-3.325-0.432
		C104.686,62.671,100.683,60,98.128,56c0.001,0,0.003,0,0.005,0c2.216,1,4.406,0.751,6.03,1.038
		c1.559,0.275,2.592,0.541,2.624,0.547c0,0.001-0.146,0.031-0.146,0.031C102.69,54.573,96,52.686,96,52.686v0.009v0.017
		c-6-1.791-14.264-3.388-21.812-5.531c-3.811-1.068-7.246-2.444-10.455-4.124c-7.492-3.921-13.281-9.511-17.413-16.689
		c-1.176-2.043-2.208-4.203-3.106-6.504c-3.548-9.111-3.613-17.365-3.58-19.35c0.003-0.098,0.007-0.227,0.005-0.359
		c0-0.052,0.004-0.103,0.003-0.154h-2.8c0.007,0.24,0.014,0.47,0.01,0.547c-0.059,5.086,0.917,38.421,35.386,48.919
		c-0.159,0.715-0.311,1.404-0.42,2.068c-2.328,14.7-1.471,20.895-1.471,20.895s0.008,0.061,0.017,0.152
		c-7.053,2.655-15.029,6.235-23.435,11.045c-9.405,5.151-19.608,12.162-29.594,21.727c-1.875,1.807-3.632,3.58-5.296,5.346
		c-0.403,0.419-0.806,0.85-1.21,1.278c-0.016,0.032-0.05,0.059-0.076,0.083c-4.482,4.825-8.02,9.322-10.754,13.176v1.022
		c15.596-10.48,38.749-13.672,45.973-14.097c7.799-0.455,15.701-1.791,15.701-1.791s3.084,1.647,6.766,2.455
		c4.179,0.924,8.55-0.404,8.55-0.404c1.571,8.086,7.253,13.28,8.741,14.449c-0.248,1.554-0.171,5.396,0.629,9.129h2.708
		c-1.055-3.714-1.042-6.918-1.042-6.918l0,0c0.982,0.869,2.868,2.054,5.051,3.326c1.554,0.905,3.258,1.854,4.9,2.767
		c0.432,0.24,0.903,0.52,1.395,0.825h4.374c-0.086-0.055-0.102-0.109-0.188-0.164c-1.223-0.777-2.557-1.553-3.557-2.275
		c0,0,0-0.001,0-0.002c0-0.055-0.058-0.125-0.054-0.182c0.136-2.128,0.746-5.64,2.32-10.015c0.425-1.18,0.883-2.408,1.454-3.703
		c2.369-5.383,7.556-11.703,9.803-14.307c0.662-0.767,1.076-1.227,1.076-1.227c1.417,1.467,3.065,3.774,4.062,6.725
		c0.836,2.476,1.213,5.404,0.591,8.684c-0.379,2.016-0.927,3.653-1.59,5.126c-0.406,0.904-0.856,1.75-1.342,2.573
		c-1.537,2.601-3.417,5.034-5.32,8.768h3.487c0.39-0.704,0.739-1.279,1.017-1.656c0.251-0.337,0.583-0.826,0.925-1.343
		c0.4-0.605,0.812-1.251,1.125-1.75c0,0,0,0,0-0.001c0.322,0.603,0.953,1.756,1.511,3.253c0.175,0.469,0.342,0.963,0.49,1.496h2.542
		c-0.149-0.841-0.316-1.651-0.493-2.412c-0.831-3.582-1.839-6.12-1.839-6.12s1.336-3.481,2.026-7.428
		c0.26-1.484,0.42-3.032,0.392-4.488c-0.002-0.092,0.003-0.187,0-0.278c-0.003-0.087-0.015-0.169-0.02-0.256
		c-0.037-0.673-0.113-1.326-0.254-1.932c-1.683-7.194-4.438-11.019-4.438-11.019c0.303-0.327,0.604-0.63,0.907-0.932
		c1.808,2.453,4.858,2.53,4.858,2.53s1.688,7.186,4.134,10.783c2.456,3.597,5.742,6.657,11.019,6.657
		c0.426,0,0.881-0.005,1.383-0.015c0.401-0.007,1.229-0.016,1.229-0.028c0,0,0,0.001,0,0.001c0,0.831-0.216,1.678-0.31,2.518
		c-0.216,1.931-0.334,3.813-0.404,5.307c-0.021,0.007-0.036,0.014-0.058,0.021c-0.97,0.32-1.831,0.633-2.561,0.93
		c-0.117,0.048-0.238,0.096-0.347,0.143c-3.567,1.49-9.265,4.39-12.408,6.019h6.495c2.591-1.381,5.562-2.805,8.789-4.061
		c0.069,1.373,0.18,2.693,0.267,4.061h2.567c-0.003-0.871-0.007-1.719-0.004-2.534c0.004-1.296,0.026-2.513,0.096-3.627
		c0.212-3.489,0.394-7.715,1.177-12.155c0.552-3.131,1.401-6.368,2.781-9.531c2.025-4.641,5.68-9.177,10.054-12.86
		c1.033-0.869,2.101-1.696,3.203-2.46c1.923-1.333,3.933-2.489,5.967-3.416c1.908-0.868,3.72-1.205,5.384-1.56
		c0.108-0.023,0.222,0.143,0.329,0.143c0.001,0,0.002,0,0.003,0c5.241-1,8.882,0,8.898,0h0.002c1.07,1,1.889,1.794,2.515,2.755
		c0.625,0.959,1.06,1.748,1.36,2.526c0,0.002,0.001-0.053,0.002-0.051c0.047,0.122,0.085,0.206,0.125,0.321
		c0.025,0.07,0.054,0.13,0.076,0.197c0.013,0.04,0.022,0.067,0.035,0.105c0.381,1.179,0.433,1.938,0.433,1.938l0-0.001
		c-0.002,0-3.173,0.809-7.685,2.973c-2.08,0.998-4.477,2.282-6.949,3.911C163.008,107.825,158,120.129,158,120.129
		c0-0.001,0-0.002,0-0.003c0-1.482,0.562-2.906,0.92-4.285c0.054-0.207,0.114-0.423,0.17-0.628c0.204-0.74,0.436-1.46,0.67-2.165
		c0.014-0.042,0.029-0.086,0.043-0.127c3.25-9.682,9.046-15.979,9.046-15.979c-4.837,2.82-8.699,7.554-11.41,16.379
		c-0.964,3.138-1.785,6.78-2.449,11.054c-0.706,4.537-1.556,8.387-2.438,11.625h2.857c1.105-3.623,2.017-7.001,2.581-9.062
		C169.412,124.719,179.844,124.132,183.307,123.61z M178.664,65.641c-0.999,0.593-2.24,1.03-3.812,1.141
		c-5.282,0.379-7.011-0.527-9.917-1.261c-0.83-0.21-1.751-0.407-2.886-0.554c0,0,0.003-0.002,0.003-0.002
		c0.005-0.003,0.167-0.096,0.448-0.232c0.331-0.161,0.846-0.138,1.533-0.372c0.624-0.212,1.375-0.36,2.27-0.36c0,0-0.008,0-0.009,0
		c-0.047,0-1.198-0.411-2.784-0.465c-1.637-0.057-3.729-0.123-5.528,0.334c-3.557,0.912-5.02,2.352-5.034,2.366l-0.002-0.028
		c0,0-0.15-1.34,0.127-2.657c0.183-0.866,0.548-1.735,1.269-2.215c0.54-0.361,1.483-0.574,2.592-0.686
		c1.953-0.198,4.427-0.093,6.188,0.046c0.616,0.049,1.146,0.1,1.533,0.145c2.127,0.244,9.228,1.337,12.75,0.546
		c3.512-0.79,5.091-1.511,5.093-1.513h0C182.5,59.873,181.986,63.666,178.664,65.641z M74.96,50.513
		c0.026-0.125,0.049-0.25,0.078-0.374c0.396,0.095,0.804,0.187,1.204,0.281c0.974,0.229,1.948,0.458,2.931,0.685
		c0.721,0.17,1.441,0.347,2.163,0.521c0.524,0.126,1.05,0.248,1.57,0.378c0.622,0.152,1.235,0.303,1.84,0.463
		c0.054,0.007,0.107,0.023,0.16,0.038c0.005,0.001,0.011,0.002,0.017,0.004c-0.084,0.017-0.169,0.026-0.252,0.042
		c-0.368,0.064-0.74,0.141-1.111,0.21c-3.197,0.6-6.44,1.361-9.228,2.084c0.058-0.53,0.143-1.055,0.212-1.583
		c0.093-0.704,0.173-1.411,0.283-2.107C74.87,50.943,74.916,50.728,74.96,50.513z M73.55,62.2c0.004-0.06,0.023-0.284,0.052-0.611
		c0.083-0.964,0.249-2.833,0.368-4.112c2.537-0.661,5.526-1.385,8.553-2c0.865-0.176,1.732-0.344,2.593-0.497
		c2.102-0.369,4.102-0.655,5.968-0.882c1.11,0.294,2.185,0.588,3.186,0.882l0,0c0.11,0.674,5.295,12.02,19.375,11.81
		c9.29-0.143,19.271-8.384,19.345-19.958c0-0.038,0.011-0.076,0.011-0.114v-0.033c0-0.037,0.917-0.099,1.692-0.176
		c3.518-0.348,10.996-1,17.401-0.95c6.695,0.045,12.359,0.685,15.576,1.157c0.919,0.135,1.648,0.258,2.131,0.348
		c0,0,1.897,4.646,3.219,10.352c0.184,0.793,0.356,1.606,0.511,2.431c-12.136-1.614-21.425-1.555-41.085,0.58
		c-0.672,3.671-2.441,6.958-4.949,9.516c-3.326,3.394-7.953,5.504-13.08,5.504c-3.753,0-7.233-1.137-10.135-3.073
		c-2.669-1.78-4.851-4.235-6.288-7.13c-4.262,0.791-7.91,1.554-10.978,2.269c0,0-3.563,0.916-7.095,1.898
		c-2.523,0.702-5.03,1.438-6.21,1.901c0,0-0.01,0.011-0.027,0.01c-0.062-0.004-0.212-0.172-0.275-1.651
		C73.354,68.397,73.363,66.152,73.55,62.2z M22.723,112.868c-1.785,0.55-3.758,1.26-5.651,1.986
		c-1.565,0.601-3.072,1.21-4.372,1.752c-1.042,0.434-1.954,0.824-2.648,1.126c-0.001,0-0.003,0.001-0.004,0.002
		c6.086-6.69,18.417-18.686,28.469-25.442c30.352-20.401,55.451-23.695,57.325-24.073l0.5,0.438l0.047,0.041
		c0.252,0.395,0.521,0.765,0.791,1.135c-12.71,3.471-39.792,14.936-55.628,26.022c-6.428,4.508-13.405,11.46-17.988,16.152
		C23.273,112.303,22.992,112.591,22.723,112.868C22.723,112.868,22.723,112.868,22.723,112.868z M71.407,111c0,0-0.001,0-0.002,0
		c-0.758,0-1.551-0.157-2.321-0.329c-0.044-0.01-0.088-0.038-0.132-0.049c-0.003-0.001-0.007-0.012-0.011-0.013
		c-2.235-0.523-4.239-1.525-4.545-1.682c-0.026-0.013-0.042-0.024-0.042-0.024l0.261-0.027c6.716-1.683,12.784-8.944,12.784-8.944
		c-0.083,0.29-0.148,0.654-0.2,1.063c-0.003,0.023-0.007,0.042-0.01,0.067c-0.005,0.043-0.009,0.092-0.014,0.136
		c-0.345,3.108,0.047,8.727,0.047,8.727S74.602,111,71.407,111z M97,131.407c0-0.34-0.012-0.663-0.048-0.997
		c-0.057-0.51-0.095-1.025-0.129-1.521c-0.021-0.309-0.007-0.602-0.02-0.905c-0.023-0.508-0.045-1.021-0.046-1.513
		c0-0.283,0.02-0.549,0.025-0.827c0.01-0.493,0.018-0.989,0.047-1.464c0.016-0.26,0.047-0.505,0.068-0.76
		c0.04-0.471,0.077-0.944,0.133-1.396c0.03-0.24,0.071-0.465,0.104-0.699c0.065-0.447,0.128-0.894,0.207-1.32
		c0.04-0.218,0.088-0.421,0.131-0.634c0.086-0.421,0.172-0.842,0.269-1.241c0.048-0.197,0.101-0.381,0.151-0.572
		c0.103-0.393,0.206-0.784,0.317-1.154c0.052-0.175,0.108-0.337,0.162-0.507c0.116-0.364,0.231-0.725,0.352-1.064
		c0.054-0.153,0.11-0.294,0.165-0.442c0.124-0.334,0.248-0.662,0.374-0.969c0.054-0.131,0.107-0.251,0.161-0.378
		c0.128-0.301,0.254-0.594,0.38-0.866c0.051-0.11,0.1-0.21,0.15-0.316c0.126-0.266,0.25-0.522,0.371-0.758
		c0.045-0.088,0.088-0.168,0.132-0.252c0.121-0.229,0.237-0.447,0.348-0.643c0.037-0.066,0.072-0.126,0.108-0.189
		c0.111-0.193,0.214-0.371,0.31-0.526c0.026-0.043,0.05-0.082,0.075-0.121c0.097-0.156,0.181-0.29,0.255-0.402
		c0.014-0.021,0.027-0.041,0.041-0.061c0.118-0.177,0.212-0.311,0.243-0.354c-0.325,0.26-0.964,0.929-1.736,1.915
		c-0.041,0.053-0.085,0.113-0.127,0.167c-0.113,0.146-0.226,0.293-0.344,0.453c-0.105,0.143-0.215,0.298-0.324,0.452
		c-0.058,0.082-0.115,0.158-0.174,0.243c-0.146,0.21-0.295,0.433-0.445,0.66c-0.024,0.036-0.047,0.069-0.071,0.105
		c-1.399,2.143-2.868,4.963-3.658,8.075c-1.101,4.335-1.144,6.29-1.095,7.69c0.015,0.426,0.137,0.803,0.137,1.177
		c0,0.001,0,0.001,0,0.002c-1-0.299-1.003-0.628-1.558-0.991c-4.545-2.977-12.696-8.341-13.116-20.014
		c-0.049-1.314-0.076-2.592-0.059-3.838c0.062-4.488,0.538-8.479,1.425-11.519c0-0.002-0.003-0.006-0.002-0.008
		c-0.123,0.151-0.27,0.324-0.409,0.492c-0.071,0.085-0.137,0.164-0.208,0.249c-2.22,2.671-4.494,4.846-6.804,6.64
		c-8.087,6.28-16.635,7.779-24.996,8.555c-3.269,0.303-6.51,0.498-9.682,0.826c-1.869,0.188-8.542,1.504-11.063,2.034
		C27.344,111.956,27.176,112,27.04,112c-0.001,0-0.003,0-0.004,0c3.545-4,8.975-8.854,13.778-12.774
		c1.767-1.443,3.452-2.722,4.924-3.726c4.142-2.827,9.48-5.697,14.443-8.151c0.045-0.022,0.091-0.042,0.137-0.065
		c0.305-0.15,0.607-0.297,0.909-0.444c0.113-0.055,0.226-0.109,0.339-0.164c0.233-0.113,0.464-0.225,0.694-0.335
		c0.19-0.092,0.379-0.182,0.568-0.272c0.145-0.069,0.288-0.138,0.431-0.206c0.284-0.135,0.564-0.268,0.843-0.399
		c0.049-0.023,0.098-0.046,0.147-0.069c5.514-2.595,9.869-4.403,10.395-4.618c-0.005,0.003-0.01,0.006-0.015,0.009
		c-2.55,1.414-4.946,3.092-7.044,4.738c-0.02,0.016-0.041,0.031-0.06,0.046c-0.191,0.15-0.37,0.297-0.555,0.446
		c-4.311,3.463-7.21,6.638-7.291,6.727c-0.001,0.001-0.012,0.013-0.012,0.013c5.008-3.395,22.122-13.29,23.181-13.902
		c-3.982,3.797-13.885,12.569-21.8,18.573c-1.734,1.316-3.376,2.503-4.836,3.471c-0.005,0.003-0.012,0.008-0.017,0.012
		c3.388-1.599,6.601-3.354,9.563-5.146c6.1-3.691,11.12-7.545,14.299-10.555c1.538-1.452,3.277-2.889,5.079-4.26
		c5.122-3.897,10.752-7.248,13.726-8.785c1.221,1.207,2.788,2.114,4.41,3.056c0.009,0.006,0.018-0.217,0.027-0.217
		c0,0,0.001,0,0.002,0c0.979,1,1.977,1.297,2.931,1.69c-5.964,4.2-10.19,6.94-12.461,11.877c-0.325,0.706-0.609,1.517-0.853,2.328
		c0,0,0.004,0.024,0.004,0.024c0.045-0.058,5.021-6.402,12.176-10.31c0.448-0.242,0.912-0.502,1.382-0.782
		c0.948-0.563,1.932-1.188,2.938-1.88c0.111,0.026,0.25,0.053,0.378,0.078c0.421,0.084,0.916,0.165,1.463,0.238
		c1.7,0.229,3.792,0.393,5,0.393l0.232-0.102l0.188-0.083c-0.004,0.003-0.011,0.007-0.015,0.01
		c-0.285,0.211-0.956,0.598-1.238,0.805c-1.045,0.768-2.083,1.488-3.11,2.181c-4.842,3.264-9.436,5.822-13.305,8.834
		c-0.022,0.018-0.046,0.035-0.069,0.053c-0.258,0.202-0.511,0.408-0.763,0.615c-0.076,0.062-0.155,0.124-0.231,0.187
		c-0.209,0.175-0.413,0.354-0.618,0.533c-0.113,0.099-0.23,0.195-0.341,0.295c-0.17,0.152-0.333,0.309-0.499,0.464
		c-0.141,0.131-0.285,0.26-0.423,0.394c-0.144,0.139-0.281,0.284-0.422,0.426c-0.154,0.155-0.31,0.308-0.46,0.466
		c-0.125,0.133-0.245,0.272-0.369,0.408c-0.158,0.174-0.319,0.346-0.473,0.524c-0.11,0.128-0.214,0.262-0.322,0.393
		c-0.16,0.193-0.322,0.385-0.477,0.583c-0.098,0.126-0.189,0.258-0.285,0.387c-0.158,0.211-0.317,0.42-0.469,0.638
		c-0.091,0.131-0.175,0.269-0.264,0.402c-0.149,0.224-0.3,0.445-0.443,0.676c-0.084,0.137-0.163,0.282-0.246,0.422
		c-0.14,0.236-0.281,0.47-0.414,0.715c-0.079,0.145-0.151,0.298-0.228,0.446c-0.129,0.249-0.26,0.495-0.382,0.752
		c-0.075,0.158-0.143,0.325-0.215,0.487c-0.116,0.258-0.234,0.513-0.343,0.78c-0.068,0.168-0.13,0.346-0.195,0.517
		c-0.104,0.271-0.211,0.54-0.309,0.82c-0.063,0.182-0.119,0.375-0.179,0.561c-0.091,0.283-0.186,0.562-0.271,0.855
		c-0.055,0.188-0.101,0.388-0.153,0.581c-0.081,0.303-0.165,0.602-0.238,0.915c-0.048,0.203-0.087,0.417-0.132,0.625
		c-0.068,0.317-0.14,0.63-0.201,0.958c-0.038,0.205-0.067,0.421-0.103,0.63c-0.058,0.346-0.119,0.688-0.169,1.046
		c-0.027,0.199-0.047,0.409-0.072,0.611c-0.048,0.383-0.097,0.762-0.136,1.159c-0.019,0.199-0.031,0.41-0.047,0.613
		c-0.033,0.396-0.069,0.788-0.093,1.198c0.001-0.007-0.24-0.019-0.239-0.026c0.1-0.644,1.282-4.108,2.282-8.21c0,0,0-0.001,0-0.001
		c1-0.258,0.48-0.519,0.607-0.781c0.014-0.03,0.151-0.06,0.166-0.09c0.113-0.235,0.292-0.471,0.414-0.708
		c0.025-0.048,0.082-0.097,0.106-0.146c0.115-0.221,0.248-0.441,0.371-0.664c0.034-0.062,0.076-0.123,0.111-0.185
		c0.117-0.209,0.241-0.418,0.365-0.628c0.042-0.072,0.088-0.145,0.132-0.218c0.121-0.2,0.245-0.4,0.373-0.6
		c0.05-0.08,0.102-0.16,0.154-0.239c0.125-0.193,0.255-0.386,0.386-0.579c0.058-0.084,0.116-0.169,0.175-0.253
		c0.131-0.188,0.266-0.374,0.403-0.561c0.064-0.087,0.128-0.175,0.194-0.262c0.138-0.183,0.281-0.365,0.425-0.546
		c0.07-0.088,0.139-0.176,0.21-0.263c0.147-0.18,0.298-0.357,0.451-0.535c0.076-0.087,0.15-0.175,0.227-0.261
		c0.155-0.175,0.315-0.348,0.477-0.521c0.081-0.086,0.16-0.173,0.242-0.259c0.166-0.172,0.338-0.341,0.511-0.511
		c0.083-0.082,0.166-0.165,0.251-0.247c0.181-0.171,0.367-0.339,0.555-0.507c0.084-0.075,0.166-0.152,0.251-0.227
		c0.201-0.175,0.41-0.345,0.62-0.515c0.078-0.063,0.152-0.128,0.231-0.19c0.236-0.187,0.48-0.367,0.727-0.547
		c0.059-0.042,0.114-0.087,0.173-0.129c0.311-0.222,0.628-0.438,0.956-0.647c5.984-3.832,16.717-8.936,23.913-16.273
		c5.504-2.52,8.976-6.832,10.766-12.825c0.017-0.051,0.034-0.126,0.042-0.186l0,0.236C136.767,63.16,138.54,63,140.396,63
		c0,0,0.001,0,0.002,0c-0.146,1-0.429,3.166-0.939,5.187c-0.222,0.879-0.482,1.661-0.801,2.57c-0.925,2.896-2.318,5.972-4.442,9.241
		c-0.828,1.275-1.757,2.539-2.829,3.85c-1.882,2.298-3.873,4.345-5.946,6.36c-4.684,4.553-9.795,8.867-15.083,15.091
		c-0.92,1.083-1.844,2.208-2.773,3.419c-0.822,1.069-1.582,2.139-2.285,3.202c-5.061,7.652-7.207,14.884-7.924,17.949
		c-0.23,0.985-0.375,1.54-0.375,1.54C97,131.408,97,131.408,97,131.407z M182.215,84.315c-0.112,0.418-0.3,0.697-0.537,0.873
		c-0.154,0.114-0.329,0.185-0.519,0.22c-0.288,0.052-0.608,0.021-0.938-0.06c-0.823-0.21-5.126-0.789-9.809,0.068
		c-0.22-0.758-0.576-2.367-0.034-3.416c0.077-0.148,0.171-0.287,0.288-0.409c0.448-0.467,1.05-0.744,1.677-0.901
		c0.008-0.002,0.015-0.005,0.023-0.007c0.182-0.045,0.365-0.075,0.547-0.101c0.032-0.005,0.063-0.013,0.095-0.017
		c0.175-0.022,0.346-0.033,0.516-0.042c0.037-0.002,0.075-0.007,0.111-0.008c0.165-0.006,0.321-0.003,0.474,0.001
		c0.035,0.001,0.074,0,0.109,0.001c0.146,0.006,0.279,0.019,0.408,0.031c0.033,0.003,0.071,0.004,0.103,0.008
		c0.107,0.012,0.194,0.027,0.283,0.042c0.037,0.006,0.084,0.011,0.118,0.018c-0.107-0.05-0.601-0.271-1.264-0.483
		c-0.044-0.014-0.092-0.027-0.137-0.041c-0.119-0.037-0.24-0.072-0.367-0.106c-0.13-0.035-0.265-0.065-0.4-0.095
		c-0.059-0.013-0.116-0.028-0.175-0.04c-0.417-0.084-0.85-0.142-1.271-0.142c-1.697,0-3.127,1.16-3.614,2.429
		c-0.361,0.949,0.1,2.896,0.1,3.84c0,0,0,0.001,0,0.002c-4,1.049-8.185,3.326-12.707,7.237c-1.924,1.664-3.807,3.618-5.591,5.907
		c-1.767,2.269-3.15,4.691-4.243,7.016c-2.915,6.198-3.686,11.694-3.686,11.694s-6.841,1.346-10.378-3.908
		c-1.33-1.975-2.133-4.04-2.621-5.998c-1.253-5.033-0.336-9.326-0.336-9.326s-2.816,1.329-5.037,0.748
		c-0.379-0.098-0.703-0.271-0.983-0.492c-0.008-0.007-0.019-0.011-0.027-0.018c-0.143-0.115-0.273-0.243-0.393-0.38
		c-0.004-0.004-0.006-0.01-0.01-0.014c-0.114-0.133-0.219-0.273-0.313-0.421c-0.001-0.001-0.001-0.002-0.002-0.003
		c1.145-1.015,2.312-2.014,3.493-3.037c2.642-2.29,5.354-4.715,8.054-7.805c0.389,0.086,0.768,0.173,1.137,0.261
		c0.759,0.18,1.465,0.358,2.084,0.524c0.643,0.172,1.196,0.33,1.604,0.457c1.842,0.561,3.739,1.966,4.66,3.592
		c0.171,0.303,0.306,0.61,0.402,0.924c0.598,1.978,0.893,8.633,0.893,8.786c0,0.002,0,0.014,0,0.014c1-1.875,0.82-3.368,1.041-4.586
		c0.337-1.856,0.447-3.057,0.519-3.869c0.088-0.925,0.029-2.843-0.867-4.712c-0.391-0.816-0.923-1.623-1.699-2.333
		c-0.851-0.772-2.647-1.51-4.271-2.163c-1.023-0.412-1.976-0.791-2.578-1.123c0.001-0.001,0.001-0.002,0.002-0.003
		c5.923-8.161,7.553-20.665,7.553-20.665c-0.008-0.118-0.008-0.236-0.008-0.354c0.569-0.062,0.938-0.118,0.997-0.18
		c0.004-0.004,0.019-0.008,0.02-0.012c0.115-0.006,0.267-0.018,0.438-0.033c0.439-0.038,1.034-0.098,1.685-0.167
		c1.494-0.156,3.251-0.346,3.921-0.356l0,0c0,0.001-0.958,2.841-0.757,5.764c0.06,0.87,0.218,1.746,0.54,2.558
		c0,0,3.605-2.43,8.766-2.06c4.221,0.303,10.521,2.036,14.607,1.882c0.902-0.034,1.699-0.157,2.339-0.41
		c0,0,0.986,1.939,1.396,3.993c0.144,0.721,0.356,1.456,0.356,2.126c0,0.007,0,0.014,0,0.021c0,2.561,0.601,4.327,1.556,5.055
		c0.958,0.74,1.846,0.892,2.434,1.329C182.579,81.885,182.509,83.213,182.215,84.315z M180,101.007c0,0.001,0,0.002,0,0.003
		c0,2.137-0.86,5.468-1.543,7.396c-0.324,0.917-0.567,1.521-0.567,1.521s3.096-0.177,4.912,0.544
		c1.824,0.733,2.859,1.396,3.523,5.162c0.056,0.32,0.086,0.602,0.105,0.868c0.05,0.713-0.02,1.251-0.179,1.643
		c-0.432,1.066-1.467,1.112-2.188,1.082c-0.079-0.003-0.155-0.007-0.226-0.011c-0.877-0.051-3.174-0.073-6.663-0.416
		c-0.625-0.062-1.276-0.043-1.978-0.127c-4.607-0.539-12.825-0.671-12.851-0.671h-0.002C166.279,107,180,101.007,180,101.007z
		 M179.76,120.987c2.597,0.074,4.993-0.118,4.993-0.118c-0.002,0.002-0.006,0.003-0.009,0.005c-0.771,0.606-2.819,0.533-3.967,0.685
		c-0.335,0.046-1.188,0.1-2.423,0.182c-2.214,0.148-5.686,0.393-9.814,0.88c-1.485,0.175-3.052,0.382-4.674,0.626
		c-0.389,0.059-0.81,0.133-1.215,0.199c-0.543,0.089-1.087,0.179-1.655,0.281c-0.712,0.127-1.432,0.259-2.172,0.404
		c0.07-0.189,0.139-0.354,0.208-0.531c0.217-0.555,0.434-1.063,0.658-1.52c0.261-0.535,0.532-1.022,0.832-1.489
		c0.009,0,0.026-0.002,0.042-0.005c0.012-0.002,0.023-0.004,0.034-0.004C166.942,120.583,177.155,120.912,179.76,120.987z"/>
	<path fill="#FFFFFF" d="M131.408,136h9.056c-0.087-1.368-0.198-2.688-0.267-4.061C136.97,133.195,133.999,134.619,131.408,136z"/>
	<path fill="#FFFFFF" d="M179.002,127.107c2.053-0.202,3.674-0.363,4.742-0.531c2.8-0.412,8.01-1.191,8.338-6.134
		c0.109-1.574-0.126-3.977-0.724-7.566c-0.529-3.201-3.429-6-5.691-6.505c-0.158-0.033-0.369-0.076-0.595-0.133
		c0.589-2.12,0.874-3.811,1.016-4.995c1.303-0.595,2.826-1.218,3.481-1.479l2.228-0.898l-0.447-2.354
		c-0.915-4.858-3.461-8.875-4.916-10.86c0.521-1.656,0.832-2.73,0.832-3.646c0-1.867-1.496-3.774-4.438-5.666
		c-0.235-0.15-0.504-0.581-0.504-2.604c0-0.035-0.035-1.935-0.529-3.867c1.598-1.084,3.597-2.867,4.582-5.64
		c0.982-2.79,1.353-5.262,1.496-6.7c0.074-0.781-0.036-2.655-0.036-2.655l-0.301-3.614c0,0-1.815,1.445-2.823,2.218
		c-0.27,0.202-0.47,0.353-0.581,0.42c-0.143,0.11-0.303,0.21-0.454,0.303c-0.74,0.445-1.563,0.798-1.917,0.983
		c-0.791,0.43-1.991,0.883-3.312,1.252c-1.9-9.826-8.859-27.014-25.687-42.178C145.624,7.824,136.847,3.246,128.412,0h-9.101
		c10.354,3.119,22.414,8.219,31.52,16.425c19.735,17.786,24.619,37.413,25.191,43.498c0,0,7.177-1.102,9.009-3.774
		c0,0-0.033,3.169-1.413,7.068c-1.378,3.909-5.816,5.313-5.471,5.423c0.345,0.117,1.262,2.875,1.262,5.051
		c0,2.185,0.225,4.019,1.832,5.052c1.606,1.034,3.102,2.404,3.102,3.21c0,0.808-0.806,2.983-1.15,4.245
		c0,0,4.133,4.708,5.276,10.794c0,0-3.437,1.376-5.161,2.293c0,0,0,3.447-1.949,8.952c0,0,2.639,0.688,3.673,0.916
		c1.034,0.229,3.103,2.069,3.437,4.127c0.344,2.068,0.808,5.17,0.69,6.894c-0.109,1.723-1.26,2.747-5.851,3.438
		c-3.463,0.521-13.895,1.109-25.316,3.328c-0.564,2.061-1.476,5.438-2.581,9.062h3.063c0.72-2.406,1.347-4.658,1.837-6.448
		C167.633,128.225,174.405,127.56,179.002,127.107z"/>
	<path fill="#FFFFFF" d="M85.729,126.871c-1.487-1.168-7.169-6.363-8.741-14.449c0,0-4.371,1.329-8.55,0.404
		c-3.682-0.808-6.766-2.455-6.766-2.455s-7.901,1.336-15.701,1.791c-7.224,0.425-30.376,3.617-45.973,14.097V128
		c0,0.542,0.055,1.072,0.158,1.584c0.297-0.178,0.603-0.374,0.728-0.469c11.381-8.708,37.521-13.516,45.154-13.961
		c6.396-0.379,12.741-1.312,15.095-1.682c1.278,0.606,3.773,1.658,6.589,2.277c1.195,0.262,2.48,0.396,3.833,0.396
		c1.176,0,2.278-0.101,3.22-0.235c1.95,6.161,5.833,10.388,7.85,12.28c-0.067,1.971,0.083,4.858,0.651,7.809h3.08
		C85.558,132.267,85.482,128.425,85.729,126.871z"/>
	<path fill="#FFFFFF" d="M67.574,19.141c5.833,3.277,11.323,3.487,17.224,2.933l-0.926-0.917c-0.092-0.084-0.192-0.176-0.294-0.261
		c-2.85-2.539-7.101-6.951-9.673-12.523C72.759,5.895,72.069,3.029,71.629,0h-3.032c0.472,3.426,1.249,6.714,2.575,9.591
		c1.312,2.833,3,5.38,4.765,7.59c0.177,0.219,0.849,0.925,0.967,1.067c0.302,0.354,0.613,0.707,0.917,1.043
		c-3.253-0.277-6.044-1.135-8.817-2.689l-0.117-0.068C62.684,13.409,57.539,7.237,54.718,0h-3.112
		C54.593,8.349,60.449,15.552,67.574,19.141z"/>
	<path fill="#FFFFFF" d="M10.83,111.978c0.404-0.429,0.807-0.859,1.21-1.278c1.665-1.766,3.421-3.539,5.296-5.346
		c9.985-9.565,20.188-16.576,29.594-21.727c8.406-4.81,16.382-8.39,23.435-11.045c-0.009-0.092-0.017-0.152-0.017-0.152
		s-0.857-6.194,1.471-20.895c0.11-0.665,0.261-1.354,0.42-2.068C37.769,38.968,36.794,5.633,36.853,0.547
		C36.856,0.47,36.85,0.24,36.842,0h-2.92c0.002,0.078,0.004,0.155,0.006,0.229l0.008,0.285c-0.042,4.019,0.572,38.841,34.942,50.92
		l0.024,0.009l-0.11,0.042c-1.563,10.011-1.672,16.18-1.571,19.189c-7.457,2.925-14.794,6.438-21.795,10.447
		c-10.961,6.002-21.13,13.475-30.233,22.199c-1.841,1.773-3.606,3.548-5.389,5.43c-0.42,0.438-0.832,0.875-1.193,1.27l-0.118,0.125
		C5.444,113.427,2.615,116.81,0,120.24v4.998c2.734-3.854,6.272-8.351,10.754-13.176C10.78,112.036,10.814,112.009,10.83,111.978z"
		/>
	<path fill="#FFFFFF" d="M95.48,4.128C96.147,2.874,96.586,1.391,96.88,0h-3.063c-0.018,0.072-0.033,0.149-0.052,0.22
		C93.647,0.147,93.542,0.073,93.426,0h-4.987c2.097,1.679,4.506,3.175,6.855,4.448C95.362,4.339,95.431,4.221,95.48,4.128z"/>
</g>
</svg>
