<?xml version="1.0" encoding="utf-8"?>
<!-- Generator: Adobe Illustrator 16.0.3, SVG Export Plug-In . SVG Version: 6.00 Build 0)  -->
<!DOCTYPE svg PUBLIC "-//W3C//DTD SVG 1.1//EN" "http://www.w3.org/Graphics/SVG/1.1/DTD/svg11.dtd">
<svg version="1.1" id="PILLS" xmlns="http://www.w3.org/2000/svg" xmlns:xlink="http://www.w3.org/1999/xlink" x="0px" y="0px"
	 width="200px" height="136px" viewBox="0 0 200 136" enable-background="new 0 0 200 136" xml:space="preserve">
<path fill="#1C1C1C" d="M200,128c0,4.418-3.582,8-8,8H8c-4.418,0-8-3.582-8-8V8c0-4.418,3.582-8,8-8h184c4.418,0,8,3.582,8,8V128z"
	/>
<g>
	<path fill="none" d="M179.816,114.098c0,0-10.793,2.992-10.779,3.074l-2.665-10.881c-0.41-1.555-4.331-15.175-16.606-14.898
		c-8.516,0.193-15.562,7.738-19.088,12.606c1.15,3.446,1.771,7.567,1.196,12.008l4.792-6.416l8.708,6.255
		C150.43,119.594,156.971,127,159.104,136H192c4.418,0,8-3.182,8-7.602v-28.334C195.255,106.775,188.268,111.759,179.816,114.098z"
		/>
	<path fill="none" d="M54.715,115.96l8.694-6.381l4.805,6.462c-0.58-4.441,0.028-8.542,1.169-11.982
		c-3.535-4.865-10.6-12.379-19.115-12.554c-12.271-0.249-16.169,13.386-16.552,14.863l-2.642,10.889l-10.808-2.967
		C11.783,111.958,4.764,106.966,0,100.229V128.4c0,4.418,3.582,7.6,8,7.6h33.07C43.213,127,49.691,119.702,54.715,115.96z"/>
	<path fill="none" d="M15.435,42.047C34.587,30.862,53.467,33.403,67.8,39.75c0.617-4.713,1.841-9.882,3.871-15.939
		C74.506,15.357,77.598,7.245,80.379,0H8C3.582,0,0,3.582,0,8v48.403C3.754,50.758,8.973,45.826,15.435,42.047z"/>
	<path fill="none" d="M132.113,39.663c14.316-6.379,33.191-8.957,52.367,2.187c6.5,3.779,11.748,8.726,15.521,14.392V8
		c0-4.418-3.582-8-8-8h-72.538c2.794,7.229,5.898,15.31,8.744,23.746C130.254,29.79,131.484,34.954,132.113,39.663z"/>
	<path d="M145.374,115.846l-8.708-6.354l-4.792,6.466c0.576-4.441-0.045-8.536-1.196-11.982
		c3.525-4.869,10.572-12.401,19.088-12.595c12.275-0.276,16.196,13.351,16.606,14.905l2.665,10.885
		c-0.016-0.082,10.779-3.074,10.779-3.074c8.451-2.338,15.438-7.32,20.184-14.031V56.241c-3.771-5.667-9.02-10.613-15.521-14.392
		c-19.176-11.143-38.051-8.566-52.365-2.187c-0.631-4.708-1.859-9.873-3.908-15.917C125.361,15.31,122.257,7.229,119.462,0h-7.933
		c0.164,0.422,0.326,0.844,0.492,1.271c2.905,7.507,6.201,16.013,9.18,24.833c2.867,8.482,4.018,14.912,4.018,20.877
		c0,1.841-0.207,3.632-0.408,5.436c10.898-7.53,32.422-17.863,55.955-4.179c13.059,7.595,20.09,20.67,18.359,34.13
		c-1.542,11.971-9.697,21.401-21.283,24.614l-3.443,0.943l-0.864-3.461c-0.212-0.852-5.427-20.873-23.938-20.458
		c-14.891,0.331-24.598,14.847-27.222,19.304c1.265,2.319,2.315,5.521,2.315,9.205c0,3.916-1.33,8.368-4.713,12.838
		c1.361,1.836,3.594,4.086,6.189,4.297c3.71,0.3,7.457-3.617,9.941-6.949l2.076-2.785l2.791,1.867
		c3.474,2.576,8.308,8.218,10.369,14.218h7.758C156.971,127,150.43,119.594,145.374,115.846z"/>
	<path d="M59.138,121.889l2.78-1.977l2.085,2.826c2.49,3.332,6.242,7.26,9.951,6.957c2.596-0.217,4.824-2.465,6.187-4.305
		c-3.411-4.479-4.746-8.938-4.746-12.865c0-3.662,1.036-6.85,2.288-9.164c-2.628-4.45-12.368-18.935-27.267-19.233
		c-18.507-0.373-23.676,19.659-23.888,20.511l-0.856,3.475l-3.443-0.942C10.635,103.986,2.456,94.568,0.886,82.602
		c-1.763-13.455,5.243-26.544,18.286-34.17c23.483-13.726,45.015-3.466,55.946,4.036c-0.226-1.854-0.441-3.7-0.441-5.587
		c0-5.901,1.159-12.229,4.004-20.717c2.96-8.837,6.237-17.357,9.127-24.878c0.166-0.432,0.33-0.858,0.494-1.285H80.38
		c-2.782,7.245-5.874,15.357-8.708,23.811c-2.03,6.058-3.254,11.226-3.871,15.939c-14.333-6.347-33.213-8.888-52.365,2.297
		C8.973,45.826,3.754,50.758,0,56.403v43.826c4.764,6.737,11.783,11.731,20.268,14.062l10.808,2.968l2.642-10.885
		c0.382-1.478,4.281-15.106,16.552-14.856c8.515,0.174,15.58,7.7,19.115,12.564c-1.141,3.441-1.749,7.566-1.169,12.008l-4.805-6.412
		l-8.694,6.281C49.691,119.702,43.213,127,41.07,136h7.761C50.904,130,55.692,124.456,59.138,121.889z"/>
	<path fill="#FFFFFF" d="M61.213,124.678c13.91,18.562,23.175,0.436,23.175,0.436c-10.591-11.387-2.688-21.651-2.688-21.651
		C81.005,101.4,69.249,81.003,50.489,80.63c-21.619-0.442-27.34,23.172-27.34,23.172C0.467,97.57-3.988,65.993,20.926,51.43
		c31.611-18.476,59.251,9.499,59.251,9.499c-2.578-10.484-3.332-18.327,1.804-33.663C85.246,17.515,88.863,8.25,92.028,0h-3.727
		c-0.164,0.427-0.328,0.853-0.494,1.285c-2.891,7.521-6.167,16.041-9.127,24.878c-2.845,8.487-4.004,14.815-4.004,20.717
		c0,1.887,0.216,3.733,0.441,5.587c-10.932-7.502-32.463-17.762-55.946-4.036C6.128,56.057-0.877,69.146,0.886,82.602
		c1.569,11.967,9.749,21.385,21.343,24.569l3.443,0.943l0.856-3.476c0.212-0.852,5.381-20.882,23.888-20.51
		c14.899,0.299,24.638,14.785,27.267,19.235c-1.252,2.315-2.288,5.505-2.288,9.168c0,3.927,1.335,8.391,4.746,12.87
		c-1.363,1.841-3.59,4.101-6.187,4.316c-3.709,0.303-7.461-3.6-9.951-6.932l-2.085-2.775l-2.78,1.875
		C55.692,124.456,50.904,130,48.831,136h3.634C55.115,130,61.213,124.678,61.213,124.678z"/>
	<path fill="#FFFFFF" d="M140.975,121.782l-2.789-1.968l-2.076,2.836c-2.485,3.332-6.231,7.273-9.942,6.975
		c-2.597-0.212-4.828-2.45-6.19-4.286c3.383-4.47,4.715-8.915,4.715-12.831c0-3.683-1.051-6.882-2.316-9.201
		c2.624-4.457,12.331-18.972,27.221-19.303c18.512-0.414,23.728,19.607,23.939,20.459l0.865,3.462l3.442-0.942
		c11.585-3.213,19.741-12.646,21.283-24.615c1.731-13.459-5.301-26.535-18.36-34.13c-23.533-13.684-45.056-3.351-55.955,4.179
		c0.203-1.804,0.41-3.595,0.41-5.436c0-5.965-1.15-12.395-4.019-20.877c-2.978-8.819-6.272-17.325-9.179-24.833
		c-0.166-0.427-0.328-0.849-0.492-1.271h-3.729c3.183,8.235,6.817,17.483,10.104,27.217c5.173,15.327,4.445,23.17,1.878,33.664
		c0,0,27.579-28.039,59.231-9.633c24.946,14.498,20.565,46.101-2.104,52.383c0,0-5.771-23.588-27.393-23.101
		c-18.756,0.419-30.47,20.869-31.16,22.936c0,0,7.926,10.292-2.637,21.707c0,0,9.307,17.999,23.174-0.597
		c0,0,6.179,4.424,8.819,11.424h3.627C149.282,130,144.448,124.359,140.975,121.782z"/>
	<path d="M89.916,124.434c-11.24-9.551-3.157-20.865-3.157-20.865c-0.746-9.385-18.434-28.275-36.09-28.238
		c-24.008,0.046-30.976,21.699-30.976,21.699c-23.801-17.311-2.356-46.613,23.4-46.64c25.762-0.032,46.952,29.173,46.952,29.173
		c-0.925-4.777-11.99-26.288-2.085-52.053C92.853,14.782,95.818,5.82,97.568,0h-5.54c-3.166,8.25-6.782,17.517-10.047,27.267
		c-5.136,15.336-4.382,23.18-1.804,33.665c0,0-27.64-27.971-59.251-9.495C-3.988,66,0.467,97.583,23.149,103.814
		c0,0,5.721-23.603,27.34-23.16c18.76,0.373,30.516,20.795,31.211,22.857c0,0-7.903,10.313,2.688,21.701
		c0,0-9.265,18.027-23.175-0.535c0,0-6.098,5.322-8.749,11.322h5.609c1.324-2,2.868-4.622,2.868-4.622
		c1.886,2.062,3.713,3.622,5.471,4.622h13.483C86.146,132,89.916,124.434,89.916,124.434z"/>
	<path d="M138.898,124.576c-13.869,18.596-23.176,0.497-23.176,0.497c10.563-11.416,2.639-21.657,2.639-21.657
		c0.689-2.066,12.404-22.492,31.16-22.911c21.619-0.487,27.392,23.113,27.392,23.113c22.668-6.282,27.05-37.878,2.103-52.376
		c-31.652-18.406-59.23,9.636-59.23,9.636c2.568-10.494,3.295-18.335-1.878-33.663C114.62,17.481,110.984,8.235,107.803,0h-5.541
		c1.764,5.817,4.747,14.771,9.666,27.474c9.965,25.744-1.044,47.28-1.96,52.067c0,0,21.122-29.255,46.878-29.283
		c25.756-0.032,47.274,29.241,23.51,46.607c0,0-7.014-21.605-31.026-21.605c-17.66,0.006-35.302,18.991-36.024,28.371
		c0,0,8.109,11.192-3.098,20.771c0,0,3.822,7.598,10.134,11.598h13.234c1.801-1,3.675-2.598,5.61-4.725c0,0,1.59,2.725,2.932,4.725
		h5.602C145.076,129,138.898,124.576,138.898,124.576z"/>
	<path fill="#9F8958" d="M110.206,124.402c11.208-9.579,3.097-20.873,3.097-20.873c0.723-9.379,18.365-28.315,36.025-28.32
		c24.013,0,31.027,21.63,31.027,21.63c23.764-17.366,2.246-46.627-23.51-46.595c-25.758,0.028-46.879,29.29-46.879,29.29
		c0.916-4.787,11.926-26.32,1.961-52.063c-4.92-12.703-7.904-21.654-9.666-27.471h-4.693c-1.75,5.82-4.716,14.785-9.608,27.512
		c-9.905,25.766,1.16,47.279,2.085,52.056c0,0-21.19-29.198-46.952-29.167c-25.757,0.027-47.201,29.342-23.4,46.654
		c0,0,6.968-21.63,30.976-21.676c17.656-0.037,35.345,18.903,36.09,28.289c0,0-8.083,11.215,3.157,20.766
		c0,0-3.771,7.566-10.021,11.566h40.444C114.027,132,110.206,124.402,110.206,124.402z"/>
	<path fill="#9F8958" d="M133.573,136h8.542c-1.342-2-2.932-4.725-2.932-4.725C137.248,133.402,135.375,135,133.573,136z"/>
	<path fill="#9F8958" d="M60.941,131.378c0,0-1.544,2.622-2.868,4.622h8.338C64.654,135,62.828,133.438,60.941,131.378z"/>
</g>
</svg>
