<?xml version="1.0" encoding="utf-8"?>
<!-- Generator: Adobe Illustrator 16.0.3, SVG Export Plug-In . SVG Version: 6.00 Build 0)  -->
<!DOCTYPE svg PUBLIC "-//W3C//DTD SVG 1.1//EN" "http://www.w3.org/Graphics/SVG/1.1/DTD/svg11.dtd">
<svg version="1.1" id="PILLS" xmlns="http://www.w3.org/2000/svg" xmlns:xlink="http://www.w3.org/1999/xlink" x="0px" y="0px"
	 width="200px" height="136px" viewBox="0 0 200 136" enable-background="new 0 0 200 136" xml:space="preserve">
<path fill="#003D7E" d="M200,128c0,4.418-3.582,8-8,8H8c-4.418,0-8-3.582-8-8V8c0-4.418,3.582-8,8-8h184c4.418,0,8,3.582,8,8V128z"
	/>
<g>
	<path fill="none" d="M193.711,0.188l0.077,113.069c0.004,0.243,0.007,6.011,0.007,6.246c0,7.923-2.611,13.497-5.839,16.497H192
		c4.418,0,8-3.182,8-7.602V8C200,4.169,197.307,0.972,193.711,0.188z"/>
	<path fill="none" d="M154.709,114.417c3.637-0.087,5.824-1.271,6.866-3.522c0.413-1.184,0.425-2.131,0.425-3.651v-4.304v-2.067
		c-2,1.429-5.834,2.626-5.834,2.626c-8.225,2.904-23.341,0.625-29.621-4.34C120.305,95.616,115,88.055,115,79.794V62.591v-0.007
		V43.866V29.607c0-2.152-1.863-3.607-4.016-3.607H103V0h43.357l-0.043,68.527c-0.014,4.094,3.645,7.402,7.969,7.402
		c1.5,0,2.898-0.397,4.098-1.082c2.064-1.19,3.521-3.236,3.82-5.629c0.027-0.302-0.114-0.607-0.098-0.914
		c0.041-0.773-0.104-1.565-0.104-2.358V0h30.835c-0.274,0-0.553,0-0.835,0H79.751c6.103,1.668,10.672,4.594,14.284,9.861
		c1.772,2.586,2.882,5.205,3.326,7.235C97.624,18.277,98,19.266,98,19.918v22.244l-0.01,5.891c0,0,0.01,1.402,0.01,3.671v18.717
		c0,0.935-0.003,1.865-0.01,2.77c0,0.061,0.01,0.109,0.01,0.165v0.538C98,76.068,99.294,78,101.449,78h6.662l0.89-0.188V102H79.948
		c-5.692,0-10.38-3.35-12.256-8.393C67.157,92.171,67,90.872,67,89.245V33.592c0-4.008-3.66-7.108-7.871-7.108
		c-4.271,0-7.883,3.517-7.883,7.517h-0.003L51,34.473V103H20V29.682C20,27.529,18.83,26,16.677,26H6.205L6.214,0.315
		C2.657,1.128,0,4.196,0,8v120.398C0,132.818,3.582,136,8,136h12.559l0.002-21.785L154.709,114.417z"/>
	<path fill="none" d="M51,4.942C54,2.692,57.667,1.025,61.454,0H8C7.718,0,7.439,0,7.165,0H51V4.942z"/>
	<path fill="#C9243F" d="M193.788,113.257L193.711,0.166C193.424,0.104,193.133,0,192.835,0H162v65.946
		c0,0.793,0.145,1.587,0.104,2.36c-0.018,0.307,0.045,0.612,0.019,0.915c-0.299,2.395-1.715,4.44-3.78,5.631
		c-1.199,0.687-2.578,1.09-4.078,1.09c-4.324,0-7.972-3.32-7.959-7.414L146.357,0H103v26h7.984c2.15,0,4.016,1.456,4.016,3.607
		v14.259v18.718v0.007v17.203c0,8.261,5.359,15.822,11.6,19.363c6.279,4.966,21.373,7.245,29.598,4.34c0,0,3.803-1.197,5.803-2.626
		v2.066v4.305c0,1.52-0.012,2.468-0.425,3.65c-1.042,2.254-3.282,3.437-6.919,3.523l-134.121-0.203L20.559,136H25c0-5,0-13,0-17
		c8,0,129.709,0,129.709,0c6.794-1,9.669-3.498,10.9-6.157l0.091-0.255l-0.204-0.232c0.646-1.836,0.504-3.338,0.504-5.112V92.764
		l-6.468,4.508c-1.171,0.783-3.449,1.703-4.7,2.099l-0.068,0.043c-6.779,2.397-20.386,0.446-25.574-3.655l-0.241-0.201l-0.386-0.164
		c-5.25-2.983-8.562-9.324-9.562-15.797c0-0.39,0-16.672,0-16.999v-0.013V43.866v-0.007V29.607c0-4.535-3.48-8.607-8.016-8.607
		c0,0-1.984,0-3.984,0c0-4,0-12,0-17c7,0,28.779,0,35.027,0c-0.01,8-0.047,64.385-0.047,64.402c0,2.977,1.199,5.918,3.375,8.1
		c2.326,2.34,5.58,3.727,8.927,3.727c2.192,0,4.356-0.556,6.257-1.645c3.271-1.886,5.5-5.18,5.958-8.837l0.017-0.119l0.252-1.103
		c0-0.002,0.234-2.58,0.234-2.58S167,12,167,4c5,0,16.98,0,22.384,0c0.011,8,0.08,115.316,0.08,115.316
		c0,9.312-4.149,14.684-8.237,16.684h6.729c3.229-3,5.839-8.574,5.839-16.497C193.794,119.268,193.792,113.5,193.788,113.257z"/>
	<path fill="#FFFFFF" d="M189.464,119.316c0,0-0.069-107.316-0.08-115.316C183.98,4,172,4,167,4c0,8,0,61.946,0,61.946
		s-0.234,2.58-0.234,2.583l-0.164,1.104l-0.061,0.125c-0.458,3.657-2.708,6.962-5.979,8.849c-1.9,1.09-4.078,1.668-6.27,1.668
		c-3.346,0-6.605-1.338-8.934-3.678c-2.176-2.184-3.377-5.219-3.377-8.195c0-0.018,0.033-56.402,0.043-64.402C135.779,4,114,4,107,4
		c0,5,0,13,0,17c2,0,3.984,0,3.984,0c4.535,0,8.016,4.072,8.016,8.607v14.252v0.007v18.718v0.013c0,0.326,0,16.609,0,16.999
		c1,6.473,4.32,12.813,9.572,15.795l0.342,0.166l0.285,0.2c5.188,4.103,18.84,6.052,25.619,3.655l0.144-0.043
		c1.25-0.395,3.397-1.314,4.567-2.1L166,92.762v14.48c0,1.775,0.143,3.244-0.504,5.081l0.068,0.2l-0.022,0.318
		c-1.229,2.659-4.038,5.157-10.833,6.157c0,0-121.709,0-129.709,0c0,4,0,12,0,17h156.227
		C185.314,134,189.464,128.628,189.464,119.316z"/>
	<path fill="#C9243F" d="M16.677,26C18.83,26,20,27.529,20,29.682V103h31V34.473L51.243,34h0.003c0-4,3.611-7.517,7.883-7.517
		c4.211,0,7.871,3.101,7.871,7.108v55.653c0,1.627,0.157,2.926,0.691,4.361C69.568,98.65,74.256,102,79.948,102H109V77.812
		L108.109,78h-6.661C99.294,78,98,76.068,98,73.914v-0.538c0-0.056-0.01-0.104-0.01-0.165c0.007-0.904,0.01-1.835,0.01-2.77V51.724
		c0-2.269-0.01-3.671-0.01-3.671L98,42.162V19.918c0-0.652-0.376-1.641-0.639-2.821c-0.444-2.031-1.441-4.649-3.213-7.235
		C90.536,4.594,85.854,1.668,79.751,0H61.454C57.667,1.025,54,2.692,51,4.942V0H7.165c-0.324,0-0.64,0.222-0.951,0.293L6.205,26
		H16.677z M47,4v9.708l6.908-5.326c6.344-4.852,15.667-6.503,24.371-4.304c5.592,1.458,9.24,3.924,12.196,8.237
		c1.166,1.695,1.869,3.615,2.33,5.706c0,0,0.195,1.93,0.195,2.125c0,0.44,0,22.016,0,22.016l-0.007,5.884
		c0,0.023,0.007,3.685,0.007,3.685v18.71l-0.007,2.856c0,0,0.007,0.091,0.007,0.187c0,0.043,0,0.431,0,0.431
		C93,78.449,96.91,82,101.449,82c0,0,1.551,0,2.551,0c0,4.8,0,11.6,0,16c-6,0-24.052,0-24.052,0c-3.698,0-7.069-2.257-8.364-5.736
		C71.208,91.25,71,90.288,71,89.245V33.592c0-6.415-5.535-11.566-12.036-11.566c-6.65,0-12.007,5.258-12.01,11.727
		C46.95,33.726,47,34.446,47,34.446S47,91,47,98c-5,0-17,0-22,0c0-7,0-68.318,0-68.318C25,25.143,21.214,22,16.677,22
		c0,0-3.162,0-6.138,0c0-5,0.003-13,0.003-18C16.863,4,40,4,47,4z"/>
	<path fill="#FFFFFF" d="M16.677,22C21.214,22,25,25.143,25,29.682c0,0,0,61.318,0,68.318c5,0,17,0,22,0c0-7,0-63.554,0-63.554
		s-0.042-0.72-0.038-0.693c0.003-6.469,5.375-11.727,12.025-11.727C65.488,22.026,71,27.177,71,33.592v55.653
		c0,1.042,0.208,2.005,0.583,3.019C72.878,95.743,76.25,98,79.948,98c0,0,18.052,0,24.052,0c0-4.4,0-11.2,0-16c-1,0-2.551,0-2.551,0
		C96.91,82,93,78.449,93,73.914c0,0,0-0.387,0-0.432c0-0.094-0.007-0.186-0.007-0.186L93,70.441v-18.71c0,0-0.007-3.662-0.007-3.685
		L93,42.162c0,0,0-21.575,0-22.016c0-0.195-0.202-2.125-0.202-2.125c-0.461-2.091-1.226-4.011-2.392-5.706
		c-2.955-4.313-6.589-6.778-12.181-8.237C69.521,1.879,60.238,3.53,53.894,8.382L47,13.708V4c-7,0-30.137,0-36.458,0
		c0,5-0.003,13-0.003,18C13.515,22,16.677,22,16.677,22z"/>
</g>
</svg>
