<?xml version="1.0" encoding="utf-8"?>
<!-- Generator: Adobe Illustrator 16.0.3, SVG Export Plug-In . SVG Version: 6.00 Build 0)  -->
<!DOCTYPE svg PUBLIC "-//W3C//DTD SVG 1.1//EN" "http://www.w3.org/Graphics/SVG/1.1/DTD/svg11.dtd">
<svg version="1.1" id="PILLS" xmlns="http://www.w3.org/2000/svg" xmlns:xlink="http://www.w3.org/1999/xlink" x="0px" y="0px"
	 width="200px" height="136px" viewBox="0 0 200 136" enable-background="new 0 0 200 136" xml:space="preserve">
<path fill="#29433A" d="M200,128c0,4.418-3.582,8-8,8H8c-4.418,0-8-3.582-8-8V8c0-4.418,3.582-8,8-8h184c4.418,0,8,3.582,8,8V128z"
	/>
<g>
	<path fill="none" d="M193.007,98.669c-9.508,9.505-22.891,17.582-38.702,23.353c-16.699,6.098-35.476,9.315-54.305,9.315
		c-18.361,0-37.002-3.317-53.908-9.606c-16.096-5.979-29.698-14.237-39.334-23.873C4.166,95.266,1.911,92.611,0,89.921V128.4
		c0,4.418,3.582,7.6,8,7.6h184c4.418,0,8-3.182,8-7.602V90.402C198.032,93.214,195.698,95.979,193.007,98.669z"/>
	<path fill="none" d="M25.88,24.137C46.732,12.014,73.748,5.062,100,5.062c18.83,0,37.605,3.221,54.305,9.315
		c15.812,5.774,29.194,13.85,38.702,23.355c2.691,2.69,5.025,5.454,6.993,8.266V8c0-4.418-3.582-8-8-8H8C3.582,0,0,3.582,0,8v38.46
		C5.726,38.395,14.51,30.745,25.88,24.137z"/>
	<path fill="#FFFFFF" d="M46.092,121.73c16.905,6.289,35.547,9.606,53.908,9.606c18.83,0,37.605-3.218,54.305-9.315
		c15.812-5.771,29.194-13.848,38.702-23.353c2.691-2.69,5.025-5.455,6.993-8.267V77.049c-8.264,24.61-49.6,48.114-100,48.114
		c-48.397,0-91.533-23.791-100-48.384v13.142c1.911,2.69,4.166,5.345,6.758,7.937C16.394,107.493,29.996,115.751,46.092,121.73z"/>
	<path fill="#FFFFFF" d="M100,11.241c50.402,0,91.736,23.502,100,48.112V45.999c-1.968-2.812-4.302-5.576-6.993-8.266
		c-9.508-9.505-22.891-17.582-38.702-23.355C137.605,8.283,118.829,5.062,100,5.062c-26.252,0-53.267,6.951-74.12,19.075
		C14.51,30.745,5.726,38.395,0,46.46v13.161C8.466,35.028,51.603,11.241,100,11.241z"/>
	<path fill="#2A433A" d="M100,125.163c50.402,0,91.736-23.504,100-48.114V59.353c-8.264-24.61-49.6-48.112-100-48.112
		c-48.397,0-91.533,23.788-100,48.38v17.158C8.466,101.372,51.603,125.163,100,125.163z M30.147,62.987L30.652,62h16.804
		c0,0-4.316,7.396-4.31,7.384c-0.265,0.447-1.003,1.836-1.187,2.478c0.132,0.035,0.332,0.154,0.629,0.184
		c1.027,0.107,1.167,0.061,2.169-1.413l3.653-6.854V49.255c0-1.604,0-3.18-0.652-3.831C47.419,45.086,46.79,45,45.886,45H38v-7
		h25.229l6.731,9h5.208c0,0-0.856,1.785-2.142,4.187l2.579,3.072L90,54.345V50.8c0-2.618-0.484-4.81-1.399-5.726
		C88.053,44.526,86.841,44,85.505,44H79v-5.437l52,0.004V44h-7.208c0,0-0.028,0-0.038,0l-0.029,0.275
		c-0.774,0.054-1.148,0.316-1.39,0.77c-0.132,0.249-0.262,0.998,0.849,2.707l4.067,6.542l17.278,0.01
		c0.393-0.101,0.804-0.18,1.226-0.262c1.968-3.276,3.429-5.703,3.435-5.713c1.311-2.056,1.371-3.087,1.201-3.375
		c-0.184-0.306-1.024-0.718-1.537-0.684L148.793,44h-0.062H139v-6h28v6c0,0-5.688,0-5.709,0c-3.148,0-3.389,0.62-5.686,4.177
		l-2.992,5.166c0.85-0.003,1.729,0.081,2.66,0.111c6.072,0.23,10.092,1.908,11.619,4.778c0.728,1.369,1.199,3.802-0.66,6.802
		L165.736,66h-5.303c0.909,0,1.566,0.744,1.566,1.424v0.021c1,0.004,0.307,0.02,0.311,0.023c0.002,0.005,0.156,0.017,0.162,0.023
		l0.069-0.004c1.757,2.421,1.433,5.783-0.995,9.472c-2.939,4.475-8.848,5.361-18.458,5.377c-1.192-0.002-3.088-0.064-3.088-0.184
		c0,2.412,0,4.504,0,4.521c0,3.453,0.294,4.325,2.616,4.325H149v5h-26.062c-0.717,7-10.633,13.521-22.938,13.521
		c-12.234,0-22.984-7.144-22.984-13.854c0-2.831,1.917-5.768,5.046-8.213L76.739,81H54.844C54.513,81,54,81.562,54,81.747v1.987
		c0,2.932-0.028,6.143,0.699,6.863C55.035,90.928,55.888,91,57.207,91H65v5H37v-5c0,0,8.575,0,8.563,0
		C47.802,91,48,89.439,48,83.734v-0.34c-2,0.365-5.109,0.459-8.625,0.48c-7.105,0.044-11.542-1.908-13.391-5.507
		C24.059,74.618,25.529,69.346,30.147,62.987z"/>
	<path fill="#2A433A" d="M100,81.825c9.716,0,17.939,4.175,21.326,9.175h0.693c0.705,0,1.98-0.025,1.98-3.741V76.302
		c0-0.544-0.839-1.796-1.771-3.382L118.074,81H99.461l9.352-17h-8.104L95.09,74.295c-0.001,2.786-0.002,5.444-0.003,8.016
		C96.682,82.057,98.326,81.825,100,81.825z"/>
	<path fill="#2A433A" d="M103.258,44h-5.556c-2.332,1-2.691,2.072-2.629,3.379c0.009,0.192,0.015,2.926,0.018,6.825l16.356,0.062
		c-1.329-2.26-2.202-3.988-2.202-3.988C107.509,47.344,105.829,44,103.258,44z"/>
	<polygon fill="#2A433A" points="53.823,53.619 53.895,53.483 53.823,53.396 	"/>
	<path fill="#FFFFFF" d="M73.428,54h1.881l-2.283-2.804c-0.244,0.456-0.502,0.849-0.774,1.358L73.428,54z"/>
	<path fill="#FFFFFF" d="M138,86.636c0,3.716,0.92,5.364,4.57,5.364H147v3h-24.061c0.026,0,0.043,0.25,0.043,0.496
		c0,0.25-0.018,0.504-0.045,0.504H149v-5h-6.384c-2.322,0-2.616-0.873-2.616-4.325c0-0.018,0-2.108,0-4.521
		c-1-0.061-1.6-0.131-2-0.221V86.636z"/>
	<path fill="#FFFFFF" d="M124,87.259c0,3.716-1.275,3.741-1.98,3.741h-0.693c0.333,1,0.688,0.975,0.923,1.477
		c2.358-0.074,3.752-1.77,3.752-5.218V75.895l-2.698-4.453l-1.039,1.539c0.932,1.584,1.737,2.776,1.737,3.321L124,87.259L124,87.259
		z"/>
	<path fill="#FFFFFF" d="M52,83.734C52,91.844,52.979,92,57.207,92H64v3H39v-3h6.575C49.712,92,50,88.389,50,83.734v-0.612
		c-0.4,0.104-1,0.196-2,0.272v0.34C48,89.439,47.802,91,45.563,91C45.575,91,37,91,37,91v5h28v-5h-7.793
		c-1.319,0-2.171-0.072-2.507-0.402c-0.728-0.722-0.7-3.932-0.7-6.863v-1.987c-0.8,0.252-1,0.476-2,0.671V83.734z"/>
	<polygon fill="#FFFFFF" points="52,56.431 54,53.619 54,53.396 53.983,53.483 54.645,51.849 52,48.875 	"/>
	<path fill="#FFFFFF" d="M150.45,49.105c4.188-6.568-1.72-6.105-1.72-6.105H141v-3h24v3h-3.688c-4.562,0-4.752,1.327-8.127,6.393
		l-2.418,4.107c0.592-0.022,1.211-0.02,1.846-0.022l2.99-5.306c2.299-3.558,2.539-4.172,5.687-4.172c0.022,0,5.709,0,5.709,0v-6h-28
		v6h9.731h0.062l0.06,0.271c0.514-0.035,1.354,0.24,1.537,0.546c0.17,0.287,0.11,1.39-1.201,3.446
		c-0.006,0.011-1.465,2.476-3.434,5.752c0.607-0.117,1.248-0.211,1.918-0.291L150.45,49.105z"/>
	<path fill="#FFFFFF" d="M50,50.269C50,46.851,50.341,43,45.886,43H39v-3h23.492l5.586,7h1.881l-6.731-9H38v7h7.886
		c0.904,0,1.533,0.09,1.872,0.429c0.652,0.651,0.652,2.271,0.652,3.875l0.047,14.512L50,60.979V50.269z"/>
	<path fill="#FFFFFF" d="M78.77,81h-2.031l5.323,6.523c0.397-0.31,0.812-0.65,1.247-0.944L78.77,81z"/>
	<path fill="#FFFFFF" d="M94.942,82.204c0.001-2.572-0.071-5.322-0.07-8.108L93,77.456v5.082C94,82.409,94.335,82.3,94.942,82.204z"
		/>
	<path fill="#FFFFFF" d="M91,50.8c0-4.656-0.653-7.8-5.495-7.8H80v-2.943l49,0.005V43h-5.208c0,0-5.696-0.478-1.877,5.581
		l3.573,5.734l1.763,0.006l-4.067-6.503c-1.109-1.709-0.979-2.387-0.849-2.636c0.241-0.454,0.614-0.854,1.39-0.907l0.029-0.274
		c0.01,0,0.038,0,0.038,0H131v-5.432l-52-0.004V44h6.505c1.336,0,2.548,0.526,3.096,1.074C89.516,45.99,90,48.182,90,50.8V54h1V50.8
		z"/>
	<path fill="#FFFFFF" d="M103.854,43h-6.151C93.378,43,93,45.816,93,50.47V54h2.045c-0.003-4,0.015-6.6,0.005-6.792
		C94.988,45.901,95.37,45,97.702,44h5.556c2.571,0,4.251,3.379,5.987,6.312c0,0,0.874,1.625,2.202,3.884l1.677,0.069l-1.927-3.256
		C108.878,47.032,107.139,43,103.854,43z"/>
	<path fill="#2A433A" d="M161.312,43H165v-3h-24v3h7.73c0,0,5.906-0.463,1.72,6.105l-2.777,4.637
		c0.962-0.114,1.99-0.185,3.095-0.227l2.418-4.126C156.561,44.323,156.75,43,161.312,43z"/>
	<path fill="#2A433A" d="M126,87.259c0,3.448-1.393,5.097-3.752,5.171c0.404,0.86,0.598,1.569,0.691,2.569H147v-3h-4.43
		c-3.65,0-4.57-1.649-4.57-5.364v-4.701c-2.8-0.576-5.199-1.771-6.408-3.569c-0.9-1.345-1.654-3.761-0.216-7.294l0.429-1.07h-7.878
		l-0.625,1.37L126,75.895V87.259z"/>
	<path fill="#2A433A" d="M71.431,54.353l1.997-0.001l-1.175-1.535C71.989,53.309,71.715,53.821,71.431,54.353z"/>
	<path fill="#2A433A" d="M39,40v3h6.886C50.341,43,50,46.851,50,50.269v10.709l2-4.548v-7.556l2.6,2.79L57.146,47h10.933l-5.586-7
		H39z"/>
	<path fill="#2A433A" d="M123.792,43H129v-2.938l-49-0.005V43h5.505C90.347,43,91,46.145,91,50.8V54h2v-3.53
		c0-4.654,0.378-7.47,4.702-7.47h6.151c3.285,0,5.024,4.066,7.344,8.044l1.927,3.275l12.365,0.002l-3.574-5.745
		C118.096,42.518,123.792,43,123.792,43z"/>
	<path fill="#2A433A" d="M45.575,92H39v3h25v-3h-6.793C52.979,92,52,91.844,52,83.734v-1.316c0,0.287-1.2,0.52-2,0.704v0.612
		C50,88.389,49.712,92,45.575,92z"/>
	<path fill="#2A433A" d="M93,82.538v-5.082L91.311,81H78.77l4.393,5.618C85.892,84.775,90,83.368,93,82.538z"/>
	<path fill="#2A433A" d="M122.939,95.064c-0.094-0.869-0.354-1.741-0.758-2.602c-0.236-0.502-0.522-1-0.856-1.49
		c-3.386-4.977-11.609-9.162-21.326-9.162c-1.674,0-3.318,0.141-4.912,0.393c-0.606,0.096-1.207,0.205-1.796,0.334
		c-3.811,0.83-7.253,2.314-9.983,4.156c-0.435,0.293-0.85,0.597-1.247,0.906c-3.129,2.445-5.046,5.375-5.046,8.207
		c0,6.709,10.75,13.993,22.984,13.993c12.306,0,22.222-6.711,22.938-13.241c0.026-0.252,0.045-0.502,0.045-0.752
		C122.982,95.561,122.966,95.312,122.939,95.064z M100,107.711C89.028,107.711,79.338,102,78.556,96h8.493
		c-0.038,0-0.064-0.24-0.064-0.491c0-0.258,0.027-0.509,0.066-0.509h-8.493C79.351,89,89.035,83.307,100,83.307
		c11.455,0,20.695,5.693,21.447,11.693h-8.5c0.039,0,0.066,0.251,0.066,0.509c0,0.251-0.027,0.491-0.064,0.491h8.499
		C120.707,102,111.462,107.711,100,107.711z"/>
	<path fill="#FFFFFF" d="M92.244,91h15.512c2.635,0,4.809,2,5.191,4h8.5c-0.752-6-9.992-11.693-21.447-11.693
		C89.035,83.307,79.351,89,78.558,95h8.493C87.436,93,89.61,91,92.244,91z"/>
	<path fill="#FFFFFF" d="M121.448,96h-8.499c-0.377,3-2.555,5-5.194,5H92.244c-2.639,0-4.817-2-5.195-5h-8.493
		c0.783,6,10.473,11.711,21.444,11.711C111.462,107.711,120.707,102,121.448,96z"/>
	<path fill="#2A433A" d="M92.244,101h15.512c2.639,0,4.816-1.949,5.194-4.354c0.038-0.242,0.063-0.539,0.063-0.791
		c0-0.258-0.027-0.438-0.065-0.686c-0.384-2.4-2.558-4.17-5.191-4.17H92.244c-2.633,0-4.808,1.746-5.192,4.146
		c-0.04,0.246-0.066,0.449-0.066,0.707c0,0.252,0.026,0.573,0.064,0.815C87.426,99.075,89.604,101,92.244,101z M91.543,93.143
		l1.467-0.004c-0.051,0.154-0.095,0.282-0.137,0.442C92.753,94.047,92.675,94,92.63,95h2.624c0.04,0,0.11-0.886,0.213-1.305
		l1.414,0.006C96.751,94.123,96.663,95,96.613,95H99v-1h2v1h2.385c-0.051,0-0.14-0.861-0.271-1.284l1.414-0.034
		C104.633,94.1,104.704,95,104.744,95h2.622c-0.043-1-0.122-0.953-0.243-1.419c-0.04-0.16-0.086-0.304-0.137-0.457l1.466,0.01
		c0.04,0.144,0.077,0.292,0.108,0.442c0.164,0.732,0.25,1.49,0.25,2.27c0,0.908-0.117,1.791-0.338,2.633l-1.466-0.26
		C107.2,97.598,107.326,97,107.378,96h-2.625c-0.039,1-0.112,1.207-0.226,1.65l-1.394-0.154c0.132-0.436,0.218-0.497,0.265-1.497
		H101v2h-2v-2h-2.4c0.046,1,0.132,1.199,0.263,1.635l-1.396-0.122C95.356,97.068,95.283,97,95.244,96H92.62
		c0.053,1,0.178,1.6,0.37,2.219l-1.467,0.122c-0.22-0.842-0.334-1.653-0.334-2.562c0-0.78,0.084-1.502,0.248-2.233
		C91.47,93.396,91.506,93.284,91.543,93.143z"/>
	<path fill="#FFFFFF" d="M91.188,95.85c0,0.907,0.115,1.789,0.334,2.631l1.467-0.262C92.797,97.6,92.673,97,92.62,96h2.625
		c0.039,1,0.112,1.207,0.223,1.65l1.396-0.154C96.731,97.061,96.646,97,96.6,96H99v2h2v-2h2.396c-0.045,1-0.133,1.199-0.264,1.635
		l1.395-0.121c0.113-0.445,0.187-0.514,0.225-1.514h2.625c-0.052,1-0.178,1.6-0.371,2.219l1.467,0.122
		c0.221-0.842,0.338-1.653,0.338-2.562c0-0.78-0.088-1.502-0.25-2.233c-0.033-0.149-0.069-0.278-0.109-0.421l-1.465,0.005
		c0.05,0.155,0.096,0.287,0.136,0.447c0.121,0.466,0.2,0.424,0.243,1.424h-2.622c-0.041,0-0.111-0.886-0.218-1.304l-1.412,0.005
		c0.131,0.422,0.22,1.299,0.271,1.299H101v-1h-2v1h-2.387c0.05,0,0.138-0.862,0.268-1.284l-1.414-0.033
		C95.364,94.1,95.294,95,95.254,95H92.63c0.044-1,0.123-0.953,0.243-1.419c0.042-0.16,0.085-0.304,0.137-0.457l-1.467,0.01
		c-0.037,0.144-0.073,0.292-0.107,0.442C91.272,94.309,91.188,95.066,91.188,95.85z"/>
	<path fill="#2A433A" d="M39.583,83.875c3.516-0.021,6.39-0.116,8.833-0.48c0.518-0.078,1.014-0.168,1.495-0.272
		c0.858-0.185,1.661-0.417,2.418-0.704c0.518-0.195,1.016-0.496,1.495-0.748c0.348-0.184,0.69-0.67,1.021-0.67H76.74h2.031h12.541
		l1.98-3.621l1.8-3.124L100.71,64h8.103l-9.351,17h18.613l4.34-8.08l0.821-1.581l0.69-1.34h7.878l-0.408,1.071
		c-1.439,3.533-0.666,5.912,0.235,7.256c1.209,1.799,3.37,3.012,6.448,3.589c0.475,0.089,0.977,0.169,1.496,0.229
		c1.023,0.117,2.127,0.186,3.318,0.188c9.611-0.016,15.75-0.9,18.69-5.374c2.426-3.69,2.789-7.049,1.032-9.47l-0.016,0.135
		c-0.488-0.681-1.259-1.624-2.168-1.624h5.303l0.494-0.949c1.86-3,1.389-5.336,0.66-6.706c-1.525-2.87-5.545-4.55-11.619-4.781
		c-0.931-0.03-1.81-0.06-2.658-0.057c-0.635,0.003-1.254,0.003-1.846,0.025c-1.104,0.042-2.132,0.115-3.095,0.229
		c-0.671,0.08-1.312,0.173-1.918,0.291c-0.422,0.082-0.833,0.005-1.226,0.105L127.25,54h-1.762h-12.365h-1.678H95.09h-1.799H90.9
		h-1.493H75.309h-1.881h-1.997c0.284,0,0.559-0.867,0.822-1.359c0.272-0.508,0.53-1.087,0.774-1.542
		C74.312,48.696,75.168,47,75.168,47H69.96h-1.881H57.146l-2.382,4.665l-0.869,1.727l-0.072,0.181l-1.495,2.834l-2.418,4.56
		l-1.498,2.824l-3.653,6.875c-1.002,1.473-1.142,1.559-2.169,1.45c-0.298-0.03-0.497-0.074-0.629-0.109
		c0.184-0.64,0.922-2.176,1.187-2.623C43.14,69.396,47.457,62,47.457,62H30.652l-0.505,0.987c-4.619,6.358-5.984,11.63-4.06,15.381
		C27.937,81.967,32.477,83.919,39.583,83.875z M137.334,62.665c2.281-5.75,6.582-7.832,17.874-7.462
		c9.121,0.347,12.569,3.998,9.593,8.797h-11.009c0.153-1.2-0.253-2.369-1.188-2.643c-1.153-0.337-2.694-0.052-2.84,1.185
		c-0.162,1.363,0.647,1.92,2.961,2.371c3.623,0.704,7.451,2.029,8.52,3.55c1.552,2.115,0.602,5.043-1.064,7.577
		c-2.447,3.724-7.777,4.711-17.283,4.728C134.111,80.75,130.689,77,132.953,72h11.009c0.236,1,0.119,1.734,0.83,2.283
		c1.024,0.795,2.638,0.331,3.313-0.528c0.588-0.745,0.44-2.04-0.59-2.424c-1.699-0.629-7.408-1.501-9.472-2.854
		C136.391,67.396,136.205,65.329,137.334,62.665z M106.521,56h29.953l-3.268,6h-6.82l-9.32,18h-14.801l9.352-18h-8.285L106.521,56z
		 M74.532,56h27.462l-3.153,6H84.83l-1.301,3h12.956l-3.238,6H79.475l-1.494,3h15.496l-3.172,6h-28.32L74.532,56z M31.509,64h12.957
		l-2.764,4.686c-1.634,2.746-2.51,4.698,0.712,5.039c2.037,0.213,2.667-0.594,3.787-2.242L58.156,49H72.36L59.695,72.701
		c-4.749,8.671-8.744,9.277-20.122,9.347C27.073,82.122,22.802,76,31.509,64z"/>
	<path fill="#2A433A" d="M162.621,67.498c-0.005-0.006-0.01-0.012-0.012-0.017c-0.002-0.004-0.006-0.008-0.01-0.013v0.001
		l0.017,0.022L162.621,67.498z"/>
	<path fill="#FFFFFF" d="M39.573,82.061c11.378-0.068,15.374-0.756,20.122-9.428L72.36,49H58.156L46.201,71.516
		c-1.119,1.648-1.75,2.476-3.787,2.262c-3.223-0.34-2.346-2.354-0.712-5.1L44.466,64H31.509C22.802,76,27.073,82.135,39.573,82.061z
		"/>
	<polygon fill="#FFFFFF" points="102.264,80 117.066,80 126.387,62 133.207,62 136.475,56 106.521,56 103.331,62 111.616,62 	"/>
	<path fill="#FFFFFF" d="M138.044,68.463c2.063,1.354,7.772,2.211,9.472,2.842c1.03,0.383,1.178,1.649,0.59,2.396
		c-0.676,0.858-2.289,1.379-3.313,0.584c-0.711-0.55-0.594-1.283-0.83-2.283h-11.009c-2.264,5,1.158,8.751,9.943,8.769
		c9.504-0.018,14.834-0.949,17.283-4.672c1.666-2.533,2.616-5.49,1.064-7.605c-1.068-1.521-4.896-2.859-8.52-3.563
		c-2.313-0.45-3.123-1.013-2.961-2.376c0.146-1.237,1.687-1.527,2.84-1.19c0.936,0.273,1.342,1.439,1.188,2.639h11.009
		c2.979-4.8-0.472-8.451-9.593-8.797c-11.292-0.37-15.592,1.709-17.874,7.459C136.205,65.327,136.391,67.383,138.044,68.463z"/>
	<polygon fill="#FFFFFF" points="61.984,80 90.304,80 93.476,74 77.98,74 79.475,71 93.247,71 96.485,65 83.529,65 84.83,62 
		98.841,62 101.994,56 74.532,56 	"/>
</g>
</svg>
