<?xml version="1.0" encoding="utf-8"?>
<!-- Generator: Adobe Illustrator 16.0.3, SVG Export Plug-In . SVG Version: 6.00 Build 0)  -->
<!DOCTYPE svg PUBLIC "-//W3C//DTD SVG 1.1//EN" "http://www.w3.org/Graphics/SVG/1.1/DTD/svg11.dtd">
<svg version="1.1" id="PILLS" xmlns="http://www.w3.org/2000/svg" xmlns:xlink="http://www.w3.org/1999/xlink" x="0px" y="0px"
	 width="200px" height="136px" viewBox="0 0 200 136" enable-background="new 0 0 200 136" xml:space="preserve">
<path fill="#1F1F1F" d="M200,128c0,4.418-3.582,8-8,8H8c-4.418,0-8-3.582-8-8V8c0-4.418,3.582-8,8-8h184c4.418,0,8,3.582,8,8V128z"
	/>
<g>
	<path fill="none" d="M192,0h-67.662c16.457,4.985,33.975,3.741,51.084,2.018C179.959,56.941,165.823,111,129.538,136H192
		c4.418,0,8-3.182,8-7.602V8C200,3.582,196.418,0,192,0z"/>
	<path fill="none" d="M24.669,1.45C43.015,3.757,61.039,4.982,77.129,0H8C3.582,0,0,3.582,0,8v120.398C0,132.818,3.582,136,8,136
		h62.475C34.176,111,19.822,56.52,24.669,1.45z"/>
	<path fill="#FFFFFF" d="M175.422,2.018C158.312,3.741,140.795,4.985,124.338,0h-14.413c16.673,8.594,38.661,10.09,60.532,7.628
		C173.542,61.702,158.137,115,118.589,136h10.948C165.823,111,179.959,56.941,175.422,2.018z"/>
	<path fill="#FFFFFF" d="M29.604,7.09C51.028,10.222,73.284,8.596,90.109,0h-12.98c-16.091,4.982-34.115,3.757-52.46,1.45
		C19.822,56.52,34.176,111,70.475,136h10.266C41.213,114,26.219,61.236,29.604,7.09z"/>
	<path d="M70.083,20.758C69.882,20.001,69.581,19,69.501,18h-0.098c-0.081,1-0.383,2.001-0.577,2.758L68.387,22h2.134L70.083,20.758
		z"/>
	<path d="M51.928,18.521c0-0.877-0.518-1.521-1.516-1.521H50v3h0.412C51.39,20,51.928,19.396,51.928,18.521z"/>
	<path d="M134.38,18.521c0-0.877-0.519-1.521-1.519-1.521H132v3h0.861C133.842,20,134.38,19.396,134.38,18.521z"/>
	<path d="M170.457,7.628C148.586,10.09,126.6,8.594,109.925,0H90.109C73.284,8.596,51.028,10.222,29.604,7.09
		C26.219,61.236,41.213,114,80.741,136h37.848C158.137,115,173.542,61.702,170.457,7.628z M148.857,22.297
		c-2.43-0.518-3.666-1.854-3.666-3.928c0-2.99,2.334-5.183,5.959-5.183c1.635,0,3.172,0.418,4.808,1.294l-1.554,3.73
		c-1-0.738-2.036-1.118-2.936-1.118c-0.717,0-1.115,0.26-1.115,0.68c0,0.696,0.957,0.797,2.651,1.176
		c1.896,0.418,3.168,1.832,3.168,3.826c0,3.051-2.43,5.365-6.159,5.365c-1.873,0-3.769-0.54-5.603-1.596l1.635-3.987
		c1.375,0.937,2.493,1.477,3.567,1.477c0.738,0,1.137-0.279,1.137-0.738C150.753,22.638,150.036,22.557,148.857,22.297z M127,14
		h6.48c3.809,0,5.765,1.507,5.765,4.559c0,2.034-1.099,3.443-2.752,3.644L140.302,28h-5.743L132,23.055V28h-5V14z M126.717,48.108
		c0.997,1.333,2.525,2.707,5.174,4.784l-1.082-2.386c0,0,6.33-8.841,8.901-11.884l1.413-0.056c-0.036-0.118-0.062-0.245-0.075-0.388
		c-0.114-1.319,0.899-3.253,2.218-3.364c1.318-0.11,2.478,0.87,2.592,2.191c0.084,0.989-0.448,1.889-1.278,2.323
		c14.092,11.623-1.976,25.386-10.914,17.834c-3.136-2.566-7.948-6.227-8.99-8.086C123.154,47.792,124.783,46.15,126.717,48.108z
		 M132.841,57.72c-0.45,1.917-3.497,7.843-4.169,8.866c-0.078-3.531-0.576-7.527-2.518-7.541l-0.363-1.432l2.654-3.477
		C128.958,54.428,132.073,57.239,132.841,57.72z M112,14h9v3h-4v2h4v3h-4v2h4v4h-9V14z M93,14h4.298c2.472,0,4.328-0.01,5.644,0.65
		c2.453,1.234,3.828,3.405,3.828,6.117c0,2.353-1.055,4.463-2.949,5.759C101.966,27.803,99.77,28,96.921,28H93V14z M82,14h5v14h-5
		V14z M66.671,13h5.703l4.984,15h-5.504l-0.458-2h-3.867l-0.442,2h-5.5L66.671,13z M44,14h7.031c3.808,0,5.763,1.507,5.763,4.559
		c0,2.034-1.097,3.443-2.752,3.644L57.852,28h-5.745L50,23.055V28h-6V14z M53.429,40.109c-0.841-0.409-1.399-1.292-1.346-2.284
		c0.067-1.323,1.198-2.337,2.52-2.269c1.321,0.07,2.339,1.198,2.269,2.521c-0.007,0.133-0.027,0.262-0.055,0.388l1.406,0.014
		c2.666,2.962,9.268,11.601,9.268,11.601l-1.01,2.418c2.583-2.158,4.069-3.581,5.024-4.942c1.871-2.019,3.549-0.432,2.068,0.904
		c-0.98,1.889-5.682,5.7-8.73,8.361C56.146,64.649,39.709,52.167,53.429,40.109z M73.89,57.562l-0.275,1.926
		c-1.506,0.098-2.66,1.889-3.344,3.176c-0.432-0.197-3.775-5.402-3.775-5.402l3.815-3.771L73.89,57.562z M80.771,109.128
		c-4.705,3.517-16.195,4.945-22.023,2.655c0,0,14.061-5.545,17.948-9.045l0.906-0.481c0,0,1.958,3.103,2.642,3.491
		C80.244,105.748,81.086,106.498,80.771,109.128z M85.211,100.586c-0.629-2.385-0.305-2.572-0.021-4.588
		c0.104-0.754-0.039-2.648-0.738-2.77c-0.652,0.67-0.181,1.127-0.374,2.095c-0.188,0.942,0.682,0.979,0.015,3.088
		c-0.191,0.603-0.52,0.456-0.71,0.051c-0.698-1.499-0.339-4.745-1.913-6.012c-0.363-0.293-0.384-1.171-0.081-1.401
		c0.484-0.361,0.964,0.213,1.585,0.069c0.112-0.025,0.044-0.784-0.042-0.882c-0.517-0.606-1.665-0.358-1.651-0.441
		c0.152-1.227,0.127-2.327-0.292-2.926c-0.571-0.824-1.414-0.965-1.757-1.768c-0.727-1.703-0.477-2.672-0.541-3.117
		c-0.087-0.602-0.233-1.572-0.062-2.209c-0.171,0.039-0.105-1.41-0.096-1.504c0.107-1.062,0.299-1.004,0.46-2.004
		c0.031-0.617,1.548-0.977,1.561,0.435c-0.372,1.862,0.187,3.331,0.235,5.213c0.006,0.226,0.376,0.44,0.626,0.515
		c4.1,1.176,7.166,0.725,11.243,0.644c1.094-0.022,1.749-1.388,1.983-2.454c0.385-1.764,0.388-2.361,0.402-4.301
		c0.203-0.52,0.681-0.377,1.058,0.055c0.697,0.804,0.153,1.104,0.328,2.134c0.134,0.802-0.898,1.979-0.898,1.979
		c0.117,0.009-0.346,2.718-0.231,2.726c0.211,0.011-0.158,2.431-0.214,2.37c-0.155,1.314,0.752,0.832,0.61,1.797
		c-0.022,0.439-0.245,1.051-0.235,1.133c0.132,0.889-1.854,0.697-1.536,0.713c-0.438-0.022-0.782-0.218-0.762-0.568
		c0.023-0.502-0.112-0.879-0.107-1.329c-0.968-0.052-0.568,0.728-0.62,1.731c-0.024,0.438,0.266,0.813,1.009,0.937
		c0.787,0.128,0.87,0.221,1.236-0.024c0.189-0.128,0.816-0.269,0.913-0.57c0.366,1.432,0.795,1.632,1.856,1.598
		c0.453-0.014,1.491,0.167,1.899-0.868c0.102-0.263,0.804-0.223,0.906-0.483c1.833,0.361,0.714,1.107,2.935,0.397
		c0.67-0.216,1.218-1.181,0.641-1.944c-0.07-0.092-0.43-0.086-0.438-0.035c-0.242,1.91-0.994,1.345-1.711,1.305
		c-2.358-0.137-1.086-1.117-3.088,0.013c-0.236,0.134-0.938,1.097-1.871,0.343c-1.262-1.125,0.102-1.936,0.254-3.162
		c0.137-1.117,0.085-4.625,0.033-5.646c-0.124-2.403,0.49-0.942,0.898-1.981c-0.346,0.088-0.158-2.939-0.19-3.096
		c-0.209-1.07-1.468-0.656-1.798-1.064c0,0-0.148-0.84,0.049-0.881c1.423-0.275,3.229-1.063,4.525-1.703
		c3.004-1.477,4.693-2.393,6.142-3.291c0.438-0.269,0.609-0.837,0.841-0.839c2.734-0.032,5.377-0.585,7.807,0.764
		c1.699,0.942,2.109,1.874,2.556,3.485c-0.196,0.031,0.162,1.717,0.166,1.861c0.035,1.061-0.022,2.995-0.007,3.528
		c0.084,3.491,0.284,4.688-0.193,7.046c-0.005,0.021-0.369,0.861-0.486,0.857c-0.289,0.424-0.781,1.057-1.371,1.549
		c-0.188,0.158-0.108,0.672,0.025,0.584c0.364-0.243,1.076-0.385,1.619-0.62c-0.02,1.497-0.173,3.254-0.525,4.911
		c-0.28,1.341-0.453,2.729-0.916,4.01c-0.43,1.186-0.633,1.997-2.109,3.244c-0.305-2.576-1.031-3.85-0.895-4.812
		c-0.988,0.389-0.857,1.861-0.961,3.215c-0.129,1.611,0.168,2.903,0.267,3.184c0.006-0.028,0.015-0.059,0.009-0.083
		c0.035,0.159,0.023,0.177-0.009,0.083c-0.065,0.318-0.763,0.849-1.032,1.273c-0.919,1.459-1.939,2.819-3.189,3.998
		c-0.186,0.176-0.232,0.53-0.426,0.616c-0.693,0.296-0.871,0.747-1.277,1.214c-0.33,0.387-1.207,0.688-1.655,0.938
		c-0.289,0.158-1.154,0.392-1.39,0.441c-0.523,0.104-1,0.086-1.793,0.045c-0.763-0.039-1.806-0.978-2.627-1.18
		c-2.396-0.583-2.955,1.581-6.679,0.781c-1.534-0.331-1.844-1.355-2.808-2.442c-0.183-0.21-1.1-1.321-1.243-1.477
		C88.714,105.486,85.774,102.721,85.211,100.586z M84.209,101.993C84.183,101.991,84.241,101.994,84.209,101.993
		c0.335,0.933,1.121,1.33,1.353,1.707c0.372,0.593,0.545,1.224,0.907,1.792c-0.614,0.349-1.085,1.336-1.687,1.039
		c-0.304-0.151-0.395-0.799-0.577-1.256C83.747,104.122,84.389,103.167,84.209,101.993z M79.577,71.886
		c0.82-1.829,0.574-1.937,1.759-3.26c0.296-0.332,1.353-0.508,1.353-0.508c2.511-0.75,15.21-0.828,21.439-0.146
		c0.487,0.054-2.198,1.672-2.571,1.896c-2.277,1.356-2.547,1.54-4.71,2.397c-0.582,0.229-1.748,0.84-2.411,0.579
		c-1.297-0.51-7.299-0.473-9.848-0.483c0.036,0-2.325,0.391-2.274,0.394c-1.353-0.095-1.438,0.601-1.874,1.207
		c-0.242,0.332-1.432,0.365-1.219-0.329C79.295,73.391,80.112,70.693,79.577,71.886z M114.305,100.982
		c0.197,0.205,0.442,0.345,0.387,0.638c-0.159,0.832-0.594,1.554-1.2,2.092c-0.216,0.188-0.599,0.245-0.774,0.515
		c-0.328,0.494-0.837,0.241-1.101,0.006c-0.308-0.278-0.048-0.901,0.308-1.133c0.355-0.224,0.646-0.455,0.973-0.701
		c0.138-0.104,0.224-0.279,0.332-0.377c0.293-0.273,0.528-0.582,0.801-0.873c-0.004,0.057-0.004,0.115-0.006,0.177
		C114.041,101.146,114.355,101.217,114.305,100.982z M117.812,113.061c-0.316,2.547-3.037,3.83-4.494,4.813
		c-3.707,3.332-9.76,4.427-14.493,3.825c-0.586,1.025-2.206,1.648-2.206,1.648c-0.896,0.305-1.321-1.66-1.321-1.66
		c1.611-0.442,2.526-0.854,2.526-0.854c-3.17-3.521,4.874-5.567,7.061-6.862c2.167-0.945,3.463-2.113,4.055-3.316
		c1.595-3.444,4.891-5.739,5.797-6.221c1.111-1.002,1.572-3.095,1.572-3.095c3.158-9.713,4.062-21.839,2.702-27.909
		c-0.627-4.798-1.999-5.69-4.788-6.369c-6.813-1.239-24.979-0.835-32.592-0.351c-7.222,6.695-4.169,24.774-0.323,32.614
		c0.991,1.285,1.157,1.471,1.094,2.701c0.767,8.861,2.11,10.168,2.11,10.168c2.798,3.851,2.094,0.463,2.094,0.463
		c2.501,2.777,7.343,4.619,7.343,4.619c-0.36,0.16-3.649,2.277-3.649,2.277c-6.971-4.951-8.473-9.971-8.573-14.738
		c-0.53-4.916-1.329-1.657-1.329-1.657c-2.042-1.343-1.396-3.603-1.396-3.603c0.203-3.871-0.917-2.695-0.917-2.695l-1.231-0.063
		c-1.916-3.808-6.187-23.26-6.187-23.26c-1.194-10.824,2.786-12.734,4.758-13.334c-0.242-2.131,3.47-15.696,3.47-15.696
		c2.191-6.74,9.473-8.501,16.519-8.501L94.27,64.191l10.354-0.036l-1.572-28.151c11.509,0.236,15.324,3.389,17.853,9.866
		l-0.35,0.236c-2.966-4.038-0.107,3.406-0.107,3.406c0.517,3.555,1.813,5.742,2.223,14.76c0.864,7.101-1.061,26.231-1.061,26.231
		c1.192,0.767,2.582-10.569,2.582-10.569c0.529-5.757-0.885-25.8-3.051-31.832l0.586-0.704c0,0,2.369,6.176,3.17,12.566
		c1.295,0.469,1.528,1.527,2.467,5.872c-0.155,2.938-0.656,0.243-0.855-0.987c-1.378-3.545-1.142-0.892-1.142-0.892
		c1.01,7.641,0.704,16.208,0.704,16.208c-0.827,5.392,0.707-0.233,0.707-0.233c0.722-3.666,0.824-4.934,0.824-4.934
		c-0.328-7.251,0.819,0.352,0.819,0.352c-0.989,12.909-9.18,22.295-9.274,22.433c0.225,2.481-1.362,5.75-2.332,7.463
		C119.375,110.145,117.812,113.061,117.812,113.061z M119.598,107.993c-0.274-1.425-1.084-2.879-1.084-2.879
		c0.572-0.853,1.557-2.741,2.187-4.648l0.85,0.573c3.363,3.176,16.429,9.686,18.513,10.322
		C128.359,114.212,123.764,111.204,119.598,107.993z"/>
	<path d="M101.104,20.698c0-1.875-1.262-2.698-3.335-2.698C97.687,18,98,18,98,18v5.414C100,23.373,101.104,22.632,101.104,20.698z"
		/>
	<path fill="#FFFFFF" d="M121.55,101.039l-0.85-0.573c-0.63,1.907-1.614,3.798-2.187,4.648c0,0,0.809,1.454,1.084,2.879
		c4.166,3.211,8.764,6.219,20.465,3.368C137.979,110.725,124.913,104.214,121.55,101.039z"/>
	<path fill="#FFFFFF" d="M80.244,105.748c-0.685-0.389-2.642-3.491-2.642-3.491l-0.906,0.481c-3.887,3.5-17.948,9.045-17.948,9.045
		c5.828,2.29,17.319,0.861,22.023-2.655C81.086,106.498,80.244,105.748,80.244,105.748z"/>
	<path fill="#FFFFFF" d="M113.229,102.021c-0.108,0.099-0.194,0.273-0.332,0.377c-0.326,0.246-0.617,0.478-0.973,0.701
		c-0.355,0.231-0.615,0.854-0.308,1.133c0.263,0.234,0.771,0.488,1.101-0.006c0.176-0.27,0.559-0.326,0.774-0.515
		c0.606-0.538,1.041-1.26,1.2-2.092c0.056-0.293-0.189-0.433-0.387-0.638c0.051,0.234-0.264,0.164-0.281,0.342
		c0.002-0.062,0.002-0.12,0.006-0.178C113.757,101.439,113.521,101.747,113.229,102.021z"/>
	<path fill="#FFFFFF" d="M84.205,105.273c0.183,0.457,0.273,1.105,0.577,1.256c0.602,0.298,1.073-0.689,1.687-1.038
		c-0.362-0.569-0.535-1.2-0.907-1.792c-0.232-0.376-1.018-0.773-1.353-1.707C84.389,103.167,83.747,104.122,84.205,105.273z"/>
	<path fill="#FFFFFF" d="M84.209,101.993C84.241,101.994,84.183,101.991,84.209,101.993L84.209,101.993z"/>
	<path fill="#BBC4CA" d="M119.146,97.782c0.095-0.138,8.285-9.522,9.274-22.433c0,0-1.147-7.603-0.819-0.352
		c0,0-0.103,1.268-0.824,4.934c0,0-1.533,5.625-0.707,0.233c0,0,0.306-8.567-0.704-16.208c0,0-0.236-2.653,1.142,0.892
		c0.199,1.23,0.701,3.922,0.856,0.987c-0.939-4.344-1.173-5.403-2.468-5.872c-0.801-6.39-3.17-12.566-3.17-12.566l-0.586,0.704
		c2.168,6.031,3.582,26.074,3.051,31.832c0,0-1.39,11.336-2.582,10.569c0,0,1.925-19.13,1.061-26.231
		c-0.408-9.019-1.707-11.205-2.223-14.76c0,0-2.857-7.444,0.107-3.406l0.35-0.236c-2.528-6.477-6.344-9.63-17.853-9.866
		l1.572,28.151L94.27,64.191l1.145-28.188c-7.046,0-14.328,1.762-16.519,8.501c0,0-3.712,13.565-3.47,15.696
		c-1.973,0.601-5.952,2.51-4.758,13.334c0,0,4.271,19.452,6.187,23.26l1.231,0.063c0,0,1.121-1.176,0.917,2.695
		c0,0-0.646,2.26,1.396,3.602c0,0,0.798-3.258,1.329,1.658c0.1,4.768,1.602,9.787,8.573,14.738c0,0,3.289-2.119,3.649-2.277
		c0,0-4.842-1.84-7.343-4.619c0,0,0.704,3.388-2.094-0.463c0,0-1.343-1.306-2.11-10.168c0.063-1.23-0.103-1.416-1.094-2.701
		c-3.847-7.84-6.899-25.918,0.323-32.614c7.613-0.484,25.777-0.888,32.593,0.351c2.789,0.678,4.159,1.571,4.787,6.368
		c1.359,6.07,0.456,18.196-2.701,27.91c0,0-0.463,2.093-1.572,3.095c-0.907,0.48-4.204,2.775-5.799,6.221
		c-0.592,1.203-1.887,2.373-4.054,3.315c-2.187,1.296-10.231,3.343-7.061,6.863c0,0-0.915,0.412-2.526,0.854
		c0,0,0.424,1.965,1.321,1.66c0,0,1.62-0.623,2.206-1.648c4.732,0.602,10.785-0.493,14.492-3.825
		c1.459-0.983,4.179-2.267,4.496-4.813c0,0,1.562-2.916-1-7.814C117.783,103.532,119.37,100.266,119.146,97.782z M109.872,116.992
		c-0.093,2.923-4.36,4.091-6.077,3.121c-0.283-0.162-1.193-0.979-1.005-1.537c0.181-0.547,0.817-0.903,1.278-1.079
		c0.521-0.197,0.974-0.024,1.478-0.47c0.702-0.617,1.183-0.729,1.998-1.506c0.466-0.442,1.369-0.371,1.798-0.033
		c0.436,0.341,0.698,0.619,0.493,1.441C109.9,116.814,109.834,116.93,109.872,116.992z M115.912,110.323
		c-0.17,1.172,0.045,2.36-0.139,3.509c-0.073,0.447-0.015,1.01-0.332,1.404c-1.416,1.775-2.762,2.517-3.699,1.812
		c-0.771-0.58-0.881-1.646-0.94-1.733c-0.7-1.049-0.471-1.56,0.267-2.342c0.682-0.727,1.416-0.951,2.586-2.131
		c0.43-0.438,0.461-1.283,0.82-1.742C115.137,108.254,116.066,109.253,115.912,110.323z"/>
	<path fill="#FFFFFF" d="M80.438,73.961c0.436-0.605,0.521-1.302,1.874-1.207c-0.051-0.003,2.31-0.393,2.274-0.393
		c2.549,0.01,8.551-0.027,9.848,0.482c0.663,0.262,1.829-0.35,2.411-0.58c2.164-0.856,2.434-1.041,4.711-2.396
		c0.371-0.223,3.058-1.841,2.57-1.896c-6.229-0.681-18.928-0.604-21.439,0.146c0,0-1.057,0.176-1.353,0.508
		c-1.185,1.323-0.938,1.43-1.759,3.26c0.535-1.191-0.282,1.506-0.358,1.747C79.006,74.326,80.196,74.293,80.438,73.961z"/>
	<path fill="#FFFFFF" d="M92.379,108.992c3.724,0.8,4.282-1.364,6.679-0.781c0.822,0.203,1.865,1.143,2.627,1.18
		c0.793,0.043,1.271,0.061,1.793-0.045c0.235-0.05,1.101-0.283,1.39-0.441c0.45-0.25,1.325-0.551,1.655-0.938
		c0.406-0.467,0.584-0.917,1.276-1.214c0.194-0.086,0.242-0.44,0.427-0.616c1.25-1.179,2.271-2.539,3.189-3.998
		c0.27-0.425,0.967-0.955,1.032-1.273c-0.099-0.28-0.396-1.572-0.267-3.184c0.104-1.354-0.027-2.826,0.961-3.215
		c-0.138,0.963,0.59,2.236,0.895,4.812c1.477-1.247,1.68-2.059,2.109-3.244c0.463-1.281,0.635-2.668,0.916-4.01
		c0.353-1.656,0.506-3.414,0.525-4.911c-0.543,0.235-1.255,0.376-1.62,0.62c-0.133,0.088-0.212-0.426-0.024-0.584
		c0.59-0.492,1.082-1.125,1.371-1.549c0.119,0.004,0.481-0.836,0.485-0.857c0.479-2.358,0.278-3.555,0.194-7.046
		c-0.016-0.534,0.042-2.47,0.007-3.528c-0.004-0.146-0.362-1.83-0.166-1.861c-0.444-1.611-0.856-2.543-2.556-3.485
		c-2.43-1.35-5.072-0.796-7.807-0.764c-0.23,0.002-0.404,0.571-0.841,0.839c-1.448,0.898-3.138,1.814-6.142,3.291
		c-1.295,0.64-3.102,1.428-4.525,1.703c-0.197,0.041-0.049,0.881-0.049,0.881c0.33,0.408,1.589-0.006,1.798,1.064
		c0.032,0.155-0.156,3.184,0.19,3.096c-0.408,1.039-1.022-0.422-0.898,1.981c0.053,1.021,0.104,4.528-0.033,5.646
		c-0.152,1.227-1.517,2.037-0.254,3.162c0.933,0.754,1.635-0.209,1.871-0.343c2.002-1.13,0.729-0.149,3.087-0.013
		c0.72,0.04,1.472,0.605,1.712-1.305c0.006-0.051,0.367-0.058,0.438,0.035c0.576,0.764,0.029,1.729-0.641,1.944
		c-2.221,0.71-1.102-0.036-2.935-0.397c-0.102,0.26-0.804,0.221-0.906,0.483c-0.408,1.036-1.446,0.854-1.899,0.868
		c-1.061,0.035-1.49-0.166-1.856-1.598c-0.097,0.302-0.724,0.441-0.913,0.57c-0.366,0.245-0.449,0.152-1.236,0.024
		c-0.743-0.123-1.033-0.498-1.009-0.937c0.052-1.004-0.348-1.783,0.62-1.731c-0.004,0.45,0.13,0.827,0.107,1.329
		c-0.02,0.352,0.325,0.546,0.762,0.568c-0.318-0.016,1.668,0.176,1.536-0.713c-0.01-0.082,0.213-0.693,0.235-1.133
		c0.142-0.965-0.765-0.482-0.61-1.797c0.057,0.061,0.426-2.359,0.214-2.37c-0.115-0.008,0.348-2.717,0.231-2.726
		c0,0,1.033-1.178,0.898-1.979c-0.175-1.03,0.369-1.33-0.328-2.134c-0.376-0.432-0.854-0.574-1.058-0.055
		c-0.014,1.939-0.017,2.537-0.402,4.301c-0.235,1.066-0.89,2.432-1.983,2.453c-4.077,0.082-7.143,0.533-11.243-0.644
		c-0.25-0.073-0.62-0.288-0.626-0.514c-0.048-1.882-0.607-3.351-0.235-5.213c-0.013-1.411-1.53-1.05-1.561-0.435
		c-0.162,1-0.353,0.94-0.46,2.004c-0.009,0.094-0.075,1.543,0.096,1.504c-0.171,0.637-0.024,1.607,0.062,2.209
		c0.064,0.444-0.186,1.414,0.541,3.117c0.344,0.803,1.187,0.943,1.757,1.768c0.418,0.599,0.444,1.699,0.292,2.926
		c-0.013,0.083,1.134-0.166,1.651,0.441c0.085,0.099,0.154,0.856,0.042,0.882c-0.622,0.146-1.101-0.431-1.585-0.069
		c-0.303,0.23-0.282,1.108,0.081,1.401c1.573,1.268,1.215,4.514,1.913,6.012c0.19,0.405,0.519,0.55,0.71-0.051
		c0.667-2.108-0.203-2.146-0.015-3.089c0.193-0.967-0.278-1.424,0.374-2.094c0.699,0.121,0.842,2.016,0.738,2.77
		c-0.284,2.016-0.608,2.203,0.021,4.588c0.563,2.134,3.503,4.9,3.118,4.486c0.143,0.154,1.061,1.267,1.243,1.477
		C90.536,107.636,90.845,108.661,92.379,108.992z M100.403,100.236c-1.701-0.383-2.304,0.152-5.825,0.048
		c-0.151-0.003-1.779,0.26-2.242-0.998c-0.12-0.334,0.906-0.396,2.391-0.142c1.949-0.162,5.601,0.824,7.309,0.209
		c-0.007,0.176,1.437-0.453,1.399,0.248C103.387,100.57,101.025,100.379,100.403,100.236z M107.339,94.711
		c-0.14,0-0.25-0.15-0.25-0.333s0.11-0.332,0.25-0.332c0.136,0,0.25,0.149,0.25,0.332C107.588,94.562,107.475,94.711,107.339,94.711
		z M109.842,80.913c-0.183,0.008-0.353-0.112-0.525-0.152c-0.646-0.149-1.346-0.271-1.897,0.099
		c-0.476,0.318-1.065,0.353-1.426,0.149c-0.239-0.133,0.003-0.553,0.288-0.653c0.384-0.138,0.852,0.047,1.294-0.013
		c0.339-0.045,0.651-0.296,0.975-0.157c0.944,0.402,1.861,0.668,2.888,0.67c0.096,0,0.141,0.147,0.254,0.172
		C111.07,81.068,110.468,80.889,109.842,80.913z M106.557,92.714c0.412,0.144,0.442,0.657,0.252,0.843
		c-0.246,0.238-0.707-0.049-0.529-0.502C106.336,92.915,106.6,92.941,106.557,92.714z M113.413,78.479
		c-0.454,0.225-0.847,0.178-1.282,0.418c0.598-0.332-2.708-0.56-2.374-0.504c0.114,0.015,0.229,0.027,0.347,0.039
		c-0.192-0.019-0.302-0.031-0.347-0.039c-1.013-0.119-1.896-0.318-2.985-0.315c0.002-0.058-0.231,0.182-0.229,0.122
		c-0.6,0.141-0.918-0.325-1.371-0.615c-0.312-0.206-0.596,0.009-0.888-0.033c0.063-0.113-0.104-0.188-0.058-0.26
		c0.075-0.12,0.28-0.182,0.356-0.191c0.522-0.07,1.133-0.022,1.632-0.197c1.758-0.61,3.129,0.228,4.932,0.172
		c0.564-0.02,1.345-0.133,1.875,0.242c0.107,0.078,0.106,0.261,0.188,0.32c0.239,0.176,0.661,0.068,0.798,0.215
		C114.289,78.154,113.729,78.318,113.413,78.479z M114.421,89.121c0.228-0.148,0.412-0.165,0.529-0.441
		c-0.017,0.293,0.026,0.606-0.075,0.868c-0.051,0.132-0.191,0.312-0.343,0.317c-0.138,0.005-0.349-0.094-0.392-0.188
		C114.05,89.484,114.244,89.234,114.421,89.121z M102.169,76.689c-0.015,0.353-0.045,0.879-0.104,1.025
		c-0.037,0.094-0.471-0.039-0.437,0.159C101.246,75.759,103.398,75.977,102.169,76.689z M100.814,84.029
		c0.156-1.313,0.41-1.125,0.134-2.551c0.403-0.949,0.739-2.344,0.739,2.684C101.691,85.495,100.672,85.221,100.814,84.029z
		 M102.298,86.843c-0.17-0.009-0.305-0.155-0.293-0.325c0.006-0.172,0.154-0.305,0.324-0.295c0.172,0.01,0.307,0.154,0.295,0.328
		C102.616,86.721,102.473,86.854,102.298,86.843z M102.322,74.893c-0.162-0.252-0.137-0.732,0.054-0.973
		c0.536-0.689,1.59,0.482,2.235-1.263c-0.004,0.007,2.013-0.082,2.629-0.111c2.105-0.097,5.205-0.079,4.927,0.17
		c0.257-0.229,0.664,0.912,1.085,1.204c0.795,0.551,0.566-0.176,0.923,0.932c-0.245-0.23,0.22,0.67-0.024,0.44
		c-0.006,0.116-0.151,0.636-0.211,0.692c-0.064,0.058-0.844-0.221-0.961-0.228c0.062,0.005-0.737-0.478-0.68-0.475
		c0.064,0.003-0.931-0.757-1.787-1.24c-0.391-0.224-2.031,0.888-2.431,0.929c-1.685,0.176-2.654,0.264-4.433,0.309
		C103.209,75.292,102.585,75.298,102.322,74.893z M103.314,79.648c-0.287-0.127-0.166-0.586-0.149-0.92
		c0.229,0.115,0.367,0.358,0.601,0.451c0.411,0.168,0.808-0.213,1.231-0.093c-0.078,0.17,0.188,0.132,0.167,0.274
		c-0.012,0.06-0.01,0.117-0.012,0.177C104.533,79.167,103.9,79.902,103.314,79.648z M103.312,90.805
		c0.385-0.191,0.808,0.008,1.203,0.137c0.521,0.177,0.6,0.802,1.025,1.061c0.126,0.077,0.465,0.123,0.37,0.299
		c-0.093,0.18-0.442,0.102-0.479-0.186c0.029,0.003,0.058,0.003,0.088,0.006c-0.181-0.114-0.365-0.284-0.524-0.322
		c-0.606-0.145-1.091-0.482-1.716-0.582C103.124,91.193,103.057,90.93,103.312,90.805z M88.818,95.747
		c0.015-0.231,0.006-0.556,0.066-0.636c0.345-0.487,1.051-0.76,1.439-1.137c1.354-1.312,0.785-1.422,1.347-2.133
		c0.981-1.244,1.638-0.889,1.83-0.685c0.02,0.005,0.038,0.028,0.057,0.077c-0.006-0.018-0.026-0.045-0.057-0.077
		c-0.145-0.036-0.344,1.055-1.008,1.875c0.196-0.243-2.403,1.854-2.125,1.829c2.836-0.293,5.36,0.539,7.636,0.535
		c1.398-0.004,2.878-0.668,4.218-0.215c0.922,0.313,1.787,0.362,2.652,0.262c0.372-0.041,0.648-0.282,1.086-0.202
		c-0.115,0.222,1.369,0.03,1.204,0.079c0.683-0.196-0.285,0.584-1.867,0.766c-0.81,0.094-1.3-0.52-3.86-0.38
		c-2.135,0.117-3.775,0.506-5.551,0.144c-1.01-0.205-1.983-0.535-2.981-0.52C91.245,95.352,89.678,96.032,88.818,95.747z"/>
	<path fill="#FFFFFF" d="M112.458,100.783c0.006,0.025-0.003,0.055-0.009,0.083C112.48,100.96,112.493,100.941,112.458,100.783z"/>
	<path d="M103.648,75.279c1.778-0.045,2.75-0.133,4.434-0.309c0.398-0.041,2.04-1.152,2.432-0.929
		c0.855,0.483,1.852,1.244,1.786,1.24c-0.058-0.003,0.74,0.479,0.681,0.475c0.117,0.007,0.896,0.285,0.959,0.228
		c0.061-0.057,0.207-0.576,0.213-0.692c0.244,0.229-0.221-0.671,0.023-0.44c-0.357-1.107-0.128-0.381-0.923-0.932
		c-0.421-0.292-0.829-1.432-1.085-1.204c0.279-0.249-2.82-0.267-4.927-0.17c-0.616,0.029-2.632,0.118-2.63,0.111
		c-0.646,1.745-1.698,0.573-2.234,1.263c-0.189,0.24-0.215,0.721-0.054,0.973C102.585,75.298,103.209,75.292,103.648,75.279z"/>
	<path d="M102.064,77.715c0.06-0.146,0.09-0.673,0.104-1.025c1.229-0.715-0.923-0.932-0.541,1.185
		C101.594,77.677,102.029,77.811,102.064,77.715z"/>
	<path d="M100.948,81.479c0.276,1.426,0.022,1.237-0.134,2.551c-0.143,1.191,0.877,1.467,0.873,0.134
		C101.688,79.136,101.352,80.529,100.948,81.479z"/>
	<path d="M114.141,89.677c0.043,0.097,0.254,0.194,0.392,0.188c0.151-0.006,0.292-0.186,0.343-0.317
		c0.102-0.262,0.059-0.575,0.075-0.868c-0.117,0.276-0.302,0.293-0.529,0.441C114.244,89.234,114.05,89.484,114.141,89.677z"/>
	<path fill="#231F20" d="M102.329,86.223c-0.17-0.01-0.317,0.123-0.324,0.295c-0.012,0.17,0.123,0.316,0.293,0.325
		c0.175,0.011,0.318-0.122,0.326-0.292C102.637,86.377,102.501,86.232,102.329,86.223z"/>
	<path d="M109.758,78.393c0.045,0.008,0.153,0.021,0.348,0.039C109.986,78.42,109.872,78.407,109.758,78.393z"/>
	<path d="M113.21,77.639c-0.081-0.061-0.079-0.244-0.187-0.32c-0.531-0.375-1.312-0.262-1.877-0.243
		c-1.801,0.056-3.174-0.782-4.931-0.173c-0.499,0.176-1.108,0.127-1.632,0.197c-0.076,0.01-0.281,0.072-0.357,0.192
		c-0.047,0.071,0.121,0.146,0.059,0.26c0.292,0.042,0.574-0.173,0.888,0.033c0.453,0.29,0.771,0.756,1.371,0.615
		c-0.003,0.06,0.231-0.179,0.229-0.122c1.09-0.003,1.972,0.197,2.984,0.316c-0.335-0.057,2.971,0.17,2.374,0.502
		c0.435-0.239,0.828-0.193,1.282-0.418c0.314-0.158,0.876-0.322,0.595-0.625C113.871,77.706,113.449,77.814,113.21,77.639z"/>
	<path d="M108.548,80.186c-0.323-0.139-0.635,0.112-0.975,0.157c-0.442,0.06-0.91-0.125-1.294,0.013
		c-0.284,0.102-0.526,0.521-0.288,0.653c0.36,0.202,0.95,0.169,1.426-0.149c0.552-0.369,1.251-0.248,1.897-0.099
		c0.174,0.041,0.344,0.16,0.525,0.152c0.626-0.024,1.229,0.155,1.848,0.114c-0.114-0.024-0.16-0.172-0.254-0.172
		C110.409,80.854,109.492,80.587,108.548,80.186z"/>
	<path d="M105.152,79.539c0.002-0.061,0-0.118,0.012-0.176c0.021-0.143-0.245-0.105-0.167-0.275c-0.424-0.12-0.82,0.26-1.231,0.094
		c-0.232-0.094-0.371-0.336-0.601-0.453c-0.015,0.334-0.138,0.795,0.149,0.922C103.9,79.902,104.533,79.167,105.152,79.539z"/>
	<path fill="#FFFFFF" d="M66.495,57.261c0,0,3.343,5.206,3.775,5.402c0.684-1.287,1.838-3.078,3.344-3.176l0.275-1.926l-3.58-4.071
		L66.495,57.261z"/>
	<path fill="#FFFFFF" d="M73.572,48.461c1.481-1.336-0.197-2.923-2.068-0.904c-0.955,1.361-2.442,2.784-5.024,4.942l1.01-2.418
		c0,0-6.602-8.639-9.268-11.601l-1.406-0.014c-0.246,1.126-1.275,1.943-2.464,1.88c-0.331-0.017-0.643-0.101-0.923-0.237
		c-13.719,12.059,2.717,24.54,11.414,16.713C67.891,54.161,72.592,50.35,73.572,48.461z M64.448,54.244
		c-7.475,6.311-18.399-5.731-10.879-11.157c1.509-1.862,2.863-0.82,1.66,0.263c-0.908,0.819,0.799,2.661,1.915,2.218
		c0.882-0.351,1.94,1.059,1.678,1.587c-0.68,1.401,0.631,2.865,1.641,2.38c0.561-0.268,1.729,0.661,1.335,1.481
		c-0.601,1.247,0.633,2.656,2.013,1.958C65.288,52.227,64.448,54.244,64.448,54.244z"/>
	<path d="M63.81,52.974c-1.379,0.698-2.614-0.711-2.013-1.958c0.395-0.82-0.774-1.749-1.335-1.481
		c-1.01,0.484-2.321-0.979-1.641-2.38c0.262-0.529-0.796-1.938-1.678-1.587c-1.115,0.443-2.823-1.398-1.915-2.218
		c1.203-1.083-0.151-2.125-1.66-0.263c-7.52,5.426,3.404,17.468,10.879,11.157C64.448,54.244,65.288,52.227,63.81,52.974z"/>
	<path fill="#FFFFFF" d="M56.816,38.466c0.028-0.126,0.048-0.255,0.055-0.388c0.07-1.323-0.947-2.451-2.269-2.521
		c-1.321-0.069-2.452,0.946-2.52,2.269c-0.054,0.992,0.505,1.875,1.346,2.284c0.28,0.136,0.592,0.22,0.923,0.237
		C55.541,40.409,56.57,39.592,56.816,38.466z M54.151,38.705c0.962,0.139,1.838-1.402,0.627-1.907
		c-0.458-0.191,0.371-0.334,0.371-0.334c1.459,0.783,0.2,2.923-0.756,2.696C53.359,38.915,54.151,38.705,54.151,38.705z"/>
	<path d="M54.394,39.16c0.956,0.227,2.215-1.913,0.756-2.696c0,0-0.829,0.143-0.371,0.334c1.21,0.505,0.335,2.046-0.627,1.907
		C54.151,38.705,53.359,38.915,54.394,39.16z"/>
	<path fill="#FFFFFF" d="M124.675,49.076c1.042,1.859,5.854,5.521,8.99,8.086c8.938,7.552,25.006-6.212,10.914-17.834
		c-0.274,0.145-0.583,0.237-0.913,0.265c-1.175,0.099-2.247-0.057-2.543-1.027l-1.413,0.056c-2.571,3.042-8.901,11.884-8.901,11.884
		l1.082,2.386c-2.648-2.077-4.178-3.45-5.174-4.784C124.783,46.15,123.154,47.792,124.675,49.076z M134.577,53.283
		c1.239,0.318,2.573-0.8,1.952-2.019c-0.375-0.733,0.742-1.821,1.289-1.523c0.982,0.537,2.188-1.433,1.562-2.43
		c-0.376-0.599,0.628-2.273,1.629-1.639c0.759,0.479,2.272-1.831,1.873-3.049c-0.353-1.088,0.656-1.829,1.913-0.526
		c7.684,5.188-3.146,18.549-10.818,12.475C133.977,54.573,132.977,52.874,134.577,53.283z"/>
	<path d="M144.794,42.098c-1.257-1.303-2.265-0.562-1.913,0.526c0.398,1.218-1.115,3.528-1.873,3.049
		c-1.001-0.634-2.005,1.04-1.629,1.639c0.626,0.997-0.58,2.966-1.562,2.43c-0.547-0.297-1.662,0.791-1.289,1.523
		c0.623,1.219-0.711,2.337-1.951,2.019c-1.602-0.41-0.602,1.29-0.602,1.29C141.646,60.646,152.479,47.286,144.794,42.098z"/>
	<path fill="#FFFFFF" d="M143.667,39.593c0.329-0.027,0.638-0.12,0.913-0.265c0.83-0.434,1.363-1.334,1.277-2.323
		c-0.113-1.321-1.272-2.302-2.59-2.191c-1.318,0.111-2.332,2.045-2.219,3.364c0.012,0.143,0.039,0.271,0.075,0.388
		C141.42,39.536,142.491,39.691,143.667,39.593z M142.748,35.737c0,0,0.833,0.118,0.379,0.324c-1.633,0.743-0.656,2.124,0.691,1.888
		c0,0,0.795,0.184-0.228,0.46C142.214,38.78,140.869,36.824,142.748,35.737z"/>
	<path d="M143.591,38.409c1.022-0.276,0.228-0.46,0.228-0.46c-1.348,0.236-2.324-1.145-0.691-1.888
		c0.454-0.206-0.379-0.324-0.379-0.324C140.869,36.824,142.214,38.78,143.591,38.409z"/>
	<path fill="#FFFFFF" d="M126.152,59.046c1.941,0.013,2.44,4.009,2.519,7.541c0.673-1.023,3.718-6.949,4.169-8.866
		c-0.768-0.481-3.882-3.292-4.396-3.583l-2.653,3.477L126.152,59.046z"/>
	<path d="M114.477,109.098c-0.36,0.461-0.392,1.307-0.822,1.743c-1.17,1.181-1.903,1.405-2.584,2.13
		c-0.738,0.783-0.969,1.295-0.268,2.344c0.059,0.088,0.17,1.152,0.94,1.732c0.938,0.706,2.284-0.035,3.7-1.811
		c0.315-0.396,0.257-0.957,0.332-1.405c0.183-1.147-0.033-2.337,0.138-3.509C116.066,109.253,115.137,108.254,114.477,109.098z
		 M112.711,115.991c-2.083-1.117,0.123-2.165,1.938-3.378c0.09-0.057,0.186,1.652,0.207,1.587
		C114.521,115.3,113.188,116.244,112.711,115.991z"/>
	<path d="M109.341,115.488c-0.429-0.338-1.332-0.409-1.798,0.033c-0.816,0.776-1.296,0.889-1.998,1.506
		c-0.503,0.445-0.955,0.272-1.477,0.47c-0.463,0.176-1.098,0.532-1.279,1.079c-0.188,0.558,0.721,1.375,1.005,1.537
		c1.715,0.971,5.983-0.198,6.077-3.121c-0.038-0.062,0.029-0.176-0.038-0.062C110.039,116.105,109.775,115.829,109.341,115.488z
		 M108.775,117.547c-0.041,0.137-0.135,0.496-0.353,0.762c-0.323,0.265-1.487,0.855-1.327,0.77
		c-0.771,0.427-1.664,0.669-2.547,0.523c-0.795-0.146-0.471-0.828-0.297-0.853c2.234-0.293,2.66-1.56,4.083-2.113
		C108.749,116.734,108.832,117.361,108.775,117.547z"/>
	<path fill="#FFFFFF" d="M114.646,112.611c-1.813,1.215-4.02,2.263-1.937,3.379c0.478,0.253,1.812-0.691,2.146-1.792
		C114.833,114.264,114.736,112.555,114.646,112.611z"/>
	<path fill="#FFFFFF" d="M108.335,116.636c-1.422,0.554-1.849,1.82-4.083,2.113c-0.173,0.022-0.498,0.705,0.297,0.853
		c0.883,0.146,1.775-0.097,2.547-0.523c-0.16,0.086,1.004-0.505,1.327-0.77c0.218-0.266,0.312-0.625,0.353-0.762
		C108.832,117.361,108.749,116.734,108.335,116.636z"/>
	<path d="M93.556,91.234c-0.019-0.049-0.037-0.073-0.057-0.078C93.53,91.188,93.55,91.216,93.556,91.234z"/>
	<path d="M95.884,95.85c1.775,0.361,3.416-0.027,5.55-0.145c2.562-0.141,3.051,0.473,3.861,0.38
		c1.583-0.183,2.551-0.962,1.867-0.765c0.166-0.049-1.318,0.142-1.204-0.08c-0.438-0.08-0.714,0.16-1.086,0.203
		c-0.865,0.1-1.729,0.051-2.653-0.264c-1.339-0.451-2.818,0.213-4.217,0.215c-2.276,0.004-4.8-0.828-7.636-0.535
		c-0.278,0.027,2.32-2.07,2.125-1.828c0.664-0.819,0.863-1.911,1.008-1.875c-0.192-0.204-0.849-0.561-1.83,0.685
		c-0.562,0.711,0.007,0.822-1.347,2.134c-0.388,0.377-1.094,0.648-1.439,1.135c-0.06,0.082-0.051,0.404-0.066,0.637
		c0.859,0.286,2.427-0.396,4.084-0.418C93.901,95.312,94.874,95.643,95.884,95.85z"/>
	<path d="M102.036,99.354c-1.708,0.615-5.36-0.371-7.309-0.209c-1.485-0.254-2.511-0.192-2.391,0.142
		c0.463,1.258,2.091,0.995,2.242,0.998c3.521,0.104,4.125-0.431,5.825-0.048c0.623,0.143,2.982,0.334,3.033-0.635
		C103.473,98.9,102.029,99.529,102.036,99.354z"/>
	<path d="M106.279,93.055c-0.178,0.453,0.283,0.74,0.529,0.5c0.19-0.185,0.16-0.697-0.252-0.842
		C106.6,92.941,106.336,92.915,106.279,93.055z"/>
	<path d="M103.277,91.218c0.625,0.099,1.109,0.437,1.716,0.582c0.159,0.038,0.344,0.208,0.524,0.322
		c-0.031-0.003-0.059-0.003-0.088-0.006c0.037,0.286,0.387,0.364,0.479,0.186c0.095-0.176-0.244-0.222-0.37-0.299
		c-0.426-0.259-0.503-0.884-1.025-1.062c-0.396-0.127-0.818-0.328-1.203-0.137C103.057,90.93,103.124,91.193,103.277,91.218z"/>
	<ellipse fill="#FFFFFF" cx="107.339" cy="94.379" rx="0.25" ry="0.333"/>
	<path fill="#FFFFFF" d="M149.617,24.033c-1.076,0-2.194-0.54-3.568-1.477l-1.635,3.987c1.834,1.056,3.729,1.596,5.602,1.596
		c3.73,0,6.16-2.313,6.16-5.365c0-1.994-1.273-3.408-3.168-3.826c-1.695-0.379-2.65-0.48-2.65-1.176c0-0.42,0.397-0.68,1.115-0.68
		c0.898,0,1.934,0.38,2.936,1.118l1.553-3.73c-1.636-0.876-3.173-1.294-4.809-1.294c-3.625,0-5.959,2.192-5.959,5.183
		c0,2.074,1.238,3.41,3.668,3.928c1.178,0.26,1.895,0.341,1.895,0.998C150.753,23.754,150.355,24.033,149.617,24.033z"/>
	<path fill="#FFFFFF" d="M50,23.055L52.106,28h5.745l-3.811-5.921c1.655-0.201,2.752-1.427,2.752-3.461
		c0-3.052-1.955-4.618-5.763-4.618H44v14h6V23.055z M50,17h0.412c0.998,0,1.516,0.643,1.516,1.521c0,0.875-0.538,1.479-1.516,1.479
		H50V17z"/>
	<path fill="#FFFFFF" d="M67.529,26h3.867l0.458,2h5.504l-4.984-15h-5.703l-5.084,15h5.5L67.529,26z M68.826,20.758
		C69.021,20.001,69.322,19,69.403,18h0.098c0.08,1,0.38,2.001,0.582,2.758L70.521,22h-2.134L68.826,20.758z"/>
	<rect x="82" y="14" fill="#FFFFFF" width="5" height="14"/>
	<path fill="#FFFFFF" d="M103.818,26.465c1.896-1.296,2.951-3.409,2.951-5.761c0-2.712-1.375-4.789-3.83-6.023
		C101.626,14.02,99.77,14,97.298,14H93v14h3.921C99.77,28,101.966,27.741,103.818,26.465z M98,18c0,0-0.313,0-0.233,0
		c2.075,0,3.334,0.823,3.334,2.698c0,1.934-1.103,2.674-3.103,2.716L98,18L98,18z"/>
	<polygon fill="#FFFFFF" points="121,24 117,24 117,22 121,22 121,19 117,19 117,17 121,17 121,14 112,14 112,28 121,28 	"/>
	<path fill="#FFFFFF" d="M132,23.055L134.561,28h5.742l-3.809-5.921c1.654-0.201,2.752-1.427,2.752-3.461
		c0-3.052-1.956-4.618-5.766-4.618H127v14h5V23.055z M132,17h0.861c1,0,1.519,0.643,1.519,1.521c0,0.875-0.538,1.479-1.519,1.479
		H132V17z"/>
</g>
</svg>
