<?xml version="1.0" encoding="utf-8"?>
<!-- Generator: Adobe Illustrator 16.0.3, SVG Export Plug-In . SVG Version: 6.00 Build 0)  -->
<!DOCTYPE svg PUBLIC "-//W3C//DTD SVG 1.1//EN" "http://www.w3.org/Graphics/SVG/1.1/DTD/svg11.dtd">
<svg version="1.1" id="PILLS" xmlns="http://www.w3.org/2000/svg" xmlns:xlink="http://www.w3.org/1999/xlink" x="0px" y="0px"
	 width="200px" height="136px" viewBox="0 0 200 136" enable-background="new 0 0 200 136" xml:space="preserve">
<path fill="#004C54" d="M200,128c0,4.418-3.582,8-8,8H8c-4.418,0-8-3.582-8-8V8c0-4.418,3.582-8,8-8h184c4.418,0,8,3.582,8,8V128z"
	/>
<g>
	<path fill="none" d="M197.956,89.025c-31.181,27.789-47.229,23.519-47.229,23.519c-23.142,16.767-41.694,8.271-41.694,8.271
		s8.015-20.231-0.265-22.381c-7.465-1.935-18.819,3.902-20.237,6.243c-1.474,5.103-7.683,17.862-14.094,25.71
		C72.711,132.5,70.959,135,69.221,136H192c4.418,0,8-3.182,8-7.602V87.178C199.324,87.798,198.643,88.414,197.956,89.025z"/>
	<path fill="none" d="M61.552,12.705C69.081,7.908,75.902,3.768,82.445,0H8C3.582,0,0,3.582,0,8v53.277
		C31.433,45.799,33.226,30.752,61.552,12.705z"/>
	<path fill="none" d="M21.998,136h17.095c-0.829-2-1.369-5.93-1.384-9.384C37.709,126.616,31.816,133,21.998,136z"/>
	<path fill="#FFFFFF" d="M88.531,104.677c1.417-2.34,12.771-8.177,20.236-6.243c8.279,2.149,0.265,22.381,0.265,22.381
		s18.553,8.496,41.694-8.271c0,0,16.049,4.271,47.229-23.519c0.687-0.611,1.368-1.229,2.044-1.849v-5.618
		c-1.798,1.684-3.669,3.383-5.614,5.086c-28.122,24.625-40.598,21.709-40.598,21.709s0.271-0.967,0.239-2.461
		c-0.016-0.822-0.194-1.574-0.2-1.634c-21.65,20.375-39.687,13.5-39.687,13.5s8.008-19.388-4.279-23.3
		c-9.514-3.032-24.09,4.764-25.25,8.932c-1.264,4.535-7.308,16.924-13.302,24.307c-2.67,3.287-5.414,6.302-8.017,8.302h5.927
		c1.738-1,3.49-3.5,5.217-5.613C80.848,122.539,87.058,109.779,88.531,104.677z"/>
	<path fill="#FFFFFF" d="M42.573,114.732c0.792-5.135-0.223-7.041-0.785-7.899c-1.716-2.632-15.101,0.287-18.368,7.753
		c-2.305,5.27,10.995,9.758,10.995,9.758s-6.137,6.779-16.865,8.973c-4.344,0.889-10.223,0.826-16.785-1.726
		C2.043,134.309,4.798,136,8,136h13.998c9.819-3,15.711-9.384,15.711-9.384c0.015,3.454,0.555,7.384,1.384,9.384h4.369
		C41.943,132,41.105,124.264,42.573,114.732z"/>
	<path fill="#FFFFFF" d="M0,67.444v9.85c1.624-1.519,3.349-3.035,5.183-4.524C2.923,71.29,1.065,69.059,0,67.444z"/>
	<path fill="#FFFFFF" d="M90.9,0h-8.455c-6.543,3.768-13.364,7.908-20.894,12.705C33.226,30.752,31.433,45.799,0,61.277v4.352
		c30.712-13.533,35.266-32.546,70.476-53.772C77.081,7.874,83.832,3.918,90.9,0z"/>
	<path fill="#004C54" d="M11.749,72.225c-5.364-2.058-7.03-4.837-7.03-4.837c25.849-11.855,35.986-31.556,57.992-46.196
		C78.56,10.647,91.976,3.611,99.372,0H90.9c-7.068,3.918-13.819,7.874-20.425,11.856C35.266,33.082,30.712,52.096,0,65.628v1.815
		c1.065,1.616,2.923,3.846,5.183,5.325C3.349,74.259,1.624,75.775,0,77.294v4.97C4.867,77.416,9.209,74.046,11.749,72.225z"/>
	<path fill="#004C54" d="M71.311,127.698c5.994-7.382,12.038-19.871,13.302-24.407c1.159-4.168,15.734-11.913,25.25-8.88
		c12.285,3.912,4.277,23.325,4.277,23.325s18.036,6.887,39.688-13.488c0.006,0.061,0.184,0.818,0.201,1.641
		c0.029,1.493-0.24,2.463-0.24,2.463s12.475,2.918,40.598-21.707c1.945-1.703,3.816-3.401,5.614-5.086v-7.035
		c-13.824,14.783-31.093,29.062-42.588,29.963c-0.2-3.02-1.373-5.598-2.788-7.369c-6.777,12.382-27.468,19.982-36.059,17.998
		c10.433-38.213-33.819-23.854-37.212-13.359C75.88,118.675,65.175,130,57.851,136h5.443C65.897,134,68.641,130.986,71.311,127.698z
		"/>
	<path fill="#004C54" d="M46.098,115.32c2.26-13.521-6.296-13-6.296-13c-3.406-0.158-16.351,1.455-20.435,10.482
		c-3.291,7.276,8.234,12.406,8.234,12.406S15.5,134.895,0,127.529v0.869c0,1.218,0.279,2.365,0.765,3.398
		c6.562,2.551,12.441,2.42,16.785,1.532c10.729-2.194,16.865-8.96,16.865-8.96s-13.3-4.463-10.995-9.733
		c3.267-7.467,16.651-10.335,18.368-7.702c0.562,0.858,1.577,2.664,0.785,7.799C41.105,124.264,41.943,132,43.462,136h3.787
		C45.719,132,44.473,125.046,46.098,115.32z"/>
	<path fill="#004C54" d="M106.943,2.188c1.479-0.727,3.027-1.457,4.623-2.188h-8.32L98.52,5.949
		C98.521,5.949,104.384,3.441,106.943,2.188z"/>
	<path d="M134.395,1.582c0.713-0.302,2.055-0.854,3.979-1.582h-2c-1.599,1.126-2.595,1.848-2.595,1.848S133.996,1.751,134.395,1.582
		z"/>
	<path d="M81.353,101.756c3.393-10.494,47.646-24.953,37.213,13.26c8.59,1.983,29.281-5.566,36.058-17.949
		c1.415,1.772,2.587,4.375,2.788,7.396c11.495-0.901,28.765-15.155,42.588-29.938V44.001c-1.333,1.25-1.916,1.699-1.916,1.699
		c-46.062-9.812-82.357,7.971-95.124,15.543c-3.223,1.912-4.948,3.174-4.948,3.174s4.091-2.196,10.978-4.858
		c17.673-6.822,53.758-16.689,86.458-0.301c-1.944,4.17-6.864,10.373-14.718,18.098c-7.476,7.356-12.443,9.474-13.736,10.176
		c-0.207,0.113-0.314,0.166-0.314,0.166c-2.669-10.102-24.883-19.712-56.849-11.785c-13.494,3.35-19.344,7.529-24.815,12.682
		c0.389-1.033,0.831-2.023,1.299-2.971c3.414-6.9,8.459-11.354,8.459-11.354c-1.214,0.6-2.416,1.289-3.604,2.047
		c-4.869,2.803-24.801,12.93-42.112,2.175c-1.073-0.667-1.977-1.292-2.759-1.877c5.755,3.019,15.253,3.272,19.196-0.608
		c-13.803,3.562-16.257-2.738-16.55-6.66c-0.891,0.17-2.322,0.062-3.397-0.188c0,0,2.263-0.96,3.384-1.537
		c0.192-0.101,0.381-0.211,0.569-0.322c0.529-0.301,1.046-0.625,1.544-0.979c0.319-0.228,0.631-0.461,0.937-0.704
		c0.681-0.543,1.327-1.121,1.94-1.714c1.372-1.33,2.571-2.73,3.579-3.971c0.492-0.607,0.944-1.177,1.345-1.676
		c1.24-1.442,3.629-4.63,7.316-7.283c-2.713,3.258-3.581,5.457-3.684,5.737c1.663,0.26,3.124,0.974,3.826,2.292
		c0.688,1.29,0.799,2.442,0.676,3.403c0.044-0.332,0.047-0.568,0.053-0.684c2.403-5.482,8.402-10.562,8.402-10.562
		s-4.438,2.643-5.102,0.083c-1.763-6.802,10.16-20.246,32.83-28.704c0.008-0.003,0.037-0.013,0.073-0.026
		c0.022-0.008,0.046-0.017,0.068-0.024c0.289-0.104,0.562-0.209,0.856-0.313c-0.031,0.014-0.06,0.023-0.088,0.038
		c0.452-0.165,0.901-0.331,1.362-0.491c0,0-12.015,1.861-30.118,12.655c-7.116,4.243-13.512,10.114-16.749,14.572
		c0.142-2.927,1.722-5.77,2.683-8.007c-6.733,4.338-5.055,10.376-10.13,16.264c-2.221,2.371-4.564,4.639-7.046,6.254
		c-14.346,9.339-28.509,3.527-28.509,3.527c19.225-10.395,18.652-12.733,31.32-26.166C61.088,25.766,69.815,18.011,93.712,6.29
		c-1.563,2.016-8.023,7.682-9.418,9.294c0,0,4.797-2.568,13.877-6.876C105.227,5.36,111.879,2.47,117.966,0h-6.399
		c-1.596,0.731-3.144,1.461-4.623,2.188c-2.56,1.253-8.422,3.761-8.422,3.761L103.246,0h-3.875
		c-7.395,3.611-20.811,10.647-36.66,21.191c-22.006,14.64-32.143,34.34-57.992,46.196c0,0,1.666,2.78,7.03,4.837
		C9.209,74.046,4.867,77.416,0,82.264v7.32c8.557-8.982,17.979-13.223,21.154-15.41c3.635,0.985,10.223,1.438,15.416-0.152
		c0,0,17.509,22.123,45.41,11.127c-1.278,2.268-1.847,4.768-2.681,7.723c-6.445,29.979-28.161,42.97-28.161,42.97
		c-3.955-8.981-1.74-17.655-1.068-20.903c1.534-7.401-2.022-12.912-2.022-12.912c14.287,0.68,0.28,18.472,5.587,26.223
		c9.6-5.59,15.391-25.254,16.819-32.271c0.1-0.264-1.354-1.3-2.531-1.732c-13.793-4.436-36.921-0.637-45.279,4.424
		c-26.185,15.846-1.691,26.712-1.691,26.712S9.185,129.314,0,121.364v6.165c15.5,7.363,27.601-2.295,27.601-2.295
		s-11.525-5.104-8.234-12.381c4.083-9.027,17.028-10.59,20.435-10.433c0,0,8.556-0.622,6.296,12.899
		C44.473,125.046,45.72,132,47.249,136h10.603C65.175,130,75.88,118.675,81.353,101.756z M130.885,81.662
		c10.327,1.822,16.036,7.275,16.036,7.275c-4.604,8.004-13.708,11.922-13.708,11.922s0.58-12.744-19.646-15.998
		c-13.673-2.196-21.729,3.865-21.729,3.865S103.96,76.902,130.885,81.662z"/>
	<path d="M119.951,26.556c-2.58,1.096-3.932,1.777-3.932,1.777s7.705-2.41,17.469-4.83c5.835-1.446,12.406-2.893,18.515-3.832
		c15.495-2.383,34.218-2.205,47.998-1.555v-7.984c-10.481,0.785-26.497,1.961-40.729,4.781
		C139.814,18.765,126.225,23.894,119.951,26.556z"/>
	<path d="M66.447,64.232c0.034-0.078,0.067-0.154,0.097-0.229C66.512,64.083,66.479,64.159,66.447,64.232z"/>
	<path d="M66.679,63.648c0.012-0.035,0.023-0.069,0.035-0.103C66.702,63.58,66.691,63.615,66.679,63.648z"/>
	<path d="M103.305,22.489c-0.021,0.008-0.046,0.016-0.068,0.024c0.177-0.063,0.625-0.224,0.837-0.3
		C103.818,22.306,103.559,22.395,103.305,22.489z"/>
	<path d="M71.322,63.571c0,0-1.82,1.096-3.372,1.264c-0.514,0.056-1.121-0.03-1.707-0.166c-0.002-0.001-0.004-0.001-0.007-0.001
		c-0.922,1.951-2.637,3.876-4.947,5.335c-3.126,1.97-6.55,2.59-9.071,1.88c0,0,0.453,0.825,1.182,1.311
		c1.219,0.812,4.815,2,10.015-0.351c1.928-0.872,3.377-1.864,4.479-2.866C71.354,66.827,71.322,63.571,71.322,63.571z"/>
	<path fill="#231F20" d="M104.162,22.175c-0.295,0.104-0.566,0.209-0.857,0.313c0.254-0.094,0.516-0.183,0.77-0.276
		C104.104,22.199,104.131,22.189,104.162,22.175z"/>
	<path fill="none" d="M103.305,22.489c-0.021,0.008-0.046,0.016-0.068,0.024"/>
	<path fill="#FFFFFF" d="M84.292,15.587c1.395-1.613,7.855-7.279,9.418-9.294c-23.897,11.721-32.625,19.476-46.825,34.53
		C34.217,54.255,34.79,56.594,15.565,66.989c0,0,14.164,5.812,28.509-3.527c2.482-1.615,4.826-3.884,7.046-6.254
		c5.075-5.887,3.397-11.926,10.13-16.264c-0.96,2.238-2.541,5.08-2.683,8.007c3.237-4.458,9.633-10.329,16.749-14.572
		c18.104-10.794,30.118-12.655,30.118-12.655c-0.461,0.16-0.91,0.326-1.363,0.491c-24.738,10.283-28.776,23.727-28.9,25.139
		c-0.27,3.03,8.942-3.759,16.472-4.679c-7.922,2.799-14.723,9.537-18.016,17.314c-1.395,3.296-1.819,7.05-5.732,9.985
		c-1.103,1.002-2.552,1.994-4.479,2.866c-5.2,2.351-8.796,1.164-10.015,0.351c-0.729-0.484-1.182-1.311-1.182-1.311
		c2.521,0.71,5.945,0.09,9.071-1.88c2.31-1.458,4.025-3.384,4.947-5.335c0.003,0,0.005,0,0.007,0.001
		c0.077-0.151,0.141-0.294,0.204-0.437c0.032-0.073,0.065-0.149,0.097-0.229c0.049-0.122,0.096-0.242,0.135-0.355
		c0.012-0.034,0.023-0.068,0.035-0.103c0.148-0.452,0.227-0.838,0.267-1.141c0.123-0.96,0.011-2.113-0.676-3.403
		c-0.702-1.318-2.163-2.032-3.826-2.292c0.103-0.28,0.971-2.479,3.684-5.737c-3.687,2.653-6.076,5.841-7.316,7.283
		c1.742,0.196,3.25,1.012,4.092,2.414c1.665,2.773,0.113,6.749-3.466,8.886c-3.579,2.135-7.831,1.619-9.495-1.155
		c-0.211-0.349-0.366-0.717-0.477-1.101c-0.188,0.111-0.377,0.221-0.569,0.322c-1.121,0.577-3.384,1.537-3.384,1.537
		c1.075,0.25,2.506,0.357,3.397,0.188c0.292,3.922,2.747,10.223,16.55,6.66c-3.943,3.883-13.441,3.627-19.196,0.607
		c0.783,0.586,1.686,1.211,2.759,1.878c17.312,10.755,37.243,0.628,42.112-2.175c1.188-0.76,2.39-1.447,3.604-2.047
		c0,0-5.045,4.453-8.459,11.354c6.062-7.758,23.684-20.193,47.313-17.319c0,0-12.364-6.007-31.858,0.363
		c0,0,26.89-15.94,60.926-9.163c-22.084-7.418-41.967-3.892-53.705,0.055c-6.887,2.662-10.978,4.858-10.978,4.858
		s1.726-1.262,4.948-3.174c7.976-5.868,18.918-12.217,29.742-16.677c7.514-3.095,22.491-7.095,28.579-7.445
		c0,0-15.662-2.65-29.948,0.95c0,0,22.619-8.826,44.569-9.314c7.076-0.157,22.933,0.663,24.099,0.724v-0.017
		c-24.235-7.183-49.347-8.596-66.511-5.961c-9.766,2.419-17.469,4.83-17.469,4.83s1.351-0.681,3.931-1.777
		c6.127-3.643,31.094-17.057,77.417-24.476c-0.161-0.146-0.327-0.286-0.499-0.418c-2.353-0.212-6.638-0.524-11.504-0.524
		c-7.55-0.001-22.399,2.55-22.399,2.55c2.738-1.251,6.098-2.492,9.991-3.688h-33.281c-1.747,0.501-3.508,1.026-5.282,1.582
		c-0.396,0.17-0.613,0.266-0.613,0.266s0.996-0.721,2.594-1.848h-18.408c-6.086,2.47-12.738,5.36-19.796,8.711
		C89.089,13.019,84.292,15.587,84.292,15.587z"/>
	<path fill="#BBC4CA" d="M66.679,63.648c-0.04,0.114-0.086,0.234-0.135,0.355c-0.03,0.075-0.063,0.151-0.097,0.229
		c-0.062,0.142-0.126,0.285-0.204,0.437c0.586,0.136,1.192,0.222,1.707,0.166c1.552-0.167,3.372-1.264,3.372-1.264
		s0.033,3.255-3.427,6.404c3.913-2.937,4.337-6.689,5.732-9.985c3.292-7.777,10.093-14.516,18.016-17.314
		c-7.53,0.919-16.742,7.709-16.472,4.679c0.125-1.412,4.162-14.856,28.903-25.141c-0.211,0.077-0.66,0.237-0.836,0.3
		c-0.037,0.013-0.065,0.023-0.074,0.026c-22.669,8.458-34.592,21.901-32.83,28.704c0.664,2.559,5.102-0.083,5.102-0.083
		s-5.999,5.08-8.402,10.562c-0.006,0.116-0.008,0.352-0.053,0.684c-0.041,0.303-0.119,0.688-0.267,1.141
		C66.703,63.58,66.691,63.613,66.679,63.648z"/>
	<path fill="#004C54" d="M59.473,69.557c3.579-2.138,5.131-6.114,3.466-8.887c-0.843-1.402-2.351-2.218-4.092-2.414
		c-0.401,0.499-0.853,1.069-1.345,1.676c1.453,0.017,2.729,0.583,3.396,1.689c1.178,1.964,0.008,4.82-2.614,6.385
		c-2.62,1.562-5.698,1.24-6.875-0.724c-0.181-0.301-0.289-0.626-0.362-0.962c-0.498,0.354-1.015,0.678-1.544,0.979
		c0.111,0.384,0.266,0.752,0.477,1.101C51.642,71.175,55.894,71.689,59.473,69.557z"/>
	<path d="M58.283,68.007c2.622-1.565,3.792-4.421,2.614-6.385c-0.666-1.106-1.943-1.672-3.396-1.689
		c-1.008,1.241-2.207,2.642-3.579,3.971c-0.067,1.107,0.183,2.515,1.551,3.545c0,0-1.555,0.13-2.566-0.616
		c-0.578-0.424-0.824-0.929-0.925-1.216c-0.305,0.243-0.617,0.476-0.937,0.704c0.073,0.336,0.182,0.661,0.362,0.962
		C52.585,69.248,55.663,69.57,58.283,68.007z"/>
	<path fill="#FFFFFF" d="M52.906,66.833c1.011,0.746,2.566,0.616,2.566,0.616c-1.368-1.03-1.618-2.438-1.551-3.545
		c-0.613,0.593-1.26,1.17-1.94,1.714C52.082,65.904,52.328,66.41,52.906,66.833z"/>
	<path fill="#BBC4CA" d="M175.902,28.757c-21.951,0.488-44.57,9.314-44.57,9.314c14.287-3.601,29.947-0.95,29.947-0.95
		c-6.088,0.351-21.063,4.351-28.578,7.445c-10.824,4.459-21.768,10.809-29.742,16.677c12.766-7.572,49.061-25.355,95.124-15.543
		c0,0,0.583-0.449,1.916-1.699v-14.52C198.834,29.42,182.979,28.601,175.902,28.757z"/>
	<path fill="#BBC4CA" d="M152.002,19.671c-6.107,0.938-12.679,2.386-18.514,3.832c17.164-2.634,42.275-1.222,66.511,5.961V18.116
		C186.221,17.466,167.497,17.288,152.002,19.671z"/>
	<path fill="#BBC4CA" d="M162.693,59.504c-34.035-6.777-60.926,9.163-60.926,9.163c19.496-6.37,31.859-0.363,31.859-0.363
		c-23.629-2.874-41.251,9.562-47.313,17.319c-0.468,0.947-0.91,1.938-1.299,2.971c5.471-5.152,11.321-9.332,24.815-12.682
		c31.965-7.928,54.18,1.684,56.85,11.785c0,0,0.106-0.053,0.313-0.166c1.293-0.703,6.261-2.819,13.737-10.176
		c7.853-7.725,12.772-13.926,14.717-18.098c-32.699-16.389-68.785-6.521-86.459,0.301C120.729,55.612,140.611,52.086,162.693,59.504
		z"/>
	<path fill="#BBC4CA" d="M185.364,1.138c4.868,0,9.151,0.312,11.504,0.524C195.52,0.624,193.834,0,192,0h-19.044
		c-3.896,1.195-7.253,2.437-9.991,3.688C162.965,3.688,177.814,1.136,185.364,1.138z"/>
	<path fill="#BBC4CA" d="M139.675,0h-1.301c-1.926,0.728-3.269,1.28-3.979,1.582C136.167,1.026,137.927,0.501,139.675,0z"/>
	<path fill="#BBC4CA" d="M159.271,14.913c14.231-2.819,30.246-3.996,40.729-4.781V8c0-2.35-1.02-4.457-2.633-5.92
		c-46.323,7.418-71.289,20.833-77.417,24.476C126.225,23.894,139.814,18.765,159.271,14.913z"/>
	<path fill="#BBC4CA" d="M113.566,84.861c20.227,3.255,19.646,15.998,19.646,15.998s9.102-3.916,13.708-11.922
		c0,0-5.709-5.451-16.036-7.274c-26.925-4.759-39.047,7.065-39.047,7.065S99.894,82.666,113.566,84.861z"/>
	<path fill="#BBC4CA" d="M20.954,125.38c0,0-24.493-10.866,1.691-26.712c8.358-5.061,31.486-8.859,45.279-4.424
		c1.176,0.433,2.63,1.469,2.531,1.732c-1.429,7.018-7.22,26.682-16.819,32.271c-5.308-7.751,8.699-25.543-5.587-26.223
		c0,0,3.556,5.511,2.022,12.912c-0.672,3.248-2.886,11.922,1.068,20.903c0,0,21.716-12.991,28.161-42.97
		c0.834-2.955,1.402-5.455,2.681-7.723C54.079,96.145,36.57,74.021,36.57,74.021c-5.193,1.59-11.781,1.138-15.416,0.152
		C17.979,76.361,8.557,80.602,0,89.584v31.78C9.185,129.314,20.954,125.38,20.954,125.38z M23.91,81.699c0,0,2.6-1.403,6.076-3.205
		c1.495,1.224,3.047,2.083,7.113,2.467c0,0-7.298,2.126-8.92,2.607C26.177,84.159,21.857,84.773,23.91,81.699z"/>
	<path d="M28.179,83.568c1.622-0.48,8.92-2.607,8.92-2.607c-4.066-0.384-5.619-1.243-7.113-2.467
		c-3.476,1.802-6.076,3.205-6.076,3.205C21.857,84.773,26.177,84.159,28.179,83.568z"/>
</g>
</svg>
