<?xml version="1.0" encoding="utf-8"?>
<!-- Generator: Adobe Illustrator 16.0.3, SVG Export Plug-In . SVG Version: 6.00 Build 0)  -->
<!DOCTYPE svg PUBLIC "-//W3C//DTD SVG 1.1//EN" "http://www.w3.org/Graphics/SVG/1.1/DTD/svg11.dtd">
<svg version="1.1" id="PILLS" xmlns="http://www.w3.org/2000/svg" xmlns:xlink="http://www.w3.org/1999/xlink" x="0px" y="0px"
	 width="200px" height="136px" viewBox="0 0 200 136" enable-background="new 0 0 200 136" xml:space="preserve">
<path fill="#2F2F2F" d="M200,128c0,4.418-3.582,8-8,8H8c-4.418,0-8-3.582-8-8V8c0-4.418,3.582-8,8-8h184c4.418,0,8,3.582,8,8V128z"
	/>
<g>
	<path fill="none" d="M192,0h-33.339C177.837,16.517,190,40.764,190,67.998C190,95.234,177.837,120,158.659,136H192
		c4.418,0,8-3.182,8-7.602V8C200,3.582,196.418,0,192,0z"/>
	<path fill="none" d="M10,67.998C10,40.764,22.163,16.517,41.34,0H8C3.582,0,0,3.582,0,8v120.398C0,132.818,3.582,136,8,136h33.341
		C22.163,120,10,95.234,10,67.998z"/>
	<path d="M11.975,67.998C11.975,40.496,24.592,16.142,44.35,0h-3.01C22.163,16.517,10,40.764,10,67.998
		C10,95.234,22.163,120,41.341,136h3.011C24.592,120,11.975,95.502,11.975,67.998z"/>
	<path d="M190,67.998C190,40.764,177.837,16.517,158.661,0h-3.011c19.758,16.142,32.375,40.496,32.375,67.998
		c0,27.504-12.617,52.002-32.377,68.002h3.012C177.837,120,190,95.234,190,67.998z"/>
	<path fill="#B1BABF" d="M26.569,68.216C26.569,37.09,45.937,10.688,73.278,0H44.35C24.592,16.142,11.975,40.496,11.975,67.998
		C11.975,95.502,24.592,120,44.352,136h27.863C45.437,126,26.569,98.934,26.569,68.216z"/>
	<path fill="#B1BABF" d="M188.025,67.998c0-27.502-12.617-51.856-32.375-67.998h-28.928c27.34,10.688,46.707,37.09,46.707,68.216
		c0,30.718-18.867,57.784-45.645,67.784h27.863C175.408,120,188.025,95.502,188.025,67.998z"/>
	<path fill="#FFFFFF" d="M64.26,105.035c23.925-3.068,34-10.742,36.122-36.621c-1.948-28.772-19.246-35.487-36.339-36.353
		C86.625,29.163,97.142,22.495,100.036,0H73.278C45.937,10.688,26.569,37.09,26.569,68.216C26.569,98.934,45.437,126,72.214,136
		h28.065C96.688,112,80.281,105.852,64.26,105.035z M88.634,70.452c0.386,0.149,1.35,0.157,1.522-0.277
		c0.119-0.305,0.196-0.471-0.069-0.87c-0.482-0.73-1.518-0.85-2.428-1.08c-1.625-0.411-2.021-1.984-1.949-3.179
		c0.036-0.565,0.136-1.218,0.492-1.657c0.751-0.929,1.08-0.882,1.528-1.099c1.495-0.728,3.357-0.209,4.349,0.795
		c0.556,0.562,0.737,1.593,0.759,2.589l-2.56-0.011c0-0.266,0.006-0.499-0.042-0.7c-0.071-0.285-0.451-0.554-0.834-0.558
		c-0.455,0-0.805,0.146-0.957,0.585c-0.182,0.53-0.097,1.312,1.285,1.467c-0.027,0,0.728,0.174,0.704,0.174
		c0.783,0.265,1.538,0.483,2.127,1.605c0.099,0.193,0.115,0.257,0.275,0.807c0.334,1.143,0.113,2.014-0.261,2.691
		c-0.226,0.408-0.783,0.914-0.983,1.037c-1.081,0.668-2.542,0.739-3.871,0.336c-0.652-0.197-1.364-0.695-1.714-1.379
		c-0.366-0.709-0.374-1.285-0.421-2.242l2.475-0.016C88.012,69.859,88.253,70.307,88.634,70.452z M80,62.086l2.828-0.032
		l-0.008,1.38c0.433-0.759,0.672-1.035,1.647-1.435H85v3.359c-2-0.174-2,0.691-2,1.356V73h-3V62.086z M72,65.114
		c0-1.008,0.385-1.885,1.357-2.526c1.66-0.724,2.614-0.53,3.859-0.1c1.19,0.649,1.783,1.451,1.783,2.57V68h-4.873l-0.166,1.748
		c0.006,0.988,2.04,1.423,2.04,0.178v-0.312l2.605-0.013l0.092,1.297c0.023,0.862-0.29,1.8-1.747,2.302
		c-1.548,0.483-2.37,0.194-3.275,0C72.487,72.766,72,71.82,72,70.486V65.114z M68,57.673l3,0.008V73h-3V57.673z M44.99,71.337
		c0,0-0.144,0.438-0.547,0.815c-1.645,1.533-3.922,1.602-5.611,0.798c-0.776-0.372-1.376-0.731-1.803-1.692
		c-0.421-0.941-0.516-1.795-0.396-3.183l3.151-0.02c-0.057,0.443,0.071,1.559,0.368,1.867c0.293,0.309,1.489,0.608,1.948-0.206
		c0.164-0.284,0.203-1.526-0.299-2.005c-0.947-0.909-1.762-1-2.875-1.696c-1.589-0.992-2.436-2.771-2.333-4.46
		c0.047-0.799,0.265-1.356,0.656-2.056c0.387-0.693,0.938-1.325,1.735-1.673c2.116-0.929,4.701-0.474,5.842,1.539
		c0.298,0.526,0.599,1.434,0.557,2.634h-2.026l-1.107,0.082c-0.024-0.482-0.097-1.074-0.417-1.366
		c-0.475-0.431-1.546-0.176-1.831,0.426c-0.512,1.075,0.144,2.097,1.801,2.626c-0.04,0,0.49,0.23,0.455,0.23
		c1.566,0.763,1.999,1.141,2.582,1.967c0.178,0.249,0.522,0.899,0.661,1.693C45.799,69.355,45.372,70.409,44.99,71.337z M51,69.839
		v3.302c-1-0.035-4.047,0.442-4.058-2.662l-0.011-5.844l-1.098,0.035l-0.007-2.542L47,62.093v-1.016l2.949-1.621l0.011,2.673
		l1.124-0.024l0.033,2.606L50,64.691v4.336C50,69.622,50,69.859,51,69.839z M59,68h-4.747l-0.237,1.748
		C54.02,70.736,56,71.171,56,69.926v-0.312l2.659-0.013l0.123,1.297c0.022,0.862-0.277,1.8-1.735,2.302
		c-1.547,0.483-2.417,0.194-3.323,0C52.536,72.766,52,71.82,52,70.486v-5.374c0-1.008,0.44-1.885,1.413-2.526
		c1.661-0.724,2.588-0.53,3.832-0.1c1.19,0.649,1.755,1.451,1.755,2.57V68z M61.783,73.2C60.593,72.766,60,71.82,60,70.486v-5.374
		c0-1.008,0.47-1.885,1.443-2.526c1.661-0.724,2.573-0.53,3.814-0.1c1.19,0.649,1.743,1.451,1.743,2.57V68h-4.691l-0.266,1.748
		C62.049,70.736,64,71.171,64,69.926v-0.312l2.688-0.013l0.138,1.297c0.02,0.862-0.251,1.8-1.708,2.302
		C63.569,73.684,62.688,73.395,61.783,73.2z"/>
	<path fill="#FFFFFF" d="M76.44,66.174c0.453-1.926-2.566-2.175-2.196-0.008L76.44,66.174z"/>
	<path fill="#FFFFFF" d="M100.382,68.516c23.927-3.073,34.277-10.613,36.397-36.491c-0.163-0.009-0.326-0.02-0.489-0.029
		C128.434,31.689,101.212,39.08,100.382,68.516z"/>
	<path fill="#FFFFFF" d="M100.382,68.516c1.329,27.555,18.558,36.101,35.978,37.193c0.183,0.008,0.357,0.018,0.52,0.032
		C134.934,76.968,117.473,69.381,100.382,68.516z"/>
	<path fill="#FFFFFF" d="M173.432,68.216c0-31.126-19.367-57.528-46.709-68.216h-25.906c2.791,24.149,18.965,30.983,35.475,31.995
		c0.171,0.006,0.337,0.016,0.49,0.029c1.318,27.385,17.812,35.945,35.167,36.828c0.301,0.004,0.581,0.016,0.833,0.037
		c-0.278-0.01-0.555-0.021-0.833-0.037c-8.243-0.059-34.248,7.871-35.068,36.89c-0.173-0.011-0.346-0.222-0.519-0.232
		c-7.396-0.296-31.497,5.491-35.103,30.491h26.527C154.562,126,173.432,98.934,173.432,68.216z"/>
	<path fill="#FFFFFF" d="M54.355,66.166l2.196,0.008C57.004,64.248,53.988,63.999,54.355,66.166z"/>
	<path fill="#FFFFFF" d="M64.608,66.174c0.455-1.926-2.564-2.175-2.197-0.008L64.608,66.174z"/>
	<path fill="#FFC20E" d="M136.29,31.995c0.163,0.01,0.326,0.021,0.489,0.029C136.627,32.011,136.461,32.001,136.29,31.995z"/>
	<path fill="#FFC20E" d="M64.043,32.111c17.093,0.866,34.391,7.631,36.339,36.403c0.83-29.435,28.052-36.825,35.908-36.52
		C119.781,30.983,103.607,24.149,100.816,0h-0.781C97.142,22.495,86.625,29.212,64.043,32.111z"/>
	<path fill="#DA2128" d="M100.382,68.516c17.091,0.865,34.552,8.452,36.497,37.227c0.82-29.02,26.825-36.947,35.068-36.889
		c-17.354-0.884-33.848-9.443-35.168-36.829C134.659,57.902,124.309,65.442,100.382,68.516z"/>
	<path fill="#DA2128" d="M171.945,68.854c0.277,0.015,0.556,0.026,0.834,0.037C172.527,68.867,172.247,68.855,171.945,68.854z"/>
	<path fill="#00539B" d="M136.878,105.741c-0.161-0.015-0.336-0.024-0.519-0.032C136.533,105.721,136.706,105.73,136.878,105.741z"
		/>
	<path fill="#00539B" d="M136.359,105.509c-17.42-1.093-34.648-9.54-35.978-37.094c-2.122,25.878-12.196,33.502-36.122,36.571
		C80.281,105.801,96.688,112,100.279,136h0.979C104.863,111,128.964,105.213,136.359,105.509z"/>
	<path d="M83,66.715c0-0.665,0-1.53,2-1.356V62h-0.533c-0.975,0.4-1.233,0.676-1.667,1.435l0.027-1.382L80,62.086V73h3V66.715z"/>
	<path d="M85.588,69.486c0.047,0.957,0.055,1.533,0.421,2.242c0.35,0.685,1.062,1.183,1.714,1.381
		c1.328,0.402,2.79,0.332,3.871-0.338c0.2-0.121,0.757-0.627,0.983-1.035c0.374-0.68,0.595-1.549,0.261-2.692
		c-0.16-0.549-0.176-0.614-0.275-0.807c-0.589-1.123-1.344-1.34-2.127-1.605c0.023,0-0.731-0.174-0.704-0.174
		c-1.382-0.154-1.467-0.937-1.285-1.467c0.152-0.438,0.502-0.585,0.957-0.585c0.384,0.004,0.763,0.272,0.834,0.558
		c0.047,0.202,0.042,0.435,0.042,0.7l2.56,0.011c-0.022-0.996-0.204-2.028-0.759-2.589c-0.992-1.004-2.854-1.523-4.349-0.795
		c-0.449,0.217-0.777,0.17-1.528,1.099c-0.356,0.439-0.457,1.091-0.492,1.657c-0.071,1.194,0.324,2.768,1.949,3.179
		c0.91,0.23,1.945,0.349,2.428,1.081c0.265,0.398,0.188,0.564,0.069,0.869c-0.172,0.436-1.137,0.428-1.522,0.277
		c-0.381-0.146-0.623-0.594-0.571-0.98L85.588,69.486z"/>
	<path d="M44.842,65.968c-0.583-0.827-1.016-1.202-2.582-1.965c0.036,0-0.494-0.226-0.455-0.226
		c-1.657-0.529-2.313-1.542-1.801-2.617c0.284-0.602,1.356-0.838,1.831-0.407c0.32,0.292,0.393,0.847,0.417,1.329L43.359,62h2.026
		c0.042-1.2-0.259-2.108-0.557-2.634c-1.141-2.012-3.727-2.505-5.842-1.576c-0.797,0.348-1.348,0.999-1.735,1.691
		c-0.392,0.699-0.609,1.266-0.656,2.065c-0.104,1.688,0.743,3.473,2.333,4.465c1.113,0.695,1.927,0.789,2.875,1.698
		c0.502,0.479,0.462,1.723,0.299,2.007c-0.459,0.814-1.655,0.515-1.948,0.206c-0.296-0.308-0.425-1.422-0.368-1.866l-3.151,0.02
		c-0.121,1.388-0.025,2.242,0.396,3.183c0.427,0.96,1.026,1.32,1.803,1.692c1.688,0.803,3.966,0.734,5.611-0.799
		c0.403-0.375,0.547-0.814,0.547-0.814c0.382-0.929,0.809-1.98,0.513-3.676C45.364,66.866,45.02,66.217,44.842,65.968z"/>
	<path d="M50,64.691l1.116,0.02l-0.022-2.606l-1.13,0.024l-0.012-2.673L47,61.077v1.016l-1.171,0.036l0.04,2.542L47,64.636v5.845
		c0,3.104,3,2.625,4,2.662V69.84c-1,0.02-1-0.217-1-0.81V64.691z"/>
	<polygon points="71,57.681 68,57.673 68,73 71,73 	"/>
	<path d="M73.697,73.2c0.905,0.194,1.81,0.483,3.357,0c1.457-0.502,1.784-1.439,1.761-2.302l-0.195-1.297L76,69.614v0.312
		c0,1.245-2.034,0.811-2.039-0.178L74.127,68H79v-2.941c0-1.119-0.654-1.921-1.844-2.57c-1.246-0.43-2.084-0.625-3.745,0.1
		C72.438,63.229,72,64.106,72,65.114v5.374C72,71.82,72.509,72.766,73.697,73.2z M76.44,66.174l-2.196-0.008
		C73.874,63.999,76.893,64.248,76.44,66.174z"/>
	<path d="M66.957,70.898l-0.27-1.297L64,69.614v0.312c0,1.245-1.951,0.811-1.957-0.178L62.309,68H67v-2.941
		c0-1.119-0.571-1.921-1.761-2.57c-1.241-0.43-2.125-0.625-3.785,0.1C60.481,63.229,60,64.106,60,65.114v5.374
		c0,1.332,0.593,2.277,1.783,2.712c0.905,0.194,1.851,0.483,3.399,0C66.64,72.698,66.977,71.761,66.957,70.898z M64.608,66.174
		l-2.197-0.008C62.044,63.999,65.063,64.248,64.608,66.174z"/>
	<path d="M57.212,62.488c-1.244-0.43-2.113-0.625-3.773,0.1C52.466,63.229,52,64.106,52,65.114v5.374
		c0,1.332,0.564,2.277,1.753,2.712c0.906,0.194,1.837,0.483,3.385,0c1.457-0.502,1.799-1.439,1.777-2.302l-0.248-1.297L56,69.614
		v0.312c0,1.245-1.98,0.811-1.984-0.178L54.253,68H59v-2.941C59,63.939,58.402,63.137,57.212,62.488z M56.552,66.174l-2.196-0.008
		C53.988,63.999,57.004,64.248,56.552,66.174z"/>
</g>
</svg>
