<?xml version="1.0" encoding="utf-8"?>
<!-- Generator: Adobe Illustrator 16.0.3, SVG Export Plug-In . SVG Version: 6.00 Build 0)  -->
<!DOCTYPE svg PUBLIC "-//W3C//DTD SVG 1.1//EN" "http://www.w3.org/Graphics/SVG/1.1/DTD/svg11.dtd">
<svg version="1.1" id="PILLS" xmlns="http://www.w3.org/2000/svg" xmlns:xlink="http://www.w3.org/1999/xlink" x="0px" y="0px"
	 width="200px" height="136px" viewBox="0 0 200 136" enable-background="new 0 0 200 136" xml:space="preserve">
<path fill="#002A5C" d="M200,128c0,4.418-3.582,8-8,8H8c-4.418,0-8-3.582-8-8V8c0-4.418,3.582-8,8-8h184c4.418,0,8,3.582,8,8V128z"
	/>
<g>
	<path fill="none" d="M144.949,36.165c6.779,0.723,28.658,3.615,46.687,12.237c3.106,1.484,5.899,3.185,8.364,5.08V8
		c0-4.418-3.582-8-8-8H8C3.582,0,0,3.582,0,8v11.971c33.963-0.06,91.034-0.185,91.797-0.188
		C111.743,19.783,131.895,21.846,144.949,36.165z"/>
	<path fill="none" d="M176.734,136H192c4.418,0,8-3.182,8-7.602v-16.112C187.945,129.536,177.491,136,176.734,136z"/>
	<path fill="none" d="M164.575,118.286c-13.621-2.724-31.505-3.447-39.058-3.447L0,114.866v13.532C0,132.818,3.582,136,8,136
		h157.811c1.797-2,3.707-5.956,4.723-9.379C172.8,118.988,164.575,118.286,164.575,118.286z"/>
	<path fill="#FFFFFF" d="M142.458,41.105c0,0,26.401,2.125,46.956,11.952c4.263,2.039,7.793,4.463,10.586,7.229v-6.804
		c-2.465-1.895-5.258-3.596-8.364-5.08c-18.028-8.623-39.907-11.515-46.687-12.237c-13.055-14.319-33.206-16.382-53.151-16.382
		C91.034,19.786,33.963,19.911,0,19.971v5.156c34.202-0.061,91.797-0.188,91.797-0.188
		C111.473,24.939,130.938,27.027,142.458,41.105z"/>
	<path fill="#FFFFFF" d="M200,112.286v-9.399c-0.341,0.565-0.689,1.131-1.055,1.702c-13.107,20.55-26.346,29.267-26.346,29.267
		s12.756-16.676-7.02-20.633c-14.891-2.974-33.964-3.543-40.062-3.543c-7.014,0-69.705,0.144-77.524,0.144
		c-7.823,0-9.981-1.067-11.699-3.427c-1.712-2.354-2.012-5.573,1.197-10.396c3.22-4.822,8.109-12.374,8.109-12.374L24.466,66.622
		c17.732-17.695,31.895-23.63,44.261-23.63c12.54,0,18.063,1.844,38.7,10.502c20.642,8.665,27.462-0.549,27.462-0.549
		c-8.664,3.685-16.404,0.549-30.968-5.896c-14.557-6.453-23.219-9.398-36.296-9.398c-13.086,0-24.14,3.682-37.989,13.871
		C17.557,60.404,15.819,62.749,0,63.045v8.539c11.969,0.01,15.108,0.73,21.669,5.823c6.608,5.134,12.523,10.237,12.523,10.237
		C26.683,100.678,23.704,104,28.978,110c0,0-13.042,0-28.978,0v4.866l125.52-0.027c7.551,0,25.436,0.724,39.057,3.447
		c0,0,8.225,0.703,5.958,8.335c-1.015,3.423-2.925,7.379-4.724,9.379h10.926C177.491,136,187.945,129.536,200,112.286z"/>
	<path fill="#002A5C" d="M67.625,37.65c13.077,0,21.74,2.945,36.296,9.398c14.562,6.445,22.304,9.581,30.968,5.896
		c0,0-6.82,9.214-27.462,0.549c-20.637-8.659-26.161-10.502-38.7-10.502c-12.366,0-26.529,5.935-44.261,23.63L45.6,83.626
		c0,0-4.89,7.551-8.109,12.374c-3.208,4.823-2.909,8.043-1.197,10.396c1.718,2.359,3.876,3.427,11.699,3.427
		c7.821,0,70.512-0.144,77.524-0.144c6.099,0,25.172,0.569,40.062,3.543c19.775,3.957,7.02,20.633,7.02,20.633
		s13.238-8.717,26.346-29.267c0.365-0.569,0.714-1.137,1.055-1.702V60.286c-2.792-2.766-6.323-5.191-10.586-7.229
		c-20.555-9.827-46.956-11.952-46.956-11.952c-11.521-14.078-30.985-16.166-50.661-16.166c0,0-57.595,0.127-91.797,0.188v37.918
		c15.819-0.297,17.557-2.641,29.636-11.525C43.485,41.332,54.539,37.65,67.625,37.65z M87.134,53.684
		c2.049,0.715,4.153,1.502,6.244,2.323c-0.289,0.412-0.532,0.843-0.698,1.303c-1.16,3.13,1.194,6.098,5.276,6.619
		c3.103,0.401,6.306-0.734,8.16-2.69c0.397,0.163,0.799,0.325,1.183,0.482c0.401,0.16,0.778,0.289,1.172,0.438
		c-1.906,3.256-4.367,4.808-13.435,4.035C80.481,64.966,82.942,60.468,87.134,53.684z M76.864,51.432
		c-1.163,2.112-2.312,4.214-2.984,5.45c0.02,0.009,0.072,0.009,0.072,0.009c-2.454,4.371-7.891,13.251,13.185,14.683
		c18.116,1.238,24.501-1.073,29.353-7.837c2.785,0.35,5.729,0.375,8.996-0.034C123.748,67.489,119.174,76,100.243,76
		c-11.195,0-16.575,0-20.36,0C68.99,76,60.96,74.766,48.922,62.855C48.921,62.855,60.715,50.434,76.864,51.432z M105.583,96.447
		C90.505,95.578,81.151,98,76.554,105h-7.763c6.364-11,17.2-13.486,29.607-13.523c25.388-0.082,61.915,8.565,82.413,20.564
		C164.188,105.848,142.793,98.602,105.583,96.447z M151.744,49.1c0,0-7.992,5.414,1.355,7.65
		c18.69,2.589,55.262,9.438,30.621,50.816c-17.326-9.017-50.113-20.789-91.24-20.812C74.485,87.77,67.614,91,58.516,105H48.56
		c8.449-15,16.659-24,34.287-24c8.824,0,16.592,0,21.766,0c12.709,0,19.412,0.966,26.854-14.009
		c0.228-0.451,0.449-0.795,0.665-1.213C133.286,62.709,138.292,51.818,151.744,49.1z"/>
	<path fill="#FFFFFF" d="M131.467,66.991C124.023,81.966,117.322,81,104.613,81c-5.174,0-12.942,0-21.766,0
		c-17.628,0-25.838,9-34.287,24h9.956c9.099-14,15.969-17.23,33.965-18.244c41.126,0.021,73.914,11.809,91.24,20.825
		c24.643-41.38-11.93-48.235-30.621-50.825c-9.348-2.236-1.355-7.653-1.355-7.653c-13.453,2.718-18.458,13.607-19.612,16.676
		C131.917,66.197,131.693,66.54,131.467,66.991z"/>
	<path fill="#FFFFFF" d="M68.791,105h7.763c4.598-7,13.951-9.422,29.03-8.553c37.21,2.154,58.605,9.347,75.229,15.541
		c-20.498-11.999-57.024-20.565-82.414-20.484C85.991,91.54,75.155,94,68.791,105z"/>
	<path fill="#FFFFFF" d="M100.243,76c18.932,0,23.505-8.511,25.241-12.298c-3.267,0.409-6.209,0.38-8.996,0.03
		c-4.85,6.764-11.235,9.079-29.352,7.838c-21.074-1.43-15.638-10.311-13.184-14.681c0,0-0.053,0.001-0.072-0.008
		c0.672-1.236,1.821-3.337,2.984-5.45c-16.149-0.998-27.943,11.424-27.943,11.424C60.959,74.766,68.99,76,79.882,76
		C83.668,76,89.048,76,100.243,76z"/>
	<path fill="#77C25F" d="M95.036,66.193c9.067,0.773,11.528-0.779,13.435-4.035c-0.394-0.149-0.771-0.278-1.172-0.438
		c-0.384-0.157-0.785-0.319-1.183-0.482c-1.854,1.956-5.058,3.091-8.16,2.69c-4.083-0.521-6.437-3.488-5.276-6.619
		c0.166-0.459,0.409-0.891,0.698-1.303c-2.09-0.821-4.195-1.608-6.244-2.323C82.942,60.468,80.481,64.966,95.036,66.193z"/>
	<path fill="#B2B5B8" d="M34.192,87.645c0,0-5.915-5.031-12.523-10.166c-6.561-5.093-9.7-5.885-21.669-5.895V110
		c15.936,0,28.978,0,28.978,0C23.704,104,26.683,100.678,34.192,87.645z"/>
</g>
</svg>
