<?xml version="1.0" encoding="utf-8"?>
<!-- Generator: Adobe Illustrator 16.0.3, SVG Export Plug-In . SVG Version: 6.00 Build 0)  -->
<!DOCTYPE svg PUBLIC "-//W3C//DTD SVG 1.1//EN" "http://www.w3.org/Graphics/SVG/1.1/DTD/svg11.dtd">
<svg version="1.1" id="PILLS" xmlns="http://www.w3.org/2000/svg" xmlns:xlink="http://www.w3.org/1999/xlink" x="0px" y="0px"
	 width="200px" height="136px" viewBox="0 0 200 136" enable-background="new 0 0 200 136" xml:space="preserve">
<path fill="#C8AA76" d="M200,128c0,4.418-3.582,8-8,8H8c-4.418,0-8-3.582-8-8V8c0-4.418,3.582-8,8-8h184c4.418,0,8,3.582,8,8V128z"
	/>
<g>
	<path fill="none" d="M28.269,20.941c20.127-10.6,46.479-16.678,72.304-16.678c36.882,0,73.03,12.319,92.094,31.384
		c2.849,2.847,5.294,5.828,7.333,8.912V8c0-4.418-3.582-8-8-8H8C3.582,0,0,3.582,0,8v36.715
		C6.001,35.738,15.551,27.639,28.269,20.941z"/>
	<path fill="none" d="M192.471,100.506c-19.216,19.217-55.287,31.633-91.897,31.633c-17.915,0-36.102-2.949-52.591-8.527
		c-16.896-5.713-30.932-13.84-40.59-23.5C4.519,97.241,2.053,94.239,0,91.139v37.26C0,132.818,3.582,136,8,136h184
		c4.418,0,8-3.182,8-7.602V91.333C197.915,94.505,195.402,97.574,192.471,100.506z"/>
	<path fill="#FFFFFF" d="M47.981,123.611c16.49,5.578,34.676,8.525,52.591,8.525c36.611,0,72.682-12.414,91.898-31.632
		c2.93-2.932,5.442-6.001,7.528-9.173v-6.875c-2.329,4.76-5.663,9.343-9.95,13.63c-18.607,18.604-53.729,30.628-89.477,30.628
		c-17.546,0-35.353-2.888-51.495-8.345c-16.401-5.55-29.979-13.39-39.267-22.677C5.591,93.475,2.303,88.973,0,84.302v6.837
		c2.053,3.101,4.519,6.103,7.391,8.973C17.049,109.77,31.086,117.896,47.981,123.611z"/>
	<path fill="#FFFFFF" d="M29.865,23.969C49.513,13.62,75.287,7.685,100.573,7.685c36.021,0,71.221,11.925,89.674,30.38
		c4.192,4.192,7.46,8.678,9.753,13.345v-6.851c-2.039-3.084-4.484-6.065-7.333-8.912c-19.063-19.065-55.212-31.384-92.094-31.384
		c-25.825,0-52.176,6.079-72.304,16.678C15.551,27.639,6.001,35.738,0,44.715v6.807C5.185,41.079,15.353,31.611,29.865,23.969z"/>
	<path d="M49.078,120.371c16.142,5.457,33.949,8.345,51.495,8.345c35.749,0,70.87-12.022,89.477-30.628
		c4.288-4.287,7.622-8.87,9.95-13.63V51.41c-2.293-4.667-5.561-9.153-9.753-13.345c-18.453-18.455-53.653-30.38-89.675-30.38
		c-25.285,0-51.059,5.935-70.708,16.284C15.353,31.611,5.185,41.079,0,51.522v32.779c2.303,4.672,5.591,9.174,9.811,13.393
		C19.099,106.98,32.676,114.82,49.078,120.371z M37.222,29.378c17.048-9.975,40.115-15.696,63.287-15.696
		c31.56,0,61.464,10.299,78.04,26.876c8.362,8.363,12.784,17.912,12.784,27.606c0,9.702-4.421,19.248-12.784,27.611
		c-16.576,16.578-46.48,26.875-78.04,26.875c-31.558,0-61.462-10.299-78.039-26.875C14.105,87.411,9.684,77.866,9.684,68.164
		C9.685,53.545,19.464,39.77,37.222,29.378z"/>
	<path fill="#C6A876" d="M100.509,122.65c31.56,0,61.464-10.299,78.04-26.875c8.362-8.364,12.784-17.909,12.784-27.611
		c0-9.694-4.421-19.243-12.784-27.606c-16.576-16.577-46.48-26.876-78.04-26.876c-23.172,0-46.239,5.722-63.287,15.696
		C19.464,39.77,9.685,53.545,9.685,68.164c0,9.702,4.421,19.248,12.786,27.611C39.047,112.354,68.951,122.65,100.509,122.65z
		 M100.673,15.59c46.259,0,83.759,23.408,83.759,52.286c0,28.874-37.5,52.841-83.759,52.841c-46.257,0-83.756-23.967-83.756-52.841
		C16.917,38.998,54.416,15.59,100.673,15.59z"/>
	<path fill="#C9243F" d="M100.673,120.717c46.259,0,83.759-23.967,83.759-52.841c0-28.878-37.5-52.286-83.759-52.286
		c-46.257,0-83.756,23.408-83.756,52.286C16.917,96.75,54.416,120.717,100.673,120.717z M66.826,29.282
		c18.646-8.163,40.238-3.425,44.646-2.321c0.762-0.583,2.58-1.96,2.58-1.96H129v2h2v17h-10.882l-0.418-0.289
		c-16.978-10.996-33.473-7.97-33.745-7.921c-2.616,0.338-4.937,2.081-5.148,3.35c0.543,0.234,1.173,0.45,1.896,0.634
		c2.846,0.375,5.776,0.473,5.776,0.475c15.244-0.079,19.03,0.719,23.826,1.729l2.072,0.426c4.999,0.992,9.393,3.405,12.415,6.88
		c3.069,2.709,5.22,6.716,5.935,9.716h31.553H166v2h0.186H168v23h-6.957l-1.771-0.028l0.094-1.803c0-0.004,0.004-0.168,0.005-0.168
		h-0.237h-1.771l0.095-1.75c0.003-0.057,0.229-4.872-2.033-8.188c-1.075-0.707-2.353-1.062-3.856-1.062h-21.57
		c-2.503,3-6.518,6.219-11.867,8.348c-1.963,0.778-3.932,1.396-5.888,1.928c9.991,1.455,21.229,1.69,23.245-8.028l0.279-1.247h6.019
		H144v2h-0.307H145v29h-6.126l-1.235-0.029l-0.367-1.216c-0.004-0.015-0.095,0.245-0.267-0.755h-0.039l-1.237,0.014l-0.365-1.17
		c-0.016-0.051-0.961-3.248-3.033-5.8c-1.104-0.866-2.405-1.043-3.926-2.043c-0.317,0-11.604,0-14.404,0c0,3,0,8.492,0,8.634
		c0,0.227,0.6,1.631,3.688,3.361c1.647,0.587,3.896,1.066,6.658,1.312l1.654,0.131v1.646c0,0.06,0.477,0.119,0.703,0.175
		l1.297,0.331V115H78v-2h-1v-7.639l1.576-0.062C82.474,105.145,93,103.557,94,98.479c0-0.155,0-11.267,0-15.123
		c-11-0.293-19.674-2.862-23.228-4.103C68.581,85.652,65.269,86,64.267,86H58v-2h-2V60h7.905l0.5,0.585
		C64.843,61.06,65.294,61,65.753,62h0.059l0.312,0.12c8.318,7.698,19.619,9.521,27.05,10.006C93.025,71.629,92.406,70,89.994,70H84
		v-2h-2v-6.775v-0.549c-4-0.259-9.076-0.915-14.596-2.505c-3.9-1.125-6.831-2.979-8.734-5.355c-2.59-2.118-4.057-4.847-4.231-7.977
		C54.095,38.632,58.989,32.521,66.826,29.282z"/>
	<path d="M58.736,52.815c1.903,2.377,4.768,4.231,8.668,5.355C72.924,59.761,78,60.417,82,60.676v0.549V68h2v2h5.994
		c2.412,0,3.031,1.521,3.18,2.02c-7.431-0.486-18.731-2.293-27.05-9.992L65.812,62h-0.059c-0.459-1-0.91-0.94-1.349-1.415L63.905,60
		H56v24h2v2h6.267c1.002,0,4.314-0.348,6.505-6.747C74.326,80.493,83,83.062,94,83.355c0,3.855,0,14.968,0,15.123
		c-1,5.078-11.526,6.666-15.424,6.821L77,105.361V113h1v2h50v-7.411l-1.297-0.331c-0.227-0.056-0.703-0.115-0.703-0.175v-1.646
		l-1.652-0.131c-2.762-0.244-4.951-0.725-6.6-1.312c-3.087-1.73-3.748-3.135-3.748-3.361c0-0.142,0-5.634,0-8.634
		c2.8,0,14.087,0,14.404,0c1.521,1,2.822,1.183,3.926,2.048c2.072,2.553,3.018,5.611,3.033,5.662l0.365,1.234l1.237,0.057h0.039
		c0.172,1,0.263,0.727,0.267,0.741l0.367,1.22l1.235,0.039H145V74h-1.307H144v-2h-2.216h-6.019l-0.279,1.23
		c-2.016,9.721-13.254,9.523-23.245,8.067c1.956-0.532,3.924-1.146,5.888-1.924c5.35-2.128,9.364-5.375,11.867-8.375h21.57
		c1.504,0,2.781,0.366,3.856,1.071c2.263,3.316,2.036,8.152,2.033,8.209L157.363,82h1.771h0.237c-0.001,0-0.005,0.15-0.005,0.154
		l-0.093,1.808l1.77,0.038H168V61h-1.814H166v-2h-1.721h-31.553c-0.715-3-2.865-7.007-5.934-9.716
		c-3.023-3.476-7.417-5.989-12.415-6.98l-2.071-0.377c-4.797-1.009-8.584-1.783-23.827-1.705c0-0.001-2.931-0.088-5.776-0.463
		c-0.723-0.184-1.353-0.396-1.896-0.63c0.211-1.269,2.532-3.014,5.148-3.352c0.272-0.049,16.769-3.064,33.745,7.932L120.118,44H131
		V27h-2v-2h-14.945c0,0-1.818,1.378-2.58,1.96c-4.41-1.104-26.001-5.835-44.647,2.328c-7.837,3.239-12.699,9.347-12.355,15.553
		C54.646,47.971,56.146,50.698,58.736,52.815z M133.426,61H164v19h-4.866c0,0,0.735-12-9.475-13h-17.876
		C133.354,65,133.426,61,133.426,61z M90.148,67H84c0-1,0-0.346,0-5.775c4.8,0,14.596,0.038,21.541,0
		c6.986,0,7.902,4.038,4.958,6.77c-2.772,2.575-8.595,4.516-15.477,3.264C95.022,71.259,94.448,67,90.148,67z M137.131,74H142v25
		h-5.034c0,0-2.858-9-10.29-10H110v9.868c0,0,0.4,6.931,14,8.108V111H78v-4.021c0,0,17-0.646,17-8.406V83.764
		c7,0.146,13.027-1.059,13.027-1.059C109.796,82.312,133.895,89,137.131,74z M67.497,30.82c20.12-8.808,44.349-1.869,44.349-1.869
		L114.622,27H128v13h-9.293c-17.807-11-34.874-7.98-34.874-7.98c-5.555,0.72-10.945,6.939-1.471,9.307
		c3.02,0.407,6.125,0.553,6.125,0.553c17.187-0.09,19.57,0.958,25.562,2.147c15.573,3.088,24.188,22.791,1.553,31.782
		c-23.37,9.278-47.941-0.857-47.941-0.857C65.619,82.627,62.435,82,62.435,82H57V61h6.171c13.966,15,37.894,12.689,37.894,12.689
		s7.105-0.096,11.76-4.487c3.637-4.437,3.059-9.135-3.153-10.956c-2.214-0.67-5.416-0.795-9.098-0.936
		c-13.18-0.502-21.472,1.079-34.479-2.67C51.326,50.383,53.976,36.408,67.497,30.82z"/>
	<path fill="#FFFFFF" d="M159.134,80H164V61h-30.574c0,0-0.072,4-1.643,6h17.876C159.869,68,159.134,80,159.134,80z"/>
	<path fill="#FFFFFF" d="M108.027,82.705c0,0-6.027,1.205-13.027,1.059V98.57c0,7.763-17,8.406-17,8.406V111h46v-4.021
		c-13.6-1.179-14-8.109-14-8.109V89h16.677c7.433,1,10.29,10,10.29,10H142V74h-4.869C133.895,89,109.796,82.312,108.027,82.705z"/>
	<path fill="#FFFFFF" d="M66.094,54.65c13.007,3.749,21.299,2.179,34.479,2.682c3.683,0.141,6.884,0.287,9.098,0.957
		c6.212,1.82,6.79,6.561,3.153,10.997c-4.654,4.394-11.76,4.403-11.76,4.403S77.137,76,63.171,61H57v21h5.435
		c0,0,3.184,0.633,5.227-7.044c0,0,24.572,10.071,47.941,0.792c22.635-8.99,14.021-28.646-1.553-31.733
		c-5.99-1.188-8.375-2.196-25.562-2.106c0,0-3.105-0.09-6.125-0.498c-9.475-2.368-4.084-8.677,1.471-9.396
		c0,0,17.067-3.015,34.874,7.985H128V27h-13.378l-2.776,1.951c0,0-24.229-6.852-44.349,1.956
		C53.976,36.495,51.326,50.394,66.094,54.65z"/>
	<path fill="#FFFFFF" d="M95.015,71.259c6.883,1.252,12.696-0.635,15.469-3.21c2.945-2.732,2.043-6.797-4.943-6.797
		C98.596,61.29,88.8,61.225,84,61.225C84,66.654,84,66,84,67h6.148C94.448,67,95.015,71.259,95.015,71.259z"/>
</g>
</svg>
