<?xml version="1.0" encoding="utf-8"?>
<!-- Generator: Adobe Illustrator 16.0.4, SVG Export Plug-In . SVG Version: 6.00 Build 0)  -->
<!DOCTYPE svg PUBLIC "-//W3C//DTD SVG 1.1//EN" "http://www.w3.org/Graphics/SVG/1.1/DTD/svg11.dtd">
<svg version="1.1" id="PILLS" xmlns="http://www.w3.org/2000/svg" xmlns:xlink="http://www.w3.org/1999/xlink" x="0px" y="0px"
	 width="200px" height="136px" viewBox="0 0 200 136" enable-background="new 0 0 200 136" xml:space="preserve">
<path fill="#D50A0A" d="M200,128c0,4.418-3.582,8-8,8H8c-4.418,0-8-3.582-8-8V8c0-4.418,3.582-8,8-8h184c4.418,0,8,3.582,8,8V128z"
	/>
<g>
	<defs>
		<path id="SVGID_1_" d="M200,128c0,4.418-3.582,8-8,8H8c-4.418,0-8-3.582-8-8V8c0-4.418,3.582-8,8-8h184c4.418,0,8,3.582,8,8V128z"
			/>
	</defs>
	<clipPath id="SVGID_2_">
		<use xlink:href="#SVGID_1_"  overflow="visible"/>
	</clipPath>
	<g clip-path="url(#SVGID_2_)">
		<g>
			<g>
				<path fill="#FFFFFF" d="M115.754,182.24c-0.661,1.656-1.294,4.499-1.033,6.57c0.056,0.45,0.146,0.86,0.25,1.26v0.006
					c-1.561,7.17-4.581,7.287-5.382,7.181c-0.128-0.017-0.199-0.038-0.199-0.038c2.982-2.644,2.887-7.431,5.931-14.084
					c0.14-0.306,0.295-0.616,0.444-0.928C115.765,182.218,115.76,182.229,115.754,182.24z"/>
			</g>
			<path fill="#B1BABF" d="M210.173-25.993c0,0,0.628,11.501-1.544,22.03c-2.1,10.174-3.254,14.05-3.254,14.05
				c-4.443,2.604-11.635,5.809-22.146,7.558c-19.62,3.271-37.425-2-56.861-9.63C106.925,0.385,80.913-7.833,56.778-5.062
				C33.376-2.374,16.633,7.105,7.731,13.286c-8.902,6.176-10.54,7.808-18.171,9.991c0,0,5.998,2.36,9.086,2.36
				c0,0-1.455,6.003-0.911,7.997c0,0,12.717-5.814,14.172-3.088c1.456,2.727-4.542,4.548-8.718,5.631
				c-4.176,1.094-15.083,0.905-15.083,0.905s5.115,3.959,6.919,6.709c0,0-9.641,4.198-20.364,2.743c0,0-0.355,3.97,8.458,10.473
				c-1.877,0.672-4.254,1.76-5.726,3.332c0,0,9.236-1.905,15.039,4.559c1.527,1.917,2.027,3.633,1.854,5.798
				c-0.316,3.927-1.822,5.426-5.52,7.869c-2.116,0.861-4.366,1.938-6.537,3.266c-10.213,6.275-17.682,15.827-22.924,26.739
				c-2.271,4.727-4.087,10.218-5.37,15.2c-1.283,5.009-1.754,9.456-2.055,12.233c-0.3,2.771-0.711,11.506-0.711,11.506
				s4.582-6.419,6.73-9.495c2.138-3.066,15.688-20.104,35.425-25.04c6.314-1.605,12.601-2.277,18.609-2.277
				c14.445-0.011,27.345,3.91,34.981,7.646C58,123.709,76.209,136.37,100.083,140.33c5.62,0.927,11.678,1.388,17.959,1.388
				c6.024,0,12.262-0.438,18.493-1.287c-3.521,5.252-6.897,10.162-10.108,14.71c-3.253-3.099-7.668-3.421-7.668-3.421
				c-5.354-0.506-8.036,2.755-8.036,2.755c-1.083,1.172-1.894,2.693-2.211,4.487c-0.377,1.66,0.072,3.594,0.384,4.575
				c1.021,3.244,3.792,4.721,4.87,5.192c-7.824,10.425-10.096,22.426-10.096,22.431l-3.571,3.148l1.289,5.22
				c-1.989,6.403,1.133,11.207,5.182,13.195c4.109,2.021,7.945,0.85,7.945,0.85c2.417-0.678,4.604-2.199,6.093-4.432
				c0.228-0.339,0.428-0.683,0.605-1.028c0.833-0.449,1.549-0.954,2.16-1.498c1.128,0.127,4.016,0.217,4.016,0.217
				c5.92-0.051,11.706-1.728,16.12-5.476c3.477-3.111,7.303-8.414,7.437-15.661c0-1.36,0.25-6.847-4.282-11.629
				c28.596-41.982,47.159-69.012,59.011-96.511C237.073,4.662,210.289-25.732,210.173-25.993z"/>
			<path d="M115.904,187.378c-0.006,0.007-0.006,0.012-0.006,0.017c0.006-0.01,0.012-0.022,0.017-0.033
				c0-0.011,0.007-0.017,0.007-0.021C115.915,187.351,115.91,187.367,115.904,187.378z M212.489-13.442
				c-0.317,15.205-4.481,25.795-4.481,25.795c-5.954,3.565-14.079,7.369-23.358,8.746c-19.386,2.866-28.91-0.033-46.864-5.775
				C119.842,9.582,92.914-2.808,65.275-2.625C37.63-2.447,17.899,9.554,0.223,23.204c0.272-0.083,4.609-1.438,6.175-1.955
				c0,0-4.126,4.842-5.381,7.536c0,0,8.224-6.148,19.514-5.493c0,0-3.926,0.983-5.564,3.438c0,0,4.581-0.988,5.398,0.816
				c0.822,1.799-1.96,5.892-7.03,8.18c-5.07,2.293-13.256,4.093-18.493,4.42c0,0,5.242,1.638,8.675,4.909
				c0,0-3.999,0.572-8.347,2.288c-3.621,1.433-10.146,2.294-12.928,1.966c0,0,3.809,3.565,8.346,6.381
				C3.871,63.933-1.737,76.15-6.014,80.153c-2.815,0.801-32.165,8.786-38.89,56.167c0,0,14.872-20.747,37.391-26.479
				c22.524-5.73,44.36,0,55.822,5.593c11.462,5.598,29.206,17.877,52.268,21.703c12.684,2.104,27.956,1.721,42.739-1.105
				c-0.239,0.365-11.518,17.143-16.366,23.906c0,0-3.599-4.521-8.469-4.97c0,0-2.044-0.411-3.699,0.449v0.006
				c-1.46,0.672-2.709,2.11-3.115,4.104c-0.41,2.021,0.322,3.587,1.277,4.698c0.911,1.061,2.056,1.599,2.982,1.849
				c0.827,0.2,1.978,0.706,2.193,1.799c-2.222,3.421-5.264,8.364-7.457,13.14c-1.722,3.76-2.544,6.986-3.232,9.158
				c-0.65,2.227-1.228,3.099-1.417,3.21l-2.337,2.06c0,0,0.894,3.615,1.149,4.221c-0.567,1.077-0.851,2.266-0.855,3.438v0.066
				c0,2.454,1.21,4.865,3.41,6.314c1.716,1.183,4.198,1.255,4.198,1.255c2.448,0,4.853-1.211,6.303-3.388
				c0.35-0.526,0.617-1.083,0.812-1.638c1.759-0.717,2.843-1.716,3.403-2.538c1.305,0.3,5.104,0.417,5.259,0.417
				c5.31-0.039,10.34-1.562,14.022-4.699c2.96-2.648,6.192-7.18,6.298-13.25c0-1.082,0.328-6.791-5.154-11.323
				c4.737-6.848,10.558-15.382,16.678-24.64c11.378-17.243,20.686-32.227,27.766-44.737c7.409-12.718,30.589-47.654,30.538-95.491
				C217.481-4.49,212.489-13.442,212.489-13.442z M149.802,134.638c2.556-0.622,5.082-1.299,7.564-2.077
				c0.072-0.021,0.145-0.045,0.217-0.072c-2.538,3.849-22.52,32.438-23.896,34.293c-0.11-0.09-3.542-3.027-3.665-3.133
				C135.114,156.574,149.514,135.076,149.802,134.638z M119.064,176.072c1.1-1.867,2.255-3.699,3.426-5.521
				c0.056-0.083,0.112-0.167,0.167-0.251c-0.05,0.384-0.184,2.467,0.518,4.532c0.404,0.988,1.049,1.988,2.065,2.921
				c0.91,0.839,1.671,1.511,2.304,2.038c-3.076,3.977-7.436,11.413-7.436,11.413c-1.866,0.109-2.799-0.506-3.854-2.755
				c-0.15-0.322-0.267-0.679-0.356-1.05v-0.006c-0.555-2.315-0.05-5.298-0.037-5.381
				C115.938,181.858,118.009,177.859,119.064,176.072z M130.659,184.062c0.817,0.405,1.989,1.199,2.539,2.35
				c0.144,0.305,0.211,0.6,0.211,0.928c0.083,1.343-1.489,3.31-2.883,3.825c-1.01,0.417-2.349,0.622-3.643,0.617
				c-0.411,0-0.815-0.017-1.21-0.057c0.365-0.615,0.811-1.365,1.304-2.17C128.089,187.739,129.466,185.623,130.659,184.062z
				 M138.079,195.048c-2.477,2.16-6.687,3.537-11.084,3.453c-3.921-0.077-6.676-0.71-9.17-2.065
				c-0.011,0.027-0.016,0.051-0.021,0.083c-0.194,0.167-0.589,1.073-3.471,1.5c-1.933,0.316-3.054-0.072-3.172-0.111
				c3.399,3.438,6.477,1.271,6.477,1.271c0.145,0.601,0.355,1.027,0.355,1.027s-1.021,1.5-4.133,0.983
				c-0.376-0.062-0.698-0.166-1.016-0.283c0.062,0.032,0.117,0.056,0.179,0.094c1.193,0.783,1.516,2.389,0.732,3.577
				c-0.794,1.193-2.395,1.516-3.588,0.732c-1.188-0.788-1.517-2.394-0.728-3.582c0.645-0.977,1.822-1.359,2.883-1.043
				c-2.332-1.123-2.933-3.466-2.933-3.466c2.982-2.644,2.888-7.431,5.931-14.083c0.14-0.306,0.295-0.616,0.444-0.928
				c0,0.011-0.006,0.021-0.011,0.032c-0.661,1.656-1.295,4.5-1.033,6.57c0.056,0.45,0.146,0.86,0.25,1.261v0.005
				c0.045,0.184,1.065,4.321,3.86,3.649c-0.028,0.062-0.435,0.973-0.439,0.983c1.223,0.76,4.021,2.087,8.785,2.148
				c6.692,0.09,10.353-4.314,11.356-7.591c0.789-2.55-0.433-5.382-2.954-7.863c0.738-0.855,1.188-2.049,0.695-3.693
				c0.227,0.76-1.201,2.116-2.705,1.982c-0.14-0.011-0.272-0.033-0.412-0.072c-2.271-0.633-4.858-3.398-7.053-5.037
				c-2.182-1.638-2.821-4.176-2.776-5.976c0.034-1.799-0.577-3.932-2.293-5.548c-1.716-1.615-3.254-1.771-3.744-1.899
				c-0.493-0.133-0.632-0.438-0.582-0.766c0.101-0.538,0.795-0.439,0.795-0.439c4.165,0.834,7.207,4.96,7.879,6.171
				c0.623,1.11,7.198,6.247,9.741,8.496c1.188,0.866,6.336,4.814,7.258,8.862C143.478,188.317,140.551,192.893,138.079,195.048z
				 M139.035,171.279c-0.034-0.028-0.085-0.062-0.111-0.083c-0.684-0.623-1.566-1.372-2.544-2.188
				c1.594-2.271,19.854-29.422,25.207-37.841c1.871-0.661,3.692-1.383,5.491-2.139C163.458,134.754,143.704,164.52,139.035,171.279z
				 M115.922,187.34c-0.007,0.011-0.012,0.027-0.018,0.038c-0.006,0.007-0.006,0.012-0.006,0.017
				c0.006-0.01,0.012-0.022,0.017-0.033C115.915,187.351,115.922,187.345,115.922,187.34z"/>
			<path fill="#D50A0A" d="M173.843,26.214c-26.667-0.161-55.55-15.167-81.173-20.887C38.658-6.723,12.484,21.477,12.474,21.488
				c0.005-0.005,8.751-3.188,13.161-0.322c4.793,3.116,0.567,11.151-0.977,12.756c-4.432,4.615-10.801,8.024-17.837,8.024
				c0,0,7.447,1.789,9.857,4.004c0,0-6.908,0.906-10.673,2.21c-3.76,1.311-11.124,3.438-12.756,3.438c0,0,19.397,8.869,7.358,27.811
				c0,0,8.419-1.288,15.433,2.078c0,0-38.429-6.204-51.43,36.212c4.898-4.036,20.287-14.894,44.244-15.01
				c28.921-0.127,41.328,6.525,52.818,13.483c17.515,10.618,30.76,13.761,40.823,15.639c28.916,5.397,57.954-4.326,70.538-10.191
				c36.524-55.96,40.728-87.57,41.351-110.139C202.581,23.36,182.806,26.27,173.843,26.214z M154.018,90.855
				c-12.928,9.146-33.171,11.939-33.171,11.939c-0.228,0.877-1.565,1.799-1.565,1.799s2.071,0.767,7.158,4.593
				c5.081,3.826,3.705,3.637,5.325,4.732c1.622,1.089,2.544,0.782,2.544,0.782c0.488,0.983,0.55,2.443,0.55,2.443
				c0.677,0.64,3.993,3.805,0.911,7.081c-3.089,3.276-6.653,0.232-6.653,0.232c-1.261,0.268-2.488-0.149-2.488-0.149
				s-6.597,4.154-13.15-0.372c-5.33-3.677-5.009-8.036-4.697-9.541c-1.8,1.033-3.733,1.839-5.715,2.461
				c-5.348,1.677-12.173,2.371-18.954,0.116c-4.454-1.499-8.141-4.099-11.051-6.981c-2.916-2.887-5.071-6.075-6.476-8.945
				c-0.211-0.439-0.411-0.872-0.589-1.294c-0.466,1.11-2.699,5.326-9.613,5.025c-7.958-0.344-10.718-7.636-10.718-7.636
				s-1.228-0.411-2.071-1.378c0,0-4.676,0.278-5.165-4.197c-0.483-4.477,4.077-4.998,5.004-5.099c0,0,0.922-1.133,1.905-1.621
				c0,0,0.556,0.805,2.504,0.91c1.949,0.105,0.739-0.577,7.103-0.561c6.365,0.011,8.475,0.655,8.475,0.655s-0.511-1.544-0.161-2.382
				c0,0-14.455-14.439-19.248-29.533c-4.792-15.094-3.327-20.692,2.494-36.607c0,0,4.315,27.116,17.56,44.154
				c7.558,9.725,16.061,17.305,21.975,22.024c0.133,0,0.272,0.006,0.405,0.006c-1.26-1.405-2.221-3.054-2.699-4.943
				c-1.183-4.664-3.121-9.001-4.009-12.456c-0.889-3.46,1.088-10.374,1.088-10.374c-2.654-4.254-1.361-11.256-1.361-11.256
				s1.438-0.683,2.533-2.01c1.088-1.333,0.71-5.265,1.599-11.051c0.888-5.787,4.654-11.773,12.995-15.177
				c8.296-3.388,20.758,1.055,20.87,1.094c0.111,0.033,12.733,4.004,17.31,11.712c4.599,7.747,3.987,14.8,1.205,19.948
				c-2.782,5.153-5.459,8.058-5.387,9.78c0.066,1.716,0.805,3.126,0.805,3.126s-3.188,6.37-7.88,8.168c0,0-2.594,6.703-5.393,8.925
				c-2.787,2.222-6.953,4.509-10.713,7.519c-1.481,1.188-3.187,1.922-5.003,2.294c0.122,0.089,0.239,0.178,0.361,0.267
				c7.559-0.199,18.864-1.116,30.698-4.298c20.842-5.609,40.641-24.635,40.641-24.635C169.15,76.351,166.939,81.703,154.018,90.855z
				"/>
			<g>
				<path d="M106.477,61.502l0.312-0.916c0.312-0.939-0.384-1.362-0.423-2.877c-0.055-0.784-0.11-1.544,0.194-2.449
					c0.245-0.733-0.165-1.546-0.931-1.883c-0.053-0.021-0.103-0.043-0.157-0.061c-0.045-0.017-0.095-0.028-0.144-0.039
					c-0.817-0.206-1.645,0.2-1.889,0.933c-0.307,0.911-0.822,1.477-1.333,2.065c-0.95,1.188-1.761,1.105-2.072,2.044l-0.311,0.916
					c-0.178,0.528,0.011,1.083,0.4,1.489c0.188,0.194,0.411,0.361,0.689,0.455c0.866,0.289,1.782-0.117,2.043-0.905
					c0.045-0.128,0.188-0.2,0.328-0.156c0.139,0.051,0.216,0.195,0.173,0.328c-0.268,0.783,0.216,1.66,1.076,1.949
					c0.277,0.089,0.556,0.089,0.817,0.055C105.811,62.369,106.299,62.036,106.477,61.502z"/>
				<path d="M110.337,52.238c0.005,1.027,0.355,4.999,2.095,6.037h0.005c0.011,0.006,0.021,0.011,0.039,0.017
					c1.737,1.189,5.358,1.745,7.081,1.533c0.227-0.027,0.654-0.16,0.665-0.16c0,0,0,0,0.006,0.005c0.762-0.428,1.444-0.75,2.065-1.4
					c0.828-0.861,1.483-1.922,1.955-3.01c0.206-0.483,0.379-0.978,0.518-1.483c0,0,0.366-1.683,1.077-1.932
					c0.077-0.011,0.149-0.023,0.223-0.034l0.049,0.005l-0.005-0.016c0,0-2.21-0.556-4.726-0.267c-0.24,0.028-0.479,0.061-0.723,0.1
					c-2.805,0.511-5.421,0.938-7.214,0.333c-0.589-0.195-1.101-0.528-1.533-0.889c-0.006-0.011-0.018-0.017-0.022-0.022
					c-0.116-0.1-0.228-0.2-0.333-0.3V50.75c-0.595-0.572-0.983-1.111-1.066-1.233c-0.012-0.017-0.033-0.044-0.033-0.044
					C110.453,49.5,110.331,51.216,110.337,52.238z"/>
				<path d="M90.077,39.843c0.417,0.627-0.305,2.188-0.305,2.188c-0.183,0.455-0.328,0.922-0.45,1.394
					c-0.417,1.616-0.572,3.621,0.095,5.231c0.027,0.056,0.45,0.789,0.428,0.811c-0.039,0.033-0.078,0.067-0.122,0.095
					c0.044-0.028,0.083-0.056,0.122-0.089c0.005,0,0.261,0.361,0.427,0.528c1.244,1.205,4.471,2.943,6.576,3.049
					c0.016,0,0.034,0.011,0.05,0.011c2.01,0.222,4.678-2.732,5.304-3.555c0.623-0.816,1.577-2.277,1.577-2.277
					s-0.733,0.244-1.655,0.356v0.005c-0.144,0.016-0.293,0.028-0.449,0.033c-0.012,0.006-0.022,0.006-0.027,0.006
					c-0.562,0.027-1.178-0.017-1.761-0.211c-1.793-0.6-3.622-2.521-5.553-4.621c-0.168-0.177-0.34-0.349-0.518-0.516
					c-1.777-1.694-3.793-2.577-3.92-2.626c0.011,0.011,0.017,0.016,0.017,0.022l0.011,0.005
					C89.971,39.731,90.027,39.787,90.077,39.843z"/>
				<path fill="#B1BABF" d="M94.916,84.762c0.004,0.002,0.013,0.003,0.022,0.005c0.006,0.003,0.013,0.008,0.019,0.009
					c1.085,0.362,2.113,0.634,3.198,0.757c1.084,0.121,2.228,0.093,3.546-0.141c2.657-0.472,5.7-3.202,6.844-4.011
					c1.147-0.808,5.48-3.672,6.462-4.363c0.983-0.695,1.804-1.274,2.812-2.977c1.012-1.709,2.719-5.68,2.719-5.68
					s-1.639-0.323-2.181-0.39c0,0-0.009,0.015-0.025,0.044c-0.242,0.427-2.196,3.875-2.907,4.595c0,0-0.021,0.003-0.061,0.01
					c0.427,0.245,1.665,1.021,1.876,1.936c0,0-2.081,1.916-4.645,3.045c-2.566,1.13-6.447,3.576-7.977,4.596
					c-0.579,0.385-1.367,0.718-2.362,0.901c-0.62-1.107-2.78-2.474-5.547-3.404c-2.893-0.971-5.549-1.159-6.633-0.557
					c-0.79-0.809-1.271-1.618-1.519-2.329c-0.602-1.735-2.226-6.031-3.588-8.477c-1.364-2.448-1.87-5.231-1.87-5.231
					c0.87-0.728,2.828-0.389,2.828-0.389c-0.018-0.133-0.022-0.319-0.02-0.541c0.02-1.447,0.418-4.455,0.475-4.876
					c0.004-0.033,0.007-0.049,0.007-0.049c-0.469-0.274-1.977-1.005-1.977-1.005s-0.004,0.016-0.011,0.047
					c-0.115,0.469-1.032,4.273-1.243,6.122c-0.226,1.969,0.079,2.924,0.447,4.071c0.367,1.144,2.093,6.041,2.518,7.377
					c0.055,0.166,0.113,0.376,0.179,0.618c0.459,1.69,1.256,4.98,2.863,6.71C90.988,83.148,92.747,84.031,94.916,84.762z"/>
				<path fill="#B1BABF" d="M100.812,41.16c1.943,2.243,5.003,5.053,6.847,5.647c1.834,0.639,5.965,0.245,8.875-0.372
					c2.927-0.472,7.271,0.016,7.271-0.045c-1.794-2.221-7.903-1.588-11.347-1.427c-2.981,0.233-3.877-0.21-4.081-0.289
					c-0.2-0.055-1.184-0.244-3.434-2.232c-2.643-2.205-7.136-6.393-9.901-5.704C95.042,36.811,98.774,39.032,100.812,41.16z"/>
				<path fill="#B1BABF" d="M89.411,51.728c-0.072-0.1-0.978-1.399,0.178-2.077c0.044-0.027,0.088-0.056,0.133-0.088
					c0.044-0.028,0.083-0.062,0.122-0.095c0.022-0.022-0.4-0.755-0.428-0.811c-0.667-1.61-0.511-3.615-0.095-5.231
					c0.122-0.472,0.267-0.938,0.45-1.394c0,0,0.722-1.561,0.305-2.188c-0.049-0.056-0.105-0.111-0.155-0.161l-0.011-0.005
					l-0.034-0.022c0,0-2.271,4.159-2.472,6.314C87.2,48.129,87.056,50.145,89.411,51.728z"/>
				<path fill="#B1BABF" d="M96.896,53.061c0,0,0.04,0.672-1.394,1.626c0,0,2.31,0.739,4.048-0.216
					c1.744-0.955,4.049-5.315,6.981-4.366c2.91,1.017,2.122,5.881,2.934,7.692c0.781,1.761,2.958,2.566,3.093,2.61
					c-0.557-1.616-0.122-2.133-0.122-2.133h-0.005c-1.739-1.039-2.09-5.01-2.095-6.037c-0.006-1.022,0.116-2.738,0.122-2.766
					c-1.305,0.672-6.076-0.927-6.682-2.244c0,0-0.954,1.461-1.577,2.277C101.574,50.328,98.906,53.283,96.896,53.061z"/>
				<path fill="#B1BABF" d="M125.843,51.845c-0.711,0.25-1.077,1.932-1.077,1.932c-0.139,0.505-0.312,1-0.518,1.483
					c-0.472,1.088-1.127,2.149-1.955,3.01c-0.621,0.65-1.304,0.972-2.065,1.4c0.022,0.1,0.051,0.194,0.089,0.288
					c0.527,1.294-1.122,1.772-1.122,1.772c2.844,0.156,3.938-1.544,5.081-3.388c1.146-1.838,1.839-6.525,1.839-6.525l-0.049-0.005
					C125.992,51.822,125.92,51.833,125.843,51.845z"/>
				<path fill="#B1BABF" d="M86.645,55.593c1.117,0.488,2.222,1.011,3.282,1.61c1.588,0.899,3.3,1.96,3.96,3.766
					c0.005,0.016,0.005,0.033,0.017,0.05c0.178,0.456,0.194,1.022,0.073,1.488c0-0.061-0.028-0.139-0.067-0.222
					c-0.145-0.283-0.394-0.489-0.555-0.755c0-0.005-0.005-0.011-0.017-0.022c-0.355-0.405-0.739-0.777-1.189-1.083
					c0,0,0,0.011,0,0.017l-0.011-0.022c0,0-0.344,1.205-0.883,2.094c-0.306,0.511-0.633,1.078-0.978,1.855
					c0,0.012-0.005,0.022-0.011,0.033c-0.671,1.744,0.111,3.588,0.294,3.599c0.217,0.016,0.678-0.194,1.55-2.644
					c0.022-0.056,0.066-0.172,0.094-0.3c0.022-0.116-0.017-0.328-0.067-0.5c0,0,0.005-0.011,0.011-0.028
					c0.106-0.4,0.617-0.367,0.939-0.328c0.111,0.011,0.221,0.028,0.328,0.056c0.194-0.483,0.438-1.15,0.556-1.711
					c0.366-1.36,0.322-3.276-1.255-5.082c-1.583-1.805-5.654-3.149-7.175-3.915c-1.527-0.767-2.9-4.449-2.716-6.992
					c0,0-0.144,1.416-0.144,2.843c0,0.571,0.017,1.149,0.077,1.632c0.034,0.245,0.078,0.467,0.128,0.656
					C83.324,53.199,83.374,54.155,86.645,55.593z"/>
				<path fill="#B1BABF" d="M109.242,70.049c0.117,0.066,0.306,0.14,0.378,0.257c0.166,0.237,0.211,0.333,0.211,0.333
					c-0.161,0.027-0.322,0.05-0.482,0.077c-0.09-0.006-0.489,0.139-0.489,0.261c-0.776,2.488-0.539,2.927-0.355,3.044
					c0.155,0.1,1.889-0.894,2.404-2.694c0-0.011,0.29-1.511,0.351-2.105c0.105-0.959,0.505-2.054,0.555-2.188l-0.011,0.005
					c0-0.005,0.011-0.016,0.011-0.016c-1.761-0.084-2.742,0.611-2.742,0.611s-0.501,0.872-0.64,2.037
					C108.432,69.677,109.109,69.977,109.242,70.049z"/>
				<path fill="#B1BABF" d="M121.315,65.556c-1.682-0.311-5.736-1.688-8.085-1.205c-1.934,0.4-3.094,1.494-3.737,2.599
					c0.005-0.005,0.01-0.017,0.021-0.017c0.011-0.011,0.017-0.011,0.022-0.022c1.299-1.499,3.659-1.438,5.442-1.21
					c1.394,0.172,2.776,0.466,4.143,0.794c3.482,0.822,4.099,0.095,5.354-0.85c1.078-0.811,1.961-2.06,2.616-3.227
					c0.016-0.021,0.028-0.038,0.039-0.061C125.554,64.218,122.799,65.829,121.315,65.556z"/>
				<path fill="#B1BABF" d="M107.082,58.37v-0.011l-0.006-0.022c-0.056-0.766-0.11-1.344,0.128-2.066
					c0.379-1.13-0.319-2.391-1.575-2.893c0.766,0.337,1.176,1.149,0.931,1.883c-0.305,0.905-0.249,1.666-0.194,2.449
					c0.039,1.516,0.734,1.938,0.423,2.877l-0.312,0.916c-0.178,0.534-0.666,0.867-1.227,0.95c0,0.011-0.006,0.022-0.012,0.034
					c-0.295,0.872-1.205,1.105-1.205,1.105s0,0,0,0.006c1.355,0.45,2.777-0.133,3.171-1.317l0.295-0.877
					c0.233-0.644,0.05-1.271-0.101-1.666C107.249,59.313,107.11,58.986,107.082,58.37z"/>
				<path fill="#B1BABF" d="M99.724,59.236l0.311-0.916c0.311-0.939,1.122-0.856,2.072-2.044c0.511-0.588,1.026-1.155,1.333-2.065
					c0.244-0.733,1.071-1.139,1.889-0.933c-1.322-0.372-2.638,0.222-3.022,1.344c-0.238,0.722-0.638,1.155-1.155,1.727v0.005
					l-0.016,0.023c-0.395,0.472-0.7,0.649-1.078,0.894c-0.367,0.222-0.883,0.616-1.088,1.271l-0.295,0.878
					c-0.394,1.178,0.384,2.499,1.733,2.955c0,0-0.588-0.733-0.294-1.61c0-0.011,0.006-0.028,0.011-0.039
					C99.735,60.319,99.545,59.764,99.724,59.236z"/>
				<path fill="#FFFFFF" d="M83.1,63.101c0,0,0.506,2.783,1.87,5.231c1.362,2.445,2.986,6.741,3.588,8.477
					c0.248,0.711,0.729,1.521,1.519,2.329c1.084-0.603,3.74-0.414,6.633,0.557c2.767,0.931,4.927,2.297,5.547,3.404
					c0.995-0.184,1.783-0.517,2.362-0.901c1.529-1.02,5.41-3.466,7.977-4.596c2.563-1.129,4.645-3.045,4.645-3.045
					c-0.211-0.914-1.449-1.69-1.876-1.936c-0.255,0.047-1.269,0.25-1.776,0.623c-0.58,0.428-2.689,3.567-5.452,4.748
					c0.261-1.555-0.744-2.359-1.002-2.332c-0.257,0.03-0.46,0.641-0.514,0.794c-0.053,0.156-0.587,1.207-0.769,1.698
					c-0.183,0.493-0.127,0.533-0.127,0.533c-0.443-0.012-0.888-0.037-1.326-0.071c0.423-0.798,0.8-1.59,1.155-2.381
					c0.258-0.66-0.446-0.805-0.446-0.805l-0.005-0.004c-0.394-0.061-0.786-0.127-1.18-0.2c-0.016-0.002-0.026,0-0.042-0.002
					c-0.494-0.088-0.793,0.222-0.855,0.41c-0.05,0.125-0.097,0.249-0.149,0.372c-0.18,0.437-0.375,0.871-0.562,1.307
					c-0.009,0.024-0.015,0.053-0.029,0.075c-0.223,0.55-0.032,1.01-0.032,1.01c-0.154-0.01-0.521,0.002-1.138-0.12
					c-0.293-0.059-0.682-0.231-0.682-0.231c0.217-0.178,0.349-0.515,0.349-0.515l0.005,0.002c0.393-0.962,0.999-2.454,0.999-2.454
					s0.24-0.641-0.18-0.766c-0.564-0.141-1.128-0.296-1.689-0.464c-0.424-0.09-0.609,0.26-0.657,0.373
					c-0.087,0.226-0.238,0.572-0.291,0.729c-0.216,0.614-0.43,1.226-0.642,1.833c0,0.01,0,0.017-0.002,0.024
					c-0.132,0.394-0.028,0.762-0.028,0.762s-0.544-0.11-0.831-0.186c-0.289-0.076-0.718-0.377-0.718-0.377
					c0.069-0.071,0.153-0.267,0.212-0.406c0.26-0.911,0.506-2.053,0.725-3.005c0.017-0.133,0.02-0.529-0.381-0.697
					c-0.478-0.174-0.955-0.357-1.424-0.551c-0.416-0.132-0.599,0.211-0.664,0.414c-0.188,0.862-0.41,1.893-0.553,2.642
					c-0.06,0.525,0.178,0.893,0.178,0.893c-0.22-0.054-0.666-0.246-1.024-0.398c-0.234-0.099-0.755-0.44-0.755-0.44
					c0.267-0.023,0.419-0.591,0.419-0.591c0.297-0.614,0.495-1.147,0.727-1.73c0.008-0.028,0.021-0.052,0.03-0.079
					c0.006-0.019,0.009-0.031,0.019-0.054c0.23-0.617-0.2-0.946-0.272-0.997c-0.619-0.31-1.318-0.675-1.324-0.675
					c-0.354-0.189-0.592,0.061-0.667,0.304c-0.246,0.696-0.63,1.326-0.763,2.092c-0.062,0.432-0.026,0.736-0.026,0.736
					c-0.845-0.402-1.155-1.038-1.155-1.038c0.202-0.241,0.471-1.094,0.477-1.891c0.009-0.8,0.059-1.544-0.314-1.809
					c-0.373-0.265-0.996,0.406-1.316,0.88c-0.318,0.474-0.391,0.749-0.391,0.749c0,0.021,0,0.042,0,0.062
					c-1.497-2.606-1.289-6.396-1.491-7.091c-0.207-0.691-1.086-1.614-1.086-1.614S83.97,62.373,83.1,63.101z"/>
				<path fill="#FFFFFF" d="M105.472,53.316c0.055,0.018,0.104,0.04,0.157,0.061C105.579,53.354,105.526,53.334,105.472,53.316z"/>
				<path fill="#B1BABF" d="M146.35,87.016l-0.109,0.086c0,0-14.233,8.474-35.858,10.021c0.692,1.028,1.304,2.046,1.817,3.043
					c6.728-0.377,13.537-1.314,19.972-3.098c4.115-1.142,8.164-2.59,12.027-4.413c3.888-1.837,7.702-4.03,11.056-6.737
					c2.187-1.765,4.235-3.667,6.116-5.756c2.586-2.874,4.948-6.295,6.224-9.974c0,0,0.104-0.304,0.102-0.303
					C167.591,70.129,163.475,79.586,146.35,87.016z"/>
				<path fill="#FFFFFF" d="M106.645,92.52c0.865,0.896,1.656,1.807,2.378,2.731c0,0,2.299-0.17,2.617-0.195
					c3.966-0.333,7.932-0.816,11.85-1.522c9.695-1.751,17.025-4.229,20.507-5.538c0.814-0.32,1.591-0.648,2.354-0.979
					c17.125-7.43,21.241-16.887,21.346-17.13c-0.021,0.041-0.707,0.608-1.812,1.502c-0.473,0.391-0.991,0.812-1.579,1.277
					c-6.435,5.082-19.856,14.223-41.711,18.149C117.297,91.767,111.901,92.288,106.645,92.52z"/>
				<path fill="#D50A0A" d="M109.867,108.896c-4.425,2.788-14.297,5.368-23.806,2.179c-9.333-3.135-15.533-11.112-17.519-15.969
					c-0.233-0.504-0.293-1.865,1.07-2.495c0,0-0.861,0.122-1.637,0.758c0,0-0.068,0.102-0.138,0.31
					c-1.045,3.116,5.279,16.38,17.22,20.388c11.948,4.011,24.869-2.397,26.034-5.872c0.08-0.253,0.098-0.455,0.098-0.455
					c-0.271-0.851-0.79-1.381-0.79-1.381C111.063,107.612,110.382,108.531,109.867,108.896z"/>
				<path fill="#FF7900" d="M93.87,87.808c-11.005-3.692-22.945,1.763-25.571,5.078c-0.106,0.135-0.207,0.276-0.292,0.426
					c-0.009,0.015-0.019,0.047-0.032,0.058c0.776-0.636,1.637-0.758,1.637-0.758c-1.363,0.63-1.303,1.991-1.07,2.495
					c1.986,4.856,8.187,12.834,17.519,15.969c9.509,3.189,19.381,0.609,23.806-2.179c0.515-0.365,1.196-1.284,0.532-2.538
					c0,0,0.519,0.53,0.79,1.381c0.114-0.825-0.065-1.996-0.524-3.364C108.892,99.099,102.982,90.864,93.87,87.808z M100.82,100.374
					c-0.006,0.151-0.014,0.302-0.022,0.452c-0.392-0.199-0.791-0.398-1.195-0.595c-0.15,0.904-0.37,1.798-0.671,2.674
					c-0.598-0.347-1.208-0.681-1.823-1c0.271-0.84,0.482-1.689,0.644-2.544c-0.659-0.299-1.331-0.592-2.016-0.878
					c-0.181,0.812-0.398,1.622-0.652,2.43c-0.63-0.291-1.266-0.57-1.906-0.832c0.25-0.786,0.477-1.57,0.683-2.352
					c-0.671-0.259-1.354-0.511-2.048-0.753c-0.236,0.757-0.482,1.523-0.735,2.294c-0.652-0.235-1.306-0.455-1.966-0.66
					c0.262-0.768,0.528-1.526,0.796-2.272c-0.7-0.223-1.396-0.432-2.088-0.629c-0.307,0.746-0.599,1.506-0.873,2.281
					c-0.666-0.178-1.344-0.339-2.02-0.487c0.281-0.793,0.597-1.565,0.939-2.318c-0.721-0.183-1.437-0.354-2.144-0.509
					c-0.382,0.773-0.722,1.573-1.01,2.399c-0.683-0.117-1.372-0.218-2.06-0.303c0.285-0.87,0.645-1.707,1.064-2.511
					c-0.444-0.085-0.884-0.165-1.319-0.24c0.095-0.144,0.191-0.284,0.288-0.426c-4.055-0.722-7.738-1.022-10.714-1.049
					c2.466-0.548,6.684-0.806,11.651-0.214c0.038-0.047,0.075-0.097,0.113-0.144c0.377,0.045,0.759,0.096,1.144,0.148
					c0.341-0.493,0.704-0.973,1.088-1.438c0.642,0.084,1.27,0.177,1.884,0.281c-0.349,0.479-0.683,0.972-1,1.478
					c0.681,0.124,1.371,0.265,2.068,0.423c0.285-0.521,0.58-1.032,0.886-1.529c0.585,0.126,1.163,0.262,1.729,0.407
					c-0.26,0.515-0.515,1.041-0.764,1.577c0.648,0.173,1.302,0.362,1.958,0.567c0.207-0.551,0.415-1.094,0.622-1.628
					c0.551,0.172,1.098,0.354,1.64,0.551c-0.157,0.55-0.319,1.107-0.486,1.671c0.648,0.23,1.282,0.472,1.905,0.723
					c0.124-0.575,0.238-1.146,0.339-1.711c0.544,0.227,1.083,0.465,1.627,0.72c-0.056,0.575-0.127,1.155-0.213,1.736
					c0.65,0.29,1.284,0.589,1.901,0.896c0.05-0.584,0.08-1.169,0.09-1.751c0.554,0.288,1.11,0.593,1.673,0.913
					c0.026,0.587,0.027,1.174,0.003,1.758c0.339,0.186,0.672,0.373,0.999,0.562c0.005,0.091,0.006,0.182,0.008,0.274
					c4.193,2.458,7.314,5.105,8.905,7C107.413,104.099,104.382,102.188,100.82,100.374z"/>
				<path d="M69.972,92.547c2.976,0.026,6.659,0.327,10.714,1.049c0.3-0.435,0.613-0.856,0.938-1.263
					C76.656,91.741,72.438,91.999,69.972,92.547z"/>
				<path d="M100.84,98.817c0.012,0.517,0.005,1.035-0.02,1.557c3.562,1.814,6.593,3.725,8.925,5.443
					C108.154,103.923,105.033,101.275,100.84,98.817z"/>
				<path fill="#FFFFFF" d="M100.84,98.817c-0.002-0.093-0.003-0.184-0.008-0.274c-0.327-0.188-0.66-0.376-0.999-0.562
					c0.024-0.584,0.022-1.171-0.003-1.758c-0.563-0.32-1.12-0.625-1.673-0.913c-0.01,0.582-0.041,1.167-0.09,1.751
					c-0.617-0.307-1.251-0.605-1.901-0.896c0.086-0.581,0.157-1.161,0.213-1.736c-0.545-0.255-1.083-0.493-1.627-0.72
					c-0.102,0.565-0.215,1.136-0.339,1.711c-0.623-0.251-1.257-0.492-1.905-0.723c0.167-0.563,0.329-1.121,0.486-1.671
					c-0.542-0.196-1.089-0.379-1.64-0.551c-0.207,0.534-0.415,1.077-0.622,1.628c-0.657-0.205-1.31-0.395-1.958-0.567
					c0.249-0.536,0.504-1.062,0.764-1.577c-0.566-0.146-1.144-0.281-1.729-0.407c-0.306,0.497-0.602,1.009-0.886,1.529
					c-0.697-0.158-1.387-0.299-2.068-0.423c0.317-0.506,0.651-0.999,1-1.478c-0.614-0.104-1.242-0.197-1.884-0.281
					c-0.384,0.465-0.748,0.944-1.088,1.438c-0.385-0.053-0.767-0.104-1.144-0.148c-0.038,0.047-0.075,0.097-0.113,0.144
					c-0.325,0.406-0.637,0.828-0.938,1.263c-0.097,0.142-0.193,0.282-0.288,0.426c0.436,0.075,0.875,0.155,1.319,0.24
					c-0.42,0.804-0.78,1.641-1.064,2.511c0.688,0.085,1.377,0.186,2.06,0.303c0.288-0.826,0.627-1.626,1.01-2.399
					c0.707,0.155,1.422,0.326,2.144,0.509c-0.342,0.753-0.658,1.525-0.939,2.318c0.676,0.148,1.354,0.31,2.02,0.487
					c0.274-0.775,0.566-1.535,0.873-2.281c0.692,0.197,1.389,0.406,2.088,0.629c-0.269,0.746-0.535,1.505-0.796,2.272
					c0.661,0.205,1.314,0.425,1.966,0.66c0.253-0.771,0.499-1.537,0.735-2.294c0.694,0.242,1.376,0.494,2.048,0.753
					c-0.206,0.781-0.433,1.565-0.683,2.352c0.64,0.262,1.276,0.541,1.906,0.832c0.254-0.808,0.471-1.618,0.652-2.43
					c0.686,0.286,1.357,0.579,2.016,0.878c-0.162,0.854-0.374,1.704-0.644,2.544c0.615,0.319,1.226,0.653,1.823,1
					c0.301-0.876,0.521-1.77,0.671-2.674c0.404,0.196,0.803,0.396,1.195,0.595c0.009-0.15,0.017-0.301,0.022-0.452
					C100.845,99.853,100.852,99.334,100.84,98.817z"/>
				<path fill="#FFFFFF" d="M52.623,55.748l0.616,1.106c0.401,0.653,0.904,1.526,1.552,2.586
					c3.107,4.976,7.238,10.327,12.771,15.897c0.017,0.016,6.896,6.8,9.826,9.384c1.134-0.311,2.326-0.567,3.559-0.767
					c-4.084-3.378-8.108-7.074-11.788-11.06c-18.597-20.146-22.15-38.879-23.345-43.91C45.814,28.984,44.045,40.036,52.623,55.748z"
					/>
				<path fill="#B1BABF" d="M69.951,85.017c0.198,0.176,1.815,1.786,1.976,1.71c1.009-0.48,2.111-0.926,3.282-1.333
					C58.811,71.089,52.574,55.659,52.574,55.659l0.049,0.088c-8.578-15.711-6.809-26.763-6.809-26.763s-0.107,0.315-0.107,0.316
					c-0.719,2.117-0.989,4.427-1.106,6.647c-0.199,3.759,0.154,7.54,0.949,11.216c0.845,3.906,2.196,7.669,3.852,11.3
					c1.696,3.717,3.791,7.246,6.125,10.595c2.875,4.128,6.153,7.969,9.708,11.523C66.76,82.109,68.335,83.586,69.951,85.017z"/>
				<path fill="#B1BABF" d="M53.238,56.854l-0.616-1.106C52.823,56.114,53.026,56.482,53.238,56.854z"/>
				<path fill="#B1BABF" d="M50.836,91.185c-0.145,0.296-0.243,0.573-0.239,0.782c0.009,0.319,0.158,0.606,0.304,0.82
					c0,0,5.083,0.271,8.278,1.148c0.127-0.455,0.292-1.014,0.511-1.69c0.137-0.433,0.322-0.794,0.528-1.121
					c-0.011,0.01-0.022,0.021-0.03,0.03C58.861,90.926,53.609,90.857,50.836,91.185z"/>
				<path fill="#FFFFFF" d="M50.836,91.185c2.772-0.327,8.024-0.259,9.353-0.03c0.008-0.009,0.019-0.021,0.03-0.03
					c0.766-1.211,1.902-1.752,2.727-2.025c-1.374-0.218-2.985-0.401-4.37-0.525c-0.688-0.062-1.377-0.11-2.067-0.145
					c-0.437-0.021-0.875-0.034-1.312-0.044c-0.908,0.176-1.95,0.501-2.679,0.98C51.671,89.915,51.125,90.599,50.836,91.185z"/>
				<path fill="#FFFFFF" d="M49.668,91.261c0.032-0.036,0.148-0.257,0.169-0.295c0.319-0.604,0.946-1.179,1.533-1.521
					c0.006-0.004,0.012-0.01,0.017-0.012c1.026-0.616,2.638-0.99,3.657-1.046c0.029-0.003-0.359-0.012-0.554-0.011
					c-1.265,0.007-2.529,0.132-3.781,0.307c-1.11,0.154-2.175,0.348-3.201,0.338c-0.327-0.001-0.642-0.024-0.945-0.082
					c-0.004-0.001-0.012,0-0.018-0.001c0.006,0.001,0.014,0,0.018,0.001c-0.289-0.055-0.569-0.136-0.845-0.253
					C45.73,88.731,46.328,91.261,49.668,91.261z"/>
				<path fill="#B1BABF" d="M66.676,83.61c-0.181,0.051-0.307,0.197-0.257,0.485c0.047,0.287,0.341,1.123-0.087,2.408
					c-0.429,1.288-1.392,2.121-2.342,2.536c-0.947,0.415-2.113,1.354-2.441,2.89c-0.323,1.535-1.154,3.557-0.924,4.892
					c0.088,0.508,0.591,1.211,1.75,1.161c-0.792,0.656-1.541,0.607-2.149,0.33c-0.959,1.772-2.405,2.502-5.034,1.991
					c-2.691-0.521-6.098-3.102-6.806-7.458c0.001-0.093,1.298-0.086,1.417-0.086c0.006,0,0.011,0,0.018,0
					c-0.159-0.207-0.33-0.508-0.341-0.834c-0.004-0.182,0.072-0.415,0.188-0.665c-3.34,0-3.938-2.529-3.95-2.575
					c0,0-1.06,0.851-1.105,2.304c-0.115-0.599-0.594-1.09-1.23-1.185c-0.805-0.124-1.56,0.431-1.682,1.238
					c-0.121,0.807,0.437,1.561,1.242,1.683c0.804,0.121,1.559-0.432,1.681-1.239c0.002-0.019,0.003-0.038,0.005-0.057
					c0.019,0.171,0.052,0.351,0.103,0.536c0.141,0.515,0.331,0.88,0.527,1.157c0.471,0.665,0.983,0.763,0.983,0.763
					c0.005,0.001,0.072-0.096,0.078-0.102c0.035-0.04,0.334-0.354,0.374-0.328c-0.338-0.219-1.779-1.312-0.903-3.697
					c0,0-0.049,2.154,1.731,3.3c0.195,0.893,1.592,6.22,6.816,7.877c5.703,1.812,7.901-0.907,8.413-1.931
					c0.233-0.468,0.816-1.923,0.816-1.923c0.495-1.416,1.749-6.928,2.22-7.57c0.468-0.644,1.883-3.223,1.31-5.593
					C67.096,83.919,66.98,83.53,66.676,83.61z"/>
				<path fill="#FFFFFF" d="M117.775,107.497c0.491,0.713,1.079,1.882,0.963,3.305c1.19,0.617,5.425,3.728,7.437,5.665
					c0.124-0.642,0.101-1.519-0.244-2.467c-0.293-0.821-0.924-1.708-1.544-2.396c-0.08-0.06-0.16-0.119-0.242-0.18
					c-0.633-0.455-1.283-0.887-1.939-1.309c-0.92-0.591-1.854-1.156-2.801-1.703c-0.448-0.258-0.901-0.509-1.354-0.764
					C117.954,107.595,117.867,107.549,117.775,107.497z"/>
				<path fill="#FFFFFF" d="M126.797,114.732c0.244,0.604,0.378,1.353,0.34,2.004c-0.011,0.181-0.037,0.341-0.069,0.491
					c0.002,0.002,0.006,0.011,0.009,0.015c0.117,0.088,0.231,0.171,0.346,0.247c0.186,0.124,0.379,0.234,0.576,0.336
					c0.312,0.162,0.64,0.287,0.98,0.369c0.245,0.06,0.518,0.097,0.77,0.097c0.731,0,1.412-0.285,1.992-0.719
					c0.008-0.007,0.017-0.013,0.025-0.02c-0.282-0.068-0.549-0.167-0.806-0.293c-0.28-0.138-0.552-0.314-0.819-0.513
					c-0.353-0.263-1.394-1.244-1.645-1.5c-0.343-0.345-0.688-0.687-1.034-1.027c-0.42-0.413-1.332-1.256-1.757-1.578
					c-0.094-0.071-1.212-0.968-1.212-0.968C124.533,111.707,126.391,113.665,126.797,114.732z"/>
				<path fill="#B1BABF" d="M128.979,118.194c-0.341-0.082-0.668-0.207-0.98-0.369c-0.197-0.102-0.391-0.212-0.576-0.336
					c-0.114-0.076-0.229-0.159-0.346-0.247c-0.005-0.004-0.009-0.007-0.013-0.011c-0.06,0.269-0.14,0.502-0.253,0.644
					c-0.204,0.254-0.524,0.39-0.773,0.461c0.006,0.002,0.011,0.008,0.017,0.012c0.372,0.299,0.755,0.562,1.074,0.921
					c-3.191,3.047-7.465,3.051-9.928,1.843c-2.408-1.181-3.117-2.637-2.812-4.636c-0.651-0.144-1.278-0.545-1.514-1.548
					c0.022,0.02,0.051,0.031,0.073,0.05c0.555,0.448,1.46,0.612,2.021,0.08c0.506-0.48,0.898-1.27,1.252-2.118
					c0.323-0.778,0.603-1.575,0.96-2.338c0.145-0.31,0.247-0.647,0.302-0.984c0.161-0.949-0.037-1.959-0.505-2.798
					c-0.503-0.901-0.774-2.147-0.338-3.436c0.437-1.28,1.173-1.771,1.383-1.972c0.216-0.197,0.203-0.394,0.089-0.544
					c-0.194-0.245-0.519-0.005-0.519-0.005c-1.889,1.544-2.315,4.455-2.328,5.253s-2.339,5.946-2.798,7.373
					c-0.02,0.059-0.416,1.282-0.509,2.025c-0.142,1.138-0.098,4.618,5.543,6.617c5.164,1.828,9.476-1.6,10.172-2.196
					c1.451,0.107,2.506-0.647,3.018-1.153c0.234-0.23,0.371-0.408,0.371-0.408c-0.558,1.831-1.721,2.282-2.431,2.383
					c-0.232,0.032-0.418,0.029-0.517,0.021c0.015,0.047,0.021,0.083,0.032,0.125c0.082,0.308,0.064,0.492,0.064,0.492
					s0.169,0.08,0.459,0.098c0.409,0.024,1.065-0.074,1.906-0.72c0.143-0.112,0.251-0.23,0.365-0.348
					c-0.328,0.693-0.075,1.528,0.61,1.901c0.71,0.386,1.598,0.12,1.98-0.589c0.387-0.708,0.122-1.597-0.588-1.979
					c-0.522-0.286-1.139-0.215-1.58,0.122c0.429-0.707,0.479-1.433,0.454-1.889c-0.003-0.078-0.052-0.431-0.058-0.433
					c-0.006,0.005-0.014,0.008-0.02,0.014c-0.58,0.434-1.261,0.719-1.992,0.719C129.496,118.291,129.224,118.254,128.979,118.194z"
					/>
				<path fill="#B1BABF" d="M118.475,111.97c-0.238,0.674-0.44,1.219-0.615,1.657c2.836,1.275,5.526,2.866,7.297,4.078
					c0.25-0.084,0.54-0.222,0.739-0.473c0.128-0.163,0.217-0.442,0.279-0.766c-2.012-1.938-6.246-5.048-7.437-5.665
					C118.738,110.802,118.627,111.537,118.475,111.97z"/>
				<path fill="#B1BABF" d="M110.396,19.2c-15.81-2.693-18.859,9.168-18.915,12.051c-0.039,2.105,0.1,3.527,0.033,4.371
					c-2.299,0.961-4.759,1.311-4.759,1.311c0.133-1.333,0.128-4.276,0.7-6.597c0.539-2.183,4.182-11.712,16.987-11.768
					c1.327,0,2.749,0.094,4.276,0.311c0.551,0.095,1.083,0.2,1.599,0.306C110.346,19.189,110.368,19.195,110.396,19.2z"/>
				<path d="M133.464,84.78c-11.834,3.182-23.14,4.099-30.698,4.298c-0.122-0.089-0.239-0.178-0.361-0.267
					c1.816-0.372,3.521-1.105,5.003-2.294c3.76-3.01,7.926-5.297,10.713-7.519c2.799-2.222,5.393-8.925,5.393-8.925
					c4.692-1.799,7.88-8.168,7.88-8.168s-0.738-1.411-0.805-3.126c-0.072-1.722,2.604-4.626,5.387-9.78
					c2.782-5.148,3.394-12.201-1.205-19.948c-4.576-7.708-17.198-11.679-17.31-11.712c-0.111-0.039-12.573-4.481-20.87-1.094
					c-8.341,3.404-12.107,9.391-12.995,15.177c-0.889,5.787-0.511,9.718-1.599,11.051c-1.094,1.327-2.533,2.01-2.533,2.01
					s-1.293,7.002,1.361,11.256c0,0-1.977,6.914-1.088,10.374c0.888,3.455,2.827,7.792,4.009,12.456
					c0.478,1.89,1.438,3.538,2.699,4.943c-0.133,0-0.271-0.006-0.405-0.006c-5.915-4.72-14.417-12.3-21.975-22.024
					c-13.245-17.038-17.56-44.154-17.56-44.154c-5.82,15.916-7.286,21.513-2.494,36.607C48.804,69.03,63.259,83.47,63.259,83.47
					c-0.35,0.838,0.161,2.382,0.161,2.382s-2.11-0.645-8.475-0.655c-6.364-0.017-5.153,0.666-7.103,0.561
					c-1.949-0.105-2.504-0.91-2.504-0.91c-0.983,0.488-1.905,1.621-1.905,1.621c-0.927,0.101-5.487,0.622-5.004,5.099
					c0.489,4.476,5.165,4.197,5.165,4.197c0.844,0.967,2.071,1.378,2.071,1.378s2.76,7.292,10.718,7.636
					c6.914,0.301,9.146-3.915,9.613-5.025c0.178,0.422,0.377,0.854,0.589,1.294c1.405,2.87,3.56,6.059,6.476,8.945
					c2.91,2.883,6.597,5.482,11.051,6.981c6.78,2.255,13.605,1.561,18.954-0.116c1.981-0.622,3.915-1.428,5.715-2.461
					c-0.312,1.505-0.633,5.864,4.697,9.541c6.554,4.526,13.15,0.372,13.15,0.372s1.228,0.417,2.488,0.149
					c0,0,3.564,3.044,6.653-0.232c3.082-3.276-0.234-6.441-0.911-7.081c0,0-0.062-1.46-0.55-2.443c0,0-0.922,0.307-2.544-0.782
					c-1.62-1.096-0.244-0.906-5.325-4.732c-5.087-3.826-7.158-4.593-7.158-4.593s1.338-0.922,1.565-1.799
					c0,0,20.243-2.793,33.171-11.939c12.922-9.152,15.133-14.505,20.087-30.71C174.104,60.145,154.306,79.171,133.464,84.78z
					 M82.757,51.032c-0.062-0.483-0.078-1.061-0.078-1.633c0-1.428,0.145-2.844,0.145-2.844s1.916-1.232,2.893-3.038
					c0.988-1.799,1.799-5.359,1.799-5.359c3.693-0.416,7.147-4.348,7.358-4.592c-0.917,0.883-2.116,1.544-3.36,2.055
					c-2.299,0.961-4.759,1.311-4.759,1.311c0.133-1.333,0.128-4.276,0.7-6.597c0.539-2.183,4.182-11.712,16.987-11.768
					c1.327,0,2.749,0.094,4.276,0.311c0.551,0.095,1.083,0.2,1.599,0.306c0.028,0.005,0.051,0.011,0.078,0.017
					c2.916,0.605,5.253,1.311,5.865,1.505c0.061,0.022,0.115,0.039,0.177,0.061c0.3,0.095,0.711,0.228,1.206,0.411
					c0.139,0.055,0.288,0.111,0.449,0.172c0.206,0.078,0.422,0.162,0.649,0.256c0.3,0.116,0.617,0.25,0.95,0.4
					c0.327,0.149,0.672,0.305,1.027,0.477l0.644,0.273c16.556,7.963,12.906,20.541,11.957,22.946
					c-0.86,2.16-2.571,4.292-3.321,5.509c-0.877-0.961-2.06-2.394-2.948-3.999c-0.583-1.043-1.033-2.154-1.206-3.265
					c0,0,0.322,5.476,3.099,8.108c0,0-1.493,3.338-1.804,5.365c-0.306,2.032,0.482,4.17,0.482,4.17s-0.2,0.322-0.488,0.766
					c-0.011,0.022-0.028,0.039-0.039,0.062c-0.655,1.167-1.538,2.416-2.621,3.227c-1.255,0.944-1.866,1.671-5.354,0.85
					c-1.367-0.328-2.749-0.622-4.144-0.794c-1.782-0.228-4.143-0.289-5.441,1.21c-0.005,0.011-0.012,0.011-0.022,0.022
					c-0.172,0.206-0.333,0.433-0.443,0.7c0,0,0.981-0.694,2.742-0.61c0,0-0.011,0.011-0.011,0.016l0.011-0.005
					c-0.05,0.133-0.45,1.228-0.555,2.188c-0.062,0.595-0.351,2.094-0.351,2.11c-0.516,1.8-2.249,2.789-2.403,2.688
					c-0.184-0.116-0.423-0.555,0.354-3.043c0-0.121,0.399-0.266,0.489-0.26c0.16-0.028,0.322-0.052,0.482-0.078
					c0,0-0.045-0.095-0.211-0.328c-0.071-0.122-0.261-0.194-0.378-0.261c-0.133-0.072-0.811-0.372-0.811-0.378
					c-0.344-0.149-0.639-0.267-0.639-0.267c0.006,0.062,0.006,0.145-0.011,0.233c-0.022,0.172-0.101,0.45-0.111,0.489
					c-0.006,0.061-0.011,0.105-0.021,0.121c-0.04,0.156-0.084,0.312-0.123,0.468c-0.154,0.566-0.293,1.027-0.472,1.582
					c-0.005,0.006-0.017,0.021-0.021,0.039c-0.179,0.528-0.712,0.355-0.712,0.355c-0.005,0-0.061-0.021-0.061-0.021
					c-0.389-0.195-0.817-0.4-1.261-0.612c0,0-0.5-0.261-0.423-0.776c-0.005-0.012,0-0.023,0.006-0.039
					c0.005-0.022,0-0.04,0.012-0.056c0.017-0.045,0.027-0.101,0.044-0.139c0.139-0.5,0.434-1.572,0.472-1.822
					c0.051-0.294,0.244-0.833,0.367-1.044c-0.083-0.083-0.295-0.311-0.478-0.4c-0.156-0.077-0.322-0.11-0.551-0.094
					c-0.082,0.072-0.221,0.289-0.227,0.405c-0.006,0.066-0.184,0.622-0.378,1.232c-0.2,0.616-0.427,1.295-0.528,1.6
					c-0.11,0.333-0.349,0.405-0.543,0.405c-0.162,0-0.289-0.049-0.289-0.049c-0.389-0.156-0.916-0.345-1.333-0.501
					c-0.027-0.005-0.049-0.021-0.078-0.027c-0.499-0.188-0.466-0.617-0.433-0.788c0.217-0.645,0.494-1.461,0.705-2.099
					c0.045-0.15,0.1-0.3,0.144-0.456c0-0.005,0.007-0.012,0.013-0.022c0.017-0.066,0.205-0.544,0.493-0.688
					c-0.188-0.145-0.566-0.294-0.85-0.395c-0.339-0.111-0.943-0.216-0.977-0.222c0.1,0.217,0.122,0.594,0.072,0.783
					c-0.072,0.25-0.739,2.577-0.767,2.666c-0.033,0.089-0.15,0.367-0.333,0.434c-0.178,0.066-0.678-0.095-0.678-0.095
					c-0.034-0.006-0.056-0.012-0.084-0.017c-0.421-0.128-1.021-0.222-1.421-0.333c0,0-0.656-0.189-0.45-0.789
					c0,0,0.428-1.566,0.639-2.31c0-0.017,0.005-0.044,0.011-0.066c0.017-0.056,0.112-0.367,0.145-0.839
					c0.034-0.472-0.283-0.583-0.516-0.583c-0.222,0-0.466,0.4-0.522,0.634c-0.062,0.25-0.2,0.666-0.2,0.666l-0.017,0.039v0.005
					c-0.017,0.033-0.033,0.073-0.044,0.106c-0.228,0.605-0.405,1.105-0.611,1.71c-0.216,0.572-0.855,0.455-0.855,0.455
					c-0.478-0.1-0.939-0.194-1.366-0.271c-0.005,0-0.062-0.017-0.062-0.022c0,0-0.533-0.183-0.355-0.71c0-0.017,0-0.033,0.011-0.05
					c0.189-0.549,0.35-0.994,0.572-1.544c0.061-0.145,0.283-0.672,0.411-0.877c0.133-0.206,0.311-0.317,0.311-0.317
					c0.006-0.123-0.177-0.35-0.511-0.466c-0.039-0.011-0.083-0.022-0.133-0.033c-0.105-0.028-0.217-0.044-0.328-0.056
					c-0.322-0.039-0.833-0.072-0.938,0.328c-0.006,0.017-0.011,0.027-0.011,0.027c0.05,0.172,0.089,0.384,0.067,0.5
					c-0.028,0.128-0.072,0.245-0.095,0.3c-0.872,2.449-1.333,2.66-1.549,2.644c-0.184-0.011-0.966-1.855-0.294-3.599
					c0.005-0.011,0.011-0.022,0.011-0.033c0.345-0.777,0.672-1.344,0.978-1.855c0.538-0.888,0.883-2.094,0.883-2.094l0.011,0.022
					c0-0.005,0-0.017,0-0.017c0.45,0.306,0.833,0.677,1.188,1.083c0.012,0.012,0.017,0.017,0.017,0.022
					c0.161,0.267,0.411,0.472,0.556,0.755c0.039,0.083,0.067,0.161,0.067,0.222c0.122-0.466,0.105-1.033-0.073-1.488
					c-0.011-0.017-0.011-0.033-0.017-0.05c-0.661-1.805-2.372-2.865-3.959-3.765c-1.061-0.6-2.166-1.122-3.282-1.611
					c-3.271-1.438-3.321-2.394-3.759-3.904C82.834,51.499,82.79,51.276,82.757,51.032z M86.305,74.473
					c-0.066-0.239-0.127-0.45-0.183-0.616c-0.422-1.332-2.149-6.231-2.516-7.375c-0.328-1.006-0.594-1.866-0.505-3.382
					c0.011-0.217,0.028-0.445,0.055-0.689c0.212-1.849,1.127-5.653,1.244-6.125c0.005-0.028,0.011-0.044,0.011-0.044
					s1.51,0.728,1.977,1.005c0,0,0,0.017-0.006,0.05c-0.056,0.422-0.455,3.426-0.477,4.876c0,0.222,0.005,0.405,0.022,0.539
					c0,0,0.877,0.922,1.083,1.616c0.206,0.694-0.005,4.482,1.495,7.092v-0.062c0,0,0.072-0.277,0.388-0.75
					c0.322-0.478,0.944-1.144,1.316-0.883c0.373,0.267,0.322,1.011,0.317,1.811c-0.006,0.795-0.278,1.649-0.478,1.888
					c0,0,0.311,0.64,1.155,1.039c0,0-0.034-0.301,0.027-0.733c0.133-0.767,0.517-1.398,0.761-2.094
					c0.078-0.245,0.311-0.494,0.667-0.306c0.005,0,0.705,0.367,1.327,0.678c0.072,0.05,0.5,0.378,0.272,0.995
					c-0.011,0.027-0.017,0.037-0.022,0.056c-0.006,0.027-0.022,0.049-0.028,0.077c-0.233,0.583-0.433,1.116-0.728,1.732
					c0,0-0.15,0.567-0.417,0.589c0,0,0.517,0.344,0.755,0.444c0.355,0.149,0.8,0.344,1.022,0.395c0,0-0.238-0.367-0.178-0.89
					c0.145-0.749,0.361-1.782,0.55-2.644c0.066-0.199,0.25-0.543,0.666-0.416c0.467,0.194,0.944,0.379,1.422,0.555
					c0.406,0.167,0.4,0.562,0.383,0.695c-0.216,0.954-0.466,2.094-0.722,3.004c-0.061,0.14-0.144,0.34-0.216,0.406
					c0,0,0.433,0.305,0.722,0.377c0.283,0.077,0.827,0.188,0.827,0.188s-0.105-0.372,0.028-0.761
					c0.005-0.011,0.005-0.017,0.005-0.028c0.21-0.604,0.422-1.215,0.638-1.832c0.056-0.155,0.205-0.505,0.294-0.728
					c0.045-0.116,0.228-0.466,0.655-0.372c0.561,0.166,1.123,0.323,1.688,0.462c0.417,0.121,0.178,0.765,0.178,0.765
					s-0.604,1.489-0.999,2.451c0,0-0.134,0.338-0.35,0.515c0,0,0.388,0.173,0.678,0.234c0.621,0.122,0.988,0.111,1.138,0.122
					c0,0-0.189-0.461,0.033-1.011c0.017-0.022,0.022-0.051,0.028-0.078c0.188-0.433,0.383-0.871,0.566-1.306
					c0.05-0.121,0.1-0.249,0.149-0.371c0.062-0.189,0.36-0.501,0.855-0.411h0.039c0.394,0.077,0.788,0.139,1.183,0.2l0.005,0.006
					c0,0,0.7,0.145,0.444,0.805c-0.354,0.789-0.732,1.582-1.154,2.383c0.438,0.033,0.883,0.056,1.327,0.071
					c0,0-0.056-0.038,0.128-0.533c0.177-0.493,0.71-1.543,0.766-1.699c0.056-0.154,0.256-0.766,0.511-0.794
					c0.262-0.027,1.267,0.778,1.006,2.333c2.76-1.184,4.87-4.32,5.453-4.749c0.506-0.377,1.521-0.576,1.777-0.622
					c0.034-0.01,0.056-0.01,0.056-0.01c0.711-0.723,2.665-4.171,2.909-4.599c0.017-0.028,0.023-0.044,0.023-0.044
					c0.544,0.066,2.183,0.389,2.183,0.389s-1.705,3.971-2.717,5.681c-1.01,1.704-1.832,2.282-2.814,2.977
					c-0.979,0.693-5.315,3.555-6.459,4.364c-1.145,0.811-4.188,3.538-6.847,4.01c-1.317,0.233-2.461,0.261-3.544,0.139
					c-1.088-0.122-2.116-0.389-3.199-0.755c-0.005,0-0.011-0.006-0.022-0.006c-0.005-0.006-0.017-0.006-0.017-0.006
					c-2.171-0.732-3.931-1.615-5.752-3.576C87.561,79.454,86.761,76.166,86.305,74.473z M55.528,69.059
					c-2.338-3.349-4.431-6.875-6.125-10.596c-1.661-3.632-3.01-7.391-3.854-11.301c-0.794-3.671-1.15-7.453-0.95-11.212
					c0.117-2.221,0.389-4.532,1.105-6.647l0.111-0.316c1.194,5.031,4.748,23.763,23.341,43.91c3.682,3.982,7.708,7.681,11.79,11.057
					c-1.232,0.2-2.421,0.455-3.56,0.767c-2.932-2.583-9.807-9.362-9.824-9.38C62.026,69.77,57.9,64.416,54.79,59.44
					c-0.65-1.061-1.149-1.933-1.549-2.588c-0.217-0.372-0.417-0.738-0.617-1.105l-0.044-0.078
					c0.194,0.472,6.486,15.644,22.629,29.722c-1.172,0.411-2.271,0.855-3.282,1.338c-0.161,0.072-1.777-1.538-1.977-1.71
					c-1.616-1.434-3.193-2.91-4.715-4.438C61.682,77.027,58.399,73.185,55.528,69.059z M56.506,88.429
					c0.694,0.034,1.382,0.083,2.071,0.144c1.383,0.123,2.993,0.307,4.37,0.528c-0.828,0.271-1.96,0.811-2.727,2.021
					c-0.206,0.327-0.394,0.688-0.533,1.122c-0.216,0.677-0.383,1.238-0.505,1.693c-3.199-0.878-8.28-1.15-8.28-1.15
					c-0.145-0.216-0.294-0.499-0.306-0.821c-0.005-0.205,0.094-0.483,0.239-0.783c0.288-0.583,0.833-1.266,1.683-1.816
					c0.727-0.482,1.771-0.805,2.676-0.982C55.634,88.396,56.073,88.406,56.506,88.429z M65.786,89.511
					c-0.473,0.645-1.728,6.154-2.222,7.569c0,0-0.583,1.455-0.811,1.922c-0.517,1.027-2.71,3.748-8.414,1.933
					c-5.226-1.654-6.625-6.986-6.82-7.875c-1.782-1.144-1.733-3.299-1.733-3.299c-0.866,2.371,0.556,3.466,0.9,3.693
					c-0.056,0-0.333,0.289-0.367,0.328c-0.006,0.011-0.073,0.105-0.078,0.105c0,0-0.517-0.101-0.983-0.767
					c-0.2-0.277-0.388-0.639-0.527-1.155c-0.05-0.184-0.083-0.366-0.105-0.538c0,0.021,0,0.039-0.005,0.06
					c-0.123,0.807-0.878,1.361-1.677,1.239c-0.805-0.123-1.366-0.877-1.244-1.683c0.123-0.812,0.877-1.36,1.683-1.238
					c0.633,0.094,1.116,0.583,1.228,1.183c0.044-1.454,1.105-2.305,1.105-2.305c0.278,0.117,0.561,0.2,0.844,0.256
					c0.306,0.056,0.622,0.078,0.95,0.083c1.022,0.006,2.088-0.184,3.199-0.339c1.255-0.178,2.516-0.3,3.782-0.306
					c0.194-0.005,0.583,0.006,0.555,0.011c-1.022,0.056-2.632,0.429-3.66,1.045c-0.005,0-0.011,0.005-0.017,0.011
					c-0.588,0.345-1.21,0.917-1.533,1.522c-0.022,0.038-0.139,0.254-0.167,0.294c-0.117,0.25-0.195,0.483-0.189,0.666
					c0.011,0.322,0.183,0.628,0.339,0.833h-0.017c-0.116,0-1.416-0.005-1.416,0.084c0.706,4.358,4.115,6.94,6.803,7.457
					c2.632,0.512,4.076-0.216,5.037-1.987c0.611,0.277,1.355,0.327,2.149-0.328c-1.161,0.045-1.667-0.655-1.75-1.166
					c-0.233-1.333,0.6-3.354,0.922-4.887c0.327-1.538,1.494-2.477,2.443-2.894c0.95-0.416,1.911-1.244,2.338-2.537
					c0.433-1.283,0.139-2.121,0.089-2.405c-0.05-0.288,0.077-0.438,0.255-0.488c0.305-0.077,0.422,0.312,0.422,0.312
					C67.668,86.291,66.252,88.867,65.786,89.511z M111.19,107.737c0,0-0.018,0.205-0.101,0.455
					c-1.166,3.477-14.083,9.885-26.034,5.875c-11.94-4.009-18.265-17.27-17.221-20.391c0.072-0.205,0.139-0.306,0.139-0.306
					c0.017-0.012,0.022-0.045,0.033-0.062c0.083-0.149,0.184-0.288,0.294-0.422c2.622-3.315,14.561-8.773,25.567-5.081
					c9.114,3.06,15.022,11.29,16.799,16.565C111.124,105.743,111.308,106.916,111.19,107.737z M125.706,112.642
					c0.423,0.322,1.338,1.165,1.756,1.577c0.344,0.344,0.693,0.683,1.032,1.026c0.256,0.256,1.294,1.238,1.65,1.5
					c0.266,0.199,0.532,0.378,0.815,0.517c0.256,0.122,0.522,0.222,0.805,0.294c0,0,0,0-0.005,0.005
					c0.005,0,0.056,0.351,0.056,0.429c0.027,0.455-0.022,1.183-0.45,1.888c0.439-0.333,1.055-0.405,1.577-0.122
					c0.711,0.384,0.978,1.277,0.589,1.983c-0.383,0.71-1.271,0.972-1.982,0.588c-0.684-0.372-0.938-1.205-0.61-1.899
					c-0.112,0.117-0.223,0.233-0.361,0.345c-0.845,0.645-1.5,0.743-1.911,0.722c-0.288-0.017-0.455-0.1-0.455-0.1
					s0.017-0.184-0.067-0.489c-0.011-0.045-0.016-0.078-0.032-0.128c0.1,0.011,0.288,0.011,0.516-0.021
					c0.711-0.101,1.877-0.55,2.427-2.377c-0.027,0.038-0.155,0.2-0.366,0.405c-0.511,0.506-1.565,1.26-3.016,1.154
					c-0.694,0.594-5.009,4.022-10.173,2.194c-5.637-2-5.682-5.48-5.543-6.62c0.095-0.738,0.489-1.966,0.511-2.021
					c0.456-1.428,2.782-6.575,2.794-7.375c0.017-0.801,0.444-3.71,2.332-5.254c0,0,0.322-0.239,0.517,0.006
					c0.117,0.149,0.128,0.35-0.089,0.544c-0.211,0.2-0.944,0.689-1.383,1.972c-0.434,1.288-0.166,2.532,0.339,3.438
					c0.467,0.838,0.667,1.849,0.505,2.799c-0.056,0.333-0.155,0.672-0.299,0.983c-0.362,0.76-0.64,1.56-0.962,2.337
					c-0.354,0.85-0.749,1.639-1.255,2.116c-0.56,0.533-1.465,0.372-2.021-0.078c-0.021-0.021-0.05-0.032-0.072-0.05
					c0.239,1,0.866,1.405,1.517,1.544c-0.305,2.005,0.404,3.46,2.81,4.637c2.466,1.212,6.736,1.206,9.93-1.838
					c-0.316-0.36-0.7-0.627-1.072-0.922c-0.005-0.006-0.011-0.011-0.017-0.011c0.245-0.072,0.567-0.211,0.772-0.461
					c0.111-0.145,0.194-0.378,0.25-0.645c0.006,0,0.011,0.005,0.017,0.005c-0.006,0-0.011-0.011-0.011-0.011
					c0.032-0.149,0.061-0.311,0.072-0.493c0.038-0.65-0.101-1.399-0.345-2c-0.378-1.005-2.032-2.788-2.271-3.032
					C124.685,111.83,125.623,112.575,125.706,112.642z M119.403,108.416c0.95,0.543,1.883,1.109,2.799,1.698
					c0.661,0.422,1.311,0.854,1.943,1.311c0.078,0.061,0.162,0.117,0.239,0.178c0.622,0.688,1.255,1.577,1.545,2.398
					c0.344,0.945,0.371,1.822,0.243,2.467c-0.062,0.322-0.149,0.6-0.277,0.766c-0.2,0.25-0.488,0.389-0.739,0.473
					c-1.771-1.211-4.459-2.805-7.297-4.082c0.173-0.438,0.378-0.982,0.616-1.655c0.15-0.433,0.261-1.166,0.261-1.166
					c0.117-1.422-0.472-2.594-0.96-3.304c0.089,0.049,0.177,0.094,0.272,0.149C118.504,107.904,118.954,108.154,119.403,108.416z
					 M167.595,70.19c-1.276,3.678-3.637,7.098-6.225,9.968c-1.883,2.095-3.932,3.994-6.114,5.76
					c-3.354,2.705-7.17,4.904-11.057,6.736c-3.865,1.827-7.913,3.271-12.029,4.415c-6.436,1.782-13.244,2.722-19.97,3.099
					c-0.517-1-1.127-2.016-1.816-3.043c21.62-1.549,35.859-10.024,35.859-10.024l0.105-0.088c-0.762,0.333-1.539,0.661-2.355,0.982
					c-3.476,1.311-10.807,3.787-20.503,5.537c-3.92,0.711-7.886,1.188-11.851,1.521c-0.316,0.027-2.615,0.2-2.615,0.2
					c-0.722-0.928-1.516-1.838-2.383-2.732c5.26-0.233,10.656-0.755,15.955-1.705c21.853-3.932,35.275-13.066,41.705-18.147
					c0.589-0.468,1.111-0.89,1.583-1.279c1.105-0.893,1.788-1.459,1.811-1.505l-0.006,0.019L167.595,70.19z"/>
				<path fill="#B1BABF" d="M133.32,45.701c-0.86,2.16-2.571,4.292-3.321,5.509c-0.877-0.961-2.06-2.394-2.948-3.999
					c0.488-0.738,1.438-1.744,2.492-3.209c0.751-1.05,2.117-3.893,2.117-7.369c0-3.954-1.767-8.735-8.203-12.65
					c-0.021-0.017-0.044-0.034-0.071-0.044c-0.078-0.05-0.162-0.1-0.245-0.145c-0.827-0.5-1.649-0.938-2.421-1.311l0.644,0.273
					C137.919,30.718,134.27,43.296,133.32,45.701z"/>
				<path fill="#FFFFFF" d="M129.543,44.001c0.751-1.05,2.117-3.893,2.117-7.369c0-3.954-1.767-8.735-8.203-12.65
					c-0.021-0.017-0.044-0.034-0.071-0.044c-0.078-0.05-0.162-0.1-0.245-0.145c-0.827-0.5-1.649-0.938-2.421-1.311
					c-0.355-0.172-0.7-0.328-1.027-0.477c-0.333-0.145-0.65-0.277-0.95-0.4c-0.228-0.094-0.443-0.178-0.649-0.256
					c-0.156-0.061-0.306-0.117-0.449-0.172c-0.495-0.184-0.906-0.316-1.206-0.411c-0.062-0.022-0.116-0.039-0.177-0.061
					c-0.612-0.194-2.949-0.899-5.865-1.505c-15.81-2.693-18.859,9.168-18.915,12.051c-0.039,2.105,0.1,3.527,0.033,4.371
					c1.244-0.511,2.444-1.172,3.36-2.055c-0.211,0.244-3.666,4.176-7.358,4.592c0,0-0.811,3.56-1.799,5.359
					c-0.978,1.805-2.893,3.038-2.893,3.038c-0.184,2.544,1.188,6.226,2.715,6.992c1.522,0.766,5.593,2.11,7.175,3.916
					c1.577,1.804,1.622,3.72,1.254,5.081c-0.116,0.561-0.36,1.227-0.555,1.71c0.05,0.011,0.094,0.022,0.133,0.033
					c0.333,0.116,0.517,0.344,0.511,0.466c0,0-0.177,0.111-0.311,0.317c-0.128,0.205-0.35,0.732-0.411,0.877
					c-0.222,0.55-0.383,0.995-0.572,1.544c-0.011,0.017-0.011,0.033-0.011,0.05c-0.178,0.527,0.355,0.71,0.355,0.71
					c0,0.006,0.056,0.022,0.062,0.022c0.427,0.078,0.888,0.172,1.366,0.271c0,0,0.639,0.117,0.855-0.455
					c0.206-0.605,0.383-1.105,0.611-1.71c0.012-0.033,0.027-0.073,0.044-0.106v-0.005l0.017-0.039c0,0,0.139-0.417,0.2-0.666
					c0.056-0.233,0.3-0.634,0.522-0.634c0.233,0,0.55,0.112,0.516,0.583c-0.033,0.472-0.127,0.783-0.145,0.839
					c-0.005,0.022-0.011,0.05-0.011,0.066c-0.21,0.744-0.639,2.31-0.639,2.31c-0.206,0.6,0.45,0.789,0.45,0.789
					c0.399,0.111,1,0.205,1.421,0.333c0.028,0.005,0.05,0.011,0.084,0.017c0,0,0.5,0.161,0.678,0.095
					c0.183-0.066,0.3-0.345,0.333-0.434c0.027-0.089,0.694-2.416,0.767-2.666c0.05-0.189,0.028-0.566-0.072-0.783
					c0.034,0.006,0.638,0.111,0.977,0.222c0.283,0.1,0.661,0.25,0.85,0.395c-0.288,0.145-0.477,0.622-0.493,0.688
					c-0.006,0.011-0.013,0.017-0.013,0.022c-0.044,0.155-0.099,0.305-0.144,0.456c-0.211,0.638-0.488,1.455-0.705,2.099
					c-0.033,0.171-0.066,0.6,0.433,0.788c0.029,0.006,0.051,0.022,0.078,0.027c0.417,0.156,0.944,0.345,1.333,0.501
					c0,0,0.127,0.049,0.289,0.049c0.194,0,0.433-0.072,0.543-0.405c0.102-0.305,0.328-0.983,0.528-1.6
					c0.194-0.61,0.372-1.166,0.378-1.232c0.006-0.116,0.145-0.333,0.227-0.405c0.229-0.016,0.395,0.017,0.551,0.094
					c0.183,0.089,0.395,0.317,0.478,0.4c-0.123,0.211-0.316,0.75-0.367,1.044c-0.038,0.25-0.333,1.322-0.472,1.822
					c-0.017,0.038-0.027,0.094-0.044,0.139c-0.012,0.016-0.007,0.033-0.012,0.056c-0.006,0.016-0.011,0.027-0.006,0.039
					c-0.077,0.516,0.423,0.776,0.423,0.776c0.443,0.212,0.872,0.417,1.261,0.612c0,0,0.056,0.021,0.061,0.021
					c0,0,0.533,0.173,0.712-0.355c0.005-0.018,0.017-0.033,0.021-0.039c0.179-0.555,0.317-1.016,0.472-1.582
					c0.039-0.156,0.083-0.312,0.123-0.468c0.011-0.016,0.016-0.061,0.021-0.121c0.011-0.039,0.089-0.317,0.111-0.489
					c0.017-0.089,0.017-0.172,0.011-0.233c0,0,0.295,0.117,0.639,0.267c0.139-1.166,0.64-2.038,0.64-2.038
					c0.11-0.267,0.271-0.494,0.443-0.7c-0.006,0-0.011,0.005-0.011,0.005c0.639-1.099,1.799-2.188,3.727-2.587
					c2.348-0.483,6.402,0.894,8.085,1.205c1.482,0.272,4.243-1.338,5.82-3.199c0.288-0.444,0.488-0.766,0.488-0.766
					s-0.788-2.138-0.482-4.17c0.311-2.027,1.804-5.365,1.804-5.365c-2.776-2.632-3.099-8.108-3.099-8.108
					c0.173,1.111,0.623,2.222,1.206,3.265C127.539,46.473,128.488,45.467,129.543,44.001z M104.942,42.441
					c2.249,1.988,3.232,2.177,3.432,2.232c0.206,0.078,1.101,0.522,4.082,0.289c3.442-0.161,9.552-0.794,11.351,1.427
					c0,0.062-4.348-0.428-7.274,0.045c-2.909,0.616-7.042,1.01-8.874,0.372c-1.844-0.594-4.903-3.404-6.848-5.647
					c-2.038-2.127-5.77-4.349-5.77-4.421C97.806,36.049,102.299,40.237,104.942,42.441z M107.497,61.4l-0.295,0.878
					c-0.395,1.183-1.815,1.766-3.171,1.316c0-0.005,0-0.005,0-0.005s0.911-0.233,1.205-1.105c0.006-0.011,0.012-0.022,0.012-0.033
					c-0.261,0.033-0.539,0.033-0.816-0.056c-0.861-0.289-1.344-1.166-1.077-1.949c0.044-0.133-0.034-0.277-0.173-0.328
					c-0.139-0.044-0.283,0.028-0.328,0.156c-0.261,0.789-1.177,1.194-2.043,0.905c-0.277-0.095-0.5-0.261-0.689-0.456
					c-0.005,0.011-0.011,0.028-0.011,0.039c-0.294,0.877,0.295,1.61,0.295,1.61c-1.35-0.456-2.127-1.777-1.733-2.955l0.294-0.877
					c0.205-0.655,0.722-1.049,1.088-1.271c0.378-0.245,0.683-0.422,1.078-0.894l0.017-0.022v-0.006
					c0.517-0.572,0.916-1.005,1.155-1.727c0.383-1.122,1.699-1.716,3.021-1.344c0.049,0.011,0.1,0.022,0.144,0.039
					c0.056,0.022,0.105,0.039,0.161,0.062c1.255,0.505,1.949,1.766,1.571,2.893c-0.238,0.722-0.184,1.3-0.127,2.066l0.005,0.022
					v0.011c0.028,0.616,0.167,0.944,0.317,1.366C107.547,60.129,107.729,60.756,107.497,61.4z M126.111,51.799l0.006,0.016
					c0,0-0.693,4.688-1.844,6.525c-1.144,1.844-2.232,3.543-5.081,3.388c0,0,1.649-0.477,1.121-1.771
					c-0.038-0.094-0.066-0.188-0.088-0.289c-0.006-0.005-0.006-0.005-0.006-0.005c-0.011,0-0.438,0.133-0.666,0.161
					c-1.722,0.211-5.343-0.344-7.081-1.532c-0.017-0.005-0.027-0.012-0.039-0.017c0,0-0.433,0.517,0.122,2.133
					c-0.134-0.044-2.311-0.85-3.093-2.61c-0.812-1.81-0.022-6.675-2.933-7.691c-2.932-0.95-5.237,3.41-6.98,4.365
					c-1.738,0.955-4.048,0.216-4.048,0.216c1.433-0.955,1.394-1.627,1.394-1.627c-0.017,0-0.034-0.011-0.05-0.011
					c-2.104-0.106-5.332-1.844-6.575-3.049c-0.167-0.167-0.422-0.527-0.428-0.527c-0.039,0.033-0.078,0.061-0.122,0.089
					c-0.044,0.033-0.089,0.061-0.134,0.088c-1.155,0.678-0.249,1.977-0.177,2.077c-2.354-1.583-2.21-3.598-2.005-5.758
					c0.2-2.155,2.471-6.314,2.471-6.314l0.033,0.022c0-0.006-0.005-0.012-0.016-0.022c0.128,0.05,2.144,0.933,3.921,2.627
					c0.177,0.167,0.349,0.338,0.516,0.516c1.933,2.099,3.76,4.021,5.554,4.621c0.583,0.194,1.2,0.239,1.76,0.211
					c0.006,0,0.017,0,0.027-0.005c0.156-0.006,0.307-0.017,0.45-0.034v-0.005c0.922-0.111,1.655-0.355,1.655-0.355
					c0.604,1.316,5.376,2.916,6.681,2.244c0,0,0.022,0.028,0.033,0.044c0.083,0.122,0.472,0.661,1.066,1.233v0.005
					c0.105,0.1,0.217,0.2,0.333,0.3c0.005,0.005,0.018,0.011,0.022,0.022c0.433,0.361,0.944,0.694,1.532,0.889
					c1.794,0.605,4.41,0.177,7.214-0.333c0.244-0.04,0.483-0.073,0.722-0.1C123.901,51.243,126.111,51.799,126.111,51.799z"/>
			</g>
		</g>
		<path fill="#FFFFFF" d="M157.582,132.491c-2.537,3.849-22.521,32.434-23.896,34.288c-0.111-0.09-3.543-3.026-3.665-3.133
			c5.093-7.074,19.492-28.568,19.78-29.006c2.556-0.623,5.083-1.3,7.564-2.078C157.438,132.541,157.511,132.518,157.582,132.491z"/>
		<path fill="#B1BABF" d="M167.079,129.032c-3.621,5.724-23.375,35.486-28.047,42.245c-0.032-0.027-0.083-0.061-0.109-0.083
			c-0.685-0.622-1.567-1.372-2.544-2.188c1.593-2.272,19.854-29.423,25.208-37.838C163.458,130.508,165.28,129.786,167.079,129.032z
			"/>
		<path fill="#B1BABF" d="M133.408,187.339c0.083,1.344-1.489,3.31-2.884,3.826c-1.01,0.417-2.349,0.622-3.643,0.616
			c-0.411,0-0.815-0.016-1.21-0.056c0.365-0.616,0.811-1.365,1.304-2.17c1.11-1.817,2.489-3.933,3.683-5.493
			c0.816,0.404,1.988,1.199,2.538,2.349C133.341,186.717,133.408,187.011,133.408,187.339z"/>
		<path fill="#B1BABF" d="M125.239,177.753c-1.016-0.933-1.66-1.933-2.065-2.921c-0.006,0.005-3.855,5.037-7.275,12.567
			c0.09,0.372,0.205,0.728,0.355,1.051c1.055,2.249,1.988,2.864,3.854,2.754c0,0,4.36-7.437,7.437-11.413
			C126.91,179.264,126.15,178.592,125.239,177.753z"/>
		<path fill="#FFFFFF" d="M123.174,174.832c-0.701-2.066-0.563-4.147-0.517-4.532c-0.056,0.084-0.111,0.167-0.167,0.251
			c-1.171,1.821-2.327,3.653-3.427,5.52c-1.056,1.789-3.126,5.788-3.204,5.942c-0.011,0.083-0.516,3.066,0.038,5.382
			c0.001-0.005,0.003-0.009,0.005-0.016c0.021-0.052,0.051-0.121-0.004,0.021C119.318,179.869,123.168,174.837,123.174,174.832z"/>
		<path fill="#B1BABF" d="M142.383,183.484c-0.921-4.048-6.069-7.997-7.258-8.863c-2.543-2.249-9.118-7.386-9.741-8.497
			c-0.672-1.212-3.715-5.337-7.88-6.17c0,0-0.694-0.1-0.795,0.438c-0.05,0.328,0.089,0.633,0.583,0.766
			c0.489,0.128,2.027,0.284,3.743,1.899c1.716,1.617,2.327,3.749,2.294,5.549c-0.045,1.8,0.595,4.337,2.776,5.976
			c2.194,1.638,4.782,4.404,7.054,5.038c0.139,0.038,0.271,0.061,0.411,0.071c1.504,0.134,2.932-1.222,2.705-1.982
			c0.494,1.645,0.043,2.838-0.695,3.693c2.521,2.481,3.743,5.314,2.955,7.864c-1.005,3.276-4.665,7.681-11.358,7.591
			c-4.764-0.062-7.562-1.389-8.785-2.148c0.006-0.012,0.411-0.922,0.439-0.983c-2.794,0.672-3.815-3.466-3.86-3.649
			c-1.561,7.17-4.581,7.287-5.382,7.181c-0.128-0.017-0.199-0.038-0.199-0.038s0.601,2.344,2.932,3.466
			c-1.061-0.316-2.237,0.067-2.882,1.043c-0.789,1.189-0.461,2.794,0.728,3.583c1.194,0.783,2.794,0.461,3.588-0.733
			c0.783-1.188,0.461-2.793-0.733-3.576c-0.061-0.039-0.116-0.062-0.177-0.094c0.316,0.116,0.639,0.221,1.016,0.282
			c3.11,0.517,4.132-0.983,4.132-0.983s-0.211-0.427-0.355-1.027c0,0-3.076,2.167-6.477-1.271c0.118,0.039,1.239,0.428,3.172,0.111
			c2.882-0.428,3.276-1.333,3.471-1.5c0.006-0.032,0.011-0.056,0.022-0.083c2.493,1.355,5.248,1.987,9.17,2.065
			c4.397,0.084,8.607-1.293,11.084-3.453C140.552,192.892,143.478,188.316,142.383,183.484z"/>
	</g>
</g>
</svg>
