<?xml version="1.0" encoding="utf-8"?>
<!-- Generator: Adobe Illustrator 16.0.3, SVG Export Plug-In . SVG Version: 6.00 Build 0)  -->
<!DOCTYPE svg PUBLIC "-//W3C//DTD SVG 1.1//EN" "http://www.w3.org/Graphics/SVG/1.1/DTD/svg11.dtd">
<svg version="1.1" id="PILLS" xmlns="http://www.w3.org/2000/svg" xmlns:xlink="http://www.w3.org/1999/xlink" x="0px" y="0px"
	 width="200px" height="136px" viewBox="0 0 200 136" enable-background="new 0 0 200 136" xml:space="preserve">
<path fill="#DA2128" d="M200,128c0,4.418-3.582,8-8,8H8c-4.418,0-8-3.582-8-8V8c0-4.418,3.582-8,8-8h184c4.418,0,8,3.582,8,8V128z"
	/>
<g>
	<path fill="none" d="M46.334,99.783c-3.321-6.406-4.343-12.146-4.586-15.027c-0.503-6.025-3.285-8.66-8.422-10.716
		c-11.27-4.425-18.561-8.424-22.884-12.538C5.7,56.99,2.325,51.782,0,45.247v83.151C0,132.818,3.582,136,8,136h78.537
		c-3.712-3-6.994-7.605-9.789-11.988C59.029,118.039,50.437,107.693,46.334,99.783z"/>
	<path fill="none" d="M102.725,4.887c0.623-0.189,1.123-0.333,1.457-0.429c0.998-0.29,24.279-6.758,44.217,11.297
		c14.732,2.375,28.123,9.224,38.793,19.867c5.195,5.18,9.488,11.021,12.81,17.333V8c0-4.418-3.582-8-8-8H85.922
		c1.204,0.862,2.393,1.762,3.535,2.658C91.856,4.538,95.562,7.269,102.725,4.887z"/>
	<path fill="none" d="M187.339,136.137c-0.021,0.021-0.043-0.137-0.063-0.137H192c4.418,0,8-3.182,8-7.602v-9.244
		C196.711,125.404,192.468,130.994,187.339,136.137z"/>
	<path fill="none" d="M0,12.299v3.899c0.024-0.015,0.049-0.027,0.074-0.044C1.184,15.416,0.639,13.64,0,12.299z"/>
	<path fill="#FFFFFF" d="M93.537,11.868c3.446,2.802,7.763,5.87,12.763,5.816c1.574-0.017,5.019-0.126,5.823-2.198
		c1.218-3.132-1.934-5.96-6.675-6.665c0,0,22.38-6.49,40.887,11.219c14.199,1.996,27.315,8.493,37.651,18.799
		c7.336,7.316,12.756,16.04,16.015,25.563V52.955c-3.321-6.312-7.614-12.153-12.81-17.333
		c-10.67-10.643-24.061-17.492-38.793-19.867C128.46-2.3,105.18,4.168,104.182,4.458c-0.334,0.096-0.834,0.24-1.457,0.429
		c-7.162,2.382-10.868-0.349-13.268-2.229C88.314,1.762,87.126,0.862,85.922,0h-8.703c0.564,0.262,1.116,0.54,1.648,0.838
		C84.104,3.785,89.955,8.957,93.537,11.868z"/>
	<path fill="#FFFFFF" d="M79.728,120.402c-33.549-10.443-33.556-37.588-33.556-37.588s3.406,4.875,8.181,5.682
		c4.215,0.71,6.925-3.051,0.566-8.747c-5.452-4.885-11.243-6.588-18.566-9.407c-11.465-4.411-18.792-8.336-22.778-12.132
		c-9.391-8.934-12.57-20.746-13.48-37.406C5.094,33.678,13.48,40.544,19.849,43.03c5.226,2.039,12.076,3.844,12.739,0.087
		c0.455-2.564-1.107-2.983-6.892-5.248c-9.24-3.62-13.596-9.304-19.202-22.662C4.851,11.29,2.906,7.859,0.639,4.865
		C0.228,5.828,0,6.887,0,8v4.299c0.639,1.341,1.184,3.117,0.074,3.855C0.049,16.171,0.024,16.183,0,16.198v29.049
		c2.325,6.535,5.7,11.743,10.442,16.255c4.323,4.114,11.614,8.113,22.884,12.538c5.137,2.056,7.918,4.69,8.422,10.716
		c0.243,2.881,1.266,8.621,4.586,15.027c4.103,7.91,12.695,18.256,30.414,24.229c2.795,4.383,6.076,8.988,9.789,11.988h6.659
		c-1.151-1-2.276-1.846-3.367-2.934C85.898,129.15,82.519,125.033,79.728,120.402z"/>
	<path fill="#FFFFFF" d="M41.8,7.229c2.638,3.107,7.038,7.394,11.927,10.224c3.071,1.776,9.118,2.726,11.58,0.891
		c2.799-2.089-0.625-6.562-3.309-8.785c-4.81-3.981-12.872-5.912-19.574-6.367c1.987-1.268,4.11-2.329,6.309-3.192H34.469
		C37.021,2.092,39.475,4.489,41.8,7.229z"/>
	<path fill="#FFFFFF" d="M200,119.154v-11.448c-3.238,9.461-8.609,17.935-15.877,25.226c-1.133,1.137-2.301,2.068-3.5,3.068h6.652
		c0.021,0,0.043,0.158,0.063,0.137C192.468,130.994,196.711,125.404,200,119.154z"/>
	<path fill="#002A5C" d="M200,107.706V64.402c-3.259-9.523-8.678-18.248-16.016-25.563c-10.336-10.306-23.451-16.803-37.65-18.799
		C127.827,2.332,105.447,8.821,105.447,8.821c4.74,0.705,7.893,3.533,6.675,6.665c-0.806,2.071-4.249,2.181-5.823,2.198
		c-5,0.054-9.317-3.014-12.763-5.816c-3.582-2.912-9.432-8.083-14.67-11.03C78.335,0.54,77.783,0.262,77.219,0h-9.515
		c4.1,0.764,8.297,2.559,11.901,5.72c7.617,6.681,11.358,10.308,16.924,12.382C84.603,17.76,79.742,13.031,72.335,7.083
		c-9.066-7.282-19.122-5.251-19.122-5.251C54.638,1.016,56.391,0.389,58.345,0h-9.612c-2.2,0.863-4.322,1.924-6.309,3.192
		c6.702,0.455,14.764,2.386,19.574,6.367c2.684,2.222,6.107,6.696,3.309,8.785c-2.462,1.834-8.509,0.885-11.58-0.891
		c-4.889-2.83-9.289-7.116-11.927-10.224C39.475,4.489,37.021,2.092,34.469,0H21.527c2.159,2.313,4.188,5.118,6.079,8.47
		c8.247,14.615,23.322,15.007,23.322,15.007c-11.443,3.241-27.083,0.295-35.28-14.413C13.531,5.268,11.349,2.308,9.229,0H8
		C4.694,0,1.858,2.005,0.639,4.865c2.267,2.994,4.212,6.425,5.855,10.341c5.606,13.358,9.962,19.042,19.202,22.662
		c5.785,2.265,7.347,2.684,6.892,5.248c-0.663,3.756-7.514,1.951-12.739-0.087C13.48,40.543,5.093,33.677,0.095,20.804
		c0.91,16.66,4.089,28.472,13.479,37.407c3.986,3.795,11.313,7.721,22.778,12.132c7.323,2.819,13.115,4.521,18.566,9.407
		c6.359,5.695,3.649,9.457-0.566,8.747c-4.774-0.808-8.181-5.681-8.181-5.681s0.006,27.145,33.556,37.588
		c2.792,4.63,6.17,8.748,10.101,12.664c1.091,1.088,2.216,1.934,3.367,2.934h8.684c-3.014-2-5.864-4.268-8.514-6.916
		c-3.977-3.979-7.344-8.309-10.052-13.064c-20.987-5.09-27.412-19.32-27.412-19.32C69.66,100.92,72.898,91.618,66.69,78.37
		c-7.299-15.579-18.262-21.955-29.599-24.5c-10.174-2.285-10.438-3.121-10.438-3.121s3.66,0.717,9.907,0.63
		c7.882-0.111,15.614-0.349,23.514,3.863c5.83,3.111,8.719,6.981,11.139,11.919c2.195,4.469,2.577,7.03,4.434,6.586
		c1.596-0.378,1.307-6.745-0.309-11.538c-2.096-6.219-5.059-10.726-10.633-15.243c-5.704-4.622-15.027-7.832-28.519-10.479
		c-10.207-2-21.211-10.293-26.162-27.785c0,0,6.601,13.178,16.614,16.924c10.012,3.75,21.872,2.568,30.846,2.455
		c8.974-0.115,15.464,1.116,21.985,7.545c4.127,4.066,9.808,7.663,16.226,3.858c5.882-3.486,5.706-6.792-1.591-7.268
		c-6.929-0.455-14.88-3.067-18.743-10.337C71.5,14.608,71.045,9.837,64.686,5.861c0,0,5.537,0.391,12.873,8.936
		c7.118,8.292,21.733,12.191,33.24,10.603c11.618-1.607,14.312-8.896,9.09-12.171c0,0,11.899-0.554,23.829,11.331
		c13.866,1.521,26.71,7.653,36.716,17.658c11.629,11.63,18.033,27.089,18.033,43.535c0,16.444-6.402,31.703-18.033,43.333
		c-2.648,2.648-5.5,4.916-8.513,6.916h8.7c1.199-1,2.367-1.934,3.5-3.068C191.391,125.641,196.762,117.167,200,107.706z
		 M33.147,55.587c23.179,4.717,24.757,20.979,24.757,20.979c-6.552-9.062-16.84-11.217-30.861-14.979
		C6.967,56.21,6.807,38.696,6.807,38.696S9.813,50.839,33.147,55.587z"/>
	<path fill="#4495D1" d="M198.468,85.75c0-16.445-6.403-31.905-18.034-43.535c-10.004-10.005-22.849-16.137-36.715-17.658
		c-11.929-11.885-23.828-11.331-23.828-11.331c5.223,3.275,2.527,10.564-9.091,12.171c-11.507,1.588-26.122-2.311-33.24-10.603
		C70.224,6.25,64.688,5.859,64.688,5.859c6.359,3.976,6.814,8.747,10.675,16.018c3.863,7.27,11.814,9.882,18.743,10.337
		c7.294,0.476,7.473,3.781,1.591,7.268c-6.418,3.805-12.099,0.208-16.226-3.858c-6.521-6.429-13.011-7.66-21.985-7.545
		c-8.974,0.113-20.833,1.295-30.846-2.455C16.626,21.877,10.026,8.699,10.026,8.699c4.951,17.492,15.955,25.785,26.162,27.785
		c13.491,2.648,22.814,5.858,28.519,10.479c5.574,4.518,8.537,9.024,10.633,15.243c1.616,4.793,1.904,11.16,0.309,11.539
		c-1.857,0.444-2.239-2.117-4.434-6.585c-2.42-4.938-5.309-8.808-11.139-11.918c-7.899-4.212-15.632-3.972-23.514-3.861
		c-6.247,0.087-9.907-0.627-9.907-0.627s0.264,0.842,10.438,3.127c11.337,2.545,22.3,8.934,29.599,24.512
		c6.208,13.25,2.971,22.575-10.789,18.356c0,0,6.425,14.28,27.412,19.37c2.708,4.757,6.075,8.986,10.052,12.965
		c2.649,2.648,5.5,4.916,8.514,6.916h5.598c-4.324-2-8.351-5.412-11.982-9.044c-11.061-11.062-17.153-25.665-17.153-41.306
		c0-15.642,6.092-30.297,17.153-41.358c11.059-11.059,25.766-17.124,41.406-17.124c15.642,0,30.346,6.103,41.406,17.161
		c11.062,11.062,17.154,25.575,17.154,41.216c0,21.6-11.756,40.455-29.205,50.455h5.666c3.014-2,5.864-4.268,8.512-6.916
		C192.064,117.453,198.468,102.195,198.468,85.75z"/>
	<path fill="#FFFFFF" d="M195.461,85.551c0-15.641-6.093-30.248-17.154-41.309c-11.061-11.059-25.765-17.099-41.406-17.099
		c-15.641,0-30.348,6.115-41.406,17.174C84.433,55.379,78.341,70.098,78.341,85.738s6.092,30.15,17.153,41.212
		c3.632,3.632,7.658,7.05,11.982,9.05h12.133c-21.038-7-36.181-26.898-36.216-50.367C83.35,56.08,107.27,32.19,136.82,32.147
		c29.551-0.044,53.543,23.728,53.584,53.278c0.035,23.523-15.12,43.575-36.211,50.575h12.062
		C183.705,126,195.461,107.148,195.461,85.551z"/>
	<path fill="#002A5C" d="M190.406,85.475c-0.042-29.551-24.034-53.372-53.584-53.328c-29.551,0.043-53.471,23.884-53.427,53.436
		C83.429,109.052,98.573,129,119.609,136h34.584C175.286,129,190.441,108.998,190.406,85.475z M133.792,44.012l2.964-9.381
		L139.867,44h9.893l-7.972,5.784l3.151,9.385l-8.037-5.771l-7.949,5.897l3.008-9.429l-8.062-5.736L133.792,44.012z M108.064,108.227
		l-0.938,9.849l-4.994-8.54l-9.659,2.152l6.582-7.389l-5.031-8.523l9.061,3.979l6.547-7.419l-0.98,9.847l9.078,3.935
		L108.064,108.227z M136.954,132.76L123.814,75h-15.854l-5.225,9.123L95.707,64h82.24L177,67.8v0.1l-5.882,16.286L165.745,75
		h-15.593L136.954,132.76z M166.79,118.122l-1.086-9.833l-9.697-1.96l9.017-4.075l-1.131-9.83l6.662,7.318l8.997-4.115l-4.899,8.598
		l6.692,7.287l-9.688-2.004L166.79,118.122z"/>
	<polygon fill="#FFFFFF" points="97.04,68 95.707,64.271 102.736,84.258 107.961,75 123.814,75 136.254,68 	"/>
	<polygon fill="#FFFFFF" points="170.926,84.234 176.616,68 137,68 137,132.676 123.838,74.923 136.965,132.721 150.152,75 
		165.745,75 	"/>
	<polygon fill="#BBC4CA" points="137,68 177,68 177,67.8 177.947,64 95.707,64 97.04,68 136.254,68 123.838,74.876 137,132.676 	"/>
	<path fill="#DA2128" d="M72.335,7.083c7.407,5.948,12.268,10.677,24.195,11.019c-5.566-2.075-9.307-5.701-16.924-12.382
		C76.001,2.559,71.804,0.764,67.704,0h-9.359c-1.955,0.389-3.708,1.016-5.132,1.832C53.213,1.832,63.269-0.198,72.335,7.083z"/>
	<path fill="#DA2128" d="M50.927,23.478c0,0-15.075-0.392-23.322-15.007c-1.891-3.352-3.92-6.157-6.079-8.47H9.229
		c2.12,2.308,4.302,5.268,6.418,9.064C23.845,23.772,39.484,26.719,50.927,23.478z"/>
	<path fill="#DA2128" d="M6.807,38.696c0,0,0.16,17.514,20.237,22.893c14.021,3.76,24.309,5.917,30.861,14.978
		c0,0-1.578-16.261-24.757-20.979C9.813,50.839,6.807,38.696,6.807,38.696z"/>
	<polygon fill="#DA2128" points="128.953,59.296 136.902,53.399 144.939,59.172 141.788,49.784 149.76,44 139.867,44 
		136.756,34.631 133.792,44.009 123.898,44.129 131.961,49.866 	"/>
	<polygon fill="#DA2128" points="109.633,92.335 103.086,99.754 94.025,95.775 99.056,104.299 92.475,111.688 102.134,109.536 
		107.127,118.075 108.064,108.227 117.73,106.116 108.652,102.182 	"/>
	<polygon fill="#DA2128" points="174.652,104.225 179.552,95.627 170.555,99.743 163.893,92.424 165.023,102.254 156.006,106.329 
		165.704,108.289 166.79,118.122 171.654,109.507 181.346,111.511 	"/>
</g>
</svg>
