<?xml version="1.0" encoding="utf-8"?>
<!-- Generator: Adobe Illustrator 16.0.3, SVG Export Plug-In . SVG Version: 6.00 Build 0)  -->
<!DOCTYPE svg PUBLIC "-//W3C//DTD SVG 1.1//EN" "http://www.w3.org/Graphics/SVG/1.1/DTD/svg11.dtd">
<svg version="1.1" id="PILLS" xmlns="http://www.w3.org/2000/svg" xmlns:xlink="http://www.w3.org/1999/xlink" x="0px" y="0px"
	 width="200px" height="136px" viewBox="0 0 200 136" enable-background="new 0 0 200 136" xml:space="preserve">
<path fill="#660000" d="M200,128c0,4.418-3.582,8-8,8H8c-4.418,0-8-3.582-8-8V8c0-4.418,3.582-8,8-8h184c4.418,0,8,3.582,8,8V128z"
	/>
<g>
	<path fill="none" d="M30.847,44.614L30.878,32h3.091l3.244-7.228l1.467,1.177l5.566-14.786l3.937,11.228l6.735-4.242
		C56.401,16.791,62.881,7.803,75.18,0H8C3.582,0,0,3.582,0,8v110.906c1.831-9.258,4.593-17.508,7.082-24.193
		C11.872,80.807,22.843,58.303,30.847,44.614z"/>
	<path fill="none" d="M53.809,114.805c0.445,4.791,0.03,13.195,1.264,21.195h22.325C67.046,130,59.25,122.236,53.809,114.805z"/>
	<path fill="none" d="M192,0h-32.738c21.766,13.244,37.881,36.721,37.881,67.721c0,29.738-16.174,55.279-39.41,68.279H192
		c4.418,0,8-3.182,8-7.602V8C200,3.582,196.418,0,192,0z"/>
	<path fill="#FFFFFF" d="M51.016,103.863c-0.032,0.812-0.067,1.838-0.043,2.839c0,0-0.077,2.059-0.387,3.604
		c-1.931-1.545-1.776-1.442-2.319-1.287c0.463,1.543,0.773,1.556,1.7,2.793c0,9.194,0.309,18.502,0.929,22.679
		c0.057,0.558,0.122,1.509,0.192,1.509h3.985c-1.233-8-0.818-16.404-1.264-21.195C59.25,122.236,67.046,130,77.397,136h8.328
		C70.99,130,58.809,118.011,51.016,103.863z"/>
	<path fill="#FFFFFF" d="M45.873,42h-3.505l2.963,2.038l-0.617,1.832l-1.244-0.803c-0.555,2.496-2.315,10.945-1.925,15.906
		c0.122,0.118,0.242,0.058,0.361,0.175C42.501,53.813,44.143,47,46.678,40h-0.077L45.873,42z"/>
	<path fill="#FFFFFF" d="M36.237,42H34v-6h2.37l2.511-5.585l1.66,1.303l3.44-10.457l1.505,7.696l6.566-5.113L46.722,36h1.622
		l-0.759,2h0.098C54.665,21.6,67.254,8.057,83.044,0H75.18C62.881,7.803,56.401,16.803,54.918,18.162l-6.735,4.253l-3.937-11.204
		L38.68,26.045l-1.467-1.272L33.969,32h-3.091l-0.032,12.614C22.843,58.303,11.872,80.807,7.082,94.712
		C4.593,101.398,1.831,109.646,0,118.906v9.494c0,1.865,0.644,3.578,1.714,4.938c0.124-1.672,0.29-3.259,0.506-4.466
		C6.057,97.257,22.39,68,36.237,42z"/>
	<path fill="#FFFFFF" d="M197.145,67.721c0-31-16.115-54.477-37.883-67.721h-7.418c24.568,12.536,41.393,37.878,41.393,67.35
		c0,30.532-18.059,56.65-44.074,68.65h8.572C180.969,123,197.145,97.459,197.145,67.721z"/>
	<path fill="#FFC20E" d="M193.234,67.35c0-29.472-16.824-54.814-41.393-67.35H83.044c-15.79,8.057-28.379,21.6-35.361,38h0.152
		c-0.617,1.2-0.988,2-0.988,2h-0.168c-2.536,7-4.177,13.819-4.772,21.155c4.528,4.438,7.815,8.956,7.289,18.591
		c0,0,0.308,0.279-1.701-0.34c1.004,1.082,1.314,1.957,2.164,3.811c0.386,3.014,0.617,5.729,0.386,8.508
		c0,0,0.231,6.883,0.464,9.045c0.641,0.215,0.581,1.267,0.508,3.09C58.809,118.008,70.99,130,85.726,136h63.435
		C175.177,124,193.234,97.882,193.234,67.35z M117.441,132.764c-36.015,0-65.213-29.197-65.213-65.214
		c0-36.015,29.199-65.214,65.213-65.214c36.019,0,65.216,29.199,65.216,65.214C182.657,103.566,153.46,132.764,117.441,132.764z"/>
	<path fill="#FFFFFF" d="M117.441,2.336c-36.015,0-65.213,29.199-65.213,65.214c0,36.017,29.199,65.214,65.213,65.214
		c36.019,0,65.216-29.197,65.216-65.214C182.657,31.535,153.46,2.336,117.441,2.336z M168.757,70.566
		c-1.274,0.619-3.748,0.388-3.748,0.388c-0.426-0.155-1.004-0.308-1.004-0.308c2.007,2.625,1.741,5.636,1.7,6.256
		c-0.04,0.578-0.311,0.693-0.311,0.693c-0.502,0.272-1.274,0.194-1.274,0.194c-1.043,0.271-0.425,0.965-0.425,0.965
		c1.16,0.694,0.31,2.086,0.31,2.086c-1.198,1.198-2.009,3.246-2.009,3.246c-0.542,0.927,0.388,3.94,0.388,3.94
		c0.925,3.324-0.465,4.789-0.465,4.789c-1.237,1.16-2.242,1.932-3.168,2.242c-0.836,0.278-3.553-0.156-3.553-0.156
		c-1.159,0.078-4.019,0.928-4.019,0.928c-2.703,0.465-4.668,1.275-8.189,0.771c-1.623-0.229-1.307,2.155-1.313,2.474
		c-0.077,3.94-0.772,5.872-0.772,5.872c-0.543,2.857-1.234,7.027-1.234,7.027c-0.617,9.004,0.074,11.4,0.074,11.4
		c0,0.346-0.307,0.189-0.307,0.189c-6.49,0-15.762-4.014-15.762-4.014c-4.173-2.629-12.756-6.55-16.304-7.576
		c-9.316-2.689-15.375-1.695-24.568,0l-0.542-0.461c6.182-5.641,11.126-10.818,11.743-20.475c0.08-3.014,0.08-7.881-2.471-11.048
		l-0.62-0.694c-0.076,4.557-3.088,7.493-3.088,7.493c0.54-3.165-0.542-3.013-0.542-3.013c-1.391,4.018-5.022,8.422-5.022,8.422
		l-0.617-0.311c-0.539,1.547-1.32,2.887-1.624,4.096c-0.386,1.543-2.163,3.785-2.163,3.785c-0.231-1.932-0.619-3.014-0.619-3.014
		c-0.771,2.551-2.781,5.719-2.781,5.719c-1.314,1.545-2.086,4.094-2.086,4.094c-3.63-9.192,1.16-25.264,1.16-25.264
		c-0.578-0.658-2.241,3.168-2.241,3.168c-0.229-10.199,5.1-23.102,5.1-23.102s0.232-0.31,0.078-0.694
		c-0.31-0.155-0.619,0.462-0.619,0.462c-0.155,0.271-0.462,0.62-0.966,1.082c0.118-2.319,0.386-3.785,1.584-6.026
		c-0.927,0.465-4.173,4.712-4.173,4.712c-1.545,1.856-2.626,3.013-2.626,3.013c-0.618,0.465-2.086,3.168-2.086,3.168
		c0.233-2.009,0.617-3.246,0.617-3.246c-2.857,2.086-5.949,8.811-5.949,8.811c-0.386-2.551,0.232-4.792,0.465-7.107
		c3.475-15.221,10.507-24.029,10.507-24.029c2.782-3.401,7.571-8.807,13.134-12.903c2.858-1.931,8.035-5.332,10.354-7.647
		c2.164-1.547,5.021-3.94,6.952-4.945c2.627-1.625,5.022-2.086,6.724-2.628c0,0,3.188-0.584,4.788-0.927
		c4.945-1.389,12.207-1.16,14.524-0.31c1.392,0.155,1.392,0.155,3.322,0.388c6.646,0.465,12.439,5.022,14.524,8.268
		c0.233,1.389,1.701,2.703,1.701,2.703c2.472,2.936,3.864,3.631,4.791,4.79c0.927,1.004,1.931,2.703,2.858,4.25
		c0.694,1.47,2.086,4.325,3.939,6.182c1.932,2.009,2.319,4.944,1.236,6.566c-1.393,1.394-0.543,2.78,1.314,3.63
		c3.092,2.551,3.321,4.405,4.789,8.113c1.235,3.478,2.473,5.332,3.092,8.422C171.498,69.177,169.876,69.949,168.757,70.566z"/>
	<path d="M171.268,65.469c-0.619-3.091-1.856-4.944-3.092-8.422c-1.468-3.708-1.697-5.562-4.789-8.113
		c-1.855-0.85-2.707-2.236-1.314-3.63c1.082-1.622,0.695-4.558-1.236-6.566c-1.854-1.856-3.246-4.712-3.939-6.182
		c-0.928-1.547-1.932-3.246-2.858-4.25c-0.927-1.159-2.319-1.854-4.791-4.79c0,0-1.467-1.314-1.701-2.703
		c-2.084-3.246-7.877-7.803-14.524-8.268c-1.931-0.232-1.931-0.232-3.322-0.388c-2.317-0.85-9.58-1.079-14.524,0.31
		c-1.602,0.343-4.788,0.927-4.788,0.927c-1.701,0.542-4.096,1.004-6.724,2.628c-1.931,1.004-4.788,3.398-6.952,4.945
		c-2.319,2.315-7.496,5.716-10.354,7.647c-5.563,4.096-10.352,9.502-13.134,12.903c0,0-7.032,8.808-10.507,24.029
		c-0.233,2.315-0.851,4.558-0.465,7.108c0,0,3.092-6.724,5.949-8.812c0,0-0.384,1.237-0.617,3.246c0,0,1.468-2.704,2.086-3.168
		c0,0,1.081-1.157,2.626-3.013c0,0,3.246-4.248,4.173-4.712c-1.198,2.241-1.467,3.708-1.584,6.026
		c0.503-0.462,0.811-0.811,0.966-1.082c0,0,0.309-0.617,0.619-0.462c0.154,0.385-0.078,0.694-0.078,0.694s-5.329,12.903-5.1,23.103
		c0,0,1.663-3.826,2.241-3.168c0,0-4.79,16.07-1.16,25.262c0,0,0.772-2.549,2.086-4.092c0,0,2.009-3.168,2.781-5.72
		c0,0,0.388,1.082,0.619,3.013c0,0,1.776-2.24,2.163-3.785c0.304-1.209,1.085-2.547,1.624-4.094l0.617,0.31
		c0,0,3.632-4.405,5.022-8.423c0,0,1.082-0.151,0.542,3.014c0,0,3.012-2.936,3.088-7.493l0.62,0.694
		c2.551,3.167,2.551,8.035,2.471,11.048c-0.617,9.657-5.562,14.834-11.743,20.474l0.542,0.463c9.193-1.697,15.251-2.69,24.568,0
		c3.548,1.025,12.13,4.946,16.304,7.575c0,0,9.271,4.015,15.762,4.015c0,0,0.307,0.156,0.307-0.19c0,0-0.691-2.396-0.074-11.399
		c0,0,0.693-4.17,1.234-7.028c0,0,0.695-1.933,0.772-5.872c0.007-0.318-0.31-2.703,1.313-2.473c3.521,0.502,5.486-0.309,8.189-0.772
		c0,0,2.859-0.851,4.019-0.927c0,0,2.717,0.435,3.553,0.154c0.926-0.31,1.931-1.082,3.168-2.24c0,0,1.39-1.467,0.465-4.791
		c0,0-0.93-3.012-0.388-3.939c0,0,0.811-2.048,2.009-3.246c0,0,0.851-1.392-0.31-2.086c0,0-0.618-0.693,0.425-0.965
		c0,0,0.772,0.078,1.274-0.193c0,0,0.271-0.117,0.311-0.695c0.041-0.619,0.307-3.629-1.7-6.256c0,0,0.579,0.153,1.004,0.309
		c0,0,2.474,0.232,3.748-0.389C169.876,69.949,171.498,69.177,171.268,65.469z M112.516,22.791c1.041-0.072,3.254,0.559,4.088-0.396
		c0.478,0.157,0.979,0.26,1.461,0.185c0.354-0.055,0.713-0.334,0.971-0.13c0.146,0.116,0.263,0.398,0.363,0.636
		c0.149,0.349,0.979,0.219,1.217,0.473c0.312,0.338-0.682,0.67-0.997,0.614c-1.007-0.177-1.962-0.503-2.925-0.374
		c-0.112,0.017-0.404,0.169-0.551,0.164c-0.894-0.031-2.096,0.025-2.832-0.598C113.172,23.245,112.387,22.799,112.516,22.791z
		 M108.249,91.404c1.673-2.217,4.683-4.526,7.748-5.312c0.877-0.227,1.419-0.61,3.085-0.291c0.174,0.036,0.611,0.064,0.954,0.608
		c0.298,0.474,0.407,1.287-0.056,1.461c-2.024,0.775-3.086,0.857-3.955,2.167c1.312-0.694,2.549-0.927,3.91-1.071
		c0.89-0.09,2.141-0.16,2.338,0.612l0.011-0.081c0.539,1.232,0.268,1.854,0.268,1.854c-0.114,1.234-0.885,1.621-2.239,1.854
		c-4.713,0.617-6.414,2.008-8.125,4.278c-0.125,0.192-0.576,0.646-0.799,0.666c-0.348-0.193-0.58-0.619-1.197-1.659
		c-0.465-0.349-0.821-0.999-0.772-1.109c0.772-1.788,3.207-3.024,3.901-3.257c-1.621-0.389-3.129,0.85-4.372,2.193
		c-0.128,0.142-0.617-1.023-0.925-1.447C107.921,92.729,107.764,92.049,108.249,91.404z M73.673,55.4
		c-0.531,0.257-0.664-0.733-0.996-0.592c-0.517,0.222-0.825,1.31-1.598,1.199c0.017,0.009,0.032,0.016,0.044,0.021
		c0.043,0.013,0.035,0.015,0,0c-0.024-0.008-0.062-0.019-0.123-0.033c0.027,0.007,0.053,0.008,0.079,0.012
		c-0.147-0.077-0.438-0.302-0.187-0.767c0.039-0.075,0.484-1.019,0.825-1.552c9.155-14.333,18.575-22.759,25.844-29.012
		l-0.695,0.039c-14.682,11.281-24.959,26.737-27.66,31.328c-1.545,2.629-2.085,0.62-2.085,0.62c1.544-6.182,3.94-9.967,3.94-9.967
		c1.466-3.014,5.445-7.302,8.265-10.122c3.863-4.712,9.194-8.268,13.212-10.739c3.631-2.784,5.177-2.628,5.177-2.628
		c2.626-1.004,3.553,0.927,2.317,2.009c-1.314,1.547-3.167,2.628-4.25,4.635c-0.093,0.645-1.425,2.584-1.545,3.185
		c-0.13,0.63-0.772,1.837-1.062,2.028c-0.812,0.537-0.946,1.124-1.616,1.876c-0.615,0.694-0.645,1.179-1.029,1.644
		c-0.17-0.141-0.155-0.31-0.772-0.698c-0.388,3.017-1.47,3.788-2.455,5.501c-0.847,1.467-2.26,3.074-3.85,4.574
		c-0.513,0.484-0.032-0.647-0.418-1.109c-1.391,2.471-4.02,6.104-4.867,5.872c0,0-0.426-0.985-0.463-1.314
		C76.933,52.567,75.541,54.498,73.673,55.4z M92.306,74.044c-1.699,0.927-2.703,3.785-2.703,3.785l-0.31,0.078
		c0,0-0.155-3.091-1.235-4.712c-0.386,5.021-0.85,5.445-1.235,6.644c-0.617,1.815-0.813,2.165-1.702,3.519
		c0,0-0.462,0.811-1.005,0.193c-0.27-0.078-0.5,0.151-0.5,0.151c-0.155,0.116-0.327,0.237-0.426,0.465
		c-0.116,0.269-0.246,0.298-0.246,0.298s-0.216,0.358-0.448,0.366c-0.398,0.01-0.312,0.021-0.433-0.081
		c-0.284-0.243-0.108-0.506-0.068-0.684c0.08-0.352,0.269-0.711,0.48-1.197c0.153-0.35,0.447-1.137,0.098-1.289
		c-0.185-0.1-0.658,1.311-1.279,1.895c-1.309,1.543-1.618,1.465-3.009,2.082c-0.31-1.08-0.31-0.691-0.31-1.621
		c0-1.006,0-0.851,0.136-1.735c0,0,0.06-0.546,0.355-1.622c-0.682,0.691-1.443,0.566-1.57,0.691c0.27-0.965,0.208-1.185,0.501-2.931
		c0.619-3.678,1.931-5.299,1.931-5.299l-0.231-0.156L78.786,72.5c0,0,0.078-1.238,1.351-2.975c-0.733,0.346-1.195,1.041-1.915,1.873
		c-0.553,0.643-0.456,0.838-0.977,1.483c-0.312,0.39-0.7,0.775-1.156,1.339c-0.238,0.297-0.548,0.596-1.128,0.711
		c-0.888,0.35-0.657-0.424-0.128-1.384c0,0,0.63-0.586-0.529-1.048c0,0-0.231-0.232,0.617-2.629c0,0,1.237-3.398,2.853-6.328
		c1.291-2.338,2.274-4.267,3.171-5.819c0.365-0.639,1.705-2.145,2.247-2.662c0.13-0.125,0.462-0.332,0.707-0.65
		c0,0.025-1.587,0.598-1.676,0.664c-1.97,1.508-2.047,1.508-3.477,2.897c-0.578,0.465-1.119,0.349-0.773-0.462
		c0.971-2.219,1.353-2.858,2.243-4.25c5.292-5.484,7.224-8.19,7.224-8.19l0.965-1.467c0.31-0.155,0.579-0.227,0.541-0.193
		c0.27-0.501,0.773-1.237,1.274-1.815c0.426-0.656,0.694-0.078,0.694-0.078c-1.931,8.19-8.498,30.827-9.734,37.238
		c4.095-12.205,7.881-27.271,12.286-41.411c3.013-8.498,5.022-8.962,5.022-8.962s0.694-0.694,0.31,1.314
		c-0.62,1.621,0.925,8.729,1.466,12.053c1.392,4.867-0.077,6.954,0.078,9.04c0,0-0.078,2.006-0.772,0.385
		c-0.542-1.312-0.928-1.082-1.699-4.635c-0.387,3.246,0.23,7.031,0.617,9.425c0,0.62-1.236,0.31-1.931,3.246
		c-0.155,1.392-0.31,2.936-0.888,3.824l-0.311-0.116c0,0-0.81-1.082-2.2-8.497c-0.696,3.553-0.311,8.73,0.386,11.821
		c0.232,1.853,0.387,2.78,0.617,3.94C92.461,72.111,92.306,74.044,92.306,74.044z M122.518,117.619
		c-12.441-6.336-20.09-10.432-37.553-7.184c9.427-8.5,11.126-16.612,9.891-26.115c2.023,1.753,3.911,3.326,4.83,4.044
		c0.876,0.68,2.433,1.479,3.399,1.801c0.638,0.209,1.353,0.373,2.274,0.833c1.047,0.52,0.582,1.992,1.191,3.116
		c0.473,0.868,0.705,0.983,1.25,1.557c1.24,1.312,0.344,1.86,1.756,3.288c0.566,0.572,1.323,0.637,1.701,1.221
		c0.98,1.524,0.705,2.418,1.834,3.207c1.463,1.022,1.812,3.184,2.426,4.396c0.393,0.778,1.359,1.851,1.984,2.452
		c1.249,1.207,2,1.861,2.385,2.787c0.25,0.602,0.573,1.181,0.997,1.936c0.185,0.33,1.091,1.734,1.478,2.006
		C122.361,116.964,123.523,118.134,122.518,117.619z M134.547,120.801c-0.672,0.213-2.064-0.863-2.626,0.004
		c-0.032,0.055-0.614-0.272-0.61-0.313c0.09-2.407-0.892-3.546-2.512-4.482c-1.88-1.096-4.213-1.114-6.156-2.149
		c-0.476-0.254-1.091-0.967-0.664-1.185c0.767-0.396,1,0,2.082,0.345c0.543,0.232,1.102,0.401,1.285,0.426
		c0.568,0.078,0.939-0.047,1.111-0.639c0.146-0.509-0.323-1.074-0.73-1.406c-0.811-0.66-1.086-1.121-1.869-2.172
		c-0.237-0.314-0.519-0.627-0.674-0.989c-0.213-0.484-0.855-0.9-1.348-1.171c-0.812-0.448-3.298-0.614-4.479-1.104
		c-0.254-0.104-0.928-1.165,0.234-0.974c0.908,0.152,2.413,0.42,2.922,0.039c0.424-0.318-0.791-0.969-1.197-1.506
		c-0.004,0-0.045-0.273-0.355-0.584c0-0.388-0.669-1.106-0.859-1.668c-0.25-0.735-0.906-1.358-1.219-2.078
		c-0.33-0.752-0.162-1.275-0.238-2.436c0.34,0.102,0.586,0.271,0.764,0.62c0.781,1.544,0.859,2.548,1.709,3.785
		c-0.098,0.08,0.269,0.5,0.463,1.159c0.622,0.667,1.007,1.688,2.013,1.793c0.898,0.094,1.347-0.986,1.875-1.522
		c0.158-0.159,0.552-0.437,0.712-0.307c0.104,0.083-0.05,0.808-0.154,0.937c-0.967,1.174-1.021,2.807-0.184,3.979
		c0.047,0.066,0.276,0.352,0.297,0.404c0.531,1.379,1.59,2.523,2.725,3.498c0.175,0.146,0.771,0.271,0.844,0.172
		c0.447-0.608,0.297-1.406,0.682-1.769c0.114-0.077,0.309-0.694,0.771-0.307c0.155,1.001-0.153,3.166-0.849,5.097
		c1.664,0.742,2.477,2.27,3.713,3.553c0.279,0.297,1.028-0.473,1.188-0.029c0.158,0.432-0.294,0.974,0.017,1.469
		c0.293,0.471,0.985,0.493,1.306,0.98C134.634,120.419,134.607,120.782,134.547,120.801z M138.296,117.693
		c0.011,0.371-0.097,1.55-0.058,2.244c-0.233-0.193-1.893-1.97-2.125-2.16c-0.618-0.582-0.725-0.59-0.922-0.731
		c-1.139-0.817-1.203-0.741-1.291-1.905c0.125-2.389-1.109-4.705-2.896-6.201c-0.315-0.266-0.926-1.209-1.137-1.74
		c-0.433-1.073-0.697-0.934-0.75-1.711c-0.036-0.539-0.653-0.928-0.851-1.66c-0.887-3.053-1.967-4.057-3.319-5.331
		c-0.618-0.695-1.082-3.593-1.623-4.903c0.812-1.084,0.657-1.857,0.657-2.939c2.047,0.759,4.35,1.503,6.381,2.322l2.582,1.235
		c0,0,0.041,2.017,0.474,3.959l0.409,1.361c0.816,2.493,2.902,5.177,3.829,7.565C138.895,110.281,138.188,114.048,138.296,117.693z
		 M169.605,68.134c-0.271,0.54-1.082,1.392-2.588,1.66c-0.463,0-1.392,0.078-1.894-0.308c-0.463-0.232-1.005-0.732-1.933-1.817
		c-0.385-0.307-1.352-0.888-2.51-0.656c-0.19,0.155-0.562,0.443-0.733,0.888c-0.349,0.813-1.738,0.813-2.665,0.039
		c-2.242-1.622-0.078-4.247,0.693-4.983c-0.387-0.229-0.463-0.116-0.965-0.116c-1.043,0.465-1.16,2.125-1.585,2.858
		c-0.696,0.774-1.467,2.318-2.007,3.555c-1.236,1.545-1.777,2.471-1.777,2.471l0.619,0.077c0,0,1.196-0.577,2.199-2.276
		c0.389-0.465,0.618-0.771,1.354-0.735c0.465,0.31,2.086,1.508,5.021,1.16c0.85,0.038,1.314,0.735,1.893,1.276
		c2.436,2.278,1.739,5.293,1.739,5.293c-1.392-0.078-1.93-0.156-3.089-0.041c-0.673,0.261-1.592,0.41-2.396,0.772
		c-0.681,0.179-1.969,0.078-2.858-0.077c-0.89,0.733-1.313,1.971-1.313,1.971l0.465,0.271c0.346-0.312,0.964-0.735,0.964-0.735
		c0.929-0.191,1.468,0.077,2.125,0.077c1.235,0.116,2.434,0,3.052,0.271c1.273,0.35,1.814,1.082,0.891,2.125
		c-0.427,0.695-1.236,1.391-1.933,2.783c-0.231,1.004-0.278,1.709,0.385,2.664c0.232,1.082,0.695,2.282,0.772,3.438
		c0.232,1.547-0.889,2.048-1.04,2.435c-0.853,0.617-0.542,0.424-1.2,0.885c-0.773,0.235-1.467,0.235-2.163-0.074
		c-1.003-0.389-1.622-0.542-3.707-0.697c-2.396,0.387-6.336-1.082-7.805-1.855c-1.546-1.158-4.945-2.086-7.107-2.086
		c-1.392,0-2.319-0.151-3.788-0.617c-4.173-0.926-6.565-1.543-9.502-4.25c-1.392-1.236-0.617-2.164,0.771-3.862
		c3.708-6.183,7.109-15.451,6.645-26.655c-0.463-3.323,0.773-8.113,0.773-8.113c0.849-3.013,1.08-3.708,1.544-7.416
		c0.332-6.248-0.483-10.478-0.976-12.378c-0.215,0.18-1.645-0.841-1.447-0.662c-0.357-0.326-0.691-0.57-1.412-0.465
		c-0.971,0.144-1.801-0.509-2.771-0.653c-0.463-0.069-0.811,0.02-1.291-0.066c-0.224-0.036-0.447-0.13-0.656-0.229
		c-0.338-0.161-0.607,0.285-0.916,0.415c-0.111,0.047-0.271,0.053-0.371-0.002c-0.688-0.391-1.418-0.836-2.106-0.886
		c-0.627-0.05-1.337,0.155-1.989,0.066c-0.488-0.063-0.707-0.633-0.705-1.17c2.105-0.293,4.217-0.119,6.332,0.053
		c0.299,0.025,0.635,0.022,0.941,0.241c0.01,0.007,0.02,0.005,0.029,0.01c0.033,0.003,0.07,0.008,0.104,0.011
		c0.079-0.016,0.162-0.064,0.242-0.082c-0.146-0.459-0.591-0.645-0.947-0.802c-1.259-0.554-2.65-0.224-3.984-0.562
		c-0.443-0.112-0.883-0.336-1.209-0.663c-0.241-0.088-0.338-0.183-0.066-0.482c0.004-0.004,0.01-0.007,0.014-0.011
		c0.092-0.141,0.254-0.256,0.409-0.308c0.372-0.125,0.826,0.307,1.104,0.069c0.158-0.135,0.375-0.329,0.517-0.351
		c0.744-0.116,1.521-0.385,2.207,0.058c0.25,0.158,0.513,0.274,0.742,0.479c0.394,0.346,0.903,0.081,1.353,0.227
		c0.113,0.036,0.297,0.113,0.418,0.246c0.037,0.039,0.139,0.014,0.219,0.014c-0.022,0.075,0.017,0.13,0.078,0.144
		c0.099,0.025,0.213-0.011,0.303,0.02c0.861,0.318,1.513,0.971,2.302,1.472c0.593,0.376,0.865,0.936,1.382,1.409
		c0.184,0.17,0.335,0.385,0.458,0.583c0.07,0.068,0.142,0.136,0.214,0.2l2.154,1.231c-0.004,0.041-0.055,0.077-0.133,0.109
		c0.26,0.071,0.554,0.096,0.927,0.045c0.929,0,1.159-0.108,1.315-0.147c0.791-0.193,1.418,0.269,2.015-0.116
		c0.146-1.976-3.026-2.579-4.837-3.483c-0.072-0.736-0.896-0.888-1.361-1.342c-0.242-0.238-0.068-0.694,0.354-0.733
		c1.354-0.127,3.47,1.511,5.288,2.452c0.4,0.208,0.738,0.562,0.996,1.001c0.312,0.538,0.402,1.242,0.918,1.656
		c0.596,0.292,1.428,0.324,1.763,0.367c1.505,0.193,4.405,0.017,5.149,0.285c1.457,0.526,2.033,0.963,3.397,2.291
		c0.205,0.199,1.404,1.417,1.591,1.66c0.819,1.06,1.385,1.821,2.028,2.963c0.622,1.104,1.702,2.958,1.964,4.355
		c0.213,1.14,1.288,1.566,2.124,2.399c0.646,0.647,1.397,1.458,1.894,2.396c0.412,0.783,0.524,1.901,0.119,2.562
		c-0.412,0.675-1.309,0.75-1.934,0.528c-0.202-0.069-0.602-0.288-0.807-0.327c-1.178-0.208-0.961-0.232-1.918-0.152
		c-0.233,0.021-0.549,0.299-0.729,0.368c-0.77,0.302-1.523,0.642-2.261,0.985c-0.195,0.094-0.56,0.197-0.624,0.474
		c-0.139,0.581,0.539,0.456,0.869,0.597c0.393,0.167,0.178,0.706-0.004,1.082c-0.016,0.036-0.196,0.083-0.252,0.122
		c-0.625,0.479-1.232,0.839-1.631,1.525c-0.046,0.078-0.023,0.404-0.066,0.426c-0.424,0.229-0.875-0.05-0.721-0.474
		c-0.049-0.075-0.154-0.349-0.496-0.144c-0.104,0.061-0.367,0.548-0.408,0.636c-0.111,0.23-0.41-0.34-0.715,0.047
		c-0.357,0.459,0.111,0.711,0.422,0.811c-0.153,0.271-0.129,0.335-0.131,0.288c-0.006-0.108-0.362,0.725,0.084,0.764
		c0.356,0.031,0.316,0.031,0.627-0.279c0.347-0.152,0.396,0.241,0.507,0.479c0.134,0.293-0.063,0.667,0.116,0.984
		c0.064,0.114,0.151,0.252,0.238,0.286c0.396,0.152,0.688,0.503,0.906,0.833c0.119,0.175,0.376,0.374,0.6,0.545
		c0.056,0.042,0.094,0.271,0.139,0.318c0.279,0.282,0.576,0.504,0.83,0.692c0.49,0.365,1.531,0.113,1.438-0.589
		c-0.072-0.556-0.643-0.841-1.167-1.237c-0.39-0.293-0.672-0.686-1.034-1.013c-0.216-0.194-0.107-0.559,0.145-0.728
		c0.335-0.221,0.77-0.138,0.904-0.066c0.434,0.232,0.705,0.966,1.268,1.234c0.451,0.216,0.335,0.18,0.848,0.266
		c0.184,0.031,0.437,0.072,0.531-0.086c0.035-0.055,0.071-0.1,0.105-0.216c-0.118-0.155,0.076-0.155-0.118-0.445
		c-0.188-0.282-0.388-0.415-0.142-0.664c0.142-0.141,0.271-0.282,0.451-0.282c0.271-0.31,0.467-0.581,0.729-0.205
		c0.277,0.398,0.381,0.612,0.631,0.733c0.168,0.083,0.425-0.053,0.506-0.163c0.771-1.004,0.773-2.322,1.675-2.928
		c0.015-0.008,0.323,0.014,0.323,0.014c0.85,0.927,2.125,1.121,3.67,3.359c0.618,0.85,1.583,3.013,1.623,3.479
		c0.54,1.159,1.003,2.509,1.236,3.168c0.541,1.622,1.004,2.936,1.699,4.095C170.264,64.772,170.418,66.435,169.605,68.134z
		 M157.366,48.89c0.004,0.057,0.008,0.123,0.015,0.213c0.018,0.257-0.617,0.578-0.736,0.681c-0.752,0.658-1.58,0.526-1.58,0.526
		c-0.948-0.139-1.144-0.061-1.602-0.302c-0.184-0.097-0.124-0.246-0.064-0.379c0.137-0.307,0.291-0.423,0.545-0.902
		c0.291-0.542,0.945-0.642,1.371-1.45c0.02-0.031,0.779-0.653,0.873-0.684c0.479-0.169,0.801,0.191,0.873,0.396
		c0.146,0.401,0.133,0.744,0.184,1.118C157.327,48.741,157.357,48.895,157.366,48.89C157.339,48.477,157.379,48.881,157.366,48.89z"
		/>
	<path fill="#681D13" d="M121.768,19.413c-0.004,0.004-0.01,0.006-0.014,0.011c-0.271,0.3-0.175,0.394,0.066,0.482
		c-0.004-0.003-0.008-0.006-0.012-0.009C121.65,19.738,121.669,19.562,121.768,19.413z"/>
	<path fill="#681D13" d="M127.721,22.015c-0.033-0.003-0.07-0.008-0.104-0.011C127.648,22.019,127.686,22.022,127.721,22.015z"/>
	<path fill="#681D13" d="M133.475,23.674c-0.074-0.064-0.146-0.132-0.215-0.2c0.025,0.041,0.051,0.082,0.073,0.12L133.475,23.674z"
		/>
	<path fill="#681D13" d="M167.404,58.671c-0.233-0.659-0.696-2.009-1.236-3.168c-0.04-0.465-1.005-2.629-1.623-3.479
		c-1.545-2.238-2.82-2.432-3.67-3.359c0,0-0.309-0.022-0.323-0.014c-0.901,0.606-0.903,1.923-1.675,2.928
		c-0.082,0.11-0.338,0.246-0.506,0.163c-0.25-0.122-0.354-0.335-0.63-0.733c-0.261-0.376-0.458-0.105-0.729,0.205
		c-0.18,0-0.311,0.141-0.451,0.282c-0.246,0.249-0.047,0.382,0.142,0.664c0.194,0.291,0,0.291,0.118,0.445
		c-0.035,0.116-0.071,0.161-0.105,0.216c-0.095,0.158-0.347,0.117-0.531,0.086c-0.513-0.086-0.396-0.05-0.848-0.266
		c-0.562-0.269-0.834-1.002-1.268-1.234c-0.135-0.072-0.569-0.155-0.904,0.066c-0.251,0.169-0.359,0.534-0.145,0.728
		c0.361,0.327,0.645,0.719,1.035,1.013c0.523,0.396,1.094,0.681,1.166,1.237c0.094,0.703-0.947,0.955-1.437,0.589
		c-0.255-0.188-0.552-0.41-0.831-0.692c-0.044-0.047-0.083-0.276-0.139-0.318c-0.224-0.171-0.48-0.37-0.6-0.545
		c-0.219-0.329-0.512-0.681-0.906-0.833c-0.086-0.034-0.174-0.172-0.238-0.286c-0.18-0.318,0.018-0.691-0.116-0.984
		c-0.11-0.238-0.161-0.631-0.506-0.479c-0.312,0.31-0.271,0.31-0.628,0.279c-0.445-0.039-0.088-0.872-0.084-0.764
		c0.002,0.047-0.021-0.017,0.131-0.288c-0.311-0.1-0.779-0.352-0.422-0.811c0.306-0.388,0.604,0.183,0.715-0.047
		c0.041-0.088,0.305-0.576,0.408-0.636c0.341-0.205,0.445,0.069,0.496,0.145c-0.154,0.424,0.297,0.703,0.721,0.474
		c0.043-0.022,0.021-0.349,0.066-0.426c0.398-0.686,1.006-1.046,1.631-1.525c0.056-0.039,0.236-0.085,0.252-0.122
		c0.182-0.376,0.396-0.916,0.005-1.082c-0.33-0.141-1.007-0.017-0.87-0.597c0.064-0.277,0.429-0.379,0.624-0.474
		c0.737-0.343,1.491-0.683,2.261-0.985c0.18-0.069,0.495-0.349,0.729-0.368c0.957-0.08,0.74-0.055,1.918,0.152
		c0.205,0.039,0.604,0.257,0.807,0.327c0.625,0.221,1.521,0.146,1.934-0.528c0.405-0.662,0.293-1.78-0.119-2.562
		c-0.496-0.938-1.248-1.749-1.894-2.396c-0.836-0.833-1.911-1.259-2.124-2.399c-0.263-1.397-1.343-3.251-1.964-4.355
		c-0.644-1.142-1.209-1.903-2.028-2.963c-0.187-0.243-1.386-1.461-1.591-1.66c-1.364-1.328-1.94-1.765-3.397-2.291
		c-0.743-0.268-3.645-0.091-5.149-0.285c-0.335-0.043-1.167-0.076-1.763-0.367c0.037,0.029,0.07,0.061,0.111,0.087
		c-0.311-0.042-1.482,0.553-1.47,0.362c-0.597,0.385-1.224-0.077-2.015,0.116c-0.156,0.039-0.387,0.147-1.315,0.147
		c-0.373,0.051-0.667,0.025-0.927-0.045c-0.379,0.159-1.449,0.235-1.496,0.322c-0.004,0.008-0.014,0.012-0.021,0.018
		c0.492,1.901,1.308,6.131,0.976,12.378c-0.464,3.708-0.696,4.403-1.544,7.416c0,0-1.236,4.79-0.773,8.113
		c0.465,11.204-2.937,20.472-6.645,26.655c-1.389,1.698-2.164,2.626-0.771,3.862c2.937,2.707,5.329,3.324,9.502,4.25
		c1.469,0.465,2.396,0.617,3.789,0.617c2.161,0,5.562,0.928,7.106,2.086c1.468,0.773,5.407,2.242,7.805,1.855
		c2.084,0.155,2.703,0.309,3.707,0.697c0.696,0.311,1.39,0.311,2.163,0.074c0.658-0.461,0.348-0.269,1.2-0.885
		c0.151-0.387,1.272-0.888,1.04-2.435c-0.077-1.157-0.54-2.358-0.771-3.438c-0.664-0.955-0.617-1.66-0.386-2.664
		c0.694-1.393,1.506-2.086,1.933-2.783c0.926-1.043,0.385-1.775-0.891-2.125c-0.618-0.271-1.814-0.154-3.052-0.271
		c-0.657,0-1.197-0.269-2.125-0.077c0,0-0.619,0.426-0.964,0.735l-0.465-0.271c0,0,0.424-1.237,1.313-1.971
		c0.89,0.155,2.179,0.256,2.858,0.077c0.804-0.362,1.723-0.512,2.396-0.772c1.16-0.115,1.698-0.037,3.09,0.041
		c0,0,0.695-3.015-1.74-5.293c-0.578-0.541-1.041-1.238-1.893-1.276c-2.936,0.349-4.557-0.851-5.021-1.16
		c-0.735-0.036-0.965,0.271-1.354,0.735c-1.003,1.701-2.199,2.276-2.199,2.276l-0.619-0.077c0,0,0.541-0.926,1.777-2.471
		c0.54-1.237,1.311-2.781,2.008-3.555c0.424-0.733,0.541-2.394,1.584-2.858c0.5,0,0.578-0.113,0.965,0.116
		c-0.771,0.736-2.936,3.362-0.693,4.983c0.927,0.774,2.316,0.774,2.665-0.039c0.172-0.445,0.542-0.733,0.733-0.888
		c1.159-0.232,2.125,0.349,2.51,0.656c0.928,1.085,1.469,1.585,1.933,1.817c0.502,0.385,1.431,0.308,1.894,0.308
		c1.506-0.269,2.317-1.12,2.588-1.66c0.812-1.699,0.658-3.362-0.5-5.368C168.408,61.607,167.945,60.292,167.404,58.671z
		 M152.768,75.01C152.71,75.135,153,75.195,153,75.32c0-0.027,0-0.053,0-0.077c-1,0.6-0.559,1.137-0.814,1.715
		c-0.263,0.601-0.219,1.339-0.625,1.881c-0.181,0.238-0.715,0.147-0.787-0.135c-0.271-1.058-0.078-2.17,0.427-3.132
		C151.463,75.068,152.198,74.818,152.768,75.01z M152.893,62.703c-0.398,0.371-0.947,0.744-1.326,1.394
		c-0.074,0.133-0.649,0.745-0.767,0.833c-1.243,0.924-1.53,1.732-2.458,2.87c-0.523,0.642-0.697,1.485-1.049,2.238
		c-0.206,0.442-0.337,0.899-0.607,1.307c-0.115,0.171-0.535,0.091-0.682,0.231c-0.771,0.742-1.505,1.451-2.078,2.414
		c-0.091,0.156-0.423,0.146-0.463,0.068c-0.502-0.955-1.186-1.672-2.363-1.705c-0.213-0.004-0.434-0.476-0.422-0.898
		c0.004-0.088-0.097-0.26-0.207-0.282c-0.175-0.037-0.256-0.205-0.455-0.216c-0.195-0.008-0.356-0.387-0.396-0.516
		c-0.234-0.75-0.146-1.641-0.303-2.44c0.027,0,0.052,0,0.08,0c-0.443,0-0.676-0.489-0.619-0.937
		c0.148,0.047,0.027-0.136,0.154-0.127c0.924,0.063,1.791,0.446,2.707,0.465c1.053,0.025,2.11-0.166,3.072-0.62
		c1.188-0.564,2.221-1.169,3.366-1.932c0.511-0.341,1.248-0.541,1.884-0.685c1-0.225,0.934-0.785,1.68-1.225
		c1.082-0.64,1.004-1.104,1.619-0.863C153.436,62.143,153.082,62.531,152.893,62.703z M164.104,63.704
		c-0.127,0.086-0.404,0.063-0.483-0.011c-1.288-1.232-1.702-1.237-3.104-1.486c-0.065-0.014-0.287-0.442,0.053-0.557
		c1.332-0.434,1.97,0.186,3.439,1.185C164.264,63.007,164.466,63.46,164.104,63.704z"/>
	<path fill="#681D13" d="M157.243,48.106c-0.052-0.374-0.037-0.717-0.183-1.118c-0.074-0.205-0.396-0.564-0.875-0.396
		c-0.093,0.03-0.854,0.653-0.873,0.684c-0.426,0.808-1.078,0.908-1.369,1.45c-0.254,0.479-0.409,0.595-0.547,0.902
		c-0.059,0.133-0.117,0.282,0.065,0.379c0.458,0.241,0.653,0.163,1.603,0.302c0,0,0.826,0.132,1.58-0.526
		c0.117-0.103,0.754-0.423,0.735-0.681c-0.006-0.09-0.011-0.156-0.015-0.213C157.357,48.895,157.327,48.741,157.243,48.106z"/>
	<path fill="#681D13" d="M157.366,48.89C157.379,48.881,157.339,48.477,157.366,48.89L157.366,48.89z"/>
	<path d="M164.008,62.835c-1.47-0.999-2.105-1.619-3.439-1.185c-0.34,0.114-0.119,0.543-0.053,0.557
		c1.403,0.249,1.816,0.254,3.104,1.486c0.079,0.074,0.356,0.097,0.483,0.011C164.466,63.46,164.264,63.007,164.008,62.835z"/>
	<path d="M151.102,75.572c-0.502,0.962-0.639,2.074-0.367,3.132c0.072,0.282,0.567,0.373,0.748,0.135
		c0.406-0.542,0.44-1.28,0.703-1.881c0.256-0.579-0.185-1.115,0.815-1.715c0,0.024,0,0.049,0,0.077c0-0.125-0.291-0.186-0.233-0.311
		C152.198,74.818,151.365,75.068,151.102,75.572z"/>
	<path d="M153.262,62.077c-0.615-0.241-0.537,0.224-1.619,0.863c-0.748,0.44-0.68,1.001-1.681,1.226
		c-0.636,0.144-1.373,0.346-1.884,0.687c-1.146,0.763-2.178,1.372-3.366,1.937c-0.962,0.454-2.021,0.653-3.073,0.628
		c-0.916-0.02-1.783-0.385-2.707-0.449c-0.127-0.008-0.005,0.142-0.152,0.094c-0.057,0.448,0.175,0.937,0.617,0.937
		c-0.027,0-0.051,0-0.08,0c0.158,0.8,0.068,1.691,0.304,2.441c0.041,0.127,0.2,0.473,0.396,0.481c0.2,0.011,0.28,0.196,0.457,0.232
		c0.109,0.021,0.209,0.202,0.207,0.29c-0.013,0.424,0.207,0.898,0.42,0.904c1.178,0.032,1.862,0.752,2.364,1.707
		c0.04,0.077,0.372,0.09,0.463-0.068c0.572-0.963,1.306-1.67,2.078-2.412c0.147-0.141,0.565-0.061,0.681-0.232
		c0.271-0.408,0.402-0.863,0.608-1.306c0.353-0.753,0.526-1.597,1.049-2.238c0.927-1.138,1.214-1.945,2.458-2.87
		c0.116-0.088,0.691-0.7,0.768-0.833c0.379-0.65,0.927-1.023,1.324-1.394C153.082,62.531,153.436,62.144,153.262,62.077z"/>
	<path fill="#FFFFFF" d="M108.949,94.316c1.242-1.344,2.751-2.58,4.373-2.192c-0.696,0.231-3.131,1.469-3.902,3.257
		c-0.048,0.11,0.309,0.762,0.771,1.109c0.619,1.041,0.851,1.466,1.197,1.66c0.223-0.021,0.674-0.474,0.801-0.668
		c1.711-2.27,3.412-3.66,8.125-4.277c1.354-0.232,2.123-0.62,2.238-1.854c0,0,0.271-0.621-0.268-1.854l-0.01,0.081
		c-0.198-0.771-1.449-0.703-2.338-0.612c-1.362,0.144-2.598,0.377-3.91,1.071c0.869-1.309,1.93-1.393,3.955-2.167
		c0.461-0.175,0.353-0.988,0.055-1.461c-0.342-0.544-0.78-0.572-0.954-0.608c-1.666-0.32-2.208,0.064-3.085,0.291
		c-3.066,0.785-6.075,3.096-7.748,5.312c-0.484,0.645-0.328,1.324-0.225,1.466C108.333,93.294,108.82,94.459,108.949,94.316z"/>
	<path fill="#FFFFFF" d="M133.229,119.288c-0.311-0.495,0.143-1.037-0.017-1.468c-0.16-0.443-0.909,0.326-1.188,0.029
		c-1.236-1.285-2.049-2.812-3.713-3.554c0.695-1.931,1.004-4.095,0.849-5.097c-0.464-0.389-0.657,0.229-0.771,0.307
		c-0.384,0.362-0.232,1.16-0.682,1.768c-0.073,0.101-0.669-0.024-0.844-0.172c-1.135-0.974-2.193-2.119-2.725-3.498
		c-0.021-0.052-0.25-0.336-0.297-0.403c-0.839-1.171-0.783-2.804,0.184-3.979c0.104-0.128,0.26-0.853,0.154-0.936
		c-0.16-0.131-0.554,0.146-0.712,0.307c-0.528,0.537-0.976,1.616-1.875,1.522c-1.006-0.106-1.392-1.126-2.013-1.794
		c-0.195-0.658-0.561-1.078-0.463-1.158c-0.85-1.237-0.928-2.241-1.709-3.785c-0.178-0.35-0.424-0.518-0.764-0.62
		c0.076,1.159-0.092,1.683,0.238,2.435c0.312,0.721,0.969,1.344,1.219,2.078c0.19,0.562,0.859,1.281,0.859,1.67
		c0.311,0.31,0.352,0.584,0.355,0.584c0.406,0.537,1.621,1.187,1.197,1.504c-0.509,0.383-2.014,0.113-2.922-0.039
		c-1.162-0.19-0.49,0.869-0.234,0.975c1.182,0.49,3.666,0.656,4.479,1.105c0.492,0.27,1.135,0.686,1.348,1.17
		c0.155,0.361,0.437,0.675,0.674,0.99c0.783,1.051,1.059,1.512,1.869,2.172c0.407,0.332,0.877,0.896,0.73,1.406
		c-0.172,0.592-0.542,0.715-1.111,0.639c-0.184-0.025-0.742-0.194-1.285-0.426c-1.082-0.346-1.315-0.742-2.082-0.346
		c-0.427,0.219,0.188,0.93,0.664,1.184c1.943,1.035,4.276,1.055,6.156,2.15c1.621,0.938,2.604,2.075,2.512,4.482
		c-0.002,0.041,0.578,0.367,0.61,0.312c0.562-0.865,1.954,0.211,2.626-0.003c0.062-0.019,0.087-0.382-0.014-0.534
		C134.214,119.781,133.521,119.758,133.229,119.288z"/>
	<path fill="#681D13" d="M120.884,114.958c-0.424-0.755-0.747-1.334-0.997-1.935c-0.385-0.926-1.136-1.582-2.385-2.789
		c-0.625-0.601-1.593-1.674-1.984-2.451c-0.613-1.211-0.961-3.373-2.426-4.396c-1.129-0.789-0.854-1.682-1.834-3.207
		c-0.377-0.584-1.135-0.647-1.701-1.22c-1.412-1.428-0.516-1.976-1.756-3.288c-0.545-0.572-0.775-0.689-1.25-1.557
		c-0.609-1.125-0.145-2.596-1.191-3.116c-0.924-0.459-1.637-0.623-2.274-0.833c-0.967-0.32-2.522-1.121-3.399-1.801
		c-0.919-0.717-2.807-2.291-4.83-4.043c1.236,9.502-0.463,17.615-9.891,26.115c17.463-3.25,25.111,0.847,37.553,7.183
		c1.006,0.515-0.156-0.655-0.156-0.655C121.975,116.691,121.066,115.287,120.884,114.958z"/>
	<path fill="#681D13" d="M137.657,107.096c-0.927-2.388-3.013-5.07-3.829-7.564l-0.409-1.361c-0.433-1.941-0.474-3.959-0.474-3.959
		l-2.582-1.234c-2.031-0.819-4.334-1.563-6.381-2.322c0,1.082,0.154,1.854-0.657,2.938c0.541,1.312,1.005,4.208,1.623,4.903
		c1.354,1.275,2.434,2.279,3.319,5.331c0.197,0.733,0.813,1.122,0.851,1.659c0.053,0.779,0.317,0.639,0.75,1.712
		c0.21,0.53,0.819,1.475,1.137,1.739c1.786,1.498,3.021,3.813,2.896,6.201c0.088,1.166,0.152,1.088,1.291,1.906
		c0.197,0.143,0.304,0.15,0.922,0.73c0.232,0.191,1.892,1.968,2.125,2.162c-0.039-0.695,0.068-1.875,0.058-2.244
		C138.188,114.048,138.895,110.281,137.657,107.096z"/>
	<path fill="#FFFFFF" d="M71.123,56.028C71.158,56.043,71.166,56.042,71.123,56.028L71.123,56.028z"/>
	<path fill="#FFFFFF" d="M78.168,52.722c0.848,0.232,3.477-3.4,4.867-5.872c0.386,0.462-0.095,1.594,0.418,1.109
		c1.59-1.5,3.003-3.107,3.85-4.574c0.985-1.713,2.067-2.484,2.455-5.501c0.617,0.388,0.602,0.557,0.772,0.698
		c0.384-0.465,0.414-0.95,1.029-1.644c0.67-0.752,0.804-1.339,1.616-1.876c0.291-0.191,0.933-1.397,1.062-2.028
		c0.121-0.601,1.453-2.541,1.545-3.185c1.083-2.006,2.936-3.088,4.25-4.635c1.235-1.082,0.309-3.013-2.317-2.009
		c0,0-1.546-0.155-5.177,2.628c-4.019,2.471-9.35,6.027-13.212,10.739c-2.819,2.819-6.798,7.108-8.265,10.122
		c0,0-2.396,3.785-3.94,9.967c0,0,0.54,2.009,2.085-0.62c2.701-4.59,12.979-20.047,27.66-31.328l0.695-0.039
		c-7.269,6.253-16.689,14.679-25.844,29.012c-0.34,0.534-0.786,1.478-0.825,1.552c-0.251,0.465,0.04,0.69,0.187,0.767
		c0.773,0.111,1.081-0.977,1.598-1.199c0.332-0.141,0.465,0.849,0.996,0.592c1.868-0.902,3.26-2.833,4.032-3.993
		C77.742,51.737,78.168,52.722,78.168,52.722z"/>
	<path fill="#FFFFFF" d="M71.123,56.028c-0.012-0.005-0.027-0.013-0.044-0.021c-0.026-0.004-0.052-0.005-0.079-0.012
		C71.061,56.01,71.099,56.021,71.123,56.028z"/>
	<path fill="#FFFFFF" d="M93.543,66.242c-0.697-3.091-1.082-8.268-0.386-11.821c1.391,7.416,2.2,8.497,2.2,8.497l0.311,0.116
		c0.578-0.888,0.733-2.432,0.888-3.824c0.695-2.936,1.931-2.626,1.931-3.246c-0.387-2.394-1.004-6.179-0.617-9.425
		c0.771,3.553,1.157,3.323,1.699,4.635c0.694,1.621,0.772-0.385,0.772-0.385c-0.155-2.086,1.313-4.172-0.078-9.04
		c-0.541-3.323-2.086-10.432-1.466-12.053c0.384-2.009-0.31-1.314-0.31-1.314s-2.009,0.464-5.022,8.962
		c-4.405,14.14-8.19,29.206-12.286,41.411c1.237-6.412,7.803-29.048,9.734-37.238c0,0-0.269-0.578-0.694,0.078
		c-0.501,0.578-1.004,1.314-1.274,1.815c0.038-0.034-0.231,0.039-0.541,0.193l-0.965,1.467c0,0-1.931,2.706-7.224,8.19
		c-0.89,1.392-1.271,2.031-2.243,4.25c-0.346,0.811,0.195,0.927,0.773,0.462c1.429-1.389,1.507-1.389,3.477-2.897
		c0.089-0.066,1.676-0.639,1.676-0.664c-0.245,0.319-0.577,0.526-0.707,0.65c-0.542,0.518-1.882,2.023-2.247,2.662
		c-0.897,1.552-1.88,3.48-3.171,5.819c-1.616,2.93-2.853,6.328-2.853,6.328c-0.848,2.396-0.617,2.629-0.617,2.629
		c1.159,0.462,0.529,1.048,0.529,1.048c-0.529,0.96-0.76,1.732,0.128,1.385c0.58-0.117,0.89-0.416,1.128-0.711
		c0.456-0.564,0.844-0.949,1.156-1.34c0.521-0.645,0.423-0.841,0.977-1.482c0.72-0.834,1.182-1.528,1.915-1.875
		c-1.273,1.737-1.351,2.976-1.351,2.976l0.309,0.384l0.231,0.156c0,0-1.312,1.621-1.931,5.299c-0.293,1.746-0.231,1.965-0.501,2.93
		c0.127-0.125,0.888,0,1.57-0.69c-0.296,1.075-0.355,1.622-0.355,1.622c-0.136,0.885-0.136,0.73-0.136,1.734
		c0,0.931,0,0.543,0.31,1.621c1.392-0.617,1.7-0.539,3.009-2.08c0.621-0.584,1.094-1.996,1.279-1.896
		c0.349,0.151,0.056,0.94-0.098,1.289c-0.212,0.487-0.4,0.846-0.48,1.198c-0.04,0.177-0.216,0.439,0.068,0.683
		c0.121,0.103,0.035,0.091,0.433,0.081c0.232-0.008,0.448-0.366,0.448-0.366s0.13-0.03,0.246-0.298
		c0.1-0.227,0.271-0.35,0.426-0.465c0,0,0.231-0.229,0.5-0.151c0.543,0.617,1.005-0.194,1.005-0.194
		c0.888-1.353,1.084-1.701,1.702-3.518c0.386-1.197,0.85-1.622,1.235-6.645c1.081,1.623,1.235,4.713,1.235,4.713l0.31-0.078
		c0,0,1.004-2.857,2.703-3.785c0,0,0.155-1.932,1.854-3.861C93.93,69.021,93.775,68.095,93.543,66.242z"/>
	<path d="M42.367,42h3.505l0.729-2H36v-2h11.585l0.759-2h-1.622l5.329-12.152l-6.566,5.127L43.98,21.28l-3.44,10.468l-1.66-1.332
		L36.37,36H34v6h2.237c0.095,0,0.191-0.254,0.286-0.434L40.386,41l0.771,0.816l0.62-0.108L42.367,42z M48.266,28.887l-2.007,3.901
		l-0.386-1.818L48.266,28.887z M43.517,27.957l1.005,7.186l-2.434-2.086L43.517,27.957z M39.614,33.333L42.705,36h-4.171
		L39.614,33.333z"/>
	<path d="M45.33,44.144l-2.963-1.932l-0.59-0.384l-0.62,0.015l2.476,2.534c0,0-0.062,0.259-0.163,0.717l1.244,0.83L45.33,44.144z"/>
	<path d="M49.966,111.826c-0.927-1.238-1.237-1.238-1.7-2.782c0.542-0.155,0.388-0.231,2.319,1.312
		c0.31-1.543,0.387-3.553,0.387-3.553c-0.024-1.001,0.011-1.927,0.043-2.74c0.073-1.822,0.133-3.071-0.508-3.287
		c-0.233-2.164-0.464-9.039-0.464-9.039c0.231-2.78,0-5.484-0.386-8.498c-0.849-1.854-1.159-2.706-2.164-3.788
		c2.009,0.62,1.701,0.387,1.701,0.387c0.527-9.634-2.76-14.061-7.289-18.499c-0.12-0.117-0.24-0.234-0.361-0.352
		c-0.39-4.961,1.37-13.397,1.925-15.893c0.102-0.458,0.163-0.717,0.163-0.717l-2.476-2.534l-0.771-0.79l-3.863,0.62
		c-0.095,0.179-0.191,0.36-0.286,0.54C22.39,68.341,6.057,97.363,2.22,128.979c-0.216,1.207-0.383,2.688-0.506,4.359
		c0.478,0.607,1.041,1.145,1.672,1.59c1.345-19.949,7.896-40.302,17.996-60.562C22.694,69.805,35.983,45,37.915,42h1.621
		c-3.475,5-7.185,12.663-8.729,19.384c-1.158,1.082-3.322,5.867-3.322,5.867c-0.542-1.469-0.386-1.895-0.619-2.589
		c-1.082,1.699-0.927,3.648-0.927,4.959c-0.078,1.393-0.078,2.871-0.929,4.104c-0.386,1.471-1.312,2.558-1.699,3.639
		c-0.386,0.927-0.463,0.465-0.618,1.469c1.004,0.154,1.699-1.465,3.168-1.465c-0.385,3.166-1.313,11.201-2.704,12.824
		c-0.31-1.467-1.159-2.857-1.854-3.166l-0.234,0.232c1.623,7.57,1.237,12.208,1.083,14.604c0.231-0.079,1.544-1.084,1.854-0.543
		c-0.31,0.543-1.314,1.16-2.164,1.777c-0.619,2.549-1.005,5.562-1.467,7.262c-1.006-2.316-1.933-6.183-2.937-9.732
		c-0.155,4.864,1.468,11.432,2.317,14.443c-0.078,1.625-0.309,3.634-0.927,7.031c-0.541-1.467-1.623-3.242-3.324-4.789
		c1.625,4.096,3.092,9.352,3.246,12.672c1.392-0.926,1.779-1.159,3.246-2.164c0,1.16-1.746,3.312-1.854,3.4
		c-0.465,0.151-0.791,0.109-0.465,0.959c0.159,1.104,0.355,2.821,0.527,3.821h1.832c-0.073-1-0.118-2.075-0.118-3.282
		c-0.155-0.578,0.078-0.826,0.309-1.292c0.619-1.466,1.317-3.051,1.855-4.661c0.463-1.625,3.052-6.619,3.824-7.779l-0.502,0.475
		c-1.429,0.504-5.1,4.951-5.563,5.262l-0.347,0.041c0.192-4.441,1.429-14.328,2.278-20.395c0.849-2.279,7.495-9.232,5.949-7.996
		c-3.014,1.082-4.018,2.161-4.635,2.471l-0.927,0.311c0.924-4.311,2.845-19.902,4.867-24.105c1.467-2.548,2.936-3.247,4.018-6.025
		l-0.773,0.387c-0.541,0.54-2.935,2.316-4.404,4.324l-0.463,0.078c0.696-2.01,0.927-4.172,2.317-6.954
		c0.386-1.159,1.004-1.621,1.469-2.626c1.158-1.467,1.622-2.009,2.704-2.551c0.539-0.229,1.544-0.617,1.544-0.617
		c-3.085,12.653-4.171,22.742-5.1,36.809C29.837,110.064,30.167,124,31.785,136h1.051c-1.489-11-1.985-22.715-1.566-34.419
		c0.618-18.542,3.399-33.276,9.425-58.309l1.312,0.9c0,0-2.394,10.301-1.93,17.484c3.244,2.784,6.723,6.582,6.877,14.384
		c-0.271,0.116-0.31,0.046-0.541-0.147c-0.928-1.199-3.399-1.58-5.254-4.593c0.27,1.892,5.718,9.466,6.103,10.935
		c0.079,4.711,0.775,11.55,0.387,12.904c-1.312-0.66-2.009-2.164-1.854-1.236c1.004,2.589,1.854,4.658,3.052,6.551
		c0,0,0.117,6.549-0.118,5.549h-0.308c-1.081,0-2.163-1.492-2.975-2.266c-0.501-0.271-0.579-0.822-1.507-1.711
		c-1.39-1.274-2.163-2.305-2.741-2.533c-1.469-1.045-2.474-1.365-3.323-1.637c-0.271,0-0.811-0.064-0.811-0.064
		s2.781,2.363,4.557,5.029c2.125,2.548,3.014,4.06,3.747,5.604c0.812,1.543,1.972,3.094,2.897,4.406
		c0,2.125-0.155,9.195-0.037,10.395l-0.58-0.427c-1.39-0.85-2.897-2.741-4.172-5.215c-0.694,3.556,3.091,7.524,4.83,8.918
		c0.347,3.969,0.487,6.502,0.777,9.502h2.003c-0.07,0-0.135-0.944-0.192-1.503C50.275,130.32,49.966,121.02,49.966,111.826z
		 M35.596,59.055c-1.082,0.388-1.16,0.31-2.319,0.927c0.93-4.095,2.784-9.812,5.332-13.442
		C39.03,45.942,35.983,57.124,35.596,59.055z"/>
	<path fill="#FFFFFF" d="M20.145,131.219c0.108-0.088,1.854-2.242,1.854-3.4c-1.467,1.005-1.854,1.236-3.246,2.164
		c-0.154-3.32-1.622-8.576-3.246-12.672c1.701,1.547,2.783,3.322,3.324,4.789c0.618-3.397,0.849-5.406,0.927-7.031
		c-0.85-3.012-2.472-9.58-2.317-14.443c1.004,3.55,1.931,7.416,2.937,9.732c0.462-1.699,0.848-4.713,1.467-7.262
		c0.85-0.617,1.854-1.234,2.164-1.777c-0.31-0.541-1.623,0.464-1.854,0.543c0.154-2.396,0.54-7.033-1.083-14.604l0.234-0.232
		c0.694,0.311,1.544,1.699,1.854,3.168c1.391-1.625,2.319-9.659,2.704-12.824c-1.469,0-2.164,1.622-3.168,1.466
		c0.155-1.005,0.232-0.54,0.618-1.466c0.386-1.082,1.312-2.164,1.699-3.635c0.851-1.232,0.851-2.702,0.929-4.094
		c0-1.312-0.155-3.244,0.927-4.942c0.232,0.694,0.077,1.157,0.619,2.626c0,0,2.164-4.857,3.322-5.939
		C32.352,54.663,36.061,47,39.536,42h-1.621c-1.932,3-15.221,27.805-16.533,32.364c-10.1,20.262-16.651,40.341-17.996,60.29
		C4.69,135.58,6.28,136,8,136h0.56c-0.331,0,0.01-1.371,0.703-1.876c0.514-0.38,1.146-0.229,1.289,0.224
		c0.197,0.621,0.424,1.652,0.639,1.652h9.017c-0.172-1-0.368-2.717-0.527-3.82C19.354,131.328,19.68,131.371,20.145,131.219z
		 M6.715,135.911c-0.485,0.305-1.481,0.172-1.636-0.522c0.077-1.234,0.351-2.057,0.899-2.902c0.229-0.356,0.647-0.604,0.801-0.107
		c0-0.053,0.23,0.309,0.197,0.542C7.03,132.557,7.822,135.214,6.715,135.911z M9.199,130.102c-0.521,0.76-1.579,1.194-2.189,0.437
		c-0.368-0.459-0.817-1.144-0.484-1.763c0.263-0.498,0.467-0.767,0.872-1.189l0.078,0.078c-0.053-0.891-0.349-2.156,0.988-1.799
		c0.42,0.113,0.516,0.734,0.524,1.029c0.021,0.813,0.207,1.465,0.552,2.174C9.733,129.464,9.402,129.809,9.199,130.102z
		 M15.05,134.445c-0.038,0.19-0.187,0.525-0.403,0.593c-0.434,0.13-0.916,0.042-1.378,0.042c0.188-0.223-0.166-0.086-0.218-0.311
		c-0.247-1.08,0.141-1.312,0.149-2.142c0.005-0.545-0.325-1.06-0.333-1.563c-0.001-0.186,0.319-0.594,0.502-0.408
		c0.24,0.24,0.597,0.338,0.762,0.48c0.358,0.318,0.268,0.98,0.782,1.387C15.494,132.98,15.178,133.798,15.05,134.445z"/>
	<path fill="#FFFFFF" d="M38.609,46.54c-2.548,3.63-4.402,9.347-5.332,13.442c1.159-0.617,1.237-0.54,2.319-0.927
		C35.983,57.124,39.03,45.942,38.609,46.54z"/>
	<path fill="#FFC20E" d="M14.131,131.136c-0.165-0.143-0.522-0.241-0.762-0.481c-0.183-0.186-0.504,0.225-0.502,0.41
		c0.008,0.502,0.339,1.019,0.333,1.562c-0.009,0.83-0.396,1.062-0.149,2.143c0.052,0.224,0.406,0.088,0.218,0.31
		c0.462,0,0.944,0.088,1.378-0.042c0.216-0.066,0.365-0.402,0.403-0.594c0.128-0.646,0.444-1.463-0.137-1.922
		C14.399,132.116,14.489,131.454,14.131,131.136z"/>
	<path fill="#FFC20E" d="M8.987,126.895c-0.008-0.297-0.104-0.916-0.524-1.03c-1.336-0.357-1.041,0.907-0.988,1.799l-0.078-0.078
		c-0.404,0.424-0.608,0.692-0.872,1.19c-0.333,0.619,0.116,1.303,0.484,1.762c0.61,0.758,1.669,0.324,2.189-0.438
		c0.203-0.293,0.534-0.637,0.34-1.033C9.194,128.357,9.008,127.708,8.987,126.895z"/>
	<path fill="#FFC20E" d="M9.263,134.124C8.57,134.629,8.229,136,8.56,136h2.631c-0.215,0-0.442-1.032-0.639-1.652
		C10.408,133.895,9.777,133.744,9.263,134.124z"/>
	<path fill="#FFC20E" d="M6.977,132.921c0.033-0.235-0.197-0.595-0.197-0.542c-0.154-0.495-0.572-0.249-0.801,0.107
		c-0.548,0.847-0.822,1.668-0.899,2.902c0.155,0.694,1.151,0.827,1.636,0.522C7.822,135.214,7.03,132.557,6.977,132.921z"/>
	<path fill="#FFFFFF" d="M43.477,117.58c1.275,2.475,2.782,4.365,4.172,5.216l0.58,0.427c-0.118-1.197,0.037-8.269,0.037-10.394
		c-0.925-1.313-2.085-2.861-2.897-4.405c-0.733-1.544-1.622-3.052-3.747-5.6c-1.776-2.665-4.557-5.022-4.557-5.022
		s0.54,0.078,0.811,0.078c0.85,0.271,1.854,0.617,3.323,1.663c0.578,0.229,1.351,1.312,2.741,2.587
		c0.928,0.888,1.006,1.335,1.507,1.604c0.812,0.773,1.894,2.267,2.975,2.267h0.308c0.234,1,0.118-5.549,0.118-5.549
		c-1.198-1.894-2.047-4.065-3.052-6.656c-0.155-0.927,0.541,0.63,1.854,1.29c0.388-1.354-0.308-8.164-0.387-12.876
		c-0.384-1.469-5.833-9.026-6.103-10.919c1.855,3.014,4.326,3.404,5.254,4.602c0.231,0.194,0.27,0.274,0.541,0.158
		c-0.155-7.802-3.633-11.586-6.877-14.37c-0.463-7.183,1.93-17.459,1.93-17.459l-1.312-0.849
		c-6.026,25.033-8.807,39.667-9.425,58.209C30.852,113.285,31.347,125,32.836,136h4.36c-0.183,0-0.608-0.604-0.366-1.062
		c0.069-0.129,0.328,0.004,0.512-0.047c0.554-0.149,1.201-0.013,1.563,0.383c0.283,0.305,0.479,0.494,0.717,0.879
		c0.005,0.007,0.007-0.152,0.012-0.152h9.45c-0.29-3-0.43-5.533-0.777-9.502C46.567,125.105,42.782,121.136,43.477,117.58z"/>
	<path fill="#FFFFFF" d="M30.342,97.873c0.928-14.066,2.014-24.255,5.1-36.909c0,0-1.005,0.438-1.544,0.667
		c-1.082,0.542-1.546,1.109-2.704,2.576c-0.465,1.005-1.083,1.479-1.469,2.638c-1.391,2.781-1.622,4.95-2.317,6.96l0.463-0.074
		c1.469-2.008,3.863-3.783,4.404-4.323l0.773-0.386c-1.082,2.779-2.551,3.479-4.018,6.026c-2.022,4.203-3.943,19.796-4.867,24.106
		l0.927-0.311c0.617-0.31,1.621-1.389,4.635-2.471c1.545-1.236-5.1,5.717-5.949,7.996c-0.85,6.066-2.086,15.955-2.278,20.396
		l0.347-0.039c0.463-0.311,4.134-4.75,5.563-5.256l0.502-0.462c-0.772,1.16-3.36,6.181-3.824,7.804
		c-0.538,1.609-1.237,3.246-1.855,4.711c-0.231,0.466-0.463,0.615-0.309,1.192c0,1.207,0.045,2.282,0.118,3.282h9.746
		C30.167,124,29.837,110.064,30.342,97.873z"/>
	<path fill="#FFC20E" d="M38.905,135.323c-0.362-0.396-1.01-0.482-1.563-0.332c-0.184,0.05-0.442-0.183-0.512-0.054
		c-0.242,0.461,0.184,1.062,0.366,1.062h2.438c-0.005,0-0.007,0.184-0.012,0.177C39.384,135.792,39.188,135.627,38.905,135.323z"/>
	<polygon fill="#FFFFFF" points="48.266,28.887 45.873,30.97 46.259,32.788 	"/>
	<polygon fill="#FFFFFF" points="39.614,33.333 38.533,36 42.705,36 	"/>
	<polygon fill="#FFFFFF" points="43.517,27.957 42.088,33.057 44.521,35.143 	"/>
	<path fill="#FFFFFF" d="M116.145,23.964c0.146,0.005,0.438-0.147,0.551-0.164c0.962-0.13,1.916,0.196,2.924,0.374
		c0.316,0.056,1.311-0.276,0.997-0.614c-0.237-0.254-1.067-0.125-1.218-0.473c-0.1-0.238-0.217-0.52-0.362-0.636
		c-0.257-0.205-0.617,0.075-0.97,0.13c-0.483,0.075-0.984-0.028-1.461-0.185c-0.834,0.955-3.049,0.324-4.088,0.396
		c-0.131,0.008,0.655,0.454,0.795,0.576C114.047,23.989,115.25,23.934,116.145,23.964z"/>
	<path fill="#FFFFFF" d="M135.495,25.015c0.078-0.033,0.129-0.069,0.133-0.109l-2.153-1.231l-0.142-0.08
		c-0.022-0.039-0.048-0.08-0.073-0.12c-0.123-0.198-0.273-0.413-0.458-0.583c-0.518-0.473-0.788-1.032-1.382-1.409
		c-0.79-0.5-1.439-1.154-2.302-1.472c-0.089-0.031-0.204,0.005-0.304-0.02c-0.061-0.014-0.1-0.069-0.078-0.144
		c-0.079,0-0.182,0.025-0.217-0.014c-0.123-0.133-0.306-0.21-0.418-0.246c-0.449-0.146-0.961,0.119-1.354-0.227
		c-0.23-0.205-0.492-0.321-0.742-0.479c-0.686-0.442-1.463-0.174-2.207-0.058c-0.142,0.021-0.357,0.216-0.517,0.351
		c-0.278,0.238-0.732-0.193-1.104-0.069c-0.154,0.051-0.318,0.167-0.41,0.308c-0.098,0.148-0.115,0.325,0.043,0.484
		c0.002,0.003,0.008,0.006,0.01,0.009c0.328,0.327,0.768,0.551,1.211,0.663c1.332,0.337,2.726,0.008,3.982,0.562
		c0.357,0.158,0.801,0.343,0.948,0.802c-0.081,0.018-0.163,0.066-0.241,0.082c-0.035,0.007-0.07,0.003-0.104-0.011
		c-0.009-0.004-0.021-0.003-0.029-0.01c-0.306-0.219-0.644-0.216-0.942-0.241c-2.113-0.171-4.226-0.346-6.33-0.053
		c-0.004,0.537,0.217,1.107,0.705,1.17c0.65,0.089,1.36-0.116,1.988-0.066c0.689,0.05,1.42,0.495,2.107,0.886
		c0.1,0.055,0.259,0.05,0.369,0.002c0.309-0.13,0.578-0.575,0.918-0.415c0.207,0.099,0.432,0.193,0.654,0.229
		c0.48,0.086,0.828-0.003,1.291,0.066c0.973,0.145,1.801,0.797,2.772,0.653c0.721-0.105,1.055,0.139,1.412,0.465
		c-0.197-0.179,1.231,0.842,1.448,0.662c0.006-0.006,0.017-0.009,0.021-0.018C134.046,25.25,135.116,25.173,135.495,25.015z"/>
	<path fill="#FFFFFF" d="M141.223,24.435c-0.041-0.026-0.074-0.058-0.111-0.087c-0.516-0.414-0.606-1.118-0.92-1.656
		c-0.256-0.44-0.594-0.794-0.996-1.001c-1.817-0.941-3.934-2.579-5.287-2.452c-0.424,0.039-0.598,0.495-0.354,0.733
		c0.465,0.454,1.288,0.606,1.36,1.342c1.81,0.905,4.983,1.508,4.837,3.483C139.738,24.988,140.911,24.393,141.223,24.435z"/>
	<path fill="#FFC20E" d="M36,38v2h10.602h0.077h0.168c0,0,0.371-0.8,0.988-2h-0.152h-0.098H36z"/>
</g>
</svg>
